<?xml version="1.0" encoding="UTF-8" standalone="no"?>
<!DOCTYPE svg PUBLIC "-//W3C//DTD SVG 1.1//EN"
 "http://www.w3.org/Graphics/SVG/1.1/DTD/svg11.dtd">
<!-- Generated by graphviz version 13.1.2 (20250808.2320)
 -->
<!-- Title: src/action.hpp Pages: 1 -->
<svg width="414pt" height="196pt"
 viewBox="0.00 0.00 414.00 196.00" xmlns="http://www.w3.org/2000/svg" xmlns:xlink="http://www.w3.org/1999/xlink">

<svg id="main" version="1.1" xmlns="http://www.w3.org/2000/svg" xmlns:xlink="http://www.w3.org/1999/xlink" xml:space="preserve" onload="init(evt)">
<style type="text/css"><![CDATA[
.node, .edge {opacity: 0.7;}
.node.selected, .edge.selected {opacity: 1;}
.edge:hover path { stroke: red; }
.edge:hover polygon { stroke: red; fill: red; }
]]></style>
<script type="application/ecmascript" xlink:href="svg.min.js"/>
<svg id="graph" class="graph">
<g id="graph0" class="graph" transform="scale(1 1) rotate(0) translate(4 192)">
<title>src/action.hpp</title>
<!-- Node1 -->
<g id="Node000001" class="node">
<title>Node1</title>
<g id="a_Node000001"><a xlink:title=" ">
<polygon fill="#999999" stroke="#666666" points="107.25,-188 29.75,-188 29.75,-168 107.25,-168 107.25,-188"/>
<text xml:space="preserve" text-anchor="middle" x="68.5" y="-174.5" font-family="Helvetica,sans-Serif" font-size="10.00">src/action.hpp</text>
</a>
</g>
</g>
<!-- Node2 -->
<g id="Node000002" class="node">
<title>Node2</title>
<g id="a_Node000002"><a xlink:href="game__engine_8cpp.html" target="_top" xlink:title=" ">
<polygon fill="white" stroke="#666666" points="109,-20 0,-20 0,0 109,0 109,-20"/>
<text xml:space="preserve" text-anchor="middle" x="54.5" y="-6.5" font-family="Helvetica,sans-Serif" font-size="10.00">src/game_engine.cpp</text>
</a>
</g>
</g>
<!-- Node1&#45;&gt;Node2 -->
<g id="edge1_Node000001_Node000002" class="edge">
<title>Node1&#45;&gt;Node2</title>
<g id="a_edge1_Node000001_Node000002"><a xlink:title=" ">
<path fill="none" stroke="#63b8ff" d="M66.77,-156.5C63.72,-120.27 57.48,-46.31 55.28,-20.3"/>
<polygon fill="#63b8ff" stroke="#63b8ff" points="63.25,-156.42 67.58,-166.09 70.23,-155.83 63.25,-156.42"/>
</a>
</g>
</g>
<!-- Node3 -->
<g id="Node000003" class="node">
<title>Node3</title>
<g id="a_Node000003"><a xlink:href="scene_8hpp.html" target="_top" xlink:title=" ">
<polygon fill="white" stroke="#666666" points="160.25,-132 82.75,-132 82.75,-112 160.25,-112 160.25,-132"/>
<text xml:space="preserve" text-anchor="middle" x="121.5" y="-118.5" font-family="Helvetica,sans-Serif" font-size="10.00">src/scene.hpp</text>
</a>
</g>
</g>
<!-- Node1&#45;&gt;Node3 -->
<g id="edge2_Node000001_Node000003" class="edge">
<title>Node1&#45;&gt;Node3</title>
<g id="a_edge2_Node000001_Node000003"><a xlink:title=" ">
<path fill="none" stroke="#63b8ff" d="M85.61,-159.57C94.51,-150.5 105.03,-139.78 112.37,-132.3"/>
<polygon fill="#63b8ff" stroke="#63b8ff" points="83.3,-156.93 78.79,-166.51 88.29,-161.83 83.3,-156.93"/>
</a>
</g>
</g>
<!-- Node3&#45;&gt;Node2 -->
<g id="edge3_Node000003_Node000002" class="edge">
<title>Node3&#45;&gt;Node2</title>
<g id="a_edge3_Node000003_Node000002"><a xlink:title=" ">
<path fill="none" stroke="#63b8ff" d="M99.5,-104.75C90.31,-96.96 80.23,-86.95 73.5,-76 62.54,-58.17 57.64,-33.71 55.67,-20.46"/>
<polygon fill="#63b8ff" stroke="#63b8ff" points="97.07,-107.29 107.06,-110.81 101.44,-101.82 97.07,-107.29"/>
</a>
</g>
</g>
<!-- Node4 -->
<g id="Node000004" class="node">
<title>Node4</title>
<g id="a_Node000004"><a xlink:href="scene_8cpp.html" target="_top" xlink:title=" ">
<polygon fill="white" stroke="#666666" points="160.25,-76 82.75,-76 82.75,-56 160.25,-56 160.25,-76"/>
<text xml:space="preserve" text-anchor="middle" x="121.5" y="-62.5" font-family="Helvetica,sans-Serif" font-size="10.00">src/scene.cpp</text>
</a>
</g>
</g>
<!-- Node3&#45;&gt;Node4 -->
<g id="edge4_Node000003_Node000004" class="edge">
<title>Node3&#45;&gt;Node4</title>
<g id="a_edge4_Node000003_Node000004"><a xlink:title=" ">
<path fill="none" stroke="#63b8ff" d="M121.5,-100.13C121.5,-91.9 121.5,-82.85 121.5,-76.3"/>
<polygon fill="#63b8ff" stroke="#63b8ff" points="118,-100.08 121.5,-110.08 125,-100.08 118,-100.08"/>
</a>
</g>
</g>
<!-- Node5 -->
<g id="Node000005" class="node">
<title>Node5</title>
<g id="a_Node000005"><a xlink:href="scene__menu_8hpp.html" target="_top" xlink:title=" ">
<polygon fill="white" stroke="#666666" points="284.88,-76 178.12,-76 178.12,-56 284.88,-56 284.88,-76"/>
<text xml:space="preserve" text-anchor="middle" x="231.5" y="-62.5" font-family="Helvetica,sans-Serif" font-size="10.00">src/scene_menu.hpp</text>
</a>
</g>
</g>
<!-- Node3&#45;&gt;Node5 -->
<g id="edge5_Node000003_Node000005" class="edge">
<title>Node3&#45;&gt;Node5</title>
<g id="a_edge5_Node000003_Node000005"><a xlink:title=" ">
<path fill="none" stroke="#63b8ff" d="M150.81,-106.61C170.25,-97.07 195.21,-84.81 212.19,-76.48"/>
<polygon fill="#63b8ff" stroke="#63b8ff" points="149.45,-103.38 142.02,-110.93 152.54,-109.66 149.45,-103.38"/>
</a>
</g>
</g>
<!-- Node8 -->
<g id="Node000008" class="node">
<title>Node8</title>
<g id="a_Node000008"><a xlink:href="scene__play_8hpp.html" target="_top" xlink:title=" ">
<polygon fill="white" stroke="#666666" points="402.5,-76 302.5,-76 302.5,-56 402.5,-56 402.5,-76"/>
<text xml:space="preserve" text-anchor="middle" x="352.5" y="-62.5" font-family="Helvetica,sans-Serif" font-size="10.00">src/scene_play.hpp</text>
</a>
</g>
</g>
<!-- Node3&#45;&gt;Node8 -->
<g id="edge9_Node000003_Node000008" class="edge">
<title>Node3&#45;&gt;Node8</title>
<g id="a_edge9_Node000003_Node000008"><a xlink:title=" ">
<path fill="none" stroke="#63b8ff" d="M171.78,-109.25C213.79,-99.43 272.92,-85.6 311.96,-76.48"/>
<polygon fill="#63b8ff" stroke="#63b8ff" points="171.1,-105.81 162.16,-111.5 172.69,-112.63 171.1,-105.81"/>
</a>
</g>
</g>
<!-- Node5&#45;&gt;Node2 -->
<g id="edge6_Node000005_Node000002" class="edge">
<title>Node5&#45;&gt;Node2</title>
<g id="a_edge6_Node000005_Node000002"><a xlink:title=" ">
<path fill="none" stroke="#63b8ff" d="M189.89,-52.31C157.94,-42.56 114.54,-29.32 85.57,-20.48"/>
<polygon fill="#63b8ff" stroke="#63b8ff" points="188.64,-55.58 199.22,-55.15 190.68,-48.89 188.64,-55.58"/>
</a>
</g>
</g>
<!-- Node6 -->
<g id="Node000006" class="node">
<title>Node6</title>
<g id="a_Node000006"><a xlink:href="scene__menu_8cpp.html" target="_top" xlink:title=" ">
<polygon fill="white" stroke="#666666" points="405.88,-20 299.12,-20 299.12,0 405.88,0 405.88,-20"/>
<text xml:space="preserve" text-anchor="middle" x="352.5" y="-6.5" font-family="Helvetica,sans-Serif" font-size="10.00">src/scene_menu.cpp</text>
</a>
</g>
</g>
<!-- Node5&#45;&gt;Node6 -->
<g id="edge7_Node000005_Node000006" class="edge">
<title>Node5&#45;&gt;Node6</title>
<g id="a_edge7_Node000005_Node000006"><a xlink:title=" ">
<path fill="none" stroke="#63b8ff" d="M262.85,-51.01C284.36,-41.41 312.32,-28.93 331.26,-20.48"/>
<polygon fill="#63b8ff" stroke="#63b8ff" points="261.66,-47.71 253.96,-54.98 264.52,-54.1 261.66,-47.71"/>
</a>
</g>
</g>
<!-- Node7 -->
<g id="Node000007" class="node">
<title>Node7</title>
<g id="a_Node000007"><a xlink:href="scene__play_8cpp.html" target="_top" xlink:title=" ">
<polygon fill="white" stroke="#666666" points="281.5,-20 181.5,-20 181.5,0 281.5,0 281.5,-20"/>
<text xml:space="preserve" text-anchor="middle" x="231.5" y="-6.5" font-family="Helvetica,sans-Serif" font-size="10.00">src/scene_play.cpp</text>
</a>
</g>
</g>
<!-- Node5&#45;&gt;Node7 -->
<g id="edge8_Node000005_Node000007" class="edge">
<title>Node5&#45;&gt;Node7</title>
<g id="a_edge8_Node000005_Node000007"><a xlink:title=" ">
<path fill="none" stroke="#63b8ff" d="M231.5,-44.13C231.5,-35.9 231.5,-26.85 231.5,-20.3"/>
<polygon fill="#63b8ff" stroke="#63b8ff" points="228,-44.08 231.5,-54.08 235,-44.08 228,-44.08"/>
</a>
</g>
</g>
<!-- Node8&#45;&gt;Node6 -->
<g id="edge10_Node000008_Node000006" class="edge">
<title>Node8&#45;&gt;Node6</title>
<g id="a_edge10_Node000008_Node000006"><a xlink:title=" ">
<path fill="none" stroke="#63b8ff" d="M352.5,-44.13C352.5,-35.9 352.5,-26.85 352.5,-20.3"/>
<polygon fill="#63b8ff" stroke="#63b8ff" points="349,-44.08 352.5,-54.08 356,-44.08 349,-44.08"/>
</a>
</g>
</g>
<!-- Node8&#45;&gt;Node7 -->
<g id="edge11_Node000008_Node000007" class="edge">
<title>Node8&#45;&gt;Node7</title>
<g id="a_edge11_Node000008_Node000007"><a xlink:title=" ">
<path fill="none" stroke="#63b8ff" d="M321.15,-51.01C299.64,-41.41 271.68,-28.93 252.74,-20.48"/>
<polygon fill="#63b8ff" stroke="#63b8ff" points="319.48,-54.1 330.04,-54.98 322.34,-47.71 319.48,-54.1"/>
</a>
</g>
</g>
</g>
</svg>
</svg>

<style type='text/css'>
<![CDATA[
[data-mouse-over-selected='false'] { opacity: 0.7; }
[data-mouse-over-selected='true']  { opacity: 1.0; }
]]>
</style>
<script type="application/ecmascript"><![CDATA[
document.addEventListener('DOMContentLoaded', (event) => {
  highlightEdges();
  highlightAdjacentNodes();
});
]]></script>
</svg>
