<?xml version="1.0" encoding="UTF-8" standalone="no"?>
<!DOCTYPE svg PUBLIC "-//W3C//DTD SVG 1.1//EN"
 "http://www.w3.org/Graphics/SVG/1.1/DTD/svg11.dtd">
<!-- Generated by graphviz version 13.1.2 (20250808.2320)
 -->
<!-- Title: src/animation.hpp Pages: 1 -->
<!--zoomable 364 -->

<svg id="main" version="1.1" xmlns="http://www.w3.org/2000/svg" xmlns:xlink="http://www.w3.org/1999/xlink" xml:space="preserve" onload="init(evt)">
<style type="text/css"><![CDATA[
.node, .edge {opacity: 0.7;}
.node.selected, .edge.selected {opacity: 1;}
.edge:hover path { stroke: red; }
.edge:hover polygon { stroke: red; fill: red; }
]]></style>

<defs>
  <circle id="rim" cx="0" cy="0" r="7"/>
  <circle id="rim2" cx="0" cy="0" r="3.5"/>
  <g id="zoomPlus">
    <use xlink:href="#rim" fill="#404040"><set attributeName="fill" to="#808080" begin="zoomplus.mouseover" end="zoomplus.mouseout"/></use>
    <path d="M-4,0h8M0,-4v8" fill="none" stroke="white" stroke-width="1.5" pointer-events="none"/>
  </g>
  <g id="zoomMin">
    <use xlink:href="#rim" fill="#404040"><set attributeName="fill" to="#808080" begin="zoomminus.mouseover" end="zoomminus.mouseout"/></use>
    <path d="M-4,0h8" fill="none" stroke="white" stroke-width="1.5" pointer-events="none"/>
  </g>
  <g id="arrowUp" transform="translate(30 24)">
    <use xlink:href="#rim"/>
    <path pointer-events="none" fill="none" stroke="white" stroke-width="1.5" d="M0,-3.0v7 M-2.5,-0.5L0,-3.0L2.5,-0.5"/>
  </g>
  <g id="arrowRight" transform="rotate(90) translate(36 -43)">
    <use xlink:href="#rim"/>
    <path pointer-events="none" fill="none" stroke="white" stroke-width="1.5" d="M0,-3.0v7 M-2.5,-0.5L0,-3.0L2.5,-0.5"/>
  </g>
  <g id="arrowDown" transform="rotate(180) translate(-30 -48)">
    <use xlink:href="#rim"/>
    <path pointer-events="none" fill="none" stroke="white" stroke-width="1.5" d="M0,-3.0v7 M-2.5,-0.5L0,-3.0L2.5,-0.5"/>
  </g>
  <g id="arrowLeft" transform="rotate(270) translate(-36 17)">
    <use xlink:href="#rim"/>
    <path pointer-events="none" fill="none" stroke="white" stroke-width="1.5" d="M0,-3.0v7 M-2.5,-0.5L0,-3.0L2.5,-0.5"/>
  </g>
  <g id="resetDef">
    <use xlink:href="#rim2" fill="#404040"><set attributeName="fill" to="#808080" begin="reset.mouseover" end="reset.mouseout"/></use>
  </g>
</defs>
<script type="application/ecmascript">
var viewWidth = 627;
var viewHeight = 364;
var sectionId = 'dynsection-1';
</script>
<script type="application/ecmascript" xlink:href="svg.min.js"/>
<svg id="graph" class="graph">
<g id="viewport">
<title>src/animation.hpp</title>
<!-- Node1 -->
<g id="Node000001" class="node">
<title>Node1</title>
<g id="a_Node000001"><a xlink:title=" ">
<polygon fill="#999999" stroke="#666666" points="299.62,-356 206.38,-356 206.38,-336 299.62,-336 299.62,-356"/>
<text xml:space="preserve" text-anchor="middle" x="253" y="-342.5" font-family="Helvetica,sans-Serif" font-size="10.00">src/animation.hpp</text>
</a>
</g>
</g>
<!-- Node2 -->
<g id="Node000002" class="node">
<title>Node2</title>
<g id="a_Node000002"><a xlink:href="animation_8cpp.html" target="_top" xlink:title=" ">
<polygon fill="white" stroke="#666666" points="224.62,-300 131.38,-300 131.38,-280 224.62,-280 224.62,-300"/>
<text xml:space="preserve" text-anchor="middle" x="178" y="-286.5" font-family="Helvetica,sans-Serif" font-size="10.00">src/animation.cpp</text>
</a>
</g>
</g>
<!-- Node1&#45;&gt;Node2 -->
<g id="edge1_Node000001_Node000002" class="edge">
<title>Node1&#45;&gt;Node2</title>
<g id="a_edge1_Node000001_Node000002"><a xlink:title=" ">
<path fill="none" stroke="#63b8ff" d="M230.78,-329C217.89,-319.72 202.1,-308.35 191.17,-300.48"/>
<polygon fill="#63b8ff" stroke="#63b8ff" points="228.55,-331.71 238.71,-334.71 232.64,-326.03 228.55,-331.71"/>
</a>
</g>
</g>
<!-- Node3 -->
<g id="Node000003" class="node">
<title>Node3</title>
<g id="a_Node000003"><a xlink:href="asset__manager_8hpp.html" target="_top" xlink:title=" ">
<polygon fill="white" stroke="#666666" points="288,-132 170,-132 170,-112 288,-112 288,-132"/>
<text xml:space="preserve" text-anchor="middle" x="229" y="-118.5" font-family="Helvetica,sans-Serif" font-size="10.00">src/asset_manager.hpp</text>
</a>
</g>
</g>
<!-- Node1&#45;&gt;Node3 -->
<g id="edge2_Node000001_Node000003" class="edge">
<title>Node1&#45;&gt;Node3</title>
<g id="a_edge2_Node000001_Node000003"><a xlink:title=" ">
<path fill="none" stroke="#63b8ff" d="M250.78,-324.45C245.73,-277.79 233.58,-165.36 230,-132.3"/>
<polygon fill="#63b8ff" stroke="#63b8ff" points="247.28,-324.67 251.84,-334.24 254.24,-323.92 247.28,-324.67"/>
</a>
</g>
</g>
<!-- Node11 -->
<g id="Node000011" class="node">
<title>Node11</title>
<g id="a_Node000011"><a xlink:href="components_8hpp.html" target="_top" xlink:title=" ">
<polygon fill="white" stroke="#666666" points="391.25,-300 286.75,-300 286.75,-280 391.25,-280 391.25,-300"/>
<text xml:space="preserve" text-anchor="middle" x="339" y="-286.5" font-family="Helvetica,sans-Serif" font-size="10.00">src/components.hpp</text>
</a>
</g>
</g>
<!-- Node1&#45;&gt;Node11 -->
<g id="edge10_Node000001_Node000011" class="edge">
<title>Node1&#45;&gt;Node11</title>
<g id="a_edge10_Node000001_Node000011"><a xlink:title=" ">
<path fill="none" stroke="#63b8ff" d="M277.62,-329.54C292.55,-320.17 311.12,-308.51 323.9,-300.48"/>
<polygon fill="#63b8ff" stroke="#63b8ff" points="275.87,-326.51 269.26,-334.79 279.59,-332.44 275.87,-326.51"/>
</a>
</g>
</g>
<!-- Node4 -->
<g id="Node000004" class="node">
<title>Node4</title>
<g id="a_Node000004"><a xlink:href="asset__manager_8cpp.html" target="_top" xlink:title=" ">
<polygon fill="white" stroke="#666666" points="118,-76 0,-76 0,-56 118,-56 118,-76"/>
<text xml:space="preserve" text-anchor="middle" x="59" y="-62.5" font-family="Helvetica,sans-Serif" font-size="10.00">src/asset_manager.cpp</text>
</a>
</g>
</g>
<!-- Node3&#45;&gt;Node4 -->
<g id="edge3_Node000003_Node000004" class="edge">
<title>Node3&#45;&gt;Node4</title>
<g id="a_edge3_Node000003_Node000004"><a xlink:title=" ">
<path fill="none" stroke="#63b8ff" d="M188.63,-108.18C157.99,-98.44 116.54,-85.28 88.84,-76.48"/>
<polygon fill="#63b8ff" stroke="#63b8ff" points="187.36,-111.44 197.95,-111.14 189.47,-104.77 187.36,-111.44"/>
</a>
</g>
</g>
<!-- Node5 -->
<g id="Node000005" class="node">
<title>Node5</title>
<g id="a_Node000005"><a xlink:href="game__engine_8hpp.html" target="_top" xlink:title=" ">
<polygon fill="white" stroke="#666666" points="283.5,-76 174.5,-76 174.5,-56 283.5,-56 283.5,-76"/>
<text xml:space="preserve" text-anchor="middle" x="229" y="-62.5" font-family="Helvetica,sans-Serif" font-size="10.00">src/game_engine.hpp</text>
</a>
</g>
</g>
<!-- Node3&#45;&gt;Node5 -->
<g id="edge4_Node000003_Node000005" class="edge">
<title>Node3&#45;&gt;Node5</title>
<g id="a_edge4_Node000003_Node000005"><a xlink:title=" ">
<path fill="none" stroke="#63b8ff" d="M229,-100.13C229,-91.9 229,-82.85 229,-76.3"/>
<polygon fill="#63b8ff" stroke="#63b8ff" points="225.5,-100.08 229,-110.08 232.5,-100.08 225.5,-100.08"/>
</a>
</g>
</g>
<!-- Node6 -->
<g id="Node000006" class="node">
<title>Node6</title>
<g id="a_Node000006"><a xlink:href="game__engine_8cpp.html" target="_top" xlink:title=" ">
<polygon fill="white" stroke="#666666" points="366.5,-20 257.5,-20 257.5,0 366.5,0 366.5,-20"/>
<text xml:space="preserve" text-anchor="middle" x="312" y="-6.5" font-family="Helvetica,sans-Serif" font-size="10.00">src/game_engine.cpp</text>
</a>
</g>
</g>
<!-- Node5&#45;&gt;Node6 -->
<g id="edge5_Node000005_Node000006" class="edge">
<title>Node5&#45;&gt;Node6</title>
<g id="a_edge5_Node000005_Node000006"><a xlink:title=" ">
<path fill="none" stroke="#63b8ff" d="M252.76,-49.54C267.17,-40.17 285.09,-28.51 297.43,-20.48"/>
<polygon fill="#63b8ff" stroke="#63b8ff" points="251.2,-46.38 244.73,-54.77 255.02,-52.25 251.2,-46.38"/>
</a>
</g>
</g>
<!-- Node7 -->
<g id="Node000007" class="node">
<title>Node7</title>
<g id="a_Node000007"><a xlink:href="main_8cpp.html" target="_top" xlink:title=" ">
<polygon fill="white" stroke="#666666" points="239.12,-20 166.88,-20 166.88,0 239.12,0 239.12,-20"/>
<text xml:space="preserve" text-anchor="middle" x="203" y="-6.5" font-family="Helvetica,sans-Serif" font-size="10.00">src/main.cpp</text>
</a>
</g>
</g>
<!-- Node5&#45;&gt;Node7 -->
<g id="edge6_Node000005_Node000007" class="edge">
<title>Node5&#45;&gt;Node7</title>
<g id="a_edge6_Node000005_Node000007"><a xlink:title=" ">
<path fill="none" stroke="#63b8ff" d="M219.51,-45.29C215.4,-36.75 210.78,-27.16 207.48,-20.3"/>
<polygon fill="#63b8ff" stroke="#63b8ff" points="216.32,-46.74 223.81,-54.23 222.63,-43.7 216.32,-46.74"/>
</a>
</g>
</g>
<!-- Node8 -->
<g id="Node000008" class="node">
<title>Node8</title>
<g id="a_Node000008"><a xlink:href="scene_8cpp.html" target="_top" xlink:title=" ">
<polygon fill="white" stroke="#666666" points="148.75,-20 71.25,-20 71.25,0 148.75,0 148.75,-20"/>
<text xml:space="preserve" text-anchor="middle" x="110" y="-6.5" font-family="Helvetica,sans-Serif" font-size="10.00">src/scene.cpp</text>
</a>
</g>
</g>
<!-- Node5&#45;&gt;Node8 -->
<g id="edge7_Node000005_Node000008" class="edge">
<title>Node5&#45;&gt;Node8</title>
<g id="a_edge7_Node000005_Node000008"><a xlink:title=" ">
<path fill="none" stroke="#63b8ff" d="M197.88,-50.88C176.77,-41.3 149.43,-28.89 130.89,-20.48"/>
<polygon fill="#63b8ff" stroke="#63b8ff" points="196.34,-54.02 206.89,-54.97 199.23,-47.65 196.34,-54.02"/>
</a>
</g>
</g>
<!-- Node9 -->
<g id="Node000009" class="node">
<title>Node9</title>
<g id="a_Node000009"><a xlink:href="scene__menu_8cpp.html" target="_top" xlink:title=" ">
<polygon fill="white" stroke="#666666" points="491.38,-20 384.62,-20 384.62,0 491.38,0 491.38,-20"/>
<text xml:space="preserve" text-anchor="middle" x="438" y="-6.5" font-family="Helvetica,sans-Serif" font-size="10.00">src/scene_menu.cpp</text>
</a>
</g>
</g>
<!-- Node5&#45;&gt;Node9 -->
<g id="edge8_Node000005_Node000009" class="edge">
<title>Node5&#45;&gt;Node9</title>
<g id="a_edge8_Node000005_Node000009"><a xlink:title=" ">
<path fill="none" stroke="#63b8ff" d="M276.17,-52.81C314.06,-43.02 366.51,-29.47 401.31,-20.48"/>
<polygon fill="#63b8ff" stroke="#63b8ff" points="275.68,-49.32 266.87,-55.22 277.43,-56.1 275.68,-49.32"/>
</a>
</g>
</g>
<!-- Node10 -->
<g id="Node000010" class="node">
<title>Node10</title>
<g id="a_Node000010"><a xlink:href="scene__play_8cpp.html" target="_top" xlink:title=" ">
<polygon fill="white" stroke="#666666" points="609,-20 509,-20 509,0 609,0 609,-20"/>
<text xml:space="preserve" text-anchor="middle" x="559" y="-6.5" font-family="Helvetica,sans-Serif" font-size="10.00">src/scene_play.cpp</text>
</a>
</g>
</g>
<!-- Node5&#45;&gt;Node10 -->
<g id="edge9_Node000005_Node000010" class="edge">
<title>Node5&#45;&gt;Node10</title>
<g id="a_edge9_Node000005_Node000010"><a xlink:title=" ">
<path fill="none" stroke="#63b8ff" d="M294.86,-54.22C357.82,-43.92 451.39,-28.61 508.61,-19.25"/>
<polygon fill="#63b8ff" stroke="#63b8ff" points="294.66,-50.71 285.36,-55.78 295.79,-57.62 294.66,-50.71"/>
</a>
</g>
</g>
<!-- Node12 -->
<g id="Node000012" class="node">
<title>Node12</title>
<g id="a_Node000012"><a xlink:href="entity_8hpp.html" target="_top" xlink:title=" ">
<polygon fill="white" stroke="#666666" points="379.25,-244 304.75,-244 304.75,-224 379.25,-224 379.25,-244"/>
<text xml:space="preserve" text-anchor="middle" x="342" y="-230.5" font-family="Helvetica,sans-Serif" font-size="10.00">src/entity.hpp</text>
</a>
</g>
</g>
<!-- Node11&#45;&gt;Node12 -->
<g id="edge11_Node000011_Node000012" class="edge">
<title>Node11&#45;&gt;Node12</title>
<g id="a_edge11_Node000011_Node000012"><a xlink:title=" ">
<path fill="none" stroke="#63b8ff" d="M340.16,-268.13C340.62,-259.9 341.12,-250.85 341.48,-244.3"/>
<polygon fill="#63b8ff" stroke="#63b8ff" points="336.67,-267.9 339.61,-278.08 343.66,-268.29 336.67,-267.9"/>
</a>
</g>
</g>
<!-- Node13 -->
<g id="Node000013" class="node">
<title>Node13</title>
<g id="a_Node000013"><a xlink:href="entity_8cpp.html" target="_top" xlink:title=" ">
<polygon fill="white" stroke="#666666" points="367.25,-188 292.75,-188 292.75,-168 367.25,-168 367.25,-188"/>
<text xml:space="preserve" text-anchor="middle" x="330" y="-174.5" font-family="Helvetica,sans-Serif" font-size="10.00">src/entity.cpp</text>
</a>
</g>
</g>
<!-- Node12&#45;&gt;Node13 -->
<g id="edge12_Node000012_Node000013" class="edge">
<title>Node12&#45;&gt;Node13</title>
<g id="a_edge12_Node000012_Node000013"><a xlink:title=" ">
<path fill="none" stroke="#63b8ff" d="M337.43,-212.43C335.58,-204.11 333.54,-194.93 332.07,-188.3"/>
<polygon fill="#63b8ff" stroke="#63b8ff" points="334,-213.11 339.58,-222.12 340.83,-211.6 334,-213.11"/>
</a>
</g>
</g>
<!-- Node14 -->
<g id="Node000014" class="node">
<title>Node14</title>
<g id="a_Node000014"><a xlink:href="entity__manager_8hpp.html" target="_top" xlink:title=" ">
<polygon fill="white" stroke="#666666" points="503,-188 385,-188 385,-168 503,-168 503,-188"/>
<text xml:space="preserve" text-anchor="middle" x="444" y="-174.5" font-family="Helvetica,sans-Serif" font-size="10.00">src/entity_manager.hpp</text>
</a>
</g>
</g>
<!-- Node12&#45;&gt;Node14 -->
<g id="edge13_Node000012_Node000014" class="edge">
<title>Node12&#45;&gt;Node14</title>
<g id="a_edge13_Node000012_Node000014"><a xlink:title=" ">
<path fill="none" stroke="#63b8ff" d="M369.93,-218.21C387.84,-208.73 410.57,-196.7 426.09,-188.48"/>
<polygon fill="#63b8ff" stroke="#63b8ff" points="368.3,-215.11 361.1,-222.89 371.58,-221.3 368.3,-215.11"/>
</a>
</g>
</g>
<!-- Node19 -->
<g id="Node000019" class="node">
<title>Node19</title>
<g id="a_Node000019"><a xlink:href="physics_8hpp.html" target="_top" xlink:title=" ">
<polygon fill="white" stroke="#666666" points="618.5,-188 533.5,-188 533.5,-168 618.5,-168 618.5,-188"/>
<text xml:space="preserve" text-anchor="middle" x="576" y="-174.5" font-family="Helvetica,sans-Serif" font-size="10.00">src/physics.hpp</text>
</a>
</g>
</g>
<!-- Node12&#45;&gt;Node19 -->
<g id="edge25_Node000012_Node000019" class="edge">
<title>Node12&#45;&gt;Node19</title>
<g id="a_edge25_Node000012_Node000019"><a xlink:title=" ">
<path fill="none" stroke="#63b8ff" d="M390.56,-221.79C433.25,-211.94 494.68,-197.77 534.95,-188.47"/>
<polygon fill="#63b8ff" stroke="#63b8ff" points="390.03,-218.32 381.07,-223.98 391.6,-225.15 390.03,-218.32"/>
</a>
</g>
</g>
<!-- Node15 -->
<g id="Node000015" class="node">
<title>Node15</title>
<g id="a_Node000015"><a xlink:href="entity__manager_8cpp.html" target="_top" xlink:title=" ">
<polygon fill="white" stroke="#666666" points="542,-132 424,-132 424,-112 542,-112 542,-132"/>
<text xml:space="preserve" text-anchor="middle" x="483" y="-118.5" font-family="Helvetica,sans-Serif" font-size="10.00">src/entity_manager.cpp</text>
</a>
</g>
</g>
<!-- Node14&#45;&gt;Node15 -->
<g id="edge14_Node000014_Node000015" class="edge">
<title>Node14&#45;&gt;Node15</title>
<g id="a_edge14_Node000014_Node000015"><a xlink:title=" ">
<path fill="none" stroke="#63b8ff" d="M457.41,-158.44C463.77,-149.62 471.11,-139.47 476.28,-132.3"/>
<polygon fill="#63b8ff" stroke="#63b8ff" points="454.7,-156.21 451.68,-166.37 460.37,-160.31 454.7,-156.21"/>
</a>
</g>
</g>
<!-- Node16 -->
<g id="Node000016" class="node">
<title>Node16</title>
<g id="a_Node000016"><a xlink:href="scene_8hpp.html" target="_top" xlink:title=" ">
<polygon fill="white" stroke="#666666" points="405.75,-132 328.25,-132 328.25,-112 405.75,-112 405.75,-132"/>
<text xml:space="preserve" text-anchor="middle" x="367" y="-118.5" font-family="Helvetica,sans-Serif" font-size="10.00">src/scene.hpp</text>
</a>
</g>
</g>
<!-- Node14&#45;&gt;Node16 -->
<g id="edge15_Node000014_Node000016" class="edge">
<title>Node14&#45;&gt;Node16</title>
<g id="a_edge15_Node000014_Node000016"><a xlink:title=" ">
<path fill="none" stroke="#63b8ff" d="M421.18,-161C407.95,-151.72 391.74,-140.35 380.52,-132.48"/>
<polygon fill="#63b8ff" stroke="#63b8ff" points="419.15,-163.85 429.35,-166.72 423.17,-158.12 419.15,-163.85"/>
</a>
</g>
</g>
<!-- Node16&#45;&gt;Node6 -->
<g id="edge16_Node000016_Node000006" class="edge">
<title>Node16&#45;&gt;Node6</title>
<g id="a_edge16_Node000016_Node000006"><a xlink:title=" ">
<path fill="none" stroke="#63b8ff" d="M350.31,-103.46C343.53,-95.57 336.11,-85.82 331,-76 321.34,-57.43 315.93,-33.26 313.53,-20.25"/>
<polygon fill="#63b8ff" stroke="#63b8ff" points="347.49,-105.56 356.78,-110.65 352.69,-100.87 347.49,-105.56"/>
</a>
</g>
</g>
<!-- Node16&#45;&gt;Node8 -->
<g id="edge17_Node000016_Node000008" class="edge">
<title>Node16&#45;&gt;Node8</title>
<g id="a_edge17_Node000016_Node000008"><a xlink:title=" ">
<path fill="none" stroke="#63b8ff" d="M316.9,-113.59C265.67,-105.36 190.15,-91.21 165,-76 141.72,-61.93 123.49,-34.5 115.08,-20.19"/>
<polygon fill="#63b8ff" stroke="#63b8ff" points="316.16,-117.02 326.58,-115.12 317.25,-110.1 316.16,-117.02"/>
</a>
</g>
</g>
<!-- Node17 -->
<g id="Node000017" class="node">
<title>Node17</title>
<g id="a_Node000017"><a xlink:href="scene__menu_8hpp.html" target="_top" xlink:title=" ">
<polygon fill="white" stroke="#666666" points="446.38,-76 339.62,-76 339.62,-56 446.38,-56 446.38,-76"/>
<text xml:space="preserve" text-anchor="middle" x="393" y="-62.5" font-family="Helvetica,sans-Serif" font-size="10.00">src/scene_menu.hpp</text>
</a>
</g>
</g>
<!-- Node16&#45;&gt;Node17 -->
<g id="edge18_Node000016_Node000017" class="edge">
<title>Node16&#45;&gt;Node17</title>
<g id="a_edge18_Node000016_Node000017"><a xlink:title=" ">
<path fill="none" stroke="#63b8ff" d="M376.49,-101.29C380.6,-92.75 385.22,-83.16 388.52,-76.3"/>
<polygon fill="#63b8ff" stroke="#63b8ff" points="373.37,-99.7 372.19,-110.23 379.68,-102.74 373.37,-99.7"/>
</a>
</g>
</g>
<!-- Node18 -->
<g id="Node000018" class="node">
<title>Node18</title>
<g id="a_Node000018"><a xlink:href="scene__play_8hpp.html" target="_top" xlink:title=" ">
<polygon fill="white" stroke="#666666" points="564,-76 464,-76 464,-56 564,-56 564,-76"/>
<text xml:space="preserve" text-anchor="middle" x="514" y="-62.5" font-family="Helvetica,sans-Serif" font-size="10.00">src/scene_play.hpp</text>
</a>
</g>
</g>
<!-- Node16&#45;&gt;Node18 -->
<g id="edge22_Node000016_Node000018" class="edge">
<title>Node16&#45;&gt;Node18</title>
<g id="a_edge22_Node000016_Node000018"><a xlink:title=" ">
<path fill="none" stroke="#63b8ff" d="M403.31,-107.66C429.66,-97.98 464.67,-85.12 488.19,-76.48"/>
<polygon fill="#63b8ff" stroke="#63b8ff" points="402.21,-104.34 394.03,-111.07 404.62,-110.91 402.21,-104.34"/>
</a>
</g>
</g>
<!-- Node17&#45;&gt;Node6 -->
<g id="edge19_Node000017_Node000006" class="edge">
<title>Node17&#45;&gt;Node6</title>
<g id="a_edge19_Node000017_Node000006"><a xlink:title=" ">
<path fill="none" stroke="#63b8ff" d="M369.41,-49.27C355.41,-39.94 338.14,-28.43 326.22,-20.48"/>
<polygon fill="#63b8ff" stroke="#63b8ff" points="367.37,-52.12 377.63,-54.75 371.25,-46.3 367.37,-52.12"/>
</a>
</g>
</g>
<!-- Node17&#45;&gt;Node9 -->
<g id="edge20_Node000017_Node000009" class="edge">
<title>Node17&#45;&gt;Node9</title>
<g id="a_edge20_Node000017_Node000009"><a xlink:title=" ">
<path fill="none" stroke="#63b8ff" d="M408,-47C415.45,-38.06 424.15,-27.62 430.25,-20.3"/>
<polygon fill="#63b8ff" stroke="#63b8ff" points="405.52,-44.51 401.81,-54.43 410.9,-48.99 405.52,-44.51"/>
</a>
</g>
</g>
<!-- Node17&#45;&gt;Node10 -->
<g id="edge21_Node000017_Node000010" class="edge">
<title>Node17&#45;&gt;Node10</title>
<g id="a_edge21_Node000017_Node000010"><a xlink:title=" ">
<path fill="none" stroke="#63b8ff" d="M432.81,-52.05C462.7,-42.33 502.93,-29.24 529.86,-20.48"/>
<polygon fill="#63b8ff" stroke="#63b8ff" points="431.78,-48.7 423.35,-55.13 433.95,-55.36 431.78,-48.7"/>
</a>
</g>
</g>
<!-- Node18&#45;&gt;Node9 -->
<g id="edge23_Node000018_Node000009" class="edge">
<title>Node18&#45;&gt;Node9</title>
<g id="a_edge23_Node000018_Node000009"><a xlink:title=" ">
<path fill="none" stroke="#63b8ff" d="M491.48,-49C478.42,-39.72 462.42,-28.35 451.34,-20.48"/>
<polygon fill="#63b8ff" stroke="#63b8ff" points="489.35,-51.78 499.53,-54.72 493.4,-46.07 489.35,-51.78"/>
</a>
</g>
</g>
<!-- Node18&#45;&gt;Node10 -->
<g id="edge24_Node000018_Node000010" class="edge">
<title>Node18&#45;&gt;Node10</title>
<g id="a_edge24_Node000018_Node000010"><a xlink:title=" ">
<path fill="none" stroke="#63b8ff" d="M529,-47C536.45,-38.06 545.15,-27.62 551.25,-20.3"/>
<polygon fill="#63b8ff" stroke="#63b8ff" points="526.52,-44.51 522.81,-54.43 531.9,-48.99 526.52,-44.51"/>
</a>
</g>
</g>
<!-- Node19&#45;&gt;Node10 -->
<g id="edge26_Node000019_Node000010" class="edge">
<title>Node19&#45;&gt;Node10</title>
<g id="a_edge26_Node000019_Node000010"><a xlink:title=" ">
<path fill="none" stroke="#63b8ff" d="M577.22,-156.21C578.24,-131.98 578.73,-90.8 573,-56 570.93,-43.41 566.18,-29.45 562.79,-20.47"/>
<polygon fill="#63b8ff" stroke="#63b8ff" points="573.73,-155.83 576.72,-165.99 580.72,-156.18 573.73,-155.83"/>
</a>
</g>
</g>
</g>
</svg>

<g id="navigator" transform="translate(0 0)" fill="#404254">
  <rect fill="#f2f5e9" fill-opacity="0.5" stroke="#606060" stroke-width=".5" x="0" y="0" width="60" height="60"/>
  <use id="zoomplus" xlink:href="#zoomPlus" x="17" y="9" onmousedown="handleZoom(evt,'in')"/>
  <use id="zoomminus" xlink:href="#zoomMin" x="42" y="9" onmousedown="handleZoom(evt,'out')"/>
  <use id="reset" xlink:href="#resetDef" x="30" y="36" onmousedown="handleReset()"/>
   <use id="arrowup" xlink:href="#arrowUp" x="0" y="0" onmousedown="handlePan(0,-1)"/>
  <use id="arrowright" xlink:href="#arrowRight" x="0" y="0" onmousedown="handlePan(1,0)"/>
  <use id="arrowdown" xlink:href="#arrowDown" x="0" y="0" onmousedown="handlePan(0,1)"/>
  <use id="arrowleft" xlink:href="#arrowLeft" x="0" y="0" onmousedown="handlePan(-1,0)"/>
</g>
<svg viewBox="0 0 15 15" width="100%" height="30px" preserveAspectRatio="xMaxYMin meet">
 <g id="arrow_out" transform="scale(0.3 0.3)">
  <a xlink:href="animation_8hpp__dep__incl_org.svg" target="_base">
   <rect id="button" ry="5" rx="5" y="6" x="6" height="38" width="38"
        fill="#f2f5e9" fill-opacity="0.5" stroke="#606060" stroke-width="1.0"/>
   <path id="arrow"
     d="M 11.500037,31.436501 C 11.940474,20.09759 22.043105,11.32322 32.158766,21.979434 L 37.068811,17.246167 C 37.068811,17.246167 37.088388,32 37.088388,32 L 22.160133,31.978069 C 22.160133,31.978069 26.997745,27.140456 26.997745,27.140456 C 18.528582,18.264221 13.291696,25.230495 11.500037,31.436501 z"
     style="fill:#404040;"/>
  </a>
 </g>
</svg>

<style type='text/css'>
<![CDATA[
[data-mouse-over-selected='false'] { opacity: 0.7; }
[data-mouse-over-selected='true']  { opacity: 1.0; }
]]>
</style>
<script type="application/ecmascript"><![CDATA[
document.addEventListener('DOMContentLoaded', (event) => {
  highlightEdges();
  highlightAdjacentNodes();
});
]]></script>
</svg>
