<?xml version="1.0" encoding="UTF-8" standalone="no"?>
<!DOCTYPE svg PUBLIC "-//W3C//DTD SVG 1.1//EN"
 "http://www.w3.org/Graphics/SVG/1.1/DTD/svg11.dtd">
<!-- Generated by graphviz version 13.1.2 (20250808.2320)
 -->
<!-- Title: src/asset_manager.hpp Pages: 1 -->
<svg width="943pt" height="140pt"
 viewBox="0.00 0.00 943.00 140.00" xmlns="http://www.w3.org/2000/svg" xmlns:xlink="http://www.w3.org/1999/xlink">
<g id="graph0" class="graph" transform="scale(1 1) rotate(0) translate(4 136)">
<title>src/asset_manager.hpp</title>
<!-- Node1 -->
<g id="Node000001" class="node">
<title>Node1</title>
<g id="a_Node000001"><a xlink:title=" ">
<polygon fill="#999999" stroke="#666666" points="458.38,-132 340.38,-132 340.38,-112 458.38,-112 458.38,-132"/>
<text xml:space="preserve" text-anchor="middle" x="399.38" y="-118.5" font-family="Helvetica,sans-Serif" font-size="10.00">src/asset_manager.hpp</text>
</a>
</g>
</g>
<!-- Node2 -->
<g id="Node000002" class="node">
<title>Node2</title>
<g id="a_Node000002"><a xlink:title=" ">
<polygon fill="#e0e0e0" stroke="#999999" points="82.75,-76 0,-76 0,-56 82.75,-56 82.75,-76"/>
<text xml:space="preserve" text-anchor="middle" x="41.38" y="-62.5" font-family="Helvetica,sans-Serif" font-size="10.00">unordered_map</text>
</a>
</g>
</g>
<!-- Node1&#45;&gt;Node2 -->
<g id="edge1_Node000001_Node000002" class="edge">
<title>Node1&#45;&gt;Node2</title>
<g id="a_edge1_Node000001_Node000002"><a xlink:title=" ">
<path fill="none" stroke="#63b8ff" d="M340.16,-112.84C280.69,-104.53 186.14,-91 94.29,-76.27"/>
<polygon fill="#63b8ff" stroke="#63b8ff" points="95.03,-72.84 84.6,-74.71 93.92,-79.75 95.03,-72.84"/>
</a>
</g>
</g>
<!-- Node3 -->
<g id="Node000003" class="node">
<title>Node3</title>
<g id="a_Node000003"><a xlink:title=" ">
<polygon fill="#e0e0e0" stroke="#999999" points="161.88,-76 100.88,-76 100.88,-56 161.88,-56 161.88,-76"/>
<text xml:space="preserve" text-anchor="middle" x="131.38" y="-62.5" font-family="Helvetica,sans-Serif" font-size="10.00">filesystem</text>
</a>
</g>
</g>
<!-- Node1&#45;&gt;Node3 -->
<g id="edge2_Node000001_Node000003" class="edge">
<title>Node1&#45;&gt;Node3</title>
<g id="a_edge2_Node000001_Node000003"><a xlink:title=" ">
<path fill="none" stroke="#63b8ff" d="M349.48,-111.55C305.68,-103.16 239.95,-90.36 173.47,-76.4"/>
<polygon fill="#63b8ff" stroke="#63b8ff" points="174.35,-73.01 163.85,-74.37 172.91,-79.86 174.35,-73.01"/>
</a>
</g>
</g>
<!-- Node4 -->
<g id="Node000004" class="node">
<title>Node4</title>
<g id="a_Node000004"><a xlink:title=" ">
<polygon fill="#e0e0e0" stroke="#999999" points="318.5,-76 180.25,-76 180.25,-56 318.5,-56 318.5,-76"/>
<text xml:space="preserve" text-anchor="middle" x="249.38" y="-62.5" font-family="Helvetica,sans-Serif" font-size="10.00">SFML/Graphics/Texture.hpp</text>
</a>
</g>
</g>
<!-- Node1&#45;&gt;Node4 -->
<g id="edge3_Node000001_Node000004" class="edge">
<title>Node1&#45;&gt;Node4</title>
<g id="a_edge3_Node000001_Node000004"><a xlink:title=" ">
<path fill="none" stroke="#63b8ff" d="M373.25,-111.59C349.2,-102.94 313.27,-90 286.29,-80.29"/>
<polygon fill="#63b8ff" stroke="#63b8ff" points="287.73,-77.09 277.13,-76.99 285.35,-83.67 287.73,-77.09"/>
</a>
</g>
</g>
<!-- Node5 -->
<g id="Node000005" class="node">
<title>Node5</title>
<g id="a_Node000005"><a xlink:title=" ">
<polygon fill="#e0e0e0" stroke="#999999" points="462.12,-76 336.62,-76 336.62,-56 462.12,-56 462.12,-76"/>
<text xml:space="preserve" text-anchor="middle" x="399.38" y="-62.5" font-family="Helvetica,sans-Serif" font-size="10.00">SFML/Graphics/Font.hpp</text>
</a>
</g>
</g>
<!-- Node1&#45;&gt;Node5 -->
<g id="edge4_Node000001_Node000005" class="edge">
<title>Node1&#45;&gt;Node5</title>
<g id="a_edge4_Node000001_Node000005"><a xlink:title=" ">
<path fill="none" stroke="#63b8ff" d="M399.38,-111.59C399.38,-105.01 399.38,-95.96 399.38,-87.73"/>
<polygon fill="#63b8ff" stroke="#63b8ff" points="402.88,-87.81 399.38,-77.81 395.88,-87.81 402.88,-87.81"/>
</a>
</g>
</g>
<!-- Node6 -->
<g id="Node000006" class="node">
<title>Node6</title>
<g id="a_Node000006"><a xlink:title=" ">
<polygon fill="#e0e0e0" stroke="#999999" points="624.88,-76 479.88,-76 479.88,-56 624.88,-56 624.88,-76"/>
<text xml:space="preserve" text-anchor="middle" x="552.38" y="-62.5" font-family="Helvetica,sans-Serif" font-size="10.00">SFML/Audio/SoundBuffer.hpp</text>
</a>
</g>
</g>
<!-- Node1&#45;&gt;Node6 -->
<g id="edge5_Node000001_Node000006" class="edge">
<title>Node1&#45;&gt;Node6</title>
<g id="a_edge5_Node000001_Node000006"><a xlink:title=" ">
<path fill="none" stroke="#63b8ff" d="M426.03,-111.59C450.56,-102.94 487.2,-90 514.72,-80.29"/>
<polygon fill="#63b8ff" stroke="#63b8ff" points="515.82,-83.61 524.09,-76.98 513.49,-77.01 515.82,-83.61"/>
</a>
</g>
</g>
<!-- Node7 -->
<g id="Node000007" class="node">
<title>Node7</title>
<g id="a_Node000007"><a xlink:title=" ">
<polygon fill="#e0e0e0" stroke="#999999" points="761.38,-76 643.38,-76 643.38,-56 761.38,-56 761.38,-76"/>
<text xml:space="preserve" text-anchor="middle" x="702.38" y="-62.5" font-family="Helvetica,sans-Serif" font-size="10.00">SFML/Audio/Music.hpp</text>
</a>
</g>
</g>
<!-- Node1&#45;&gt;Node7 -->
<g id="edge6_Node000001_Node000007" class="edge">
<title>Node1&#45;&gt;Node7</title>
<g id="a_edge6_Node000001_Node000007"><a xlink:title=" ">
<path fill="none" stroke="#63b8ff" d="M452.5,-111.53C504.26,-102.31 583.02,-88.27 638.25,-78.43"/>
<polygon fill="#63b8ff" stroke="#63b8ff" points="638.59,-81.92 647.82,-76.72 637.36,-75.03 638.59,-81.92"/>
</a>
</g>
</g>
<!-- Node8 -->
<g id="Node000008" class="node">
<title>Node8</title>
<g id="a_Node000008"><a xlink:href="animation_8hpp.html" target="_top" xlink:title=" ">
<polygon fill="white" stroke="#666666" points="855.75,-76 779,-76 779,-56 855.75,-56 855.75,-76"/>
<text xml:space="preserve" text-anchor="middle" x="817.38" y="-62.5" font-family="Helvetica,sans-Serif" font-size="10.00">animation.hpp</text>
</a>
</g>
</g>
<!-- Node1&#45;&gt;Node8 -->
<g id="edge7_Node000001_Node000008" class="edge">
<title>Node1&#45;&gt;Node8</title>
<g id="a_edge7_Node000001_Node000008"><a xlink:title=" ">
<path fill="none" stroke="#63b8ff" d="M458.66,-115.07C529.75,-107.69 652.77,-94.01 767.6,-76.35"/>
<polygon fill="#63b8ff" stroke="#63b8ff" points="767.84,-79.85 777.19,-74.86 766.77,-72.94 767.84,-79.85"/>
</a>
</g>
</g>
<!-- Node9 -->
<g id="Node000009" class="node">
<title>Node9</title>
<g id="a_Node000009"><a xlink:title=" ">
<polygon fill="#e0e0e0" stroke="#999999" points="785.38,-20 745.38,-20 745.38,0 785.38,0 785.38,-20"/>
<text xml:space="preserve" text-anchor="middle" x="765.38" y="-6.5" font-family="Helvetica,sans-Serif" font-size="10.00">string</text>
</a>
</g>
</g>
<!-- Node8&#45;&gt;Node9 -->
<g id="edge8_Node000008_Node000009" class="edge">
<title>Node8&#45;&gt;Node9</title>
<g id="a_edge8_Node000008_Node000009"><a xlink:title=" ">
<path fill="none" stroke="#63b8ff" d="M808.32,-55.59C801.16,-48.16 790.97,-37.58 782.31,-28.58"/>
<polygon fill="#63b8ff" stroke="#63b8ff" points="784.84,-26.16 775.38,-21.39 779.79,-31.02 784.84,-26.16"/>
</a>
</g>
</g>
<!-- Node10 -->
<g id="Node000010" class="node">
<title>Node10</title>
<g id="a_Node000010"><a xlink:title=" ">
<polygon fill="#e0e0e0" stroke="#999999" points="935.12,-20 803.62,-20 803.62,0 935.12,0 935.12,-20"/>
<text xml:space="preserve" text-anchor="middle" x="869.38" y="-6.5" font-family="Helvetica,sans-Serif" font-size="10.00">SFML/Graphics/Sprite.hpp</text>
</a>
</g>
</g>
<!-- Node8&#45;&gt;Node10 -->
<g id="edge9_Node000008_Node000010" class="edge">
<title>Node8&#45;&gt;Node10</title>
<g id="a_edge9_Node000008_Node000010"><a xlink:title=" ">
<path fill="none" stroke="#63b8ff" d="M826.43,-55.59C833.59,-48.16 843.78,-37.58 852.44,-28.58"/>
<polygon fill="#63b8ff" stroke="#63b8ff" points="854.96,-31.02 859.37,-21.39 849.91,-26.16 854.96,-31.02"/>
</a>
</g>
</g>
</g>
</svg>
