<?xml version="1.0" encoding="UTF-8" standalone="no"?>
<!DOCTYPE svg PUBLIC "-//W3C//DTD SVG 1.1//EN"
 "http://www.w3.org/Graphics/SVG/1.1/DTD/svg11.dtd">
<!-- Generated by graphviz version 13.1.2 (20250808.2320)
 -->
<!-- Title: SceneMenu Pages: 1 -->
<svg width="212pt" height="221pt"
 viewBox="0.00 0.00 212.00 221.00" xmlns="http://www.w3.org/2000/svg" xmlns:xlink="http://www.w3.org/1999/xlink">

<svg id="main" version="1.1" xmlns="http://www.w3.org/2000/svg" xmlns:xlink="http://www.w3.org/1999/xlink" xml:space="preserve" onload="init(evt)">
<style type="text/css"><![CDATA[
.node, .edge {opacity: 0.7;}
.node.selected, .edge.selected {opacity: 1;}
.edge:hover path { stroke: red; }
.edge:hover polygon { stroke: red; fill: red; }
]]></style>
<script type="application/ecmascript" xlink:href="svg.min.js"/>
<svg id="graph" class="graph">
<g id="graph0" class="graph" transform="scale(1 1) rotate(0) translate(4 217)">
<title>SceneMenu</title>
<!-- Node1 -->
<g id="Node000001" class="node">
<title>Node1</title>
<g id="a_Node000001"><a xlink:title="Represents the menu scene.">
<polygon fill="#999999" stroke="#666666" points="151.12,-20 83.38,-20 83.38,0 151.12,0 151.12,-20"/>
<text xml:space="preserve" text-anchor="middle" x="117.25" y="-6.5" font-family="Helvetica,sans-Serif" font-size="10.00">SceneMenu</text>
</a>
</g>
</g>
<!-- Node2 -->
<g id="Node000002" class="node">
<title>Node2</title>
<g id="a_Node000002"><a xlink:href="class_scene.html" target="_top" xlink:title="Abstract class representing a game scene.">
<polygon fill="white" stroke="#666666" points="139.12,-77 95.38,-77 95.38,-57 139.12,-57 139.12,-77"/>
<text xml:space="preserve" text-anchor="middle" x="117.25" y="-63.5" font-family="Helvetica,sans-Serif" font-size="10.00">Scene</text>
</a>
</g>
</g>
<!-- Node2&#45;&gt;Node1 -->
<g id="edge1_Node000001_Node000002" class="edge">
<title>Node2&#45;&gt;Node1</title>
<g id="a_edge1_Node000001_Node000002"><a xlink:title=" ">
<path fill="none" stroke="#63b8ff" d="M117.25,-45.69C117.25,-36.97 117.25,-27.22 117.25,-20.28"/>
<polygon fill="#63b8ff" stroke="#63b8ff" points="113.75,-45.4 117.25,-55.4 120.75,-45.4 113.75,-45.4"/>
</a>
</g>
</g>
<!-- Node3 -->
<g id="Node000003" class="node">
<title>Node3</title>
<g id="a_Node000003"><a xlink:href="class_game_engine.html" target="_top" xlink:title="Main application class, runs the game.">
<polygon fill="white" stroke="#666666" points="106.38,-145 34.12,-145 34.12,-125 106.38,-125 106.38,-145"/>
<text xml:space="preserve" text-anchor="middle" x="70.25" y="-131.5" font-family="Helvetica,sans-Serif" font-size="10.00">GameEngine</text>
</a>
</g>
</g>
<!-- Node3&#45;&gt;Node2 -->
<g id="edge2_Node000002_Node000003" class="edge">
<title>Node3&#45;&gt;Node2</title>
<g id="a_edge2_Node000002_Node000003"><a xlink:title=" ">
<path fill="none" stroke="#9a32cd" stroke-dasharray="5,2" d="M83.41,-115.52C92.23,-103.13 103.48,-87.33 110.53,-77.44"/>
<polygon fill="#9a32cd" stroke="#9a32cd" points="80.81,-113.13 77.86,-123.31 86.51,-117.2 80.81,-113.13"/>
</a>
</g>
<text xml:space="preserve" text-anchor="middle" x="118.21" y="-97.5" font-family="Helvetica,sans-Serif" font-size="10.00" fill="grey"> m_game</text>
</g>
<!-- Node4 -->
<g id="Node000004" class="node">
<title>Node4</title>
<g id="a_Node000004"><a xlink:href="struct_game_engine_1_1_game_settings.html" target="_top" xlink:title="Basic options struct.">
<polygon fill="white" stroke="#666666" points="140.5,-213 0,-213 0,-193 140.5,-193 140.5,-213"/>
<text xml:space="preserve" text-anchor="middle" x="70.25" y="-199.5" font-family="Helvetica,sans-Serif" font-size="10.00">GameEngine::GameSettings</text>
</a>
</g>
</g>
<!-- Node4&#45;&gt;Node3 -->
<g id="edge3_Node000003_Node000004" class="edge">
<title>Node4&#45;&gt;Node3</title>
<g id="a_edge3_Node000003_Node000004"><a xlink:title=" ">
<path fill="none" stroke="#9a32cd" stroke-dasharray="5,2" d="M70.25,-181.28C70.25,-169.27 70.25,-154.74 70.25,-145.44"/>
<polygon fill="#9a32cd" stroke="#9a32cd" points="66.75,-181.03 70.25,-191.03 73.75,-181.03 66.75,-181.03"/>
</a>
</g>
<text xml:space="preserve" text-anchor="middle" x="89" y="-165.5" font-family="Helvetica,sans-Serif" font-size="10.00" fill="grey"> settings</text>
</g>
<!-- Node5 -->
<g id="Node000005" class="node">
<title>Node5</title>
<g id="a_Node000005"><a xlink:href="class_entity_manager.html" target="_top" xlink:title="Manages all entities within a scene.">
<polygon fill="white" stroke="#666666" points="203.75,-145 124.75,-145 124.75,-125 203.75,-125 203.75,-145"/>
<text xml:space="preserve" text-anchor="middle" x="164.25" y="-131.5" font-family="Helvetica,sans-Serif" font-size="10.00">EntityManager</text>
</a>
</g>
</g>
<!-- Node5&#45;&gt;Node2 -->
<g id="edge4_Node000002_Node000005" class="edge">
<title>Node5&#45;&gt;Node2</title>
<g id="a_edge4_Node000002_Node000005"><a xlink:title=" ">
<path fill="none" stroke="#9a32cd" stroke-dasharray="5,2" d="M154.52,-114.68C150.96,-108.22 146.71,-101.12 142.25,-95 137.58,-88.6 131.57,-82.07 126.61,-77.03"/>
<polygon fill="#9a32cd" stroke="#9a32cd" points="151.3,-116.08 159.05,-123.31 157.5,-112.83 151.3,-116.08"/>
</a>
</g>
<text xml:space="preserve" text-anchor="middle" x="173.69" y="-97.5" font-family="Helvetica,sans-Serif" font-size="10.00" fill="grey"> m_entities</text>
</g>
</g>
</svg>
</svg>

<style type='text/css'>
<![CDATA[
[data-mouse-over-selected='false'] { opacity: 0.7; }
[data-mouse-over-selected='true']  { opacity: 1.0; }
]]>
</style>
<script type="application/ecmascript"><![CDATA[
document.addEventListener('DOMContentLoaded', (event) => {
  highlightEdges();
  highlightAdjacentNodes();
});
]]></script>
</svg>
