<?xml version="1.0" encoding="UTF-8" standalone="no"?>
<!DOCTYPE svg PUBLIC "-//W3C//DTD SVG 1.1//EN"
 "http://www.w3.org/Graphics/SVG/1.1/DTD/svg11.dtd">
<!-- Generated by graphviz version 13.1.2 (20250808.2320)
 -->
<!-- Title: GameEngine::run Pages: 1 -->
<svg width="258pt" height="66pt"
 viewBox="0.00 0.00 258.00 66.00" xmlns="http://www.w3.org/2000/svg" xmlns:xlink="http://www.w3.org/1999/xlink">
<g id="graph0" class="graph" transform="scale(1 1) rotate(0) translate(4 62)">
<title>GameEngine::run</title>
<!-- Node1 -->
<g id="Node000001" class="node">
<title>Node1</title>
<g id="a_Node000001"><a xlink:title="Run the game.">
<polygon fill="#999999" stroke="#666666" points="91.75,-39 0,-39 0,-19 91.75,-19 91.75,-39"/>
<text xml:space="preserve" text-anchor="middle" x="45.88" y="-25.5" font-family="Helvetica,sans-Serif" font-size="10.00">GameEngine::run</text>
</a>
</g>
</g>
<!-- Node2 -->
<g id="Node000002" class="node">
<title>Node2</title>
<g id="a_Node000002"><a xlink:href="class_game_engine.html#a0a2550ef0abaa43a9e365efa0d69a908" target="_top" xlink:title="Check if game is running.">
<polygon fill="white" stroke="#666666" points="250.25,-58 127.75,-58 127.75,-38 250.25,-38 250.25,-58"/>
<text xml:space="preserve" text-anchor="middle" x="189" y="-44.5" font-family="Helvetica,sans-Serif" font-size="10.00">GameEngine::is_running</text>
</a>
</g>
</g>
<!-- Node1&#45;&gt;Node2 -->
<g id="edge1_Node000001_Node000002" class="edge">
<title>Node1&#45;&gt;Node2</title>
<g id="a_edge1_Node000001_Node000002"><a xlink:title=" ">
<path fill="none" stroke="#63b8ff" d="M91.92,-35.06C99.68,-36.11 107.92,-37.22 116.18,-38.33"/>
<polygon fill="#63b8ff" stroke="#63b8ff" points="115.55,-41.78 125.92,-39.64 116.48,-34.84 115.55,-41.78"/>
</a>
</g>
</g>
<!-- Node3 -->
<g id="Node000003" class="node">
<title>Node3</title>
<g id="a_Node000003"><a xlink:href="class_game_engine.html#ae03241b464040b659b6a91f27920e8c3" target="_top" xlink:title="Update the game each frame.">
<polygon fill="white" stroke="#666666" points="242.75,-20 135.25,-20 135.25,0 242.75,0 242.75,-20"/>
<text xml:space="preserve" text-anchor="middle" x="189" y="-6.5" font-family="Helvetica,sans-Serif" font-size="10.00">GameEngine::update</text>
</a>
</g>
</g>
<!-- Node1&#45;&gt;Node3 -->
<g id="edge2_Node000001_Node000003" class="edge">
<title>Node1&#45;&gt;Node3</title>
<g id="a_edge2_Node000001_Node000003"><a xlink:title=" ">
<path fill="none" stroke="#63b8ff" d="M91.92,-22.94C102.03,-21.57 112.96,-20.1 123.69,-18.66"/>
<polygon fill="#63b8ff" stroke="#63b8ff" points="123.82,-22.17 133.27,-17.37 122.89,-15.23 123.82,-22.17"/>
</a>
</g>
</g>
</g>
</svg>
