<?xml version="1.0" encoding="UTF-8" standalone="no"?>
<!DOCTYPE svg PUBLIC "-//W3C//DTD SVG 1.1//EN"
 "http://www.w3.org/Graphics/SVG/1.1/DTD/svg11.dtd">
<!-- Generated by graphviz version 13.1.2 (20250808.2320)
 -->
<!-- Title: GameEngine::get_window Pages: 1 -->
<svg width="312pt" height="104pt"
 viewBox="0.00 0.00 312.00 104.00" xmlns="http://www.w3.org/2000/svg" xmlns:xlink="http://www.w3.org/1999/xlink">
<g id="graph0" class="graph" transform="scale(1 1) rotate(0) translate(4 100)">
<title>GameEngine::get_window</title>
<!-- Node1 -->
<g id="Node000001" class="node">
<title>Node1</title>
<g id="a_Node000001"><a xlink:title="Return the window.">
<polygon fill="#999999" stroke="#666666" points="304.25,-58 174.25,-58 174.25,-38 304.25,-38 304.25,-58"/>
<text xml:space="preserve" text-anchor="middle" x="239.25" y="-44.5" font-family="Helvetica,sans-Serif" font-size="10.00">GameEngine::get_window</text>
</a>
</g>
</g>
<!-- Node2 -->
<g id="Node000002" class="node">
<title>Node2</title>
<g id="a_Node000002"><a xlink:href="class_scene.html#acbf022ecd556f3a726c8a3c60889b7eb" target="_top" xlink:title="Return window height.">
<polygon fill="white" stroke="#666666" points="116.5,-96 21.75,-96 21.75,-76 116.5,-76 116.5,-96"/>
<text xml:space="preserve" text-anchor="middle" x="69.12" y="-82.5" font-family="Helvetica,sans-Serif" font-size="10.00">Scene::get_height</text>
</a>
</g>
</g>
<!-- Node1&#45;&gt;Node2 -->
<g id="edge1_Node000001_Node000002" class="edge">
<title>Node1&#45;&gt;Node2</title>
<g id="a_edge1_Node000001_Node000002"><a xlink:title=" ">
<path fill="none" stroke="#63b8ff" d="M180.8,-60.98C159.78,-65.74 136.28,-71.05 116.36,-75.55"/>
<polygon fill="#63b8ff" stroke="#63b8ff" points="181.41,-64.44 190.39,-58.82 179.86,-57.61 181.41,-64.44"/>
</a>
</g>
</g>
<!-- Node3 -->
<g id="Node000003" class="node">
<title>Node3</title>
<g id="a_Node000003"><a xlink:href="class_scene.html#a8bc14c97745aa2e7a89114927b618ea1" target="_top" xlink:title="Return window width.">
<polygon fill="white" stroke="#666666" points="115,-58 23.25,-58 23.25,-38 115,-38 115,-58"/>
<text xml:space="preserve" text-anchor="middle" x="69.12" y="-44.5" font-family="Helvetica,sans-Serif" font-size="10.00">Scene::get_width</text>
</a>
</g>
</g>
<!-- Node1&#45;&gt;Node3 -->
<g id="edge2_Node000001_Node000003" class="edge">
<title>Node1&#45;&gt;Node3</title>
<g id="a_edge2_Node000001_Node000003"><a xlink:title=" ">
<path fill="none" stroke="#63b8ff" d="M163.06,-48C146.82,-48 130.12,-48 115.45,-48"/>
<polygon fill="#63b8ff" stroke="#63b8ff" points="162.7,-51.5 172.7,-48 162.7,-44.5 162.7,-51.5"/>
</a>
</g>
</g>
<!-- Node4 -->
<g id="Node000004" class="node">
<title>Node4</title>
<g id="a_Node000004"><a xlink:href="class_scene_menu.html#a9ca07d2318fef6ad426d31ccb0f3118c" target="_top" xlink:title="Render the scene.">
<polygon fill="white" stroke="#666666" points="138.25,-20 0,-20 0,0 138.25,0 138.25,-20"/>
<text xml:space="preserve" text-anchor="middle" x="69.12" y="-6.5" font-family="Helvetica,sans-Serif" font-size="10.00">SceneMenu::system_render</text>
</a>
</g>
</g>
<!-- Node1&#45;&gt;Node4 -->
<g id="edge3_Node000001_Node000004" class="edge">
<title>Node1&#45;&gt;Node4</title>
<g id="a_edge3_Node000001_Node000004"><a xlink:title=" ">
<path fill="none" stroke="#63b8ff" d="M180.8,-35.02C159.78,-30.26 136.28,-24.95 116.36,-20.45"/>
<polygon fill="#63b8ff" stroke="#63b8ff" points="179.86,-38.39 190.39,-37.18 181.41,-31.56 179.86,-38.39"/>
</a>
</g>
</g>
</g>
</svg>
