<?xml version="1.0" encoding="UTF-8" standalone="no"?>
<!DOCTYPE svg PUBLIC "-//W3C//DTD SVG 1.1//EN"
 "http://www.w3.org/Graphics/SVG/1.1/DTD/svg11.dtd">
<!-- Generated by graphviz version 13.1.2 (20250808.2320)
 -->
<!-- Title: ConfigParser::ConfigParser Pages: 1 -->
<svg width="267pt" height="294pt"
 viewBox="0.00 0.00 267.00 294.00" xmlns="http://www.w3.org/2000/svg" xmlns:xlink="http://www.w3.org/1999/xlink">

<svg id="main" version="1.1" xmlns="http://www.w3.org/2000/svg" xmlns:xlink="http://www.w3.org/1999/xlink" xml:space="preserve" onload="init(evt)">
<style type="text/css"><![CDATA[
.node, .edge {opacity: 0.7;}
.node.selected, .edge.selected {opacity: 1;}
.edge:hover path { stroke: red; }
.edge:hover polygon { stroke: red; fill: red; }
]]></style>
<script type="application/ecmascript" xlink:href="svg.min.js"/>
<svg id="graph" class="graph">
<g id="graph0" class="graph" transform="scale(1 1) rotate(0) translate(4 290)">
<title>ConfigParser::ConfigParser</title>
<!-- Node1 -->
<g id="Node000001" class="node">
<title>Node1</title>
<g id="a_Node000001"><a xlink:title="Store the config data from a TOML config file.">
<polygon fill="#999999" stroke="#666666" points="136,-153 0,-153 0,-133 136,-133 136,-153"/>
<text xml:space="preserve" text-anchor="middle" x="68" y="-139.5" font-family="Helvetica,sans-Serif" font-size="10.00">ConfigParser::ConfigParser</text>
</a>
</g>
</g>
<!-- Node2 -->
<g id="Node000002" class="node">
<title>Node2</title>
<g id="a_Node000002"><a xlink:href="config__parser_8cpp.html#a32c42794cf6202779fc57aa5b2d9a7c2" target="_top" xlink:title=" ">
<polygon fill="white" stroke="#666666" points="259.25,-286 172,-286 172,-266 259.25,-266 259.25,-286"/>
<text xml:space="preserve" text-anchor="middle" x="215.62" y="-272.5" font-family="Helvetica,sans-Serif" font-size="10.00">parse_animation</text>
</a>
</g>
</g>
<!-- Node1&#45;&gt;Node2 -->
<g id="edge1_Node000001_Node000002" class="edge">
<title>Node1&#45;&gt;Node2</title>
<g id="a_edge1_Node000001_Node000002"><a xlink:title=" ">
<path fill="none" stroke="#63b8ff" d="M76.11,-153.46C91.4,-175.27 129.47,-226.14 172,-257 173.53,-258.11 175.14,-259.18 176.8,-260.2"/>
<polygon fill="#63b8ff" stroke="#63b8ff" points="174.85,-263.13 185.31,-264.82 178.19,-256.97 174.85,-263.13"/>
</a>
</g>
</g>
<!-- Node3 -->
<g id="Node000003" class="node">
<title>Node3</title>
<g id="a_Node000003"><a xlink:href="config__parser_8cpp.html#a902a1aaa35370dda74c9d63f3c2bc2d5" target="_top" xlink:title=" ">
<polygon fill="white" stroke="#666666" points="249.88,-248 181.38,-248 181.38,-228 249.88,-228 249.88,-248"/>
<text xml:space="preserve" text-anchor="middle" x="215.62" y="-234.5" font-family="Helvetica,sans-Serif" font-size="10.00">parse_bullet</text>
</a>
</g>
</g>
<!-- Node1&#45;&gt;Node3 -->
<g id="edge2_Node000001_Node000003" class="edge">
<title>Node1&#45;&gt;Node3</title>
<g id="a_edge2_Node000001_Node000003"><a xlink:title=" ">
<path fill="none" stroke="#63b8ff" d="M81.08,-153.28C99.74,-168.82 137.05,-198.64 172,-219 174.16,-220.26 176.42,-221.49 178.73,-222.68"/>
<polygon fill="#63b8ff" stroke="#63b8ff" points="177.04,-225.76 187.57,-226.97 180.09,-219.46 177.04,-225.76"/>
</a>
</g>
</g>
<!-- Node4 -->
<g id="Node000004" class="node">
<title>Node4</title>
<g id="a_Node000004"><a xlink:href="config__parser_8cpp.html#aa79651a95e68506a7f22a4c3595ec1b8" target="_top" xlink:title=" ">
<polygon fill="white" stroke="#666666" points="246.5,-210 184.75,-210 184.75,-190 246.5,-190 246.5,-210"/>
<text xml:space="preserve" text-anchor="middle" x="215.62" y="-196.5" font-family="Helvetica,sans-Serif" font-size="10.00">parse_font</text>
</a>
</g>
</g>
<!-- Node1&#45;&gt;Node4 -->
<g id="edge3_Node000001_Node000004" class="edge">
<title>Node1&#45;&gt;Node4</title>
<g id="a_edge3_Node000001_Node000004"><a xlink:title=" ">
<path fill="none" stroke="#63b8ff" d="M95.71,-153.45C118.7,-162.45 152.11,-175.53 177.67,-185.53"/>
<polygon fill="#63b8ff" stroke="#63b8ff" points="176.09,-188.67 186.68,-189.06 178.64,-182.16 176.09,-188.67"/>
</a>
</g>
</g>
<!-- Node5 -->
<g id="Node000005" class="node">
<title>Node5</title>
<g id="a_Node000005"><a xlink:href="config__parser_8cpp.html#a8491e13afcf4a82bf012dfbcb2285e80" target="_top" xlink:title=" ">
<polygon fill="white" stroke="#666666" points="248.38,-172 182.88,-172 182.88,-152 248.38,-152 248.38,-172"/>
<text xml:space="preserve" text-anchor="middle" x="215.62" y="-158.5" font-family="Helvetica,sans-Serif" font-size="10.00">parse_level</text>
</a>
</g>
</g>
<!-- Node1&#45;&gt;Node5 -->
<g id="edge4_Node000001_Node000005" class="edge">
<title>Node1&#45;&gt;Node5</title>
<g id="a_edge4_Node000001_Node000005"><a xlink:title=" ">
<path fill="none" stroke="#63b8ff" d="M136.27,-151.78C148.09,-153.32 160.11,-154.89 171.07,-156.32"/>
<polygon fill="#63b8ff" stroke="#63b8ff" points="170.61,-159.79 180.98,-157.61 171.52,-152.85 170.61,-159.79"/>
</a>
</g>
</g>
<!-- Node6 -->
<g id="Node000006" class="node">
<title>Node6</title>
<g id="a_Node000006"><a xlink:href="config__parser_8cpp.html#a044237f330e2f2b84e0455d062e7153c" target="_top" xlink:title=" ">
<polygon fill="white" stroke="#666666" points="251.38,-134 179.88,-134 179.88,-114 251.38,-114 251.38,-134"/>
<text xml:space="preserve" text-anchor="middle" x="215.62" y="-120.5" font-family="Helvetica,sans-Serif" font-size="10.00">parse_music</text>
</a>
</g>
</g>
<!-- Node1&#45;&gt;Node6 -->
<g id="edge5_Node000001_Node000006" class="edge">
<title>Node1&#45;&gt;Node6</title>
<g id="a_edge5_Node000001_Node000006"><a xlink:title=" ">
<path fill="none" stroke="#63b8ff" d="M136.27,-134.22C147.1,-132.81 158.09,-131.38 168.29,-130.05"/>
<polygon fill="#63b8ff" stroke="#63b8ff" points="168.44,-133.56 177.9,-128.79 167.53,-126.61 168.44,-133.56"/>
</a>
</g>
</g>
<!-- Node7 -->
<g id="Node000007" class="node">
<title>Node7</title>
<g id="a_Node000007"><a xlink:href="config__parser_8cpp.html#a58b0512e1474204e95641b98a76b6e0a" target="_top" xlink:title=" ">
<polygon fill="white" stroke="#666666" points="251.38,-96 179.88,-96 179.88,-76 251.38,-76 251.38,-96"/>
<text xml:space="preserve" text-anchor="middle" x="215.62" y="-82.5" font-family="Helvetica,sans-Serif" font-size="10.00">parse_sound</text>
</a>
</g>
</g>
<!-- Node1&#45;&gt;Node7 -->
<g id="edge6_Node000001_Node000007" class="edge">
<title>Node1&#45;&gt;Node7</title>
<g id="a_edge6_Node000001_Node000007"><a xlink:title=" ">
<path fill="none" stroke="#63b8ff" d="M95.71,-132.55C118.7,-123.55 152.11,-110.47 177.67,-100.47"/>
<polygon fill="#63b8ff" stroke="#63b8ff" points="178.64,-103.84 186.68,-96.94 176.09,-97.33 178.64,-103.84"/>
</a>
</g>
</g>
<!-- Node8 -->
<g id="Node000008" class="node">
<title>Node8</title>
<g id="a_Node000008"><a xlink:href="config__parser_8cpp.html#accd3e8b274db23f6fa8d68572229ece4" target="_top" xlink:title=" ">
<polygon fill="white" stroke="#666666" points="253.25,-58 178,-58 178,-38 253.25,-38 253.25,-58"/>
<text xml:space="preserve" text-anchor="middle" x="215.62" y="-44.5" font-family="Helvetica,sans-Serif" font-size="10.00">parse_texture</text>
</a>
</g>
</g>
<!-- Node1&#45;&gt;Node8 -->
<g id="edge7_Node000001_Node000008" class="edge">
<title>Node1&#45;&gt;Node8</title>
<g id="a_edge7_Node000001_Node000008"><a xlink:title=" ">
<path fill="none" stroke="#63b8ff" d="M81.08,-132.72C99.74,-117.18 137.05,-87.36 172,-67 174.16,-65.74 176.42,-64.51 178.73,-63.32"/>
<polygon fill="#63b8ff" stroke="#63b8ff" points="180.09,-66.54 187.57,-59.03 177.04,-60.24 180.09,-66.54"/>
</a>
</g>
</g>
<!-- Node9 -->
<g id="Node000009" class="node">
<title>Node9</title>
<g id="a_Node000009"><a xlink:href="config__parser_8cpp.html#a895e2b6525106b61b9d0a020e460e4d0" target="_top" xlink:title=" ">
<polygon fill="white" stroke="#666666" points="254.75,-20 176.5,-20 176.5,0 254.75,0 254.75,-20"/>
<text xml:space="preserve" text-anchor="middle" x="215.62" y="-6.5" font-family="Helvetica,sans-Serif" font-size="10.00">parse_window</text>
</a>
</g>
</g>
<!-- Node1&#45;&gt;Node9 -->
<g id="edge8_Node000001_Node000009" class="edge">
<title>Node1&#45;&gt;Node9</title>
<g id="a_edge8_Node000001_Node000009"><a xlink:title=" ">
<path fill="none" stroke="#63b8ff" d="M76.11,-132.54C91.4,-110.73 129.47,-59.86 172,-29 173.53,-27.89 175.14,-26.82 176.8,-25.8"/>
<polygon fill="#63b8ff" stroke="#63b8ff" points="178.19,-29.03 185.31,-21.18 174.85,-22.87 178.19,-29.03"/>
</a>
</g>
</g>
</g>
</svg>
</svg>

<style type='text/css'>
<![CDATA[
[data-mouse-over-selected='false'] { opacity: 0.7; }
[data-mouse-over-selected='true']  { opacity: 1.0; }
]]>
</style>
<script type="application/ecmascript"><![CDATA[
document.addEventListener('DOMContentLoaded', (event) => {
  highlightEdges();
  highlightAdjacentNodes();
});
]]></script>
</svg>
