<?xml version="1.0" encoding="UTF-8" standalone="no"?>
<!DOCTYPE svg PUBLIC "-//W3C//DTD SVG 1.1//EN"
 "http://www.w3.org/Graphics/SVG/1.1/DTD/svg11.dtd">
<!-- Generated by graphviz version 13.1.2 (20250808.2320)
 -->
<!-- Title: ConfigParser::ConfigParser Pages: 1 -->
<svg width="267pt" height="332pt"
 viewBox="0.00 0.00 267.00 332.00" xmlns="http://www.w3.org/2000/svg" xmlns:xlink="http://www.w3.org/1999/xlink">

<svg id="main" version="1.1" xmlns="http://www.w3.org/2000/svg" xmlns:xlink="http://www.w3.org/1999/xlink" xml:space="preserve" onload="init(evt)">
<style type="text/css"><![CDATA[
.node, .edge {opacity: 0.7;}
.node.selected, .edge.selected {opacity: 1;}
.edge:hover path { stroke: red; }
.edge:hover polygon { stroke: red; fill: red; }
]]></style>
<script type="application/ecmascript" xlink:href="svg.min.js"/>
<svg id="graph" class="graph">
<g id="graph0" class="graph" transform="scale(1 1) rotate(0) translate(4 328)">
<title>ConfigParser::ConfigParser</title>
<!-- Node1 -->
<g id="Node000001" class="node">
<title>Node1</title>
<g id="a_Node000001"><a xlink:title="Store the config data from a TOML config file.">
<polygon fill="#999999" stroke="#666666" points="136,-172 0,-172 0,-152 136,-152 136,-172"/>
<text xml:space="preserve" text-anchor="middle" x="68" y="-158.5" font-family="Helvetica,sans-Serif" font-size="10.00">ConfigParser::ConfigParser</text>
</a>
</g>
</g>
<!-- Node2 -->
<g id="Node000002" class="node">
<title>Node2</title>
<g id="a_Node000002"><a xlink:href="config__parser_8cpp.html#a32c42794cf6202779fc57aa5b2d9a7c2" target="_top" xlink:title=" ">
<polygon fill="white" stroke="#666666" points="259.25,-324 172,-324 172,-304 259.25,-304 259.25,-324"/>
<text xml:space="preserve" text-anchor="middle" x="215.62" y="-310.5" font-family="Helvetica,sans-Serif" font-size="10.00">parse_animation</text>
</a>
</g>
</g>
<!-- Node1&#45;&gt;Node2 -->
<g id="edge1_Node000001_Node000002" class="edge">
<title>Node1&#45;&gt;Node2</title>
<g id="a_edge1_Node000001_Node000002"><a xlink:title=" ">
<path fill="none" stroke="#63b8ff" d="M74.62,-172.39C88.29,-196.82 125.6,-258.57 172,-295 173.31,-296.03 174.69,-297.02 176.12,-297.97"/>
<polygon fill="#63b8ff" stroke="#63b8ff" points="174.25,-300.93 184.67,-302.84 177.72,-294.85 174.25,-300.93"/>
</a>
</g>
</g>
<!-- Node3 -->
<g id="Node000003" class="node">
<title>Node3</title>
<g id="a_Node000003"><a xlink:href="config__parser_8cpp.html#a902a1aaa35370dda74c9d63f3c2bc2d5" target="_top" xlink:title=" ">
<polygon fill="white" stroke="#666666" points="249.88,-286 181.38,-286 181.38,-266 249.88,-266 249.88,-286"/>
<text xml:space="preserve" text-anchor="middle" x="215.62" y="-272.5" font-family="Helvetica,sans-Serif" font-size="10.00">parse_bullet</text>
</a>
</g>
</g>
<!-- Node1&#45;&gt;Node3 -->
<g id="edge2_Node000001_Node000003" class="edge">
<title>Node1&#45;&gt;Node3</title>
<g id="a_edge2_Node000001_Node000003"><a xlink:title=" ">
<path fill="none" stroke="#63b8ff" d="M78.04,-172.32C94.96,-191.14 133.19,-231.45 172,-257 173.83,-258.2 175.74,-259.36 177.71,-260.48"/>
<polygon fill="#63b8ff" stroke="#63b8ff" points="175.93,-263.5 186.42,-264.94 179.12,-257.27 175.93,-263.5"/>
</a>
</g>
</g>
<!-- Node4 -->
<g id="Node000004" class="node">
<title>Node4</title>
<g id="a_Node000004"><a xlink:href="config__parser_8cpp.html#aa79651a95e68506a7f22a4c3595ec1b8" target="_top" xlink:title=" ">
<polygon fill="white" stroke="#666666" points="246.5,-248 184.75,-248 184.75,-228 246.5,-228 246.5,-248"/>
<text xml:space="preserve" text-anchor="middle" x="215.62" y="-234.5" font-family="Helvetica,sans-Serif" font-size="10.00">parse_font</text>
</a>
</g>
</g>
<!-- Node1&#45;&gt;Node4 -->
<g id="edge3_Node000001_Node000004" class="edge">
<title>Node1&#45;&gt;Node4</title>
<g id="a_edge3_Node000001_Node000004"><a xlink:title=" ">
<path fill="none" stroke="#63b8ff" d="M86.62,-172.36C106.93,-184.16 141.45,-203.78 172,-219 174.54,-220.26 177.18,-221.54 179.85,-222.8"/>
<polygon fill="#63b8ff" stroke="#63b8ff" points="178.19,-225.89 188.74,-226.88 181.11,-219.52 178.19,-225.89"/>
</a>
</g>
</g>
<!-- Node5 -->
<g id="Node000005" class="node">
<title>Node5</title>
<g id="a_Node000005"><a xlink:href="config__parser_8cpp.html#a8491e13afcf4a82bf012dfbcb2285e80" target="_top" xlink:title=" ">
<polygon fill="white" stroke="#666666" points="248.38,-210 182.88,-210 182.88,-190 248.38,-190 248.38,-210"/>
<text xml:space="preserve" text-anchor="middle" x="215.62" y="-196.5" font-family="Helvetica,sans-Serif" font-size="10.00">parse_level</text>
</a>
</g>
</g>
<!-- Node1&#45;&gt;Node5 -->
<g id="edge4_Node000001_Node000005" class="edge">
<title>Node1&#45;&gt;Node5</title>
<g id="a_edge4_Node000001_Node000005"><a xlink:title=" ">
<path fill="none" stroke="#63b8ff" d="M109.18,-172.48C128.46,-177.52 151.59,-183.55 171.27,-188.69"/>
<polygon fill="#63b8ff" stroke="#63b8ff" points="170.38,-192.07 180.94,-191.21 172.15,-185.3 170.38,-192.07"/>
</a>
</g>
</g>
<!-- Node6 -->
<g id="Node000006" class="node">
<title>Node6</title>
<g id="a_Node000006"><a xlink:href="config__parser_8cpp.html#a044237f330e2f2b84e0455d062e7153c" target="_top" xlink:title=" ">
<polygon fill="white" stroke="#666666" points="251.38,-172 179.88,-172 179.88,-152 251.38,-152 251.38,-172"/>
<text xml:space="preserve" text-anchor="middle" x="215.62" y="-158.5" font-family="Helvetica,sans-Serif" font-size="10.00">parse_music</text>
</a>
</g>
</g>
<!-- Node1&#45;&gt;Node6 -->
<g id="edge5_Node000001_Node000006" class="edge">
<title>Node1&#45;&gt;Node6</title>
<g id="a_edge5_Node000001_Node000006"><a xlink:title=" ">
<path fill="none" stroke="#63b8ff" d="M136.27,-162C146.98,-162 157.86,-162 167.96,-162"/>
<polygon fill="#63b8ff" stroke="#63b8ff" points="167.89,-165.5 177.89,-162 167.89,-158.5 167.89,-165.5"/>
</a>
</g>
</g>
<!-- Node7 -->
<g id="Node000007" class="node">
<title>Node7</title>
<g id="a_Node000007"><a xlink:href="config__parser_8cpp.html#a9534f9c280516f6ef34b80ee4ac1588c" target="_top" xlink:title=" ">
<polygon fill="white" stroke="#666666" points="251.38,-134 179.88,-134 179.88,-114 251.38,-114 251.38,-134"/>
<text xml:space="preserve" text-anchor="middle" x="215.62" y="-120.5" font-family="Helvetica,sans-Serif" font-size="10.00">parse_player</text>
</a>
</g>
</g>
<!-- Node1&#45;&gt;Node7 -->
<g id="edge6_Node000001_Node000007" class="edge">
<title>Node1&#45;&gt;Node7</title>
<g id="a_edge6_Node000001_Node000007"><a xlink:title=" ">
<path fill="none" stroke="#63b8ff" d="M109.18,-151.52C127.53,-146.73 149.37,-141.03 168.4,-136.06"/>
<polygon fill="#63b8ff" stroke="#63b8ff" points="169.27,-139.45 178.07,-133.54 167.51,-132.68 169.27,-139.45"/>
</a>
</g>
</g>
<!-- Node8 -->
<g id="Node000008" class="node">
<title>Node8</title>
<g id="a_Node000008"><a xlink:href="config__parser_8cpp.html#a58b0512e1474204e95641b98a76b6e0a" target="_top" xlink:title=" ">
<polygon fill="white" stroke="#666666" points="251.38,-96 179.88,-96 179.88,-76 251.38,-76 251.38,-96"/>
<text xml:space="preserve" text-anchor="middle" x="215.62" y="-82.5" font-family="Helvetica,sans-Serif" font-size="10.00">parse_sound</text>
</a>
</g>
</g>
<!-- Node1&#45;&gt;Node8 -->
<g id="edge7_Node000001_Node000008" class="edge">
<title>Node1&#45;&gt;Node8</title>
<g id="a_edge7_Node000001_Node000008"><a xlink:title=" ">
<path fill="none" stroke="#63b8ff" d="M86.62,-151.64C106.93,-139.84 141.45,-120.22 172,-105 174.54,-103.74 177.18,-102.46 179.85,-101.2"/>
<polygon fill="#63b8ff" stroke="#63b8ff" points="181.11,-104.48 188.74,-97.12 178.19,-98.11 181.11,-104.48"/>
</a>
</g>
</g>
<!-- Node9 -->
<g id="Node000009" class="node">
<title>Node9</title>
<g id="a_Node000009"><a xlink:href="config__parser_8cpp.html#accd3e8b274db23f6fa8d68572229ece4" target="_top" xlink:title=" ">
<polygon fill="white" stroke="#666666" points="253.25,-58 178,-58 178,-38 253.25,-38 253.25,-58"/>
<text xml:space="preserve" text-anchor="middle" x="215.62" y="-44.5" font-family="Helvetica,sans-Serif" font-size="10.00">parse_texture</text>
</a>
</g>
</g>
<!-- Node1&#45;&gt;Node9 -->
<g id="edge8_Node000001_Node000009" class="edge">
<title>Node1&#45;&gt;Node9</title>
<g id="a_edge8_Node000001_Node000009"><a xlink:title=" ">
<path fill="none" stroke="#63b8ff" d="M78.04,-151.68C94.96,-132.86 133.19,-92.55 172,-67 173.83,-65.8 175.74,-64.64 177.71,-63.52"/>
<polygon fill="#63b8ff" stroke="#63b8ff" points="179.12,-66.73 186.42,-59.06 175.93,-60.5 179.12,-66.73"/>
</a>
</g>
</g>
<!-- Node10 -->
<g id="Node000010" class="node">
<title>Node10</title>
<g id="a_Node000010"><a xlink:href="config__parser_8cpp.html#a895e2b6525106b61b9d0a020e460e4d0" target="_top" xlink:title=" ">
<polygon fill="white" stroke="#666666" points="254.75,-20 176.5,-20 176.5,0 254.75,0 254.75,-20"/>
<text xml:space="preserve" text-anchor="middle" x="215.62" y="-6.5" font-family="Helvetica,sans-Serif" font-size="10.00">parse_window</text>
</a>
</g>
</g>
<!-- Node1&#45;&gt;Node10 -->
<g id="edge9_Node000001_Node000010" class="edge">
<title>Node1&#45;&gt;Node10</title>
<g id="a_edge9_Node000001_Node000010"><a xlink:title=" ">
<path fill="none" stroke="#63b8ff" d="M74.62,-151.61C88.29,-127.18 125.6,-65.43 172,-29 173.31,-27.97 174.69,-26.98 176.12,-26.03"/>
<polygon fill="#63b8ff" stroke="#63b8ff" points="177.72,-29.15 184.67,-21.16 174.25,-23.07 177.72,-29.15"/>
</a>
</g>
</g>
</g>
</svg>
</svg>

<style type='text/css'>
<![CDATA[
[data-mouse-over-selected='false'] { opacity: 0.7; }
[data-mouse-over-selected='true']  { opacity: 1.0; }
]]>
</style>
<script type="application/ecmascript"><![CDATA[
document.addEventListener('DOMContentLoaded', (event) => {
  highlightEdges();
  highlightAdjacentNodes();
});
]]></script>
</svg>
