<?xml version="1.0" encoding="UTF-8" standalone="no"?>
<!DOCTYPE svg PUBLIC "-//W3C//DTD SVG 1.1//EN"
 "http://www.w3.org/Graphics/SVG/1.1/DTD/svg11.dtd">
<!-- Generated by graphviz version 13.1.2 (20250808.2320)
 -->
<!-- Title: ScenePlay Pages: 1 -->
<svg width="291pt" height="232pt"
 viewBox="0.00 0.00 291.00 232.00" xmlns="http://www.w3.org/2000/svg" xmlns:xlink="http://www.w3.org/1999/xlink">

<svg id="main" version="1.1" xmlns="http://www.w3.org/2000/svg" xmlns:xlink="http://www.w3.org/1999/xlink" xml:space="preserve" onload="init(evt)">
<style type="text/css"><![CDATA[
.node, .edge {opacity: 0.7;}
.node.selected, .edge.selected {opacity: 1;}
.edge:hover path { stroke: red; }
.edge:hover polygon { stroke: red; fill: red; }
]]></style>
<script type="application/ecmascript" xlink:href="svg.min.js"/>
<svg id="graph" class="graph">
<g id="graph0" class="graph" transform="scale(1 1) rotate(0) translate(4 228)">
<title>ScenePlay</title>
<!-- Node1 -->
<g id="Node000001" class="node">
<title>Node1</title>
<g id="a_Node000001"><a xlink:title="Represents the main gameplay scene.">
<polygon fill="#999999" stroke="#666666" points="199.88,-20 136.62,-20 136.62,0 199.88,0 199.88,-20"/>
<text xml:space="preserve" text-anchor="middle" x="168.25" y="-6.5" font-family="Helvetica,sans-Serif" font-size="10.00">ScenePlay</text>
</a>
</g>
</g>
<!-- Node2 -->
<g id="Node000002" class="node">
<title>Node2</title>
<g id="a_Node000002"><a xlink:href="class_scene.html" target="_top" xlink:title="Abstract class representing a game scene.">
<polygon fill="white" stroke="#666666" points="139.12,-88 95.38,-88 95.38,-68 139.12,-68 139.12,-88"/>
<text xml:space="preserve" text-anchor="middle" x="117.25" y="-74.5" font-family="Helvetica,sans-Serif" font-size="10.00">Scene</text>
</a>
</g>
</g>
<!-- Node2&#45;&gt;Node1 -->
<g id="edge1_Node000001_Node000002" class="edge">
<title>Node2&#45;&gt;Node1</title>
<g id="a_edge1_Node000001_Node000002"><a xlink:title=" ">
<path fill="none" stroke="#63b8ff" d="M131.53,-58.52C141.1,-46.13 153.31,-30.33 160.96,-20.44"/>
<polygon fill="#63b8ff" stroke="#63b8ff" points="128.83,-56.29 125.48,-66.35 134.37,-60.57 128.83,-56.29"/>
</a>
</g>
</g>
<!-- Node3 -->
<g id="Node000003" class="node">
<title>Node3</title>
<g id="a_Node000003"><a xlink:href="class_game_engine.html" target="_top" xlink:title="Main application class, runs the game.">
<polygon fill="white" stroke="#666666" points="106.38,-156 34.12,-156 34.12,-136 106.38,-136 106.38,-156"/>
<text xml:space="preserve" text-anchor="middle" x="70.25" y="-142.5" font-family="Helvetica,sans-Serif" font-size="10.00">GameEngine</text>
</a>
</g>
</g>
<!-- Node3&#45;&gt;Node2 -->
<g id="edge2_Node000002_Node000003" class="edge">
<title>Node3&#45;&gt;Node2</title>
<g id="a_edge2_Node000002_Node000003"><a xlink:title=" ">
<path fill="none" stroke="#9a32cd" stroke-dasharray="5,2" d="M83.41,-126.52C92.23,-114.13 103.48,-98.33 110.53,-88.44"/>
<polygon fill="#9a32cd" stroke="#9a32cd" points="80.81,-124.13 77.86,-134.31 86.51,-128.2 80.81,-124.13"/>
</a>
</g>
<text xml:space="preserve" text-anchor="middle" x="118.21" y="-108.5" font-family="Helvetica,sans-Serif" font-size="10.00" fill="grey"> m_game</text>
</g>
<!-- Node4 -->
<g id="Node000004" class="node">
<title>Node4</title>
<g id="a_Node000004"><a xlink:href="struct_game_engine_1_1_game_settings.html" target="_top" xlink:title="Basic options struct.">
<polygon fill="white" stroke="#666666" points="140.5,-224 0,-224 0,-204 140.5,-204 140.5,-224"/>
<text xml:space="preserve" text-anchor="middle" x="70.25" y="-210.5" font-family="Helvetica,sans-Serif" font-size="10.00">GameEngine::GameSettings</text>
</a>
</g>
</g>
<!-- Node4&#45;&gt;Node3 -->
<g id="edge3_Node000003_Node000004" class="edge">
<title>Node4&#45;&gt;Node3</title>
<g id="a_edge3_Node000003_Node000004"><a xlink:title=" ">
<path fill="none" stroke="#9a32cd" stroke-dasharray="5,2" d="M70.25,-192.28C70.25,-180.27 70.25,-165.74 70.25,-156.44"/>
<polygon fill="#9a32cd" stroke="#9a32cd" points="66.75,-192.03 70.25,-202.03 73.75,-192.03 66.75,-192.03"/>
</a>
</g>
<text xml:space="preserve" text-anchor="middle" x="89" y="-176.5" font-family="Helvetica,sans-Serif" font-size="10.00" fill="grey"> settings</text>
</g>
<!-- Node5 -->
<g id="Node000005" class="node">
<title>Node5</title>
<g id="a_Node000005"><a xlink:href="class_entity_manager.html" target="_top" xlink:title="Manages all entities within a scene.">
<polygon fill="white" stroke="#666666" points="203.75,-156 124.75,-156 124.75,-136 203.75,-136 203.75,-156"/>
<text xml:space="preserve" text-anchor="middle" x="164.25" y="-142.5" font-family="Helvetica,sans-Serif" font-size="10.00">EntityManager</text>
</a>
</g>
</g>
<!-- Node5&#45;&gt;Node2 -->
<g id="edge4_Node000002_Node000005" class="edge">
<title>Node5&#45;&gt;Node2</title>
<g id="a_edge4_Node000002_Node000005"><a xlink:title=" ">
<path fill="none" stroke="#9a32cd" stroke-dasharray="5,2" d="M154.52,-125.68C150.96,-119.22 146.71,-112.12 142.25,-106 137.58,-99.6 131.57,-93.07 126.61,-88.03"/>
<polygon fill="#9a32cd" stroke="#9a32cd" points="151.3,-127.08 159.05,-134.31 157.5,-123.83 151.3,-127.08"/>
</a>
</g>
<text xml:space="preserve" text-anchor="middle" x="173.69" y="-108.5" font-family="Helvetica,sans-Serif" font-size="10.00" fill="grey"> m_entities</text>
</g>
<!-- Node6 -->
<g id="Node000006" class="node">
<title>Node6</title>
<g id="a_Node000006"><a xlink:href="struct_scene_play_1_1_player_config.html" target="_top" xlink:title=" ">
<polygon fill="white" stroke="#666666" points="283,-88 157.5,-88 157.5,-68 283,-68 283,-88"/>
<text xml:space="preserve" text-anchor="middle" x="220.25" y="-74.5" font-family="Helvetica,sans-Serif" font-size="10.00">ScenePlay::PlayerConfig</text>
</a>
</g>
</g>
<!-- Node6&#45;&gt;Node1 -->
<g id="edge5_Node000001_Node000006" class="edge">
<title>Node6&#45;&gt;Node1</title>
<g id="a_edge5_Node000001_Node000006"><a xlink:title=" ">
<path fill="none" stroke="#9a32cd" stroke-dasharray="5,2" d="M205.69,-58.52C195.93,-46.13 183.48,-30.33 175.69,-20.44"/>
<polygon fill="#9a32cd" stroke="#9a32cd" points="202.92,-60.67 211.86,-66.35 208.42,-56.33 202.92,-60.67"/>
</a>
</g>
<text xml:space="preserve" text-anchor="middle" x="232.28" y="-40.5" font-family="Helvetica,sans-Serif" font-size="10.00" fill="grey"> m_player_conf</text>
</g>
</g>
</svg>
</svg>

<style type='text/css'>
<![CDATA[
[data-mouse-over-selected='false'] { opacity: 0.7; }
[data-mouse-over-selected='true']  { opacity: 1.0; }
]]>
</style>
<script type="application/ecmascript"><![CDATA[
document.addEventListener('DOMContentLoaded', (event) => {
  highlightEdges();
  highlightAdjacentNodes();
});
]]></script>
</svg>
