<?xml version="1.0" encoding="UTF-8" standalone="no"?>
<!DOCTYPE svg PUBLIC "-//W3C//DTD SVG 1.1//EN"
 "http://www.w3.org/Graphics/SVG/1.1/DTD/svg11.dtd">
<!-- Generated by graphviz version 13.1.2 (20250808.2320)
 -->
<!-- Title: GameEngine::is_running Pages: 1 -->
<svg width="331pt" height="28pt"
 viewBox="0.00 0.00 331.00 28.00" xmlns="http://www.w3.org/2000/svg" xmlns:xlink="http://www.w3.org/1999/xlink">
<g id="graph0" class="graph" transform="scale(1 1) rotate(0) translate(4 24)">
<title>GameEngine::is_running</title>
<!-- Node1 -->
<g id="Node000001" class="node">
<title>Node1</title>
<g id="a_Node000001"><a xlink:title="Check if game is running.">
<polygon fill="#999999" stroke="#666666" points="323.25,-20 200.75,-20 200.75,0 323.25,0 323.25,-20"/>
<text xml:space="preserve" text-anchor="middle" x="262" y="-6.5" font-family="Helvetica,sans-Serif" font-size="10.00">GameEngine::is_running</text>
</a>
</g>
</g>
<!-- Node2 -->
<g id="Node000002" class="node">
<title>Node2</title>
<g id="a_Node000002"><a xlink:href="class_game_engine.html#ab01970da2c68fefbf48b98c59d5627ae" target="_top" xlink:title="Run the game.">
<polygon fill="white" stroke="#666666" points="164.75,-20 73,-20 73,0 164.75,0 164.75,-20"/>
<text xml:space="preserve" text-anchor="middle" x="118.88" y="-6.5" font-family="Helvetica,sans-Serif" font-size="10.00">GameEngine::run</text>
</a>
</g>
</g>
<!-- Node1&#45;&gt;Node2 -->
<g id="edge1_Node000001_Node000002" class="edge">
<title>Node1&#45;&gt;Node2</title>
<g id="a_edge1_Node000001_Node000002"><a xlink:title=" ">
<path fill="none" stroke="#63b8ff" d="M188.92,-10C180.83,-10 172.76,-10 165.15,-10"/>
<polygon fill="#63b8ff" stroke="#63b8ff" points="188.82,-13.5 198.82,-10 188.82,-6.5 188.82,-13.5"/>
</a>
</g>
</g>
<!-- Node3 -->
<g id="Node000003" class="node">
<title>Node3</title>
<g id="a_Node000003"><a xlink:href="main_8cpp.html#ae66f6b31b5ad750f1fe042a706a4e3d4" target="_top" xlink:title=" ">
<polygon fill="white" stroke="#666666" points="37,-20 0,-20 0,0 37,0 37,-20"/>
<text xml:space="preserve" text-anchor="middle" x="18.5" y="-6.5" font-family="Helvetica,sans-Serif" font-size="10.00">main</text>
</a>
</g>
</g>
<!-- Node2&#45;&gt;Node3 -->
<g id="edge2_Node000002_Node000003" class="edge">
<title>Node2&#45;&gt;Node3</title>
<g id="a_edge2_Node000002_Node000003"><a xlink:title=" ">
<path fill="none" stroke="#63b8ff" d="M61.26,-10C52.62,-10 44.28,-10 37.36,-10"/>
<polygon fill="#63b8ff" stroke="#63b8ff" points="61.2,-13.5 71.2,-10 61.2,-6.5 61.2,-13.5"/>
</a>
</g>
</g>
</g>
</svg>
