<?xml version="1.0" encoding="UTF-8" standalone="no"?>
<!DOCTYPE svg PUBLIC "-//W3C//DTD SVG 1.1//EN"
 "http://www.w3.org/Graphics/SVG/1.1/DTD/svg11.dtd">
<!-- Generated by graphviz version 13.1.2 (20250808.2320)
 -->
<!-- Title: Scene Pages: 1 -->
<svg width="212pt" height="164pt"
 viewBox="0.00 0.00 212.00 164.00" xmlns="http://www.w3.org/2000/svg" xmlns:xlink="http://www.w3.org/1999/xlink">
<g id="graph0" class="graph" transform="scale(1 1) rotate(0) translate(4 160)">
<title>Scene</title>
<!-- Node1 -->
<g id="Node000001" class="node">
<title>Node1</title>
<g id="a_Node000001"><a xlink:title="Abstract class representing a game scene.">
<polygon fill="#999999" stroke="#666666" points="139.12,-20 95.38,-20 95.38,0 139.12,0 139.12,-20"/>
<text xml:space="preserve" text-anchor="middle" x="117.25" y="-6.5" font-family="Helvetica,sans-Serif" font-size="10.00">Scene</text>
</a>
</g>
</g>
<!-- Node2 -->
<g id="Node000002" class="node">
<title>Node2</title>
<g id="a_Node000002"><a xlink:href="class_game_engine.html" target="_top" xlink:title="Main application class, runs the game.">
<polygon fill="white" stroke="#666666" points="106.38,-88 34.12,-88 34.12,-68 106.38,-68 106.38,-88"/>
<text xml:space="preserve" text-anchor="middle" x="70.25" y="-74.5" font-family="Helvetica,sans-Serif" font-size="10.00">GameEngine</text>
</a>
</g>
</g>
<!-- Node2&#45;&gt;Node1 -->
<g id="edge1_Node000001_Node000002" class="edge">
<title>Node2&#45;&gt;Node1</title>
<g id="a_edge1_Node000001_Node000002"><a xlink:title=" ">
<path fill="none" stroke="#9a32cd" stroke-dasharray="5,2" d="M83.41,-58.52C92.23,-46.13 103.48,-30.33 110.53,-20.44"/>
<polygon fill="#9a32cd" stroke="#9a32cd" points="80.81,-56.13 77.86,-66.31 86.51,-60.2 80.81,-56.13"/>
</a>
</g>
<text xml:space="preserve" text-anchor="middle" x="118.21" y="-40.5" font-family="Helvetica,sans-Serif" font-size="10.00" fill="grey"> m_game</text>
</g>
<!-- Node3 -->
<g id="Node000003" class="node">
<title>Node3</title>
<g id="a_Node000003"><a xlink:href="struct_game_engine_1_1_game_settings.html" target="_top" xlink:title="Basic options struct.">
<polygon fill="white" stroke="#666666" points="140.5,-156 0,-156 0,-136 140.5,-136 140.5,-156"/>
<text xml:space="preserve" text-anchor="middle" x="70.25" y="-142.5" font-family="Helvetica,sans-Serif" font-size="10.00">GameEngine::GameSettings</text>
</a>
</g>
</g>
<!-- Node3&#45;&gt;Node2 -->
<g id="edge2_Node000002_Node000003" class="edge">
<title>Node3&#45;&gt;Node2</title>
<g id="a_edge2_Node000002_Node000003"><a xlink:title=" ">
<path fill="none" stroke="#9a32cd" stroke-dasharray="5,2" d="M70.25,-124.28C70.25,-112.27 70.25,-97.74 70.25,-88.44"/>
<polygon fill="#9a32cd" stroke="#9a32cd" points="66.75,-124.03 70.25,-134.03 73.75,-124.03 66.75,-124.03"/>
</a>
</g>
<text xml:space="preserve" text-anchor="middle" x="89" y="-108.5" font-family="Helvetica,sans-Serif" font-size="10.00" fill="grey"> settings</text>
</g>
<!-- Node4 -->
<g id="Node000004" class="node">
<title>Node4</title>
<g id="a_Node000004"><a xlink:href="class_entity_manager.html" target="_top" xlink:title="Manages all entities within a scene.">
<polygon fill="white" stroke="#666666" points="203.75,-88 124.75,-88 124.75,-68 203.75,-68 203.75,-88"/>
<text xml:space="preserve" text-anchor="middle" x="164.25" y="-74.5" font-family="Helvetica,sans-Serif" font-size="10.00">EntityManager</text>
</a>
</g>
</g>
<!-- Node4&#45;&gt;Node1 -->
<g id="edge3_Node000001_Node000004" class="edge">
<title>Node4&#45;&gt;Node1</title>
<g id="a_edge3_Node000001_Node000004"><a xlink:title=" ">
<path fill="none" stroke="#9a32cd" stroke-dasharray="5,2" d="M154.52,-57.68C150.96,-51.22 146.71,-44.12 142.25,-38 137.58,-31.6 131.57,-25.07 126.61,-20.03"/>
<polygon fill="#9a32cd" stroke="#9a32cd" points="151.3,-59.08 159.05,-66.31 157.5,-55.83 151.3,-59.08"/>
</a>
</g>
<text xml:space="preserve" text-anchor="middle" x="173.69" y="-40.5" font-family="Helvetica,sans-Serif" font-size="10.00" fill="grey"> m_entities</text>
</g>
</g>
</svg>
