<?xml version="1.0" encoding="UTF-8" standalone="no"?>
<!DOCTYPE svg PUBLIC "-//W3C//DTD SVG 1.1//EN"
 "http://www.w3.org/Graphics/SVG/1.1/DTD/svg11.dtd">
<!-- Generated by graphviz version 13.1.2 (20250808.2320)
 -->
<!-- Title: SceneMenu::system_render Pages: 1 -->
<svg width="479pt" height="154pt"
 viewBox="0.00 0.00 479.00 154.00" xmlns="http://www.w3.org/2000/svg" xmlns:xlink="http://www.w3.org/1999/xlink">

<svg id="main" version="1.1" xmlns="http://www.w3.org/2000/svg" xmlns:xlink="http://www.w3.org/1999/xlink" xml:space="preserve" onload="init(evt)">
<style type="text/css"><![CDATA[
.node, .edge {opacity: 0.7;}
.node.selected, .edge.selected {opacity: 1;}
.edge:hover path { stroke: red; }
.edge:hover polygon { stroke: red; fill: red; }
]]></style>
<script type="application/ecmascript" xlink:href="svg.min.js"/>
<svg id="graph" class="graph">
<g id="graph0" class="graph" transform="scale(1 1) rotate(0) translate(4 150)">
<title>SceneMenu::system_render</title>
<!-- Node1 -->
<g id="Node000001" class="node">
<title>Node1</title>
<g id="a_Node000001"><a xlink:title="Render the scene.">
<polygon fill="#999999" stroke="#666666" points="138.25,-89 0,-89 0,-69 138.25,-69 138.25,-89"/>
<text xml:space="preserve" text-anchor="middle" x="69.12" y="-75.5" font-family="Helvetica,sans-Serif" font-size="10.00">SceneMenu::system_render</text>
</a>
</g>
</g>
<!-- Node2 -->
<g id="Node000002" class="node">
<title>Node2</title>
<g id="a_Node000002"><a xlink:href="misc_8cpp.html#ab1b3d4fa86a6508ba5d1bea7af0b9806" target="_top" xlink:title="Convert an uint8_t array to sf::Color.">
<polygon fill="white" stroke="#666666" points="278,-146 200.5,-146 200.5,-126 278,-126 278,-146"/>
<text xml:space="preserve" text-anchor="middle" x="239.25" y="-132.5" font-family="Helvetica,sans-Serif" font-size="10.00">array_to_color</text>
</a>
</g>
</g>
<!-- Node1&#45;&gt;Node2 -->
<g id="edge1_Node000001_Node000002" class="edge">
<title>Node1&#45;&gt;Node2</title>
<g id="a_edge1_Node000001_Node000002"><a xlink:title=" ">
<path fill="none" stroke="#63b8ff" d="M97.37,-89.46C118.28,-97.37 147.94,-108.3 174.25,-117 179.61,-118.77 185.26,-120.56 190.88,-122.29"/>
<polygon fill="#63b8ff" stroke="#63b8ff" points="189.54,-125.54 200.13,-125.09 191.57,-118.85 189.54,-125.54"/>
</a>
</g>
</g>
<!-- Node3 -->
<g id="Node000003" class="node">
<title>Node3</title>
<g id="a_Node000003"><a xlink:href="class_game_engine.html#a3055449e25d04a5406d55060b5bdc210" target="_top" xlink:title="Return current window&#39;s view.">
<polygon fill="white" stroke="#666666" points="297.88,-108 180.62,-108 180.62,-88 297.88,-88 297.88,-108"/>
<text xml:space="preserve" text-anchor="middle" x="239.25" y="-94.5" font-family="Helvetica,sans-Serif" font-size="10.00">GameEngine::get_view</text>
</a>
</g>
</g>
<!-- Node1&#45;&gt;Node3 -->
<g id="edge2_Node000001_Node000003" class="edge">
<title>Node1&#45;&gt;Node3</title>
<g id="a_edge2_Node000001_Node000003"><a xlink:title=" ">
<path fill="none" stroke="#63b8ff" d="M138.51,-86.73C148.55,-87.86 158.9,-89.03 168.96,-90.17"/>
<polygon fill="#63b8ff" stroke="#63b8ff" points="168.32,-93.62 178.65,-91.26 169.11,-86.66 168.32,-93.62"/>
</a>
</g>
</g>
<!-- Node4 -->
<g id="Node000004" class="node">
<title>Node4</title>
<g id="a_Node000004"><a xlink:href="class_game_engine.html#a579d9fb224e4d14e3a6cdc7b9536f9f3" target="_top" xlink:title="Return the window.">
<polygon fill="white" stroke="#666666" points="304.25,-70 174.25,-70 174.25,-50 304.25,-50 304.25,-70"/>
<text xml:space="preserve" text-anchor="middle" x="239.25" y="-56.5" font-family="Helvetica,sans-Serif" font-size="10.00">GameEngine::get_window</text>
</a>
</g>
</g>
<!-- Node1&#45;&gt;Node4 -->
<g id="edge3_Node000001_Node000004" class="edge">
<title>Node1&#45;&gt;Node4</title>
<g id="a_edge3_Node000001_Node000004"><a xlink:title=" ">
<path fill="none" stroke="#63b8ff" d="M138.51,-71.27C146.48,-70.37 154.64,-69.45 162.71,-68.54"/>
<polygon fill="#63b8ff" stroke="#63b8ff" points="162.95,-72.03 172.5,-67.43 162.17,-65.08 162.95,-72.03"/>
</a>
</g>
</g>
<!-- Node5 -->
<g id="Node000005" class="node">
<title>Node5</title>
<g id="a_Node000005"><a xlink:href="class_game_engine.html#ac10a8a32240768ca5af7d5769748651c" target="_top" xlink:title="Return the window configuration (size, title etc.)">
<polygon fill="white" stroke="#666666" points="304.25,-32 174.25,-32 174.25,0 304.25,0 304.25,-32"/>
<text xml:space="preserve" text-anchor="start" x="182.25" y="-18.5" font-family="Helvetica,sans-Serif" font-size="10.00">GameEngine::get_window</text>
<text xml:space="preserve" text-anchor="middle" x="239.25" y="-6.5" font-family="Helvetica,sans-Serif" font-size="10.00">_config</text>
</a>
</g>
</g>
<!-- Node1&#45;&gt;Node5 -->
<g id="edge4_Node000001_Node000005" class="edge">
<title>Node1&#45;&gt;Node5</title>
<g id="a_edge4_Node000001_Node000005"><a xlink:title=" ">
<path fill="none" stroke="#63b8ff" d="M97.89,-68.6C121.13,-59.89 154.99,-47.2 183.63,-36.47"/>
<polygon fill="#63b8ff" stroke="#63b8ff" points="184.77,-39.78 192.9,-32.99 182.31,-33.22 184.77,-39.78"/>
</a>
</g>
</g>
<!-- Node6 -->
<g id="Node000006" class="node">
<title>Node6</title>
<g id="a_Node000006"><a xlink:href="class_config_parser.html#a03c08a6751ea04dd1e8a3d9149e91712" target="_top" xlink:title="Return window configuration (size, title etc.)">
<polygon fill="white" stroke="#666666" points="471,-32 340.25,-32 340.25,0 471,0 471,-32"/>
<text xml:space="preserve" text-anchor="start" x="348.25" y="-18.5" font-family="Helvetica,sans-Serif" font-size="10.00">ConfigParser::get_window</text>
<text xml:space="preserve" text-anchor="middle" x="405.62" y="-6.5" font-family="Helvetica,sans-Serif" font-size="10.00">_config</text>
</a>
</g>
</g>
<!-- Node5&#45;&gt;Node6 -->
<g id="edge5_Node000005_Node000006" class="edge">
<title>Node5&#45;&gt;Node6</title>
<g id="a_edge5_Node000005_Node000006"><a xlink:title=" ">
<path fill="none" stroke="#63b8ff" d="M304.74,-16C312.48,-16 320.43,-16 328.32,-16"/>
<polygon fill="#63b8ff" stroke="#63b8ff" points="328.26,-19.5 338.26,-16 328.26,-12.5 328.26,-19.5"/>
</a>
</g>
</g>
</g>
</svg>
</svg>

<style type='text/css'>
<![CDATA[
[data-mouse-over-selected='false'] { opacity: 0.7; }
[data-mouse-over-selected='true']  { opacity: 1.0; }
]]>
</style>
<script type="application/ecmascript"><![CDATA[
document.addEventListener('DOMContentLoaded', (event) => {
  highlightEdges();
  highlightAdjacentNodes();
});
]]></script>
</svg>
