<?xml version="1.0" encoding="UTF-8" standalone="no"?>
<!DOCTYPE svg PUBLIC "-//W3C//DTD SVG 1.1//EN"
 "http://www.w3.org/Graphics/SVG/1.1/DTD/svg11.dtd">
<!-- Generated by graphviz version 13.1.2 (20250808.2320)
 -->
<!-- Title: src/config_parser.hpp Pages: 1 -->
<svg width="546pt" height="140pt"
 viewBox="0.00 0.00 546.00 140.00" xmlns="http://www.w3.org/2000/svg" xmlns:xlink="http://www.w3.org/1999/xlink">
<g id="graph0" class="graph" transform="scale(1 1) rotate(0) translate(4 136)">
<title>src/config_parser.hpp</title>
<!-- Node1 -->
<g id="Node000001" class="node">
<title>Node1</title>
<g id="a_Node000001"><a xlink:title=" ">
<polygon fill="#999999" stroke="#666666" points="247.38,-132 137.62,-132 137.62,-112 247.38,-112 247.38,-132"/>
<text xml:space="preserve" text-anchor="middle" x="192.5" y="-118.5" font-family="Helvetica,sans-Serif" font-size="10.00">src/config_parser.hpp</text>
</a>
</g>
</g>
<!-- Node2 -->
<g id="Node000002" class="node">
<title>Node2</title>
<g id="a_Node000002"><a xlink:href="config__parser_8cpp.html" target="_top" xlink:title=" ">
<polygon fill="white" stroke="#666666" points="184.38,-76 74.62,-76 74.62,-56 184.38,-56 184.38,-76"/>
<text xml:space="preserve" text-anchor="middle" x="129.5" y="-62.5" font-family="Helvetica,sans-Serif" font-size="10.00">src/config_parser.cpp</text>
</a>
</g>
</g>
<!-- Node1&#45;&gt;Node2 -->
<g id="edge1_Node000001_Node000002" class="edge">
<title>Node1&#45;&gt;Node2</title>
<g id="a_edge1_Node000001_Node000002"><a xlink:title=" ">
<path fill="none" stroke="#63b8ff" d="M172.81,-104.13C162.1,-94.94 149.25,-83.93 140.35,-76.3"/>
<polygon fill="#63b8ff" stroke="#63b8ff" points="170.51,-106.76 180.38,-110.61 175.06,-101.44 170.51,-106.76"/>
</a>
</g>
</g>
<!-- Node3 -->
<g id="Node000003" class="node">
<title>Node3</title>
<g id="a_Node000003"><a xlink:href="game__engine_8hpp.html" target="_top" xlink:title=" ">
<polygon fill="white" stroke="#666666" points="311,-76 202,-76 202,-56 311,-56 311,-76"/>
<text xml:space="preserve" text-anchor="middle" x="256.5" y="-62.5" font-family="Helvetica,sans-Serif" font-size="10.00">src/game_engine.hpp</text>
</a>
</g>
</g>
<!-- Node1&#45;&gt;Node3 -->
<g id="edge2_Node000001_Node000003" class="edge">
<title>Node1&#45;&gt;Node3</title>
<g id="a_edge2_Node000001_Node000003"><a xlink:title=" ">
<path fill="none" stroke="#63b8ff" d="M212.17,-104.4C223.12,-95.17 236.34,-84.01 245.48,-76.3"/>
<polygon fill="#63b8ff" stroke="#63b8ff" points="210.19,-101.49 204.8,-110.62 214.7,-106.84 210.19,-101.49"/>
</a>
</g>
</g>
<!-- Node4 -->
<g id="Node000004" class="node">
<title>Node4</title>
<g id="a_Node000004"><a xlink:href="game__engine_8cpp.html" target="_top" xlink:title=" ">
<polygon fill="white" stroke="#666666" points="109,-20 0,-20 0,0 109,0 109,-20"/>
<text xml:space="preserve" text-anchor="middle" x="54.5" y="-6.5" font-family="Helvetica,sans-Serif" font-size="10.00">src/game_engine.cpp</text>
</a>
</g>
</g>
<!-- Node3&#45;&gt;Node4 -->
<g id="edge3_Node000003_Node000004" class="edge">
<title>Node3&#45;&gt;Node4</title>
<g id="a_edge3_Node000003_Node000004"><a xlink:title=" ">
<path fill="none" stroke="#63b8ff" d="M210.44,-52.69C173.85,-42.91 123.45,-29.43 89.96,-20.48"/>
<polygon fill="#63b8ff" stroke="#63b8ff" points="209.29,-56 219.85,-55.2 211.1,-49.24 209.29,-56"/>
</a>
</g>
</g>
<!-- Node5 -->
<g id="Node000005" class="node">
<title>Node5</title>
<g id="a_Node000005"><a xlink:href="main_8cpp.html" target="_top" xlink:title=" ">
<polygon fill="white" stroke="#666666" points="199.62,-20 127.38,-20 127.38,0 199.62,0 199.62,-20"/>
<text xml:space="preserve" text-anchor="middle" x="163.5" y="-6.5" font-family="Helvetica,sans-Serif" font-size="10.00">src/main.cpp</text>
</a>
</g>
</g>
<!-- Node3&#45;&gt;Node5 -->
<g id="edge4_Node000003_Node000005" class="edge">
<title>Node3&#45;&gt;Node5</title>
<g id="a_edge4_Node000003_Node000005"><a xlink:title=" ">
<path fill="none" stroke="#63b8ff" d="M230.8,-50.08C214.51,-40.62 193.91,-28.66 179.83,-20.48"/>
<polygon fill="#63b8ff" stroke="#63b8ff" points="228.59,-52.84 238.99,-54.83 232.1,-46.79 228.59,-52.84"/>
</a>
</g>
</g>
<!-- Node6 -->
<g id="Node000006" class="node">
<title>Node6</title>
<g id="a_Node000006"><a xlink:href="scene_8cpp.html" target="_top" xlink:title=" ">
<polygon fill="white" stroke="#666666" points="295.25,-20 217.75,-20 217.75,0 295.25,0 295.25,-20"/>
<text xml:space="preserve" text-anchor="middle" x="256.5" y="-6.5" font-family="Helvetica,sans-Serif" font-size="10.00">src/scene.cpp</text>
</a>
</g>
</g>
<!-- Node3&#45;&gt;Node6 -->
<g id="edge5_Node000003_Node000006" class="edge">
<title>Node3&#45;&gt;Node6</title>
<g id="a_edge5_Node000003_Node000006"><a xlink:title=" ">
<path fill="none" stroke="#63b8ff" d="M256.5,-44.13C256.5,-35.9 256.5,-26.85 256.5,-20.3"/>
<polygon fill="#63b8ff" stroke="#63b8ff" points="253,-44.08 256.5,-54.08 260,-44.08 253,-44.08"/>
</a>
</g>
</g>
<!-- Node7 -->
<g id="Node000007" class="node">
<title>Node7</title>
<g id="a_Node000007"><a xlink:href="scene__menu_8cpp.html" target="_top" xlink:title=" ">
<polygon fill="white" stroke="#666666" points="419.88,-20 313.12,-20 313.12,0 419.88,0 419.88,-20"/>
<text xml:space="preserve" text-anchor="middle" x="366.5" y="-6.5" font-family="Helvetica,sans-Serif" font-size="10.00">src/scene_menu.cpp</text>
</a>
</g>
</g>
<!-- Node3&#45;&gt;Node7 -->
<g id="edge6_Node000003_Node000007" class="edge">
<title>Node3&#45;&gt;Node7</title>
<g id="a_edge6_Node000003_Node000007"><a xlink:title=" ">
<path fill="none" stroke="#63b8ff" d="M285.81,-50.61C305.25,-41.07 330.21,-28.81 347.19,-20.48"/>
<polygon fill="#63b8ff" stroke="#63b8ff" points="284.45,-47.38 277.02,-54.93 287.54,-53.66 284.45,-47.38"/>
</a>
</g>
</g>
<!-- Node8 -->
<g id="Node000008" class="node">
<title>Node8</title>
<g id="a_Node000008"><a xlink:href="scene__play_8cpp.html" target="_top" xlink:title=" ">
<polygon fill="white" stroke="#666666" points="537.5,-20 437.5,-20 437.5,0 537.5,0 537.5,-20"/>
<text xml:space="preserve" text-anchor="middle" x="487.5" y="-6.5" font-family="Helvetica,sans-Serif" font-size="10.00">src/scene_play.cpp</text>
</a>
</g>
</g>
<!-- Node3&#45;&gt;Node8 -->
<g id="edge7_Node000003_Node000008" class="edge">
<title>Node3&#45;&gt;Node8</title>
<g id="a_edge7_Node000003_Node000008"><a xlink:title=" ">
<path fill="none" stroke="#63b8ff" d="M308.1,-52.94C350.05,-43.13 408.42,-29.49 447.05,-20.46"/>
<polygon fill="#63b8ff" stroke="#63b8ff" points="307.42,-49.5 298.48,-55.19 309.01,-56.32 307.42,-49.5"/>
</a>
</g>
</g>
</g>
</svg>
