<?xml version="1.0" encoding="UTF-8" standalone="no"?>
<!DOCTYPE svg PUBLIC "-//W3C//DTD SVG 1.1//EN"
 "http://www.w3.org/Graphics/SVG/1.1/DTD/svg11.dtd">
<!-- Generated by graphviz version 13.1.2 (20250808.2320)
 -->
<!-- Title: src/config_structs.hpp Pages: 1 -->
<svg width="546pt" height="196pt"
 viewBox="0.00 0.00 546.00 196.00" xmlns="http://www.w3.org/2000/svg" xmlns:xlink="http://www.w3.org/1999/xlink">
<g id="graph0" class="graph" transform="scale(1 1) rotate(0) translate(4 192)">
<title>src/config_structs.hpp</title>
<!-- Node1 -->
<g id="Node000001" class="node">
<title>Node1</title>
<g id="a_Node000001"><a xlink:title=" ">
<polygon fill="#999999" stroke="#666666" points="458.88,-188 346.12,-188 346.12,-168 458.88,-168 458.88,-188"/>
<text xml:space="preserve" text-anchor="middle" x="402.5" y="-174.5" font-family="Helvetica,sans-Serif" font-size="10.00">src/config_structs.hpp</text>
</a>
</g>
</g>
<!-- Node2 -->
<g id="Node000002" class="node">
<title>Node2</title>
<g id="a_Node000002"><a xlink:href="config__parser_8hpp.html" target="_top" xlink:title=" ">
<polygon fill="white" stroke="#666666" points="416.38,-132 306.62,-132 306.62,-112 416.38,-112 416.38,-132"/>
<text xml:space="preserve" text-anchor="middle" x="361.5" y="-118.5" font-family="Helvetica,sans-Serif" font-size="10.00">src/config_parser.hpp</text>
</a>
</g>
</g>
<!-- Node1&#45;&gt;Node2 -->
<g id="edge1_Node000001_Node000002" class="edge">
<title>Node1&#45;&gt;Node2</title>
<g id="a_edge1_Node000001_Node000002"><a xlink:title=" ">
<path fill="none" stroke="#63b8ff" d="M388.41,-158.44C381.71,-149.62 374,-139.47 368.56,-132.3"/>
<polygon fill="#63b8ff" stroke="#63b8ff" points="385.61,-160.54 394.44,-166.39 391.18,-156.31 385.61,-160.54"/>
</a>
</g>
</g>
<!-- Node10 -->
<g id="Node000010" class="node">
<title>Node10</title>
<g id="a_Node000010"><a xlink:href="scene__play_8hpp.html" target="_top" xlink:title=" ">
<polygon fill="white" stroke="#666666" points="534.5,-76 434.5,-76 434.5,-56 534.5,-56 534.5,-76"/>
<text xml:space="preserve" text-anchor="middle" x="484.5" y="-62.5" font-family="Helvetica,sans-Serif" font-size="10.00">src/scene_play.hpp</text>
</a>
</g>
</g>
<!-- Node1&#45;&gt;Node10 -->
<g id="edge9_Node000001_Node000010" class="edge">
<title>Node1&#45;&gt;Node10</title>
<g id="a_edge9_Node000001_Node000010"><a xlink:title=" ">
<path fill="none" stroke="#63b8ff" d="M416.23,-158.58C433.91,-134.86 463.99,-94.52 477.53,-76.35"/>
<polygon fill="#63b8ff" stroke="#63b8ff" points="413.57,-156.3 410.4,-166.41 419.18,-160.48 413.57,-156.3"/>
</a>
</g>
</g>
<!-- Node3 -->
<g id="Node000003" class="node">
<title>Node3</title>
<g id="a_Node000003"><a xlink:href="config__parser_8cpp.html" target="_top" xlink:title=" ">
<polygon fill="white" stroke="#666666" points="416.38,-76 306.62,-76 306.62,-56 416.38,-56 416.38,-76"/>
<text xml:space="preserve" text-anchor="middle" x="361.5" y="-62.5" font-family="Helvetica,sans-Serif" font-size="10.00">src/config_parser.cpp</text>
</a>
</g>
</g>
<!-- Node2&#45;&gt;Node3 -->
<g id="edge2_Node000002_Node000003" class="edge">
<title>Node2&#45;&gt;Node3</title>
<g id="a_edge2_Node000002_Node000003"><a xlink:title=" ">
<path fill="none" stroke="#63b8ff" d="M361.5,-100.13C361.5,-91.9 361.5,-82.85 361.5,-76.3"/>
<polygon fill="#63b8ff" stroke="#63b8ff" points="358,-100.08 361.5,-110.08 365,-100.08 358,-100.08"/>
</a>
</g>
</g>
<!-- Node4 -->
<g id="Node000004" class="node">
<title>Node4</title>
<g id="a_Node000004"><a xlink:href="game__engine_8hpp.html" target="_top" xlink:title=" ">
<polygon fill="white" stroke="#666666" points="289,-76 180,-76 180,-56 289,-56 289,-76"/>
<text xml:space="preserve" text-anchor="middle" x="234.5" y="-62.5" font-family="Helvetica,sans-Serif" font-size="10.00">src/game_engine.hpp</text>
</a>
</g>
</g>
<!-- Node2&#45;&gt;Node4 -->
<g id="edge3_Node000002_Node000004" class="edge">
<title>Node2&#45;&gt;Node4</title>
<g id="a_edge3_Node000002_Node000004"><a xlink:title=" ">
<path fill="none" stroke="#63b8ff" d="M328.9,-107.14C306.29,-97.52 276.76,-84.97 256.79,-76.48"/>
<polygon fill="#63b8ff" stroke="#63b8ff" points="327.41,-110.31 337.99,-111 330.15,-103.87 327.41,-110.31"/>
</a>
</g>
</g>
<!-- Node5 -->
<g id="Node000005" class="node">
<title>Node5</title>
<g id="a_Node000005"><a xlink:href="game__engine_8cpp.html" target="_top" xlink:title=" ">
<polygon fill="white" stroke="#666666" points="109,-20 0,-20 0,0 109,0 109,-20"/>
<text xml:space="preserve" text-anchor="middle" x="54.5" y="-6.5" font-family="Helvetica,sans-Serif" font-size="10.00">src/game_engine.cpp</text>
</a>
</g>
</g>
<!-- Node4&#45;&gt;Node5 -->
<g id="edge4_Node000004_Node000005" class="edge">
<title>Node4&#45;&gt;Node5</title>
<g id="a_edge4_Node000004_Node000005"><a xlink:title=" ">
<path fill="none" stroke="#63b8ff" d="M192.18,-52.31C159.7,-42.56 115.55,-29.32 86.1,-20.48"/>
<polygon fill="#63b8ff" stroke="#63b8ff" points="191.11,-55.64 201.7,-55.16 193.12,-48.93 191.11,-55.64"/>
</a>
</g>
</g>
<!-- Node6 -->
<g id="Node000006" class="node">
<title>Node6</title>
<g id="a_Node000006"><a xlink:href="main_8cpp.html" target="_top" xlink:title=" ">
<polygon fill="white" stroke="#666666" points="199.62,-20 127.38,-20 127.38,0 199.62,0 199.62,-20"/>
<text xml:space="preserve" text-anchor="middle" x="163.5" y="-6.5" font-family="Helvetica,sans-Serif" font-size="10.00">src/main.cpp</text>
</a>
</g>
</g>
<!-- Node4&#45;&gt;Node6 -->
<g id="edge5_Node000004_Node000006" class="edge">
<title>Node4&#45;&gt;Node6</title>
<g id="a_edge5_Node000004_Node000006"><a xlink:title=" ">
<path fill="none" stroke="#63b8ff" d="M213.04,-48.68C200.83,-39.39 185.97,-28.09 175.73,-20.3"/>
<polygon fill="#63b8ff" stroke="#63b8ff" points="210.85,-51.41 220.93,-54.68 215.09,-45.84 210.85,-51.41"/>
</a>
</g>
</g>
<!-- Node7 -->
<g id="Node000007" class="node">
<title>Node7</title>
<g id="a_Node000007"><a xlink:href="scene_8cpp.html" target="_top" xlink:title=" ">
<polygon fill="white" stroke="#666666" points="295.25,-20 217.75,-20 217.75,0 295.25,0 295.25,-20"/>
<text xml:space="preserve" text-anchor="middle" x="256.5" y="-6.5" font-family="Helvetica,sans-Serif" font-size="10.00">src/scene.cpp</text>
</a>
</g>
</g>
<!-- Node4&#45;&gt;Node7 -->
<g id="edge6_Node000004_Node000007" class="edge">
<title>Node4&#45;&gt;Node7</title>
<g id="a_edge6_Node000004_Node000007"><a xlink:title=" ">
<path fill="none" stroke="#63b8ff" d="M242.65,-45C246.1,-36.54 249.95,-27.08 252.71,-20.3"/>
<polygon fill="#63b8ff" stroke="#63b8ff" points="239.43,-43.61 238.9,-54.19 245.92,-46.25 239.43,-43.61"/>
</a>
</g>
</g>
<!-- Node8 -->
<g id="Node000008" class="node">
<title>Node8</title>
<g id="a_Node000008"><a xlink:href="scene__menu_8cpp.html" target="_top" xlink:title=" ">
<polygon fill="white" stroke="#666666" points="537.88,-20 431.12,-20 431.12,0 537.88,0 537.88,-20"/>
<text xml:space="preserve" text-anchor="middle" x="484.5" y="-6.5" font-family="Helvetica,sans-Serif" font-size="10.00">src/scene_menu.cpp</text>
</a>
</g>
</g>
<!-- Node4&#45;&gt;Node8 -->
<g id="edge7_Node000004_Node000008" class="edge">
<title>Node4&#45;&gt;Node8</title>
<g id="a_edge7_Node000004_Node000008"><a xlink:title=" ">
<path fill="none" stroke="#63b8ff" d="M289.47,-53.13C334.94,-43.31 398.65,-29.54 440.72,-20.46"/>
<polygon fill="#63b8ff" stroke="#63b8ff" points="288.85,-49.68 279.81,-55.21 290.33,-56.52 288.85,-49.68"/>
</a>
</g>
</g>
<!-- Node9 -->
<g id="Node000009" class="node">
<title>Node9</title>
<g id="a_Node000009"><a xlink:href="scene__play_8cpp.html" target="_top" xlink:title=" ">
<polygon fill="white" stroke="#666666" points="413.5,-20 313.5,-20 313.5,0 413.5,0 413.5,-20"/>
<text xml:space="preserve" text-anchor="middle" x="363.5" y="-6.5" font-family="Helvetica,sans-Serif" font-size="10.00">src/scene_play.cpp</text>
</a>
</g>
</g>
<!-- Node4&#45;&gt;Node9 -->
<g id="edge8_Node000004_Node000009" class="edge">
<title>Node4&#45;&gt;Node9</title>
<g id="a_edge8_Node000004_Node000009"><a xlink:title=" ">
<path fill="none" stroke="#63b8ff" d="M267.3,-51.27C290.31,-41.64 320.48,-29.01 340.85,-20.48"/>
<polygon fill="#63b8ff" stroke="#63b8ff" points="266.24,-47.92 258.37,-55.01 268.94,-54.38 266.24,-47.92"/>
</a>
</g>
</g>
<!-- Node10&#45;&gt;Node8 -->
<g id="edge10_Node000010_Node000008" class="edge">
<title>Node10&#45;&gt;Node8</title>
<g id="a_edge10_Node000010_Node000008"><a xlink:title=" ">
<path fill="none" stroke="#63b8ff" d="M484.5,-44.13C484.5,-35.9 484.5,-26.85 484.5,-20.3"/>
<polygon fill="#63b8ff" stroke="#63b8ff" points="481,-44.08 484.5,-54.08 488,-44.08 481,-44.08"/>
</a>
</g>
</g>
<!-- Node10&#45;&gt;Node9 -->
<g id="edge11_Node000010_Node000009" class="edge">
<title>Node10&#45;&gt;Node9</title>
<g id="a_edge11_Node000010_Node000009"><a xlink:title=" ">
<path fill="none" stroke="#63b8ff" d="M453.15,-51.01C431.64,-41.41 403.68,-28.93 384.74,-20.48"/>
<polygon fill="#63b8ff" stroke="#63b8ff" points="451.48,-54.1 462.04,-54.98 454.34,-47.71 451.48,-54.1"/>
</a>
</g>
</g>
</g>
</svg>
