<?xml version="1.0" encoding="UTF-8" standalone="no"?>
<!DOCTYPE svg PUBLIC "-//W3C//DTD SVG 1.1//EN"
 "http://www.w3.org/Graphics/SVG/1.1/DTD/svg11.dtd">
<!-- Generated by graphviz version 13.1.2 (20250808.2320)
 -->
<!-- Title: src/entity.hpp Pages: 1 -->
<svg width="405pt" height="252pt"
 viewBox="0.00 0.00 405.00 252.00" xmlns="http://www.w3.org/2000/svg" xmlns:xlink="http://www.w3.org/1999/xlink">
<g id="graph0" class="graph" transform="scale(1 1) rotate(0) translate(4 248)">
<title>src/entity.hpp</title>
<!-- Node1 -->
<g id="Node000001" class="node">
<title>Node1</title>
<g id="a_Node000001"><a xlink:title=" ">
<polygon fill="#999999" stroke="#666666" points="242.75,-244 168.25,-244 168.25,-224 242.75,-224 242.75,-244"/>
<text xml:space="preserve" text-anchor="middle" x="205.5" y="-230.5" font-family="Helvetica,sans-Serif" font-size="10.00">src/entity.hpp</text>
</a>
</g>
</g>
<!-- Node2 -->
<g id="Node000002" class="node">
<title>Node2</title>
<g id="a_Node000002"><a xlink:href="entity_8cpp.html" target="_top" xlink:title=" ">
<polygon fill="white" stroke="#666666" points="128.75,-188 54.25,-188 54.25,-168 128.75,-168 128.75,-188"/>
<text xml:space="preserve" text-anchor="middle" x="91.5" y="-174.5" font-family="Helvetica,sans-Serif" font-size="10.00">src/entity.cpp</text>
</a>
</g>
</g>
<!-- Node1&#45;&gt;Node2 -->
<g id="edge1_Node000001_Node000002" class="edge">
<title>Node1&#45;&gt;Node2</title>
<g id="a_edge1_Node000001_Node000002"><a xlink:title=" ">
<path fill="none" stroke="#63b8ff" d="M175.41,-218.75C155.22,-209.18 129.19,-196.85 111.51,-188.48"/>
<polygon fill="#63b8ff" stroke="#63b8ff" points="173.74,-221.83 184.27,-222.95 176.74,-215.5 173.74,-221.83"/>
</a>
</g>
</g>
<!-- Node3 -->
<g id="Node000003" class="node">
<title>Node3</title>
<g id="a_Node000003"><a xlink:href="entity__manager_8hpp.html" target="_top" xlink:title=" ">
<polygon fill="white" stroke="#666666" points="264.5,-188 146.5,-188 146.5,-168 264.5,-168 264.5,-188"/>
<text xml:space="preserve" text-anchor="middle" x="205.5" y="-174.5" font-family="Helvetica,sans-Serif" font-size="10.00">src/entity_manager.hpp</text>
</a>
</g>
</g>
<!-- Node1&#45;&gt;Node3 -->
<g id="edge2_Node000001_Node000003" class="edge">
<title>Node1&#45;&gt;Node3</title>
<g id="a_edge2_Node000001_Node000003"><a xlink:title=" ">
<path fill="none" stroke="#63b8ff" d="M205.5,-212.13C205.5,-203.9 205.5,-194.85 205.5,-188.3"/>
<polygon fill="#63b8ff" stroke="#63b8ff" points="202,-212.08 205.5,-222.08 209,-212.08 202,-212.08"/>
</a>
</g>
</g>
<!-- Node12 -->
<g id="Node000012" class="node">
<title>Node12</title>
<g id="a_Node000012"><a xlink:href="physics_8hpp.html" target="_top" xlink:title=" ">
<polygon fill="white" stroke="#666666" points="397,-132 312,-132 312,-112 397,-112 397,-132"/>
<text xml:space="preserve" text-anchor="middle" x="354.5" y="-118.5" font-family="Helvetica,sans-Serif" font-size="10.00">src/physics.hpp</text>
</a>
</g>
</g>
<!-- Node1&#45;&gt;Node12 -->
<g id="edge14_Node000001_Node000012" class="edge">
<title>Node1&#45;&gt;Node12</title>
<g id="a_edge14_Node000001_Node000012"><a xlink:title=" ">
<path fill="none" stroke="#63b8ff" d="M230.32,-217.35C243.37,-208.93 259.51,-198.21 273.5,-188 299.28,-169.19 328.13,-145.32 343.48,-132.37"/>
<polygon fill="#63b8ff" stroke="#63b8ff" points="228.44,-214.4 221.9,-222.74 232.21,-220.3 228.44,-214.4"/>
</a>
</g>
</g>
<!-- Node4 -->
<g id="Node000004" class="node">
<title>Node4</title>
<g id="a_Node000004"><a xlink:href="entity__manager_8cpp.html" target="_top" xlink:title=" ">
<polygon fill="white" stroke="#666666" points="148.5,-132 30.5,-132 30.5,-112 148.5,-112 148.5,-132"/>
<text xml:space="preserve" text-anchor="middle" x="89.5" y="-118.5" font-family="Helvetica,sans-Serif" font-size="10.00">src/entity_manager.cpp</text>
</a>
</g>
</g>
<!-- Node3&#45;&gt;Node4 -->
<g id="edge3_Node000003_Node000004" class="edge">
<title>Node3&#45;&gt;Node4</title>
<g id="a_edge3_Node000003_Node000004"><a xlink:title=" ">
<path fill="none" stroke="#63b8ff" d="M174.88,-162.75C154.34,-153.18 127.85,-140.85 109.86,-132.48"/>
<polygon fill="#63b8ff" stroke="#63b8ff" points="173.38,-165.91 183.92,-166.96 176.33,-159.56 173.38,-165.91"/>
</a>
</g>
</g>
<!-- Node5 -->
<g id="Node000005" class="node">
<title>Node5</title>
<g id="a_Node000005"><a xlink:href="scene_8hpp.html" target="_top" xlink:title=" ">
<polygon fill="white" stroke="#666666" points="244.25,-132 166.75,-132 166.75,-112 244.25,-112 244.25,-132"/>
<text xml:space="preserve" text-anchor="middle" x="205.5" y="-118.5" font-family="Helvetica,sans-Serif" font-size="10.00">src/scene.hpp</text>
</a>
</g>
</g>
<!-- Node3&#45;&gt;Node5 -->
<g id="edge4_Node000003_Node000005" class="edge">
<title>Node3&#45;&gt;Node5</title>
<g id="a_edge4_Node000003_Node000005"><a xlink:title=" ">
<path fill="none" stroke="#63b8ff" d="M205.5,-156.13C205.5,-147.9 205.5,-138.85 205.5,-132.3"/>
<polygon fill="#63b8ff" stroke="#63b8ff" points="202,-156.08 205.5,-166.08 209,-156.08 202,-156.08"/>
</a>
</g>
</g>
<!-- Node6 -->
<g id="Node000006" class="node">
<title>Node6</title>
<g id="a_Node000006"><a xlink:href="game__engine_8cpp.html" target="_top" xlink:title=" ">
<polygon fill="white" stroke="#666666" points="109,-20 0,-20 0,0 109,0 109,-20"/>
<text xml:space="preserve" text-anchor="middle" x="54.5" y="-6.5" font-family="Helvetica,sans-Serif" font-size="10.00">src/game_engine.cpp</text>
</a>
</g>
</g>
<!-- Node5&#45;&gt;Node6 -->
<g id="edge5_Node000005_Node000006" class="edge">
<title>Node5&#45;&gt;Node6</title>
<g id="a_edge5_Node000005_Node000006"><a xlink:title=" ">
<path fill="none" stroke="#63b8ff" d="M155.4,-109.9C111.69,-99.72 54.22,-84.9 47.5,-76 35.19,-59.69 43.65,-34.18 49.76,-20.47"/>
<polygon fill="#63b8ff" stroke="#63b8ff" points="154.45,-113.28 164.99,-112.11 156.03,-106.46 154.45,-113.28"/>
</a>
</g>
</g>
<!-- Node7 -->
<g id="Node000007" class="node">
<title>Node7</title>
<g id="a_Node000007"><a xlink:href="scene_8cpp.html" target="_top" xlink:title=" ">
<polygon fill="white" stroke="#666666" points="134.25,-76 56.75,-76 56.75,-56 134.25,-56 134.25,-76"/>
<text xml:space="preserve" text-anchor="middle" x="95.5" y="-62.5" font-family="Helvetica,sans-Serif" font-size="10.00">src/scene.cpp</text>
</a>
</g>
</g>
<!-- Node5&#45;&gt;Node7 -->
<g id="edge6_Node000005_Node000007" class="edge">
<title>Node5&#45;&gt;Node7</title>
<g id="a_edge6_Node000005_Node000007"><a xlink:title=" ">
<path fill="none" stroke="#63b8ff" d="M176.19,-106.61C156.75,-97.07 131.79,-84.81 114.81,-76.48"/>
<polygon fill="#63b8ff" stroke="#63b8ff" points="174.46,-109.66 184.98,-110.93 177.55,-103.38 174.46,-109.66"/>
</a>
</g>
</g>
<!-- Node8 -->
<g id="Node000008" class="node">
<title>Node8</title>
<g id="a_Node000008"><a xlink:href="scene__menu_8hpp.html" target="_top" xlink:title=" ">
<polygon fill="white" stroke="#666666" points="258.88,-76 152.12,-76 152.12,-56 258.88,-56 258.88,-76"/>
<text xml:space="preserve" text-anchor="middle" x="205.5" y="-62.5" font-family="Helvetica,sans-Serif" font-size="10.00">src/scene_menu.hpp</text>
</a>
</g>
</g>
<!-- Node5&#45;&gt;Node8 -->
<g id="edge7_Node000005_Node000008" class="edge">
<title>Node5&#45;&gt;Node8</title>
<g id="a_edge7_Node000005_Node000008"><a xlink:title=" ">
<path fill="none" stroke="#63b8ff" d="M205.5,-100.13C205.5,-91.9 205.5,-82.85 205.5,-76.3"/>
<polygon fill="#63b8ff" stroke="#63b8ff" points="202,-100.08 205.5,-110.08 209,-100.08 202,-100.08"/>
</a>
</g>
</g>
<!-- Node11 -->
<g id="Node000011" class="node">
<title>Node11</title>
<g id="a_Node000011"><a xlink:href="scene__play_8hpp.html" target="_top" xlink:title=" ">
<polygon fill="white" stroke="#666666" points="376.5,-76 276.5,-76 276.5,-56 376.5,-56 376.5,-76"/>
<text xml:space="preserve" text-anchor="middle" x="326.5" y="-62.5" font-family="Helvetica,sans-Serif" font-size="10.00">src/scene_play.hpp</text>
</a>
</g>
</g>
<!-- Node5&#45;&gt;Node11 -->
<g id="edge11_Node000005_Node000011" class="edge">
<title>Node5&#45;&gt;Node11</title>
<g id="a_edge11_Node000005_Node000011"><a xlink:title=" ">
<path fill="none" stroke="#63b8ff" d="M236.85,-107.01C258.36,-97.41 286.32,-84.93 305.26,-76.48"/>
<polygon fill="#63b8ff" stroke="#63b8ff" points="235.66,-103.71 227.96,-110.98 238.52,-110.1 235.66,-103.71"/>
</a>
</g>
</g>
<!-- Node8&#45;&gt;Node6 -->
<g id="edge8_Node000008_Node000006" class="edge">
<title>Node8&#45;&gt;Node6</title>
<g id="a_edge8_Node000008_Node000006"><a xlink:title=" ">
<path fill="none" stroke="#63b8ff" d="M168.56,-51.79C141.46,-42.1 105.29,-29.16 81.01,-20.48"/>
<polygon fill="#63b8ff" stroke="#63b8ff" points="167.18,-55.01 177.77,-55.08 169.54,-48.42 167.18,-55.01"/>
</a>
</g>
</g>
<!-- Node9 -->
<g id="Node000009" class="node">
<title>Node9</title>
<g id="a_Node000009"><a xlink:href="scene__menu_8cpp.html" target="_top" xlink:title=" ">
<polygon fill="white" stroke="#666666" points="258.88,-20 152.12,-20 152.12,0 258.88,0 258.88,-20"/>
<text xml:space="preserve" text-anchor="middle" x="205.5" y="-6.5" font-family="Helvetica,sans-Serif" font-size="10.00">src/scene_menu.cpp</text>
</a>
</g>
</g>
<!-- Node8&#45;&gt;Node9 -->
<g id="edge9_Node000008_Node000009" class="edge">
<title>Node8&#45;&gt;Node9</title>
<g id="a_edge9_Node000008_Node000009"><a xlink:title=" ">
<path fill="none" stroke="#63b8ff" d="M205.5,-44.13C205.5,-35.9 205.5,-26.85 205.5,-20.3"/>
<polygon fill="#63b8ff" stroke="#63b8ff" points="202,-44.08 205.5,-54.08 209,-44.08 202,-44.08"/>
</a>
</g>
</g>
<!-- Node10 -->
<g id="Node000010" class="node">
<title>Node10</title>
<g id="a_Node000010"><a xlink:href="scene__play_8cpp.html" target="_top" xlink:title=" ">
<polygon fill="white" stroke="#666666" points="376.5,-20 276.5,-20 276.5,0 376.5,0 376.5,-20"/>
<text xml:space="preserve" text-anchor="middle" x="326.5" y="-6.5" font-family="Helvetica,sans-Serif" font-size="10.00">src/scene_play.cpp</text>
</a>
</g>
</g>
<!-- Node8&#45;&gt;Node10 -->
<g id="edge10_Node000008_Node000010" class="edge">
<title>Node8&#45;&gt;Node10</title>
<g id="a_edge10_Node000008_Node000010"><a xlink:title=" ">
<path fill="none" stroke="#63b8ff" d="M236.85,-51.01C258.36,-41.41 286.32,-28.93 305.26,-20.48"/>
<polygon fill="#63b8ff" stroke="#63b8ff" points="235.66,-47.71 227.96,-54.98 238.52,-54.1 235.66,-47.71"/>
</a>
</g>
</g>
<!-- Node11&#45;&gt;Node9 -->
<g id="edge12_Node000011_Node000009" class="edge">
<title>Node11&#45;&gt;Node9</title>
<g id="a_edge12_Node000011_Node000009"><a xlink:title=" ">
<path fill="none" stroke="#63b8ff" d="M295.15,-51.01C273.64,-41.41 245.68,-28.93 226.74,-20.48"/>
<polygon fill="#63b8ff" stroke="#63b8ff" points="293.48,-54.1 304.04,-54.98 296.34,-47.71 293.48,-54.1"/>
</a>
</g>
</g>
<!-- Node11&#45;&gt;Node10 -->
<g id="edge13_Node000011_Node000010" class="edge">
<title>Node11&#45;&gt;Node10</title>
<g id="a_edge13_Node000011_Node000010"><a xlink:title=" ">
<path fill="none" stroke="#63b8ff" d="M326.5,-44.13C326.5,-35.9 326.5,-26.85 326.5,-20.3"/>
<polygon fill="#63b8ff" stroke="#63b8ff" points="323,-44.08 326.5,-54.08 330,-44.08 323,-44.08"/>
</a>
</g>
</g>
<!-- Node12&#45;&gt;Node10 -->
<g id="edge15_Node000012_Node000010" class="edge">
<title>Node12&#45;&gt;Node10</title>
<g id="a_edge15_Node000012_Node000010"><a xlink:title=" ">
<path fill="none" stroke="#63b8ff" d="M372.24,-103.17C383.03,-90.07 393.35,-71.87 385.5,-56 377.5,-39.84 360.6,-27.89 346.94,-20.39"/>
<polygon fill="#63b8ff" stroke="#63b8ff" points="369.66,-100.81 365.56,-110.58 374.86,-105.49 369.66,-100.81"/>
</a>
</g>
</g>
</g>
</svg>
