<?xml version="1.0" encoding="UTF-8" standalone="no"?>
<!DOCTYPE svg PUBLIC "-//W3C//DTD SVG 1.1//EN"
 "http://www.w3.org/Graphics/SVG/1.1/DTD/svg11.dtd">
<!-- Generated by graphviz version 13.1.2 (20250808.2320)
 -->
<!-- Title: src/entity_manager.hpp Pages: 1 -->
<svg width="441pt" height="196pt"
 viewBox="0.00 0.00 441.00 196.00" xmlns="http://www.w3.org/2000/svg" xmlns:xlink="http://www.w3.org/1999/xlink">

<svg id="main" version="1.1" xmlns="http://www.w3.org/2000/svg" xmlns:xlink="http://www.w3.org/1999/xlink" xml:space="preserve" onload="init(evt)">
<style type="text/css"><![CDATA[
.node, .edge {opacity: 0.7;}
.node.selected, .edge.selected {opacity: 1;}
.edge:hover path { stroke: red; }
.edge:hover polygon { stroke: red; fill: red; }
]]></style>
<script type="application/ecmascript" xlink:href="svg.min.js"/>
<svg id="graph" class="graph">
<g id="graph0" class="graph" transform="scale(1 1) rotate(0) translate(4 192)">
<title>src/entity_manager.hpp</title>
<!-- Node1 -->
<g id="Node000001" class="node">
<title>Node1</title>
<g id="a_Node000001"><a xlink:title=" ">
<polygon fill="#999999" stroke="#666666" points="227.5,-188 109.5,-188 109.5,-168 227.5,-168 227.5,-188"/>
<text xml:space="preserve" text-anchor="middle" x="168.5" y="-174.5" font-family="Helvetica,sans-Serif" font-size="10.00">src/entity_manager.hpp</text>
</a>
</g>
</g>
<!-- Node2 -->
<g id="Node000002" class="node">
<title>Node2</title>
<g id="a_Node000002"><a xlink:href="entity__manager_8cpp.html" target="_top" xlink:title=" ">
<polygon fill="white" stroke="#666666" points="169.5,-132 51.5,-132 51.5,-112 169.5,-112 169.5,-132"/>
<text xml:space="preserve" text-anchor="middle" x="110.5" y="-118.5" font-family="Helvetica,sans-Serif" font-size="10.00">src/entity_manager.cpp</text>
</a>
</g>
</g>
<!-- Node1&#45;&gt;Node2 -->
<g id="edge1_Node000001_Node000002" class="edge">
<title>Node1&#45;&gt;Node2</title>
<g id="a_edge1_Node000001_Node000002"><a xlink:title=" ">
<path fill="none" stroke="#63b8ff" d="M150.08,-159.85C140.27,-150.72 128.6,-139.86 120.49,-132.3"/>
<polygon fill="#63b8ff" stroke="#63b8ff" points="147.59,-162.31 157.29,-166.56 152.36,-157.19 147.59,-162.31"/>
</a>
</g>
</g>
<!-- Node3 -->
<g id="Node000003" class="node">
<title>Node3</title>
<g id="a_Node000003"><a xlink:href="scene_8hpp.html" target="_top" xlink:title=" ">
<polygon fill="white" stroke="#666666" points="265.25,-132 187.75,-132 187.75,-112 265.25,-112 265.25,-132"/>
<text xml:space="preserve" text-anchor="middle" x="226.5" y="-118.5" font-family="Helvetica,sans-Serif" font-size="10.00">src/scene.hpp</text>
</a>
</g>
</g>
<!-- Node1&#45;&gt;Node3 -->
<g id="edge2_Node000001_Node000003" class="edge">
<title>Node1&#45;&gt;Node3</title>
<g id="a_edge2_Node000001_Node000003"><a xlink:title=" ">
<path fill="none" stroke="#63b8ff" d="M186.92,-159.85C196.73,-150.72 208.4,-139.86 216.51,-132.3"/>
<polygon fill="#63b8ff" stroke="#63b8ff" points="184.64,-157.19 179.71,-166.56 189.41,-162.31 184.64,-157.19"/>
</a>
</g>
</g>
<!-- Node4 -->
<g id="Node000004" class="node">
<title>Node4</title>
<g id="a_Node000004"><a xlink:href="game__engine_8cpp.html" target="_top" xlink:title=" ">
<polygon fill="white" stroke="#666666" points="109,-20 0,-20 0,0 109,0 109,-20"/>
<text xml:space="preserve" text-anchor="middle" x="54.5" y="-6.5" font-family="Helvetica,sans-Serif" font-size="10.00">src/game_engine.cpp</text>
</a>
</g>
</g>
<!-- Node3&#45;&gt;Node4 -->
<g id="edge3_Node000003_Node000004" class="edge">
<title>Node3&#45;&gt;Node4</title>
<g id="a_edge3_Node000003_Node000004"><a xlink:title=" ">
<path fill="none" stroke="#63b8ff" d="M176.72,-109.52C153.28,-102.47 125.85,-91.71 104.5,-76 83.63,-60.65 67.16,-34.27 59.39,-20.3"/>
<polygon fill="#63b8ff" stroke="#63b8ff" points="175.48,-112.81 186.06,-112.18 177.4,-106.08 175.48,-112.81"/>
</a>
</g>
</g>
<!-- Node5 -->
<g id="Node000005" class="node">
<title>Node5</title>
<g id="a_Node000005"><a xlink:href="scene_8cpp.html" target="_top" xlink:title=" ">
<polygon fill="white" stroke="#666666" points="433.25,-76 355.75,-76 355.75,-56 433.25,-56 433.25,-76"/>
<text xml:space="preserve" text-anchor="middle" x="394.5" y="-62.5" font-family="Helvetica,sans-Serif" font-size="10.00">src/scene.cpp</text>
</a>
</g>
</g>
<!-- Node3&#45;&gt;Node5 -->
<g id="edge4_Node000003_Node000005" class="edge">
<title>Node3&#45;&gt;Node5</title>
<g id="a_edge4_Node000003_Node000005"><a xlink:title=" ">
<path fill="none" stroke="#63b8ff" d="M266.39,-108.18C296.68,-98.44 337.64,-85.28 365.01,-76.48"/>
<polygon fill="#63b8ff" stroke="#63b8ff" points="265.65,-104.74 257.2,-111.13 267.8,-111.4 265.65,-104.74"/>
</a>
</g>
</g>
<!-- Node6 -->
<g id="Node000006" class="node">
<title>Node6</title>
<g id="a_Node000006"><a xlink:href="scene__menu_8hpp.html" target="_top" xlink:title=" ">
<polygon fill="white" stroke="#666666" points="219.88,-76 113.12,-76 113.12,-56 219.88,-56 219.88,-76"/>
<text xml:space="preserve" text-anchor="middle" x="166.5" y="-62.5" font-family="Helvetica,sans-Serif" font-size="10.00">src/scene_menu.hpp</text>
</a>
</g>
</g>
<!-- Node3&#45;&gt;Node6 -->
<g id="edge5_Node000003_Node000006" class="edge">
<title>Node3&#45;&gt;Node6</title>
<g id="a_edge5_Node000003_Node000006"><a xlink:title=" ">
<path fill="none" stroke="#63b8ff" d="M207.75,-104.13C197.55,-94.94 185.31,-83.93 176.83,-76.3"/>
<polygon fill="#63b8ff" stroke="#63b8ff" points="205.15,-106.49 214.92,-110.58 209.83,-101.29 205.15,-106.49"/>
</a>
</g>
</g>
<!-- Node9 -->
<g id="Node000009" class="node">
<title>Node9</title>
<g id="a_Node000009"><a xlink:href="scene__play_8hpp.html" target="_top" xlink:title=" ">
<polygon fill="white" stroke="#666666" points="337.5,-76 237.5,-76 237.5,-56 337.5,-56 337.5,-76"/>
<text xml:space="preserve" text-anchor="middle" x="287.5" y="-62.5" font-family="Helvetica,sans-Serif" font-size="10.00">src/scene_play.hpp</text>
</a>
</g>
</g>
<!-- Node3&#45;&gt;Node9 -->
<g id="edge9_Node000003_Node000009" class="edge">
<title>Node3&#45;&gt;Node9</title>
<g id="a_edge9_Node000003_Node000009"><a xlink:title=" ">
<path fill="none" stroke="#63b8ff" d="M245.56,-104.13C255.94,-94.94 268.37,-83.93 277,-76.3"/>
<polygon fill="#63b8ff" stroke="#63b8ff" points="243.43,-101.34 238.26,-110.59 248.07,-106.58 243.43,-101.34"/>
</a>
</g>
</g>
<!-- Node6&#45;&gt;Node4 -->
<g id="edge6_Node000006_Node000004" class="edge">
<title>Node6&#45;&gt;Node4</title>
<g id="a_edge6_Node000006_Node000004"><a xlink:title=" ">
<path fill="none" stroke="#63b8ff" d="M136.66,-50.61C116.87,-41.07 91.45,-28.81 74.16,-20.48"/>
<polygon fill="#63b8ff" stroke="#63b8ff" points="135.1,-53.75 145.63,-54.94 138.14,-47.44 135.1,-53.75"/>
</a>
</g>
</g>
<!-- Node7 -->
<g id="Node000007" class="node">
<title>Node7</title>
<g id="a_Node000007"><a xlink:href="scene__menu_8cpp.html" target="_top" xlink:title=" ">
<polygon fill="white" stroke="#666666" points="351.88,-20 245.12,-20 245.12,0 351.88,0 351.88,-20"/>
<text xml:space="preserve" text-anchor="middle" x="298.5" y="-6.5" font-family="Helvetica,sans-Serif" font-size="10.00">src/scene_menu.cpp</text>
</a>
</g>
</g>
<!-- Node6&#45;&gt;Node7 -->
<g id="edge7_Node000006_Node000007" class="edge">
<title>Node6&#45;&gt;Node7</title>
<g id="a_edge7_Node000006_Node000007"><a xlink:title=" ">
<path fill="none" stroke="#63b8ff" d="M200.06,-51.27C223.6,-41.64 254.48,-29.01 275.33,-20.48"/>
<polygon fill="#63b8ff" stroke="#63b8ff" points="198.82,-48 190.89,-55.02 201.47,-54.47 198.82,-48"/>
</a>
</g>
</g>
<!-- Node8 -->
<g id="Node000008" class="node">
<title>Node8</title>
<g id="a_Node000008"><a xlink:href="scene__play_8cpp.html" target="_top" xlink:title=" ">
<polygon fill="white" stroke="#666666" points="227.5,-20 127.5,-20 127.5,0 227.5,0 227.5,-20"/>
<text xml:space="preserve" text-anchor="middle" x="177.5" y="-6.5" font-family="Helvetica,sans-Serif" font-size="10.00">src/scene_play.cpp</text>
</a>
</g>
</g>
<!-- Node6&#45;&gt;Node8 -->
<g id="edge8_Node000006_Node000008" class="edge">
<title>Node6&#45;&gt;Node8</title>
<g id="a_edge8_Node000006_Node000008"><a xlink:title=" ">
<path fill="none" stroke="#63b8ff" d="M170.69,-44.43C172.39,-36.11 174.25,-26.93 175.61,-20.3"/>
<polygon fill="#63b8ff" stroke="#63b8ff" points="167.28,-43.61 168.72,-54.11 174.14,-45.01 167.28,-43.61"/>
</a>
</g>
</g>
<!-- Node9&#45;&gt;Node7 -->
<g id="edge10_Node000009_Node000007" class="edge">
<title>Node9&#45;&gt;Node7</title>
<g id="a_edge10_Node000009_Node000007"><a xlink:title=" ">
<path fill="none" stroke="#63b8ff" d="M291.69,-44.43C293.39,-36.11 295.25,-26.93 296.61,-20.3"/>
<polygon fill="#63b8ff" stroke="#63b8ff" points="288.28,-43.61 289.72,-54.11 295.14,-45.01 288.28,-43.61"/>
</a>
</g>
</g>
<!-- Node9&#45;&gt;Node8 -->
<g id="edge11_Node000009_Node000008" class="edge">
<title>Node9&#45;&gt;Node8</title>
<g id="a_edge11_Node000009_Node000008"><a xlink:title=" ">
<path fill="none" stroke="#63b8ff" d="M258.19,-50.61C238.75,-41.07 213.79,-28.81 196.81,-20.48"/>
<polygon fill="#63b8ff" stroke="#63b8ff" points="256.46,-53.66 266.98,-54.93 259.55,-47.38 256.46,-53.66"/>
</a>
</g>
</g>
</g>
</svg>
</svg>

<style type='text/css'>
<![CDATA[
[data-mouse-over-selected='false'] { opacity: 0.7; }
[data-mouse-over-selected='true']  { opacity: 1.0; }
]]>
</style>
<script type="application/ecmascript"><![CDATA[
document.addEventListener('DOMContentLoaded', (event) => {
  highlightEdges();
  highlightAdjacentNodes();
});
]]></script>
</svg>
