<?xml version="1.0" encoding="UTF-8" standalone="no"?>
<!DOCTYPE svg PUBLIC "-//W3C//DTD SVG 1.1//EN"
 "http://www.w3.org/Graphics/SVG/1.1/DTD/svg11.dtd">
<!-- Generated by graphviz version 13.1.2 (20250808.2320)
 -->
<!-- Title: src/game_engine.cpp Pages: 1 -->
<svg width="1234pt" height="420pt"
 viewBox="0.00 0.00 1234.00 420.00" xmlns="http://www.w3.org/2000/svg" xmlns:xlink="http://www.w3.org/1999/xlink">
<g id="graph0" class="graph" transform="scale(1 1) rotate(0) translate(4 416)">
<title>src/game_engine.cpp</title>
<!-- Node1 -->
<g id="Node000001" class="node">
<title>Node1</title>
<g id="a_Node000001"><a xlink:title=" ">
<polygon fill="#999999" stroke="#666666" points="919.12,-412 810.12,-412 810.12,-392 919.12,-392 919.12,-412"/>
<text xml:space="preserve" text-anchor="middle" x="864.62" y="-398.5" font-family="Helvetica,sans-Serif" font-size="10.00">src/game_engine.cpp</text>
</a>
</g>
</g>
<!-- Node2 -->
<g id="Node000002" class="node">
<title>Node2</title>
<g id="a_Node000002"><a xlink:href="game__engine_8hpp.html" target="_top" xlink:title=" ">
<polygon fill="white" stroke="#666666" points="442.88,-300 350.38,-300 350.38,-280 442.88,-280 442.88,-300"/>
<text xml:space="preserve" text-anchor="middle" x="396.62" y="-286.5" font-family="Helvetica,sans-Serif" font-size="10.00">game_engine.hpp</text>
</a>
</g>
</g>
<!-- Node1&#45;&gt;Node2 -->
<g id="edge1_Node000001_Node000002" class="edge">
<title>Node1&#45;&gt;Node2</title>
<g id="a_edge1_Node000001_Node000002"><a xlink:title=" ">
<path fill="none" stroke="#63b8ff" d="M816.24,-391.52C772.58,-382.82 706.64,-369.28 649.62,-356 576.74,-339.02 492.69,-316.92 442.16,-303.36"/>
<polygon fill="#63b8ff" stroke="#63b8ff" points="443.32,-300.05 432.75,-300.83 441.5,-306.81 443.32,-300.05"/>
</a>
</g>
</g>
<!-- Node19 -->
<g id="Node000019" class="node">
<title>Node19</title>
<g id="a_Node000019"><a xlink:href="action_8hpp.html" target="_top" xlink:title=" ">
<polygon fill="white" stroke="#666666" points="837.12,-244 776.12,-244 776.12,-224 837.12,-224 837.12,-244"/>
<text xml:space="preserve" text-anchor="middle" x="806.62" y="-230.5" font-family="Helvetica,sans-Serif" font-size="10.00">action.hpp</text>
</a>
</g>
</g>
<!-- Node1&#45;&gt;Node19 -->
<g id="edge19_Node000001_Node000019" class="edge">
<title>Node1&#45;&gt;Node19</title>
<g id="a_edge19_Node000001_Node000019"><a xlink:title=" ">
<path fill="none" stroke="#63b8ff" d="M815.84,-391.51C769.72,-379.43 704.44,-353.35 682.62,-300 667.49,-262.98 723.03,-246.7 764.65,-239.79"/>
<polygon fill="#63b8ff" stroke="#63b8ff" points="765.09,-243.26 774.45,-238.3 764.04,-236.34 765.09,-243.26"/>
</a>
</g>
</g>
<!-- Node20 -->
<g id="Node000020" class="node">
<title>Node20</title>
<g id="a_Node000020"><a xlink:href="scene_8hpp.html" target="_top" xlink:title=" ">
<polygon fill="white" stroke="#666666" points="933.12,-300 872.12,-300 872.12,-280 933.12,-280 933.12,-300"/>
<text xml:space="preserve" text-anchor="middle" x="902.62" y="-286.5" font-family="Helvetica,sans-Serif" font-size="10.00">scene.hpp</text>
</a>
</g>
</g>
<!-- Node1&#45;&gt;Node20 -->
<g id="edge21_Node000001_Node000020" class="edge">
<title>Node1&#45;&gt;Node20</title>
<g id="a_edge21_Node000001_Node000020"><a xlink:title=" ">
<path fill="none" stroke="#63b8ff" d="M867,-391.64C870.31,-378.91 876.69,-355.49 883.62,-336 886.64,-327.52 890.43,-318.33 893.82,-310.49"/>
<polygon fill="#63b8ff" stroke="#63b8ff" points="896.92,-312.13 897.77,-301.57 890.52,-309.3 896.92,-312.13"/>
</a>
</g>
</g>
<!-- Node31 -->
<g id="Node000031" class="node">
<title>Node31</title>
<g id="a_Node000031"><a xlink:href="scene__menu_8hpp.html" target="_top" xlink:title=" ">
<polygon fill="white" stroke="#666666" points="836.75,-356 746.5,-356 746.5,-336 836.75,-336 836.75,-356"/>
<text xml:space="preserve" text-anchor="middle" x="791.62" y="-342.5" font-family="Helvetica,sans-Serif" font-size="10.00">scene_menu.hpp</text>
</a>
</g>
</g>
<!-- Node1&#45;&gt;Node31 -->
<g id="edge37_Node000001_Node000031" class="edge">
<title>Node1&#45;&gt;Node31</title>
<g id="a_edge37_Node000001_Node000031"><a xlink:title=" ">
<path fill="none" stroke="#63b8ff" d="M851.91,-391.59C841.23,-383.7 825.75,-372.24 813.14,-362.92"/>
<polygon fill="#63b8ff" stroke="#63b8ff" points="815.53,-360.33 805.41,-357.2 811.37,-365.96 815.53,-360.33"/>
</a>
</g>
</g>
<!-- Node35 -->
<g id="Node000035" class="node">
<title>Node35</title>
<g id="a_Node000035"><a xlink:title=" ">
<polygon fill="#e0e0e0" stroke="#999999" points="946.38,-356 892.88,-356 892.88,-336 946.38,-336 946.38,-356"/>
<text xml:space="preserve" text-anchor="middle" x="919.62" y="-342.5" font-family="Helvetica,sans-Serif" font-size="10.00">iostream</text>
</a>
</g>
</g>
<!-- Node1&#45;&gt;Node35 -->
<g id="edge47_Node000001_Node000035" class="edge">
<title>Node1&#45;&gt;Node35</title>
<g id="a_edge47_Node000001_Node000035"><a xlink:title=" ">
<path fill="none" stroke="#63b8ff" d="M874.21,-391.59C881.86,-384.08 892.78,-373.35 902,-364.3"/>
<polygon fill="#63b8ff" stroke="#63b8ff" points="904.39,-366.86 909.07,-357.36 899.49,-361.87 904.39,-366.86"/>
</a>
</g>
</g>
<!-- Node36 -->
<g id="Node000036" class="node">
<title>Node36</title>
<g id="a_Node000036"><a xlink:title=" ">
<polygon fill="#e0e0e0" stroke="#999999" points="1012.38,-356 964.88,-356 964.88,-336 1012.38,-336 1012.38,-356"/>
<text xml:space="preserve" text-anchor="middle" x="988.62" y="-342.5" font-family="Helvetica,sans-Serif" font-size="10.00">imgui.h</text>
</a>
</g>
</g>
<!-- Node1&#45;&gt;Node36 -->
<g id="edge48_Node000001_Node000036" class="edge">
<title>Node1&#45;&gt;Node36</title>
<g id="a_edge48_Node000001_Node000036"><a xlink:title=" ">
<path fill="none" stroke="#63b8ff" d="M886.22,-391.59C905.58,-383.17 934.23,-370.69 956.31,-361.07"/>
<polygon fill="#63b8ff" stroke="#63b8ff" points="957.7,-364.29 965.47,-357.08 954.9,-357.87 957.7,-364.29"/>
</a>
</g>
</g>
<!-- Node37 -->
<g id="Node000037" class="node">
<title>Node37</title>
<g id="a_Node000037"><a xlink:title=" ">
<polygon fill="#e0e0e0" stroke="#999999" points="1107,-356 1030.25,-356 1030.25,-336 1107,-336 1107,-356"/>
<text xml:space="preserve" text-anchor="middle" x="1068.62" y="-342.5" font-family="Helvetica,sans-Serif" font-size="10.00">imgui&#45;SFML.h</text>
</a>
</g>
</g>
<!-- Node1&#45;&gt;Node37 -->
<g id="edge49_Node000001_Node000037" class="edge">
<title>Node1&#45;&gt;Node37</title>
<g id="a_edge49_Node000001_Node000037"><a xlink:title=" ">
<path fill="none" stroke="#63b8ff" d="M900.16,-391.59C933.88,-382.67 984.78,-369.19 1021.8,-359.39"/>
<polygon fill="#63b8ff" stroke="#63b8ff" points="1022.58,-362.81 1031.35,-356.87 1020.79,-356.04 1022.58,-362.81"/>
</a>
</g>
</g>
<!-- Node3 -->
<g id="Node000003" class="node">
<title>Node3</title>
<g id="a_Node000003"><a xlink:title=" ">
<polygon fill="#e0e0e0" stroke="#999999" points="315.62,-244 143.62,-244 143.62,-224 315.62,-224 315.62,-244"/>
<text xml:space="preserve" text-anchor="middle" x="229.62" y="-230.5" font-family="Helvetica,sans-Serif" font-size="10.00">SFML/Graphics/RenderWindow.hpp</text>
</a>
</g>
</g>
<!-- Node2&#45;&gt;Node3 -->
<g id="edge2_Node000002_Node000003" class="edge">
<title>Node2&#45;&gt;Node3</title>
<g id="a_edge2_Node000002_Node000003"><a xlink:title=" ">
<path fill="none" stroke="#63b8ff" d="M367.54,-279.59C340.4,-270.82 299.69,-257.66 269.53,-247.9"/>
<polygon fill="#63b8ff" stroke="#63b8ff" points="270.97,-244.69 260.38,-244.95 268.82,-251.35 270.97,-244.69"/>
</a>
</g>
</g>
<!-- Node4 -->
<g id="Node000004" class="node">
<title>Node4</title>
<g id="a_Node000004"><a xlink:title=" ">
<polygon fill="#e0e0e0" stroke="#999999" points="459.75,-244 333.5,-244 333.5,-224 459.75,-224 459.75,-244"/>
<text xml:space="preserve" text-anchor="middle" x="396.62" y="-230.5" font-family="Helvetica,sans-Serif" font-size="10.00">SFML/System/Clock.hpp</text>
</a>
</g>
</g>
<!-- Node2&#45;&gt;Node4 -->
<g id="edge3_Node000002_Node000004" class="edge">
<title>Node2&#45;&gt;Node4</title>
<g id="a_edge3_Node000002_Node000004"><a xlink:title=" ">
<path fill="none" stroke="#63b8ff" d="M396.62,-279.59C396.62,-273.01 396.62,-263.96 396.62,-255.73"/>
<polygon fill="#63b8ff" stroke="#63b8ff" points="400.13,-255.81 396.63,-245.81 393.13,-255.81 400.13,-255.81"/>
</a>
</g>
</g>
<!-- Node5 -->
<g id="Node000005" class="node">
<title>Node5</title>
<g id="a_Node000005"><a xlink:href="config__parser_8hpp.html" target="_top" xlink:title=" ">
<polygon fill="white" stroke="#666666" points="93.25,-244 0,-244 0,-224 93.25,-224 93.25,-244"/>
<text xml:space="preserve" text-anchor="middle" x="46.62" y="-230.5" font-family="Helvetica,sans-Serif" font-size="10.00">config_parser.hpp</text>
</a>
</g>
</g>
<!-- Node2&#45;&gt;Node5 -->
<g id="edge4_Node000002_Node000005" class="edge">
<title>Node2&#45;&gt;Node5</title>
<g id="a_edge4_Node000002_Node000005"><a xlink:title=" ">
<path fill="none" stroke="#63b8ff" d="M350.15,-281.83C286.82,-272.06 173.46,-254.57 104.64,-243.95"/>
<polygon fill="#63b8ff" stroke="#63b8ff" points="105.49,-240.54 95.07,-242.47 104.42,-247.46 105.49,-240.54"/>
</a>
</g>
</g>
<!-- Node10 -->
<g id="Node000010" class="node">
<title>Node10</title>
<g id="a_Node000010"><a xlink:href="asset__manager_8hpp.html" target="_top" xlink:title=" ">
<polygon fill="white" stroke="#666666" points="579.38,-244 477.88,-244 477.88,-224 579.38,-224 579.38,-244"/>
<text xml:space="preserve" text-anchor="middle" x="528.62" y="-230.5" font-family="Helvetica,sans-Serif" font-size="10.00">asset_manager.hpp</text>
</a>
</g>
</g>
<!-- Node2&#45;&gt;Node10 -->
<g id="edge9_Node000002_Node000010" class="edge">
<title>Node2&#45;&gt;Node10</title>
<g id="a_edge9_Node000002_Node000010"><a xlink:title=" ">
<path fill="none" stroke="#63b8ff" d="M419.62,-279.59C440.41,-271.09 471.28,-258.46 494.86,-248.81"/>
<polygon fill="#63b8ff" stroke="#63b8ff" points="496.12,-252.08 504.05,-245.05 493.47,-245.6 496.12,-252.08"/>
</a>
</g>
</g>
<!-- Node6 -->
<g id="Node000006" class="node">
<title>Node6</title>
<g id="a_Node000006"><a xlink:href="config__structs_8hpp.html" target="_top" xlink:title=" ">
<polygon fill="white" stroke="#666666" points="472.75,-132 376.5,-132 376.5,-112 472.75,-112 472.75,-132"/>
<text xml:space="preserve" text-anchor="middle" x="424.62" y="-118.5" font-family="Helvetica,sans-Serif" font-size="10.00">config_structs.hpp</text>
</a>
</g>
</g>
<!-- Node5&#45;&gt;Node6 -->
<g id="edge5_Node000005_Node000006" class="edge">
<title>Node5&#45;&gt;Node6</title>
<g id="a_edge5_Node000005_Node000006"><a xlink:title=" ">
<path fill="none" stroke="#63b8ff" d="M40.29,-223.78C31.62,-209.92 18.64,-183.68 32.62,-168 54.32,-143.67 260.51,-130.64 364.81,-125.56"/>
<polygon fill="#63b8ff" stroke="#63b8ff" points="364.76,-129.07 374.59,-125.09 364.43,-122.07 364.76,-129.07"/>
</a>
</g>
</g>
<!-- Node7 -->
<g id="Node000007" class="node">
<title>Node7</title>
<g id="a_Node000007"><a xlink:title=" ">
<polygon fill="#e0e0e0" stroke="#999999" points="659.62,-20 619.62,-20 619.62,0 659.62,0 659.62,-20"/>
<text xml:space="preserve" text-anchor="middle" x="639.62" y="-6.5" font-family="Helvetica,sans-Serif" font-size="10.00">string</text>
</a>
</g>
</g>
<!-- Node6&#45;&gt;Node7 -->
<g id="edge6_Node000006_Node000007" class="edge">
<title>Node6&#45;&gt;Node7</title>
<g id="a_edge6_Node000006_Node000007"><a xlink:title=" ">
<path fill="none" stroke="#63b8ff" d="M428.68,-111.92C435.48,-97.76 450.52,-70.54 471.62,-56 513.18,-27.37 572.07,-16.95 607.96,-13.15"/>
<polygon fill="#63b8ff" stroke="#63b8ff" points="608.05,-16.66 617.68,-12.25 607.4,-9.69 608.05,-16.66"/>
</a>
</g>
</g>
<!-- Node8 -->
<g id="Node000008" class="node">
<title>Node8</title>
<g id="a_Node000008"><a xlink:title=" ">
<polygon fill="#e0e0e0" stroke="#999999" points="518.5,-76 480.75,-76 480.75,-56 518.5,-56 518.5,-76"/>
<text xml:space="preserve" text-anchor="middle" x="499.62" y="-62.5" font-family="Helvetica,sans-Serif" font-size="10.00">array</text>
</a>
</g>
</g>
<!-- Node6&#45;&gt;Node8 -->
<g id="edge7_Node000006_Node000008" class="edge">
<title>Node6&#45;&gt;Node8</title>
<g id="a_edge7_Node000006_Node000008"><a xlink:title=" ">
<path fill="none" stroke="#63b8ff" d="M437.69,-111.59C448.59,-103.74 464.38,-92.38 477.28,-83.09"/>
<polygon fill="#63b8ff" stroke="#63b8ff" points="479.16,-86.05 485.23,-77.36 475.07,-80.37 479.16,-86.05"/>
</a>
</g>
</g>
<!-- Node9 -->
<g id="Node000009" class="node">
<title>Node9</title>
<g id="a_Node000009"><a xlink:title=" ">
<polygon fill="#e0e0e0" stroke="#999999" points="424.38,-76 370.88,-76 370.88,-56 424.38,-56 424.38,-76"/>
<text xml:space="preserve" text-anchor="middle" x="397.62" y="-62.5" font-family="Helvetica,sans-Serif" font-size="10.00">toml.hpp</text>
</a>
</g>
</g>
<!-- Node6&#45;&gt;Node9 -->
<g id="edge8_Node000006_Node000009" class="edge">
<title>Node6&#45;&gt;Node9</title>
<g id="a_edge8_Node000006_Node000009"><a xlink:title=" ">
<path fill="none" stroke="#63b8ff" d="M419.92,-111.59C416.48,-104.7 411.68,-95.1 407.41,-86.57"/>
<polygon fill="#63b8ff" stroke="#63b8ff" points="410.55,-85.03 402.95,-77.65 404.29,-88.16 410.55,-85.03"/>
</a>
</g>
</g>
<!-- Node11 -->
<g id="Node000011" class="node">
<title>Node11</title>
<g id="a_Node000011"><a xlink:title=" ">
<polygon fill="#e0e0e0" stroke="#999999" points="918,-188 835.25,-188 835.25,-168 918,-168 918,-188"/>
<text xml:space="preserve" text-anchor="middle" x="876.62" y="-174.5" font-family="Helvetica,sans-Serif" font-size="10.00">unordered_map</text>
</a>
</g>
</g>
<!-- Node10&#45;&gt;Node11 -->
<g id="edge10_Node000010_Node000011" class="edge">
<title>Node10&#45;&gt;Node11</title>
<g id="a_edge10_Node000010_Node000011"><a xlink:title=" ">
<path fill="none" stroke="#63b8ff" d="M579.6,-225.09C644.92,-214.95 757.59,-197.47 823.79,-187.2"/>
<polygon fill="#63b8ff" stroke="#63b8ff" points="823.96,-190.71 833.3,-185.72 822.88,-183.8 823.96,-190.71"/>
</a>
</g>
</g>
<!-- Node12 -->
<g id="Node000012" class="node">
<title>Node12</title>
<g id="a_Node000012"><a xlink:title=" ">
<polygon fill="#e0e0e0" stroke="#999999" points="559.12,-188 498.12,-188 498.12,-168 559.12,-168 559.12,-188"/>
<text xml:space="preserve" text-anchor="middle" x="528.62" y="-174.5" font-family="Helvetica,sans-Serif" font-size="10.00">filesystem</text>
</a>
</g>
</g>
<!-- Node10&#45;&gt;Node12 -->
<g id="edge11_Node000010_Node000012" class="edge">
<title>Node10&#45;&gt;Node12</title>
<g id="a_edge11_Node000010_Node000012"><a xlink:title=" ">
<path fill="none" stroke="#63b8ff" d="M528.62,-223.59C528.62,-217.01 528.62,-207.96 528.62,-199.73"/>
<polygon fill="#63b8ff" stroke="#63b8ff" points="532.13,-199.81 528.63,-189.81 525.13,-199.81 532.13,-199.81"/>
</a>
</g>
</g>
<!-- Node13 -->
<g id="Node000013" class="node">
<title>Node13</title>
<g id="a_Node000013"><a xlink:title=" ">
<polygon fill="#e0e0e0" stroke="#999999" points="179.75,-188 41.5,-188 41.5,-168 179.75,-168 179.75,-188"/>
<text xml:space="preserve" text-anchor="middle" x="110.62" y="-174.5" font-family="Helvetica,sans-Serif" font-size="10.00">SFML/Graphics/Texture.hpp</text>
</a>
</g>
</g>
<!-- Node10&#45;&gt;Node13 -->
<g id="edge12_Node000010_Node000013" class="edge">
<title>Node10&#45;&gt;Node13</title>
<g id="a_edge12_Node000010_Node000013"><a xlink:title=" ">
<path fill="none" stroke="#63b8ff" d="M477.57,-225.26C474.55,-224.82 471.55,-224.4 468.62,-224 373.5,-210.89 263.92,-197.34 191.32,-188.59"/>
<polygon fill="#63b8ff" stroke="#63b8ff" points="191.84,-185.12 181.49,-187.4 191,-192.07 191.84,-185.12"/>
</a>
</g>
</g>
<!-- Node14 -->
<g id="Node000014" class="node">
<title>Node14</title>
<g id="a_Node000014"><a xlink:title=" ">
<polygon fill="#e0e0e0" stroke="#999999" points="779.38,-188 653.88,-188 653.88,-168 779.38,-168 779.38,-188"/>
<text xml:space="preserve" text-anchor="middle" x="716.62" y="-174.5" font-family="Helvetica,sans-Serif" font-size="10.00">SFML/Graphics/Font.hpp</text>
</a>
</g>
</g>
<!-- Node10&#45;&gt;Node14 -->
<g id="edge13_Node000010_Node000014" class="edge">
<title>Node10&#45;&gt;Node14</title>
<g id="a_edge13_Node000010_Node000014"><a xlink:title=" ">
<path fill="none" stroke="#63b8ff" d="M561.37,-223.59C592.18,-214.74 638.55,-201.43 672.59,-191.65"/>
<polygon fill="#63b8ff" stroke="#63b8ff" points="673.52,-195.02 682.17,-188.9 671.59,-188.29 673.52,-195.02"/>
</a>
</g>
</g>
<!-- Node15 -->
<g id="Node000015" class="node">
<title>Node15</title>
<g id="a_Node000015"><a xlink:title=" ">
<polygon fill="#e0e0e0" stroke="#999999" points="343.12,-188 198.12,-188 198.12,-168 343.12,-168 343.12,-188"/>
<text xml:space="preserve" text-anchor="middle" x="270.62" y="-174.5" font-family="Helvetica,sans-Serif" font-size="10.00">SFML/Audio/SoundBuffer.hpp</text>
</a>
</g>
</g>
<!-- Node10&#45;&gt;Node15 -->
<g id="edge14_Node000010_Node000015" class="edge">
<title>Node10&#45;&gt;Node15</title>
<g id="a_edge14_Node000010_Node000015"><a xlink:title=" ">
<path fill="none" stroke="#63b8ff" d="M483.39,-223.53C439.87,-214.42 373.93,-200.62 327,-190.8"/>
<polygon fill="#63b8ff" stroke="#63b8ff" points="327.79,-187.39 317.29,-188.77 326.36,-194.24 327.79,-187.39"/>
</a>
</g>
</g>
<!-- Node16 -->
<g id="Node000016" class="node">
<title>Node16</title>
<g id="a_Node000016"><a xlink:title=" ">
<polygon fill="#e0e0e0" stroke="#999999" points="479.62,-188 361.62,-188 361.62,-168 479.62,-168 479.62,-188"/>
<text xml:space="preserve" text-anchor="middle" x="420.62" y="-174.5" font-family="Helvetica,sans-Serif" font-size="10.00">SFML/Audio/Music.hpp</text>
</a>
</g>
</g>
<!-- Node10&#45;&gt;Node16 -->
<g id="edge15_Node000010_Node000016" class="edge">
<title>Node10&#45;&gt;Node16</title>
<g id="a_edge15_Node000010_Node000016"><a xlink:title=" ">
<path fill="none" stroke="#63b8ff" d="M509.81,-223.59C493.27,-215.32 468.91,-203.14 449.83,-193.6"/>
<polygon fill="#63b8ff" stroke="#63b8ff" points="451.45,-190.5 440.94,-189.16 448.32,-196.76 451.45,-190.5"/>
</a>
</g>
</g>
<!-- Node17 -->
<g id="Node000017" class="node">
<title>Node17</title>
<g id="a_Node000017"><a xlink:href="animation_8hpp.html" target="_top" xlink:title=" ">
<polygon fill="white" stroke="#666666" points="989,-76 912.25,-76 912.25,-56 989,-56 989,-76"/>
<text xml:space="preserve" text-anchor="middle" x="950.62" y="-62.5" font-family="Helvetica,sans-Serif" font-size="10.00">animation.hpp</text>
</a>
</g>
</g>
<!-- Node10&#45;&gt;Node17 -->
<g id="edge16_Node000010_Node000017" class="edge">
<title>Node10&#45;&gt;Node17</title>
<g id="a_edge16_Node000010_Node000017"><a xlink:title=" ">
<path fill="none" stroke="#63b8ff" d="M543.17,-223.64C564.7,-210.08 606.6,-184.75 644.62,-168 733.8,-128.74 843.26,-96.15 904.14,-79.33"/>
<polygon fill="#63b8ff" stroke="#63b8ff" points="904.75,-82.79 913.47,-76.77 902.9,-76.04 904.75,-82.79"/>
</a>
</g>
</g>
<!-- Node17&#45;&gt;Node7 -->
<g id="edge17_Node000017_Node000007" class="edge">
<title>Node17&#45;&gt;Node7</title>
<g id="a_edge17_Node000017_Node000007"><a xlink:title=" ">
<path fill="none" stroke="#63b8ff" d="M911.91,-57.52C909.11,-57 906.32,-56.49 903.62,-56 819.73,-40.82 720.56,-24.3 671.05,-16.14"/>
<polygon fill="#63b8ff" stroke="#63b8ff" points="671.78,-12.72 661.35,-14.55 670.65,-19.62 671.78,-12.72"/>
</a>
</g>
</g>
<!-- Node18 -->
<g id="Node000018" class="node">
<title>Node18</title>
<g id="a_Node000018"><a xlink:title=" ">
<polygon fill="#e0e0e0" stroke="#999999" points="1016.38,-20 884.88,-20 884.88,0 1016.38,0 1016.38,-20"/>
<text xml:space="preserve" text-anchor="middle" x="950.62" y="-6.5" font-family="Helvetica,sans-Serif" font-size="10.00">SFML/Graphics/Sprite.hpp</text>
</a>
</g>
</g>
<!-- Node17&#45;&gt;Node18 -->
<g id="edge18_Node000017_Node000018" class="edge">
<title>Node17&#45;&gt;Node18</title>
<g id="a_edge18_Node000017_Node000018"><a xlink:title=" ">
<path fill="none" stroke="#63b8ff" d="M950.62,-55.59C950.62,-49.01 950.62,-39.96 950.62,-31.73"/>
<polygon fill="#63b8ff" stroke="#63b8ff" points="954.13,-31.81 950.63,-21.81 947.13,-31.81 954.13,-31.81"/>
</a>
</g>
</g>
<!-- Node19&#45;&gt;Node7 -->
<g id="edge20_Node000019_Node000007" class="edge">
<title>Node19&#45;&gt;Node7</title>
<g id="a_edge20_Node000019_Node000007"><a xlink:title=" ">
<path fill="none" stroke="#63b8ff" d="M805.05,-223.85C802.62,-210.97 797.32,-186.94 788.62,-168 763.65,-113.55 756.9,-97.43 713.62,-56 700.86,-43.78 684.23,-33.3 669.97,-25.54"/>
<polygon fill="#63b8ff" stroke="#63b8ff" points="671.91,-22.61 661.43,-21.08 668.67,-28.81 671.91,-22.61"/>
</a>
</g>
</g>
<!-- Node20&#45;&gt;Node11 -->
<g id="edge22_Node000020_Node000011" class="edge">
<title>Node20&#45;&gt;Node11</title>
<g id="a_edge22_Node000020_Node000011"><a xlink:title=" ">
<path fill="none" stroke="#63b8ff" d="M898.03,-279.58C893.86,-270.64 887.89,-256.71 884.62,-244 880.89,-229.46 878.88,-212.64 877.81,-199.75"/>
<polygon fill="#63b8ff" stroke="#63b8ff" points="881.31,-199.64 877.13,-189.91 874.33,-200.13 881.31,-199.64"/>
</a>
</g>
</g>
<!-- Node20&#45;&gt;Node19 -->
<g id="edge36_Node000020_Node000019" class="edge">
<title>Node20&#45;&gt;Node19</title>
<g id="a_edge36_Node000020_Node000019"><a xlink:title=" ">
<path fill="none" stroke="#63b8ff" d="M885.9,-279.59C871.4,-271.44 850.15,-259.48 833.3,-250"/>
<polygon fill="#63b8ff" stroke="#63b8ff" points="835.23,-247.07 824.8,-245.22 831.8,-253.17 835.23,-247.07"/>
</a>
</g>
</g>
<!-- Node21 -->
<g id="Node000021" class="node">
<title>Node21</title>
<g id="a_Node000021"><a xlink:title=" ">
<polygon fill="#e0e0e0" stroke="#999999" points="1197.25,-188 1146,-188 1146,-168 1197.25,-168 1197.25,-188"/>
<text xml:space="preserve" text-anchor="middle" x="1171.62" y="-174.5" font-family="Helvetica,sans-Serif" font-size="10.00">memory</text>
</a>
</g>
</g>
<!-- Node20&#45;&gt;Node21 -->
<g id="edge23_Node000020_Node000021" class="edge">
<title>Node20&#45;&gt;Node21</title>
<g id="a_edge23_Node000020_Node000021"><a xlink:title=" ">
<path fill="none" stroke="#63b8ff" d="M933.31,-288.32C996.07,-286.25 1135.77,-277.84 1166.62,-244 1177.36,-232.23 1177.8,-213.75 1176.02,-199.5"/>
<polygon fill="#63b8ff" stroke="#63b8ff" points="1179.5,-199.09 1174.35,-189.83 1172.61,-200.28 1179.5,-199.09"/>
</a>
</g>
</g>
<!-- Node22 -->
<g id="Node000022" class="node">
<title>Node22</title>
<g id="a_Node000022"><a xlink:title=" ">
<polygon fill="#e0e0e0" stroke="#999999" points="1037.38,-244 893.88,-244 893.88,-224 1037.38,-224 1037.38,-244"/>
<text xml:space="preserve" text-anchor="middle" x="965.62" y="-230.5" font-family="Helvetica,sans-Serif" font-size="10.00">SFML/Window/Keyboard.hpp</text>
</a>
</g>
</g>
<!-- Node20&#45;&gt;Node22 -->
<g id="edge24_Node000020_Node000022" class="edge">
<title>Node20&#45;&gt;Node22</title>
<g id="a_edge24_Node000020_Node000022"><a xlink:title=" ">
<path fill="none" stroke="#63b8ff" d="M913.6,-279.59C922.54,-271.93 935.4,-260.91 946.09,-251.75"/>
<polygon fill="#63b8ff" stroke="#63b8ff" points="948.31,-254.45 953.63,-245.28 943.76,-249.13 948.31,-254.45"/>
</a>
</g>
</g>
<!-- Node23 -->
<g id="Node000023" class="node">
<title>Node23</title>
<g id="a_Node000023"><a xlink:href="entity__manager_8hpp.html" target="_top" xlink:title=" ">
<polygon fill="white" stroke="#666666" points="1157.38,-244 1055.88,-244 1055.88,-224 1157.38,-224 1157.38,-244"/>
<text xml:space="preserve" text-anchor="middle" x="1106.62" y="-230.5" font-family="Helvetica,sans-Serif" font-size="10.00">entity_manager.hpp</text>
</a>
</g>
</g>
<!-- Node20&#45;&gt;Node23 -->
<g id="edge25_Node000020_Node000023" class="edge">
<title>Node20&#45;&gt;Node23</title>
<g id="a_edge25_Node000020_Node000023"><a xlink:title=" ">
<path fill="none" stroke="#63b8ff" d="M933.61,-280.8C967.19,-271.91 1021.15,-257.63 1059.89,-247.37"/>
<polygon fill="#63b8ff" stroke="#63b8ff" points="1060.64,-250.79 1069.41,-244.85 1058.85,-244.03 1060.64,-250.79"/>
</a>
</g>
</g>
<!-- Node23&#45;&gt;Node11 -->
<g id="edge27_Node000023_Node000011" class="edge">
<title>Node23&#45;&gt;Node11</title>
<g id="a_edge27_Node000023_Node000011"><a xlink:title=" ">
<path fill="none" stroke="#63b8ff" d="M1066.3,-223.53C1027.83,-214.5 969.71,-200.85 927.95,-191.05"/>
<polygon fill="#63b8ff" stroke="#63b8ff" points="928.91,-187.68 918.38,-188.8 927.31,-194.5 928.91,-187.68"/>
</a>
</g>
</g>
<!-- Node23&#45;&gt;Node21 -->
<g id="edge28_Node000023_Node000021" class="edge">
<title>Node23&#45;&gt;Node21</title>
<g id="a_edge28_Node000023_Node000021"><a xlink:title=" ">
<path fill="none" stroke="#63b8ff" d="M1117.95,-223.59C1127.27,-215.85 1140.7,-204.69 1151.8,-195.47"/>
<polygon fill="#63b8ff" stroke="#63b8ff" points="1153.81,-198.35 1159.27,-189.27 1149.34,-192.96 1153.81,-198.35"/>
</a>
</g>
</g>
<!-- Node24 -->
<g id="Node000024" class="node">
<title>Node24</title>
<g id="a_Node000024"><a xlink:title=" ">
<polygon fill="#e0e0e0" stroke="#999999" points="1128.12,-188 1085.12,-188 1085.12,-168 1128.12,-168 1128.12,-188"/>
<text xml:space="preserve" text-anchor="middle" x="1106.62" y="-174.5" font-family="Helvetica,sans-Serif" font-size="10.00">vector</text>
</a>
</g>
</g>
<!-- Node23&#45;&gt;Node24 -->
<g id="edge26_Node000023_Node000024" class="edge">
<title>Node23&#45;&gt;Node24</title>
<g id="a_edge26_Node000023_Node000024"><a xlink:title=" ">
<path fill="none" stroke="#63b8ff" d="M1106.62,-223.59C1106.62,-217.01 1106.62,-207.96 1106.62,-199.73"/>
<polygon fill="#63b8ff" stroke="#63b8ff" points="1110.13,-199.81 1106.63,-189.81 1103.13,-199.81 1110.13,-199.81"/>
</a>
</g>
</g>
<!-- Node25 -->
<g id="Node000025" class="node">
<title>Node25</title>
<g id="a_Node000025"><a xlink:title=" ">
<polygon fill="#e0e0e0" stroke="#999999" points="1067.5,-188 1011.75,-188 1011.75,-168 1067.5,-168 1067.5,-188"/>
<text xml:space="preserve" text-anchor="middle" x="1039.62" y="-174.5" font-family="Helvetica,sans-Serif" font-size="10.00">algorithm</text>
</a>
</g>
</g>
<!-- Node23&#45;&gt;Node25 -->
<g id="edge29_Node000023_Node000025" class="edge">
<title>Node23&#45;&gt;Node25</title>
<g id="a_edge29_Node000023_Node000025"><a xlink:title=" ">
<path fill="none" stroke="#63b8ff" d="M1094.95,-223.59C1085.35,-215.85 1071.5,-204.69 1060.06,-195.47"/>
<polygon fill="#63b8ff" stroke="#63b8ff" points="1062.32,-192.8 1052.34,-189.25 1057.93,-198.25 1062.32,-192.8"/>
</a>
</g>
</g>
<!-- Node26 -->
<g id="Node000026" class="node">
<title>Node26</title>
<g id="a_Node000026"><a xlink:href="entity_8hpp.html" target="_top" xlink:title=" ">
<polygon fill="white" stroke="#666666" points="993.62,-188 935.62,-188 935.62,-168 993.62,-168 993.62,-188"/>
<text xml:space="preserve" text-anchor="middle" x="964.62" y="-174.5" font-family="Helvetica,sans-Serif" font-size="10.00">entity.hpp</text>
</a>
</g>
</g>
<!-- Node23&#45;&gt;Node26 -->
<g id="edge30_Node000023_Node000026" class="edge">
<title>Node23&#45;&gt;Node26</title>
<g id="a_edge30_Node000023_Node000026"><a xlink:title=" ">
<path fill="none" stroke="#63b8ff" d="M1081.89,-223.59C1059.33,-215.01 1025.72,-202.23 1000.26,-192.55"/>
<polygon fill="#63b8ff" stroke="#63b8ff" points="1001.56,-189.3 990.97,-189.02 999.07,-195.84 1001.56,-189.3"/>
</a>
</g>
</g>
<!-- Node27 -->
<g id="Node000027" class="node">
<title>Node27</title>
<g id="a_Node000027"><a xlink:title=" ">
<polygon fill="#e0e0e0" stroke="#999999" points="1050.12,-132 1013.12,-132 1013.12,-112 1050.12,-112 1050.12,-132"/>
<text xml:space="preserve" text-anchor="middle" x="1031.62" y="-118.5" font-family="Helvetica,sans-Serif" font-size="10.00">tuple</text>
</a>
</g>
</g>
<!-- Node26&#45;&gt;Node27 -->
<g id="edge31_Node000026_Node000027" class="edge">
<title>Node26&#45;&gt;Node27</title>
<g id="a_edge31_Node000026_Node000027"><a xlink:title=" ">
<path fill="none" stroke="#63b8ff" d="M976.3,-167.59C985.9,-159.85 999.75,-148.69 1011.19,-139.47"/>
<polygon fill="#63b8ff" stroke="#63b8ff" points="1013.32,-142.25 1018.91,-133.25 1008.93,-136.8 1013.32,-142.25"/>
</a>
</g>
</g>
<!-- Node28 -->
<g id="Node000028" class="node">
<title>Node28</title>
<g id="a_Node000028"><a xlink:href="components_8hpp.html" target="_top" xlink:title=" ">
<polygon fill="white" stroke="#666666" points="994.62,-132 906.62,-132 906.62,-112 994.62,-112 994.62,-132"/>
<text xml:space="preserve" text-anchor="middle" x="950.62" y="-118.5" font-family="Helvetica,sans-Serif" font-size="10.00">components.hpp</text>
</a>
</g>
</g>
<!-- Node26&#45;&gt;Node28 -->
<g id="edge32_Node000026_Node000028" class="edge">
<title>Node26&#45;&gt;Node28</title>
<g id="a_edge32_Node000026_Node000028"><a xlink:title=" ">
<path fill="none" stroke="#63b8ff" d="M962.19,-167.59C960.46,-160.93 958.08,-151.75 955.92,-143.44"/>
<polygon fill="#63b8ff" stroke="#63b8ff" points="959.31,-142.56 953.42,-133.76 952.54,-144.32 959.31,-142.56"/>
</a>
</g>
</g>
<!-- Node28&#45;&gt;Node17 -->
<g id="edge35_Node000028_Node000017" class="edge">
<title>Node28&#45;&gt;Node17</title>
<g id="a_edge35_Node000028_Node000017"><a xlink:title=" ">
<path fill="none" stroke="#63b8ff" d="M950.62,-111.59C950.62,-105.01 950.62,-95.96 950.62,-87.73"/>
<polygon fill="#63b8ff" stroke="#63b8ff" points="954.13,-87.81 950.63,-77.81 947.13,-87.81 954.13,-87.81"/>
</a>
</g>
</g>
<!-- Node29 -->
<g id="Node000029" class="node">
<title>Node29</title>
<g id="a_Node000029"><a xlink:title=" ">
<polygon fill="#e0e0e0" stroke="#999999" points="894.5,-76 760.75,-76 760.75,-56 894.5,-56 894.5,-76"/>
<text xml:space="preserve" text-anchor="middle" x="827.62" y="-62.5" font-family="Helvetica,sans-Serif" font-size="10.00">SFML/System/Vector2.hpp</text>
</a>
</g>
</g>
<!-- Node28&#45;&gt;Node29 -->
<g id="edge33_Node000028_Node000029" class="edge">
<title>Node28&#45;&gt;Node29</title>
<g id="a_edge33_Node000028_Node000029"><a xlink:title=" ">
<path fill="none" stroke="#63b8ff" d="M929.2,-111.59C910,-103.17 881.58,-90.69 859.68,-81.07"/>
<polygon fill="#63b8ff" stroke="#63b8ff" points="861.17,-77.9 850.6,-77.09 858.35,-84.31 861.17,-77.9"/>
</a>
</g>
</g>
<!-- Node30 -->
<g id="Node000030" class="node">
<title>Node30</title>
<g id="a_Node000030"><a xlink:title=" ">
<polygon fill="#e0e0e0" stroke="#999999" points="1199.38,-76 1079.88,-76 1079.88,-56 1199.38,-56 1199.38,-76"/>
<text xml:space="preserve" text-anchor="middle" x="1139.62" y="-62.5" font-family="Helvetica,sans-Serif" font-size="10.00">SFML/Audio/Sound.hpp</text>
</a>
</g>
</g>
<!-- Node28&#45;&gt;Node30 -->
<g id="edge34_Node000028_Node000030" class="edge">
<title>Node28&#45;&gt;Node30</title>
<g id="a_edge34_Node000028_Node000030"><a xlink:title=" ">
<path fill="none" stroke="#63b8ff" d="M983.55,-111.59C1014.66,-102.71 1061.54,-89.31 1095.8,-79.52"/>
<polygon fill="#63b8ff" stroke="#63b8ff" points="1096.34,-83.01 1104.99,-76.9 1094.41,-76.28 1096.34,-83.01"/>
</a>
</g>
</g>
<!-- Node31&#45;&gt;Node14 -->
<g id="edge45_Node000031_Node000014" class="edge">
<title>Node31&#45;&gt;Node14</title>
<g id="a_edge45_Node000031_Node000014"><a xlink:title=" ">
<path fill="none" stroke="#63b8ff" d="M802.43,-335.64C815.75,-322.91 835.38,-299.51 824.62,-280 810.16,-253.76 789.86,-264.08 767.62,-244 752.35,-230.21 738.19,-211.47 728.68,-197.65"/>
<polygon fill="#63b8ff" stroke="#63b8ff" points="731.68,-195.84 723.21,-189.47 725.86,-199.73 731.68,-195.84"/>
</a>
</g>
</g>
<!-- Node31&#45;&gt;Node20 -->
<g id="edge38_Node000031_Node000020" class="edge">
<title>Node31&#45;&gt;Node20</title>
<g id="a_edge38_Node000031_Node000020"><a xlink:title=" ">
<path fill="none" stroke="#63b8ff" d="M810.96,-335.59C828.04,-327.28 853.23,-315.03 872.88,-305.47"/>
<polygon fill="#63b8ff" stroke="#63b8ff" points="874.32,-308.66 881.78,-301.14 871.25,-302.37 874.32,-308.66"/>
</a>
</g>
</g>
<!-- Node31&#45;&gt;Node30 -->
<g id="edge44_Node000031_Node000030" class="edge">
<title>Node31&#45;&gt;Node30</title>
<g id="a_edge44_Node000031_Node000030"><a xlink:title=" ">
<path fill="none" stroke="#63b8ff" d="M836.84,-338.32C948,-321.3 1225.62,-274.79 1225.62,-235 1225.62,-235 1225.62,-235 1225.62,-177 1225.62,-136.37 1188.77,-101.8 1163.31,-82.76"/>
<polygon fill="#63b8ff" stroke="#63b8ff" points="1165.61,-80.1 1155.44,-77.13 1161.54,-85.79 1165.61,-80.1"/>
</a>
</g>
</g>
<!-- Node32 -->
<g id="Node000032" class="node">
<title>Node32</title>
<g id="a_Node000032"><a xlink:href="misc_8hpp.html" target="_top" xlink:title=" ">
<polygon fill="white" stroke="#666666" points="653.5,-132 597.75,-132 597.75,-112 653.5,-112 653.5,-132"/>
<text xml:space="preserve" text-anchor="middle" x="625.62" y="-118.5" font-family="Helvetica,sans-Serif" font-size="10.00">misc.hpp</text>
</a>
</g>
</g>
<!-- Node31&#45;&gt;Node32 -->
<g id="edge39_Node000031_Node000032" class="edge">
<title>Node31&#45;&gt;Node32</title>
<g id="a_edge39_Node000031_Node000032"><a xlink:title=" ">
<path fill="none" stroke="#63b8ff" d="M746.25,-335.57C724.43,-328.93 699.43,-317.92 682.62,-300 640.75,-255.34 629.64,-179.71 626.69,-143.51"/>
<polygon fill="#63b8ff" stroke="#63b8ff" points="630.21,-143.72 626.05,-133.97 623.23,-144.19 630.21,-143.72"/>
</a>
</g>
</g>
<!-- Node34 -->
<g id="Node000034" class="node">
<title>Node34</title>
<g id="a_Node000034"><a xlink:title=" ">
<polygon fill="#e0e0e0" stroke="#999999" points="816,-300 691.25,-300 691.25,-280 816,-280 816,-300"/>
<text xml:space="preserve" text-anchor="middle" x="753.62" y="-286.5" font-family="Helvetica,sans-Serif" font-size="10.00">SFML/Graphics/Text.hpp</text>
</a>
</g>
</g>
<!-- Node31&#45;&gt;Node34 -->
<g id="edge46_Node000031_Node000034" class="edge">
<title>Node31&#45;&gt;Node34</title>
<g id="a_edge46_Node000031_Node000034"><a xlink:title=" ">
<path fill="none" stroke="#63b8ff" d="M785.01,-335.59C779.94,-328.39 772.79,-318.23 766.6,-309.43"/>
<polygon fill="#63b8ff" stroke="#63b8ff" points="769.66,-307.7 761.04,-301.54 763.93,-311.73 769.66,-307.7"/>
</a>
</g>
</g>
<!-- Node32&#45;&gt;Node7 -->
<g id="edge43_Node000032_Node000007" class="edge">
<title>Node32&#45;&gt;Node7</title>
<g id="a_edge43_Node000032_Node000007"><a xlink:title=" ">
<path fill="none" stroke="#63b8ff" d="M605.53,-111.63C583.49,-99.95 552.83,-78.76 565.62,-56 574.85,-39.6 592.73,-28.48 608.61,-21.4"/>
<polygon fill="#63b8ff" stroke="#63b8ff" points="609.79,-24.7 617.75,-17.69 607.16,-18.21 609.79,-24.7"/>
</a>
</g>
</g>
<!-- Node32&#45;&gt;Node8 -->
<g id="edge40_Node000032_Node000008" class="edge">
<title>Node32&#45;&gt;Node8</title>
<g id="a_edge40_Node000032_Node000008"><a xlink:title=" ">
<path fill="none" stroke="#63b8ff" d="M603.68,-111.59C583.08,-102.76 552.1,-89.49 529.3,-79.72"/>
<polygon fill="#63b8ff" stroke="#63b8ff" points="530.81,-76.56 520.24,-75.83 528.05,-82.99 530.81,-76.56"/>
</a>
</g>
</g>
<!-- Node32&#45;&gt;Node29 -->
<g id="edge42_Node000032_Node000029" class="edge">
<title>Node32&#45;&gt;Node29</title>
<g id="a_edge42_Node000032_Node000029"><a xlink:title=" ">
<path fill="none" stroke="#63b8ff" d="M653.71,-113.49C686.74,-104.66 742.03,-89.88 781.41,-79.36"/>
<polygon fill="#63b8ff" stroke="#63b8ff" points="782.09,-82.8 790.85,-76.83 780.28,-76.03 782.09,-82.8"/>
</a>
</g>
</g>
<!-- Node33 -->
<g id="Node000033" class="node">
<title>Node33</title>
<g id="a_Node000033"><a xlink:title=" ">
<polygon fill="#e0e0e0" stroke="#999999" points="704.25,-76 575,-76 575,-56 704.25,-56 704.25,-76"/>
<text xml:space="preserve" text-anchor="middle" x="639.62" y="-62.5" font-family="Helvetica,sans-Serif" font-size="10.00">SFML/Graphics/Color.hpp</text>
</a>
</g>
</g>
<!-- Node32&#45;&gt;Node33 -->
<g id="edge41_Node000032_Node000033" class="edge">
<title>Node32&#45;&gt;Node33</title>
<g id="a_edge41_Node000032_Node000033"><a xlink:title=" ">
<path fill="none" stroke="#63b8ff" d="M628.06,-111.59C629.79,-104.93 632.17,-95.75 634.33,-87.44"/>
<polygon fill="#63b8ff" stroke="#63b8ff" points="637.71,-88.32 636.83,-77.76 630.94,-86.56 637.71,-88.32"/>
</a>
</g>
</g>
</g>
</svg>
