<?xml version="1.0" encoding="UTF-8" standalone="no"?>
<!DOCTYPE svg PUBLIC "-//W3C//DTD SVG 1.1//EN"
 "http://www.w3.org/Graphics/SVG/1.1/DTD/svg11.dtd">
<!-- Generated by graphviz version 13.1.2 (20250808.2320)
 -->
<!-- Title: src/game_engine.hpp Pages: 1 -->
<!--zoomable 196 -->

<svg id="main" version="1.1" xmlns="http://www.w3.org/2000/svg" xmlns:xlink="http://www.w3.org/1999/xlink" xml:space="preserve" onload="init(evt)">
<style type="text/css"><![CDATA[
.node, .edge {opacity: 0.7;}
.node.selected, .edge.selected {opacity: 1;}
.edge:hover path { stroke: red; }
.edge:hover polygon { stroke: red; fill: red; }
]]></style>

<defs>
  <circle id="rim" cx="0" cy="0" r="7"/>
  <circle id="rim2" cx="0" cy="0" r="3.5"/>
  <g id="zoomPlus">
    <use xlink:href="#rim" fill="#404040"><set attributeName="fill" to="#808080" begin="zoomplus.mouseover" end="zoomplus.mouseout"/></use>
    <path d="M-4,0h8M0,-4v8" fill="none" stroke="white" stroke-width="1.5" pointer-events="none"/>
  </g>
  <g id="zoomMin">
    <use xlink:href="#rim" fill="#404040"><set attributeName="fill" to="#808080" begin="zoomminus.mouseover" end="zoomminus.mouseout"/></use>
    <path d="M-4,0h8" fill="none" stroke="white" stroke-width="1.5" pointer-events="none"/>
  </g>
  <g id="arrowUp" transform="translate(30 24)">
    <use xlink:href="#rim"/>
    <path pointer-events="none" fill="none" stroke="white" stroke-width="1.5" d="M0,-3.0v7 M-2.5,-0.5L0,-3.0L2.5,-0.5"/>
  </g>
  <g id="arrowRight" transform="rotate(90) translate(36 -43)">
    <use xlink:href="#rim"/>
    <path pointer-events="none" fill="none" stroke="white" stroke-width="1.5" d="M0,-3.0v7 M-2.5,-0.5L0,-3.0L2.5,-0.5"/>
  </g>
  <g id="arrowDown" transform="rotate(180) translate(-30 -48)">
    <use xlink:href="#rim"/>
    <path pointer-events="none" fill="none" stroke="white" stroke-width="1.5" d="M0,-3.0v7 M-2.5,-0.5L0,-3.0L2.5,-0.5"/>
  </g>
  <g id="arrowLeft" transform="rotate(270) translate(-36 17)">
    <use xlink:href="#rim"/>
    <path pointer-events="none" fill="none" stroke="white" stroke-width="1.5" d="M0,-3.0v7 M-2.5,-0.5L0,-3.0L2.5,-0.5"/>
  </g>
  <g id="resetDef">
    <use xlink:href="#rim2" fill="#404040"><set attributeName="fill" to="#808080" begin="reset.mouseover" end="reset.mouseout"/></use>
  </g>
</defs>
<script type="application/ecmascript">
var viewWidth = 1238;
var viewHeight = 196;
var sectionId = 'dynsection-0';
</script>
<script type="application/ecmascript" xlink:href="svg.min.js"/>
<svg id="graph" class="graph">
<g id="viewport">
<title>src/game_engine.hpp</title>
<!-- Node1 -->
<g id="Node000001" class="node">
<title>Node1</title>
<g id="a_Node000001"><a xlink:title=" ">
<polygon fill="#999999" stroke="#666666" points="371.5,-188 262.5,-188 262.5,-168 371.5,-168 371.5,-188"/>
<text xml:space="preserve" text-anchor="middle" x="317" y="-174.5" font-family="Helvetica,sans-Serif" font-size="10.00">src/game_engine.hpp</text>
</a>
</g>
</g>
<!-- Node2 -->
<g id="Node000002" class="node">
<title>Node2</title>
<g id="a_Node000002"><a xlink:title=" ">
<polygon fill="#e0e0e0" stroke="#999999" points="172,-132 0,-132 0,-112 172,-112 172,-132"/>
<text xml:space="preserve" text-anchor="middle" x="86" y="-118.5" font-family="Helvetica,sans-Serif" font-size="10.00">SFML/Graphics/RenderWindow.hpp</text>
</a>
</g>
</g>
<!-- Node1&#45;&gt;Node2 -->
<g id="edge1_Node000001_Node000002" class="edge">
<title>Node1&#45;&gt;Node2</title>
<g id="a_edge1_Node000001_Node000002"><a xlink:title=" ">
<path fill="none" stroke="#63b8ff" d="M276.5,-167.53C237.86,-158.5 179.49,-144.85 137.55,-135.05"/>
<polygon fill="#63b8ff" stroke="#63b8ff" points="138.46,-131.67 127.93,-132.8 136.87,-138.49 138.46,-131.67"/>
</a>
</g>
</g>
<!-- Node3 -->
<g id="Node000003" class="node">
<title>Node3</title>
<g id="a_Node000003"><a xlink:title=" ">
<polygon fill="#e0e0e0" stroke="#999999" points="316.12,-132 189.88,-132 189.88,-112 316.12,-112 316.12,-132"/>
<text xml:space="preserve" text-anchor="middle" x="253" y="-118.5" font-family="Helvetica,sans-Serif" font-size="10.00">SFML/System/Clock.hpp</text>
</a>
</g>
</g>
<!-- Node1&#45;&gt;Node3 -->
<g id="edge2_Node000001_Node000003" class="edge">
<title>Node1&#45;&gt;Node3</title>
<g id="a_edge2_Node000001_Node000003"><a xlink:title=" ">
<path fill="none" stroke="#63b8ff" d="M305.85,-167.59C296.67,-159.85 283.45,-148.69 272.52,-139.47"/>
<polygon fill="#63b8ff" stroke="#63b8ff" points="275.08,-137.05 265.18,-133.27 270.56,-142.4 275.08,-137.05"/>
</a>
</g>
</g>
<!-- Node4 -->
<g id="Node000004" class="node">
<title>Node4</title>
<g id="a_Node000004"><a xlink:href="config__parser_8hpp.html" target="_top" xlink:title=" ">
<polygon fill="white" stroke="#666666" points="427.62,-132 334.38,-132 334.38,-112 427.62,-112 427.62,-132"/>
<text xml:space="preserve" text-anchor="middle" x="381" y="-118.5" font-family="Helvetica,sans-Serif" font-size="10.00">config_parser.hpp</text>
</a>
</g>
</g>
<!-- Node1&#45;&gt;Node4 -->
<g id="edge3_Node000001_Node000004" class="edge">
<title>Node1&#45;&gt;Node4</title>
<g id="a_edge3_Node000001_Node000004"><a xlink:title=" ">
<path fill="none" stroke="#63b8ff" d="M328.15,-167.59C337.33,-159.85 350.55,-148.69 361.48,-139.47"/>
<polygon fill="#63b8ff" stroke="#63b8ff" points="363.44,-142.4 368.82,-133.27 358.92,-137.05 363.44,-142.4"/>
</a>
</g>
</g>
<!-- Node9 -->
<g id="Node000009" class="node">
<title>Node9</title>
<g id="a_Node000009"><a xlink:href="asset__manager_8hpp.html" target="_top" xlink:title=" ">
<polygon fill="white" stroke="#666666" points="721.75,-132 620.25,-132 620.25,-112 721.75,-112 721.75,-132"/>
<text xml:space="preserve" text-anchor="middle" x="671" y="-118.5" font-family="Helvetica,sans-Serif" font-size="10.00">asset_manager.hpp</text>
</a>
</g>
</g>
<!-- Node1&#45;&gt;Node9 -->
<g id="edge8_Node000001_Node000009" class="edge">
<title>Node1&#45;&gt;Node9</title>
<g id="a_edge8_Node000001_Node000009"><a xlink:title=" ">
<path fill="none" stroke="#63b8ff" d="M371.92,-168.62C435.99,-158.85 541.67,-142.73 608.74,-132.5"/>
<polygon fill="#63b8ff" stroke="#63b8ff" points="609.12,-135.98 618.48,-131.01 608.06,-129.06 609.12,-135.98"/>
</a>
</g>
</g>
<!-- Node5 -->
<g id="Node000005" class="node">
<title>Node5</title>
<g id="a_Node000005"><a xlink:href="config__structs_8hpp.html" target="_top" xlink:title=" ">
<polygon fill="white" stroke="#666666" points="328.12,-76 231.88,-76 231.88,-56 328.12,-56 328.12,-76"/>
<text xml:space="preserve" text-anchor="middle" x="280" y="-62.5" font-family="Helvetica,sans-Serif" font-size="10.00">config_structs.hpp</text>
</a>
</g>
</g>
<!-- Node4&#45;&gt;Node5 -->
<g id="edge4_Node000004_Node000005" class="edge">
<title>Node4&#45;&gt;Node5</title>
<g id="a_edge4_Node000004_Node000005"><a xlink:title=" ">
<path fill="none" stroke="#63b8ff" d="M363.41,-111.59C348.08,-103.4 325.58,-91.37 307.81,-81.87"/>
<polygon fill="#63b8ff" stroke="#63b8ff" points="309.53,-78.82 299.06,-77.19 306.23,-84.99 309.53,-78.82"/>
</a>
</g>
</g>
<!-- Node6 -->
<g id="Node000006" class="node">
<title>Node6</title>
<g id="a_Node000006"><a xlink:title=" ">
<polygon fill="#e0e0e0" stroke="#999999" points="739,-20 699,-20 699,0 739,0 739,-20"/>
<text xml:space="preserve" text-anchor="middle" x="719" y="-6.5" font-family="Helvetica,sans-Serif" font-size="10.00">string</text>
</a>
</g>
</g>
<!-- Node5&#45;&gt;Node6 -->
<g id="edge5_Node000005_Node000006" class="edge">
<title>Node5&#45;&gt;Node6</title>
<g id="a_edge5_Node000005_Node000006"><a xlink:title=" ">
<path fill="none" stroke="#63b8ff" d="M328.4,-57.35C331.65,-56.88 334.87,-56.43 338,-56 467.53,-38.31 622.41,-21.29 687.62,-14.32"/>
<polygon fill="#63b8ff" stroke="#63b8ff" points="687.65,-17.83 697.22,-13.29 686.91,-10.87 687.65,-17.83"/>
</a>
</g>
</g>
<!-- Node7 -->
<g id="Node000007" class="node">
<title>Node7</title>
<g id="a_Node000007"><a xlink:title=" ">
<polygon fill="#e0e0e0" stroke="#999999" points="266.88,-20 229.12,-20 229.12,0 266.88,0 266.88,-20"/>
<text xml:space="preserve" text-anchor="middle" x="248" y="-6.5" font-family="Helvetica,sans-Serif" font-size="10.00">array</text>
</a>
</g>
</g>
<!-- Node5&#45;&gt;Node7 -->
<g id="edge6_Node000005_Node000007" class="edge">
<title>Node5&#45;&gt;Node7</title>
<g id="a_edge6_Node000005_Node000007"><a xlink:title=" ">
<path fill="none" stroke="#63b8ff" d="M274.43,-55.59C270.25,-48.55 264.4,-38.67 259.26,-30"/>
<polygon fill="#63b8ff" stroke="#63b8ff" points="262.39,-28.42 254.28,-21.6 256.37,-31.99 262.39,-28.42"/>
</a>
</g>
</g>
<!-- Node8 -->
<g id="Node000008" class="node">
<title>Node8</title>
<g id="a_Node000008"><a xlink:title=" ">
<polygon fill="#e0e0e0" stroke="#999999" points="338.75,-20 285.25,-20 285.25,0 338.75,0 338.75,-20"/>
<text xml:space="preserve" text-anchor="middle" x="312" y="-6.5" font-family="Helvetica,sans-Serif" font-size="10.00">toml.hpp</text>
</a>
</g>
</g>
<!-- Node5&#45;&gt;Node8 -->
<g id="edge7_Node000005_Node000008" class="edge">
<title>Node5&#45;&gt;Node8</title>
<g id="a_edge7_Node000005_Node000008"><a xlink:title=" ">
<path fill="none" stroke="#63b8ff" d="M285.57,-55.59C289.75,-48.55 295.6,-38.67 300.74,-30"/>
<polygon fill="#63b8ff" stroke="#63b8ff" points="303.63,-31.99 305.72,-21.6 297.61,-28.42 303.63,-31.99"/>
</a>
</g>
</g>
<!-- Node10 -->
<g id="Node000010" class="node">
<title>Node10</title>
<g id="a_Node000010"><a xlink:title=" ">
<polygon fill="#e0e0e0" stroke="#999999" points="429.38,-76 346.62,-76 346.62,-56 429.38,-56 429.38,-76"/>
<text xml:space="preserve" text-anchor="middle" x="388" y="-62.5" font-family="Helvetica,sans-Serif" font-size="10.00">unordered_map</text>
</a>
</g>
</g>
<!-- Node9&#45;&gt;Node10 -->
<g id="edge9_Node000009_Node000010" class="edge">
<title>Node9&#45;&gt;Node10</title>
<g id="a_edge9_Node000009_Node000010"><a xlink:title=" ">
<path fill="none" stroke="#63b8ff" d="M621.38,-111.53C570.83,-101.89 492.72,-86.98 440.99,-77.11"/>
<polygon fill="#63b8ff" stroke="#63b8ff" points="441.69,-73.68 431.21,-75.25 440.38,-80.56 441.69,-73.68"/>
</a>
</g>
</g>
<!-- Node11 -->
<g id="Node000011" class="node">
<title>Node11</title>
<g id="a_Node000011"><a xlink:title=" ">
<polygon fill="#e0e0e0" stroke="#999999" points="508.5,-76 447.5,-76 447.5,-56 508.5,-56 508.5,-76"/>
<text xml:space="preserve" text-anchor="middle" x="478" y="-62.5" font-family="Helvetica,sans-Serif" font-size="10.00">filesystem</text>
</a>
</g>
</g>
<!-- Node9&#45;&gt;Node11 -->
<g id="edge10_Node000009_Node000011" class="edge">
<title>Node9&#45;&gt;Node11</title>
<g id="a_edge10_Node000009_Node000011"><a xlink:title=" ">
<path fill="none" stroke="#63b8ff" d="M637.38,-111.59C604.64,-102.43 554.79,-88.48 519.57,-78.63"/>
<polygon fill="#63b8ff" stroke="#63b8ff" points="520.72,-75.32 510.15,-75.99 518.83,-82.06 520.72,-75.32"/>
</a>
</g>
</g>
<!-- Node12 -->
<g id="Node000012" class="node">
<title>Node12</title>
<g id="a_Node000012"><a xlink:title=" ">
<polygon fill="#e0e0e0" stroke="#999999" points="665.12,-76 526.88,-76 526.88,-56 665.12,-56 665.12,-76"/>
<text xml:space="preserve" text-anchor="middle" x="596" y="-62.5" font-family="Helvetica,sans-Serif" font-size="10.00">SFML/Graphics/Texture.hpp</text>
</a>
</g>
</g>
<!-- Node9&#45;&gt;Node12 -->
<g id="edge11_Node000009_Node000012" class="edge">
<title>Node9&#45;&gt;Node12</title>
<g id="a_edge11_Node000009_Node000012"><a xlink:title=" ">
<path fill="none" stroke="#63b8ff" d="M657.94,-111.59C647.03,-103.74 631.25,-92.38 618.34,-83.09"/>
<polygon fill="#63b8ff" stroke="#63b8ff" points="620.55,-80.37 610.39,-77.36 616.46,-86.05 620.55,-80.37"/>
</a>
</g>
</g>
<!-- Node13 -->
<g id="Node000013" class="node">
<title>Node13</title>
<g id="a_Node000013"><a xlink:title=" ">
<polygon fill="#e0e0e0" stroke="#999999" points="808.75,-76 683.25,-76 683.25,-56 808.75,-56 808.75,-76"/>
<text xml:space="preserve" text-anchor="middle" x="746" y="-62.5" font-family="Helvetica,sans-Serif" font-size="10.00">SFML/Graphics/Font.hpp</text>
</a>
</g>
</g>
<!-- Node9&#45;&gt;Node13 -->
<g id="edge12_Node000009_Node000013" class="edge">
<title>Node9&#45;&gt;Node13</title>
<g id="a_edge12_Node000009_Node000013"><a xlink:title=" ">
<path fill="none" stroke="#63b8ff" d="M684.06,-111.59C694.97,-103.74 710.75,-92.38 723.66,-83.09"/>
<polygon fill="#63b8ff" stroke="#63b8ff" points="725.54,-86.05 731.61,-77.36 721.45,-80.37 725.54,-86.05"/>
</a>
</g>
</g>
<!-- Node14 -->
<g id="Node000014" class="node">
<title>Node14</title>
<g id="a_Node000014"><a xlink:title=" ">
<polygon fill="#e0e0e0" stroke="#999999" points="971.5,-76 826.5,-76 826.5,-56 971.5,-56 971.5,-76"/>
<text xml:space="preserve" text-anchor="middle" x="899" y="-62.5" font-family="Helvetica,sans-Serif" font-size="10.00">SFML/Audio/SoundBuffer.hpp</text>
</a>
</g>
</g>
<!-- Node9&#45;&gt;Node14 -->
<g id="edge13_Node000009_Node000014" class="edge">
<title>Node9&#45;&gt;Node14</title>
<g id="a_edge13_Node000009_Node000014"><a xlink:title=" ">
<path fill="none" stroke="#63b8ff" d="M710.98,-111.53C749.11,-102.5 806.72,-88.85 848.12,-79.05"/>
<polygon fill="#63b8ff" stroke="#63b8ff" points="848.67,-82.52 857.6,-76.81 847.06,-75.7 848.67,-82.52"/>
</a>
</g>
</g>
<!-- Node15 -->
<g id="Node000015" class="node">
<title>Node15</title>
<g id="a_Node000015"><a xlink:title=" ">
<polygon fill="#e0e0e0" stroke="#999999" points="1108,-76 990,-76 990,-56 1108,-56 1108,-76"/>
<text xml:space="preserve" text-anchor="middle" x="1049" y="-62.5" font-family="Helvetica,sans-Serif" font-size="10.00">SFML/Audio/Music.hpp</text>
</a>
</g>
</g>
<!-- Node9&#45;&gt;Node15 -->
<g id="edge14_Node000009_Node000015" class="edge">
<title>Node9&#45;&gt;Node15</title>
<g id="a_edge14_Node000009_Node000015"><a xlink:title=" ">
<path fill="none" stroke="#63b8ff" d="M721.98,-113.72C788.11,-104.27 903.81,-87.74 978.37,-77.09"/>
<polygon fill="#63b8ff" stroke="#63b8ff" points="978.61,-80.59 988.01,-75.71 977.62,-73.66 978.61,-80.59"/>
</a>
</g>
</g>
<!-- Node16 -->
<g id="Node000016" class="node">
<title>Node16</title>
<g id="a_Node000016"><a xlink:href="animation_8hpp.html" target="_top" xlink:title=" ">
<polygon fill="white" stroke="#666666" points="1202.38,-76 1125.62,-76 1125.62,-56 1202.38,-56 1202.38,-76"/>
<text xml:space="preserve" text-anchor="middle" x="1164" y="-62.5" font-family="Helvetica,sans-Serif" font-size="10.00">animation.hpp</text>
</a>
</g>
</g>
<!-- Node9&#45;&gt;Node16 -->
<g id="edge15_Node000009_Node000016" class="edge">
<title>Node9&#45;&gt;Node16</title>
<g id="a_edge15_Node000009_Node000016"><a xlink:title=" ">
<path fill="none" stroke="#63b8ff" d="M722.01,-117.33C803.03,-111.18 966.31,-97.48 1114.24,-76.29"/>
<polygon fill="#63b8ff" stroke="#63b8ff" points="1114.42,-79.8 1123.82,-74.91 1113.42,-72.88 1114.42,-79.8"/>
</a>
</g>
</g>
<!-- Node16&#45;&gt;Node6 -->
<g id="edge16_Node000016_Node000006" class="edge">
<title>Node16&#45;&gt;Node6</title>
<g id="a_edge16_Node000016_Node000006"><a xlink:title=" ">
<path fill="none" stroke="#63b8ff" d="M1125.31,-57.35C1122.5,-56.87 1119.71,-56.41 1117,-56 981.13,-35.34 817.84,-19.76 750.44,-13.73"/>
<polygon fill="#63b8ff" stroke="#63b8ff" points="751.15,-10.28 740.88,-12.88 750.53,-17.25 751.15,-10.28"/>
</a>
</g>
</g>
<!-- Node17 -->
<g id="Node000017" class="node">
<title>Node17</title>
<g id="a_Node000017"><a xlink:title=" ">
<polygon fill="#e0e0e0" stroke="#999999" points="1229.75,-20 1098.25,-20 1098.25,0 1229.75,0 1229.75,-20"/>
<text xml:space="preserve" text-anchor="middle" x="1164" y="-6.5" font-family="Helvetica,sans-Serif" font-size="10.00">SFML/Graphics/Sprite.hpp</text>
</a>
</g>
</g>
<!-- Node16&#45;&gt;Node17 -->
<g id="edge17_Node000016_Node000017" class="edge">
<title>Node16&#45;&gt;Node17</title>
<g id="a_edge17_Node000016_Node000017"><a xlink:title=" ">
<path fill="none" stroke="#63b8ff" d="M1164,-55.59C1164,-49.01 1164,-39.96 1164,-31.73"/>
<polygon fill="#63b8ff" stroke="#63b8ff" points="1167.5,-31.81 1164,-21.81 1160.5,-31.81 1167.5,-31.81"/>
</a>
</g>
</g>
</g>
</svg>

<g id="navigator" transform="translate(0 0)" fill="#404254">
  <rect fill="#f2f5e9" fill-opacity="0.5" stroke="#606060" stroke-width=".5" x="0" y="0" width="60" height="60"/>
  <use id="zoomplus" xlink:href="#zoomPlus" x="17" y="9" onmousedown="handleZoom(evt,'in')"/>
  <use id="zoomminus" xlink:href="#zoomMin" x="42" y="9" onmousedown="handleZoom(evt,'out')"/>
  <use id="reset" xlink:href="#resetDef" x="30" y="36" onmousedown="handleReset()"/>
   <use id="arrowup" xlink:href="#arrowUp" x="0" y="0" onmousedown="handlePan(0,-1)"/>
  <use id="arrowright" xlink:href="#arrowRight" x="0" y="0" onmousedown="handlePan(1,0)"/>
  <use id="arrowdown" xlink:href="#arrowDown" x="0" y="0" onmousedown="handlePan(0,1)"/>
  <use id="arrowleft" xlink:href="#arrowLeft" x="0" y="0" onmousedown="handlePan(-1,0)"/>
</g>
<svg viewBox="0 0 15 15" width="100%" height="30px" preserveAspectRatio="xMaxYMin meet">
 <g id="arrow_out" transform="scale(0.3 0.3)">
  <a xlink:href="game__engine_8hpp__incl_org.svg" target="_base">
   <rect id="button" ry="5" rx="5" y="6" x="6" height="38" width="38"
        fill="#f2f5e9" fill-opacity="0.5" stroke="#606060" stroke-width="1.0"/>
   <path id="arrow"
     d="M 11.500037,31.436501 C 11.940474,20.09759 22.043105,11.32322 32.158766,21.979434 L 37.068811,17.246167 C 37.068811,17.246167 37.088388,32 37.088388,32 L 22.160133,31.978069 C 22.160133,31.978069 26.997745,27.140456 26.997745,27.140456 C 18.528582,18.264221 13.291696,25.230495 11.500037,31.436501 z"
     style="fill:#404040;"/>
  </a>
 </g>
</svg>

<style type='text/css'>
<![CDATA[
[data-mouse-over-selected='false'] { opacity: 0.7; }
[data-mouse-over-selected='true']  { opacity: 1.0; }
]]>
</style>
<script type="application/ecmascript"><![CDATA[
document.addEventListener('DOMContentLoaded', (event) => {
  highlightEdges();
  highlightAdjacentNodes();
});
]]></script>
</svg>
