<?xml version="1.0" encoding="UTF-8" standalone="no"?>
<!DOCTYPE svg PUBLIC "-//W3C//DTD SVG 1.1//EN"
 "http://www.w3.org/Graphics/SVG/1.1/DTD/svg11.dtd">
<!-- Generated by graphviz version 13.1.2 (20250808.2320)
 -->
<!-- Title: src/game_engine.cpp Pages: 1 -->
<svg width="1657pt" height="420pt"
 viewBox="0.00 0.00 1657.00 420.00" xmlns="http://www.w3.org/2000/svg" xmlns:xlink="http://www.w3.org/1999/xlink">
<g id="graph0" class="graph" transform="scale(1 1) rotate(0) translate(4 416)">
<title>src/game_engine.cpp</title>
<!-- Node1 -->
<g id="Node000001" class="node">
<title>Node1</title>
<g id="a_Node000001"><a xlink:title=" ">
<polygon fill="#999999" stroke="#666666" points="1314.62,-412 1205.62,-412 1205.62,-392 1314.62,-392 1314.62,-412"/>
<text xml:space="preserve" text-anchor="middle" x="1260.12" y="-398.5" font-family="Helvetica,sans-Serif" font-size="10.00">src/game_engine.cpp</text>
</a>
</g>
</g>
<!-- Node2 -->
<g id="Node000002" class="node">
<title>Node2</title>
<g id="a_Node000002"><a xlink:href="game__engine_8hpp.html" target="_top" xlink:title=" ">
<polygon fill="white" stroke="#666666" points="504.38,-300 411.88,-300 411.88,-280 504.38,-280 504.38,-300"/>
<text xml:space="preserve" text-anchor="middle" x="458.12" y="-286.5" font-family="Helvetica,sans-Serif" font-size="10.00">game_engine.hpp</text>
</a>
</g>
</g>
<!-- Node1&#45;&gt;Node2 -->
<g id="edge1_Node000001_Node000002" class="edge">
<title>Node1&#45;&gt;Node2</title>
<g id="a_edge1_Node000001_Node000002"><a xlink:title=" ">
<path fill="none" stroke="#63b8ff" d="M1205.35,-395.68C1128.2,-388 983.19,-372.86 860.12,-356 737.12,-339.15 593.7,-314.83 515.76,-301.22"/>
<polygon fill="#63b8ff" stroke="#63b8ff" points="516.69,-297.83 506.24,-299.55 515.48,-304.72 516.69,-297.83"/>
</a>
</g>
</g>
<!-- Node19 -->
<g id="Node000019" class="node">
<title>Node19</title>
<g id="a_Node000019"><a xlink:href="action_8hpp.html" target="_top" xlink:title=" ">
<polygon fill="white" stroke="#666666" points="835.62,-244 774.62,-244 774.62,-224 835.62,-224 835.62,-244"/>
<text xml:space="preserve" text-anchor="middle" x="805.12" y="-230.5" font-family="Helvetica,sans-Serif" font-size="10.00">action.hpp</text>
</a>
</g>
</g>
<!-- Node1&#45;&gt;Node19 -->
<g id="edge19_Node000001_Node000019" class="edge">
<title>Node1&#45;&gt;Node19</title>
<g id="a_edge19_Node000001_Node000019"><a xlink:title=" ">
<path fill="none" stroke="#63b8ff" d="M1223.56,-391.53C1191.75,-383.04 1144.53,-369.82 1104.12,-356 1004.73,-322.02 890.47,-272.87 836.49,-249.03"/>
<polygon fill="#63b8ff" stroke="#63b8ff" points="838.16,-245.94 827.59,-245.09 835.32,-252.34 838.16,-245.94"/>
</a>
</g>
</g>
<!-- Node20 -->
<g id="Node000020" class="node">
<title>Node20</title>
<g id="a_Node000020"><a xlink:href="scene_8hpp.html" target="_top" xlink:title=" ">
<polygon fill="white" stroke="#666666" points="1032.62,-300 971.62,-300 971.62,-280 1032.62,-280 1032.62,-300"/>
<text xml:space="preserve" text-anchor="middle" x="1002.12" y="-286.5" font-family="Helvetica,sans-Serif" font-size="10.00">scene.hpp</text>
</a>
</g>
</g>
<!-- Node1&#45;&gt;Node20 -->
<g id="edge21_Node000001_Node000020" class="edge">
<title>Node1&#45;&gt;Node20</title>
<g id="a_edge21_Node000001_Node000020"><a xlink:title=" ">
<path fill="none" stroke="#63b8ff" d="M1238.13,-391.62C1192.62,-372.22 1087.95,-327.59 1034.63,-304.86"/>
<polygon fill="#63b8ff" stroke="#63b8ff" points="1036.03,-301.65 1025.46,-300.95 1033.28,-308.09 1036.03,-301.65"/>
</a>
</g>
</g>
<!-- Node31 -->
<g id="Node000031" class="node">
<title>Node31</title>
<g id="a_Node000031"><a xlink:href="scene__menu_8hpp.html" target="_top" xlink:title=" ">
<polygon fill="white" stroke="#666666" points="1305.25,-356 1215,-356 1215,-336 1305.25,-336 1305.25,-356"/>
<text xml:space="preserve" text-anchor="middle" x="1260.12" y="-342.5" font-family="Helvetica,sans-Serif" font-size="10.00">scene_menu.hpp</text>
</a>
</g>
</g>
<!-- Node1&#45;&gt;Node31 -->
<g id="edge37_Node000001_Node000031" class="edge">
<title>Node1&#45;&gt;Node31</title>
<g id="a_edge37_Node000001_Node000031"><a xlink:title=" ">
<path fill="none" stroke="#63b8ff" d="M1260.12,-391.59C1260.12,-385.01 1260.12,-375.96 1260.12,-367.73"/>
<polygon fill="#63b8ff" stroke="#63b8ff" points="1263.63,-367.81 1260.13,-357.81 1256.63,-367.81 1263.63,-367.81"/>
</a>
</g>
</g>
<!-- Node34 -->
<g id="Node000034" class="node">
<title>Node34</title>
<g id="a_Node000034"><a xlink:title=" ">
<polygon fill="#e0e0e0" stroke="#999999" points="1564.88,-132 1511.38,-132 1511.38,-112 1564.88,-112 1564.88,-132"/>
<text xml:space="preserve" text-anchor="middle" x="1538.12" y="-118.5" font-family="Helvetica,sans-Serif" font-size="10.00">iostream</text>
</a>
</g>
</g>
<!-- Node1&#45;&gt;Node34 -->
<g id="edge48_Node000001_Node000034" class="edge">
<title>Node1&#45;&gt;Node34</title>
<g id="a_edge48_Node000001_Node000034"><a xlink:title=" ">
<path fill="none" stroke="#63b8ff" d="M1314.85,-396.83C1379.43,-388.58 1478.12,-364.02 1478.12,-291 1478.12,-291 1478.12,-291 1478.12,-233 1478.12,-196.78 1503.51,-161.14 1521.25,-140.65"/>
<polygon fill="#63b8ff" stroke="#63b8ff" points="1523.63,-143.25 1527.74,-133.48 1518.43,-138.55 1523.63,-143.25"/>
</a>
</g>
</g>
<!-- Node36 -->
<g id="Node000036" class="node">
<title>Node36</title>
<g id="a_Node000036"><a xlink:title=" ">
<polygon fill="#e0e0e0" stroke="#999999" points="1553.88,-356 1506.38,-356 1506.38,-336 1553.88,-336 1553.88,-356"/>
<text xml:space="preserve" text-anchor="middle" x="1530.12" y="-342.5" font-family="Helvetica,sans-Serif" font-size="10.00">imgui.h</text>
</a>
</g>
</g>
<!-- Node1&#45;&gt;Node36 -->
<g id="edge49_Node000001_Node000036" class="edge">
<title>Node1&#45;&gt;Node36</title>
<g id="a_edge49_Node000001_Node000036"><a xlink:title=" ">
<path fill="none" stroke="#63b8ff" d="M1312.31,-391.51C1359.41,-382.79 1430.56,-369.26 1492.12,-356 1493.11,-355.79 1494.11,-355.57 1495.12,-355.35"/>
<polygon fill="#63b8ff" stroke="#63b8ff" points="1495.59,-358.83 1504.56,-353.2 1494.03,-352.01 1495.59,-358.83"/>
</a>
</g>
</g>
<!-- Node37 -->
<g id="Node000037" class="node">
<title>Node37</title>
<g id="a_Node000037"><a xlink:title=" ">
<polygon fill="#e0e0e0" stroke="#999999" points="1648.5,-356 1571.75,-356 1571.75,-336 1648.5,-336 1648.5,-356"/>
<text xml:space="preserve" text-anchor="middle" x="1610.12" y="-342.5" font-family="Helvetica,sans-Serif" font-size="10.00">imgui&#45;SFML.h</text>
</a>
</g>
</g>
<!-- Node1&#45;&gt;Node37 -->
<g id="edge50_Node000001_Node000037" class="edge">
<title>Node1&#45;&gt;Node37</title>
<g id="a_edge50_Node000001_Node000037"><a xlink:title=" ">
<path fill="none" stroke="#63b8ff" d="M1314.97,-393.56C1373.38,-385.47 1468.8,-371.82 1560.28,-356.43"/>
<polygon fill="#63b8ff" stroke="#63b8ff" points="1560.65,-359.92 1569.93,-354.8 1559.48,-353.02 1560.65,-359.92"/>
</a>
</g>
</g>
<!-- Node3 -->
<g id="Node000003" class="node">
<title>Node3</title>
<g id="a_Node000003"><a xlink:title=" ">
<polygon fill="#e0e0e0" stroke="#999999" points="249.12,-244 77.12,-244 77.12,-224 249.12,-224 249.12,-244"/>
<text xml:space="preserve" text-anchor="middle" x="163.12" y="-230.5" font-family="Helvetica,sans-Serif" font-size="10.00">SFML/Graphics/RenderWindow.hpp</text>
</a>
</g>
</g>
<!-- Node2&#45;&gt;Node3 -->
<g id="edge2_Node000002_Node000003" class="edge">
<title>Node2&#45;&gt;Node3</title>
<g id="a_edge2_Node000002_Node000003"><a xlink:title=" ">
<path fill="none" stroke="#63b8ff" d="M411.38,-280.44C361.3,-271.28 281.53,-256.67 225.98,-246.51"/>
<polygon fill="#63b8ff" stroke="#63b8ff" points="226.82,-243.1 216.35,-244.74 225.56,-249.99 226.82,-243.1"/>
</a>
</g>
</g>
<!-- Node4 -->
<g id="Node000004" class="node">
<title>Node4</title>
<g id="a_Node000004"><a xlink:title=" ">
<polygon fill="#e0e0e0" stroke="#999999" points="393.25,-244 267,-244 267,-224 393.25,-224 393.25,-244"/>
<text xml:space="preserve" text-anchor="middle" x="330.12" y="-230.5" font-family="Helvetica,sans-Serif" font-size="10.00">SFML/System/Clock.hpp</text>
</a>
</g>
</g>
<!-- Node2&#45;&gt;Node4 -->
<g id="edge3_Node000002_Node000004" class="edge">
<title>Node2&#45;&gt;Node4</title>
<g id="a_edge3_Node000002_Node000004"><a xlink:title=" ">
<path fill="none" stroke="#63b8ff" d="M435.83,-279.59C415.76,-271.13 386.01,-258.58 363.17,-248.94"/>
<polygon fill="#63b8ff" stroke="#63b8ff" points="364.56,-245.73 353.99,-245.07 361.84,-252.18 364.56,-245.73"/>
</a>
</g>
</g>
<!-- Node5 -->
<g id="Node000005" class="node">
<title>Node5</title>
<g id="a_Node000005"><a xlink:href="config__parser_8hpp.html" target="_top" xlink:title=" ">
<polygon fill="white" stroke="#666666" points="504.75,-244 411.5,-244 411.5,-224 504.75,-224 504.75,-244"/>
<text xml:space="preserve" text-anchor="middle" x="458.12" y="-230.5" font-family="Helvetica,sans-Serif" font-size="10.00">config_parser.hpp</text>
</a>
</g>
</g>
<!-- Node2&#45;&gt;Node5 -->
<g id="edge4_Node000002_Node000005" class="edge">
<title>Node2&#45;&gt;Node5</title>
<g id="a_edge4_Node000002_Node000005"><a xlink:title=" ">
<path fill="none" stroke="#63b8ff" d="M458.12,-279.59C458.12,-273.01 458.12,-263.96 458.12,-255.73"/>
<polygon fill="#63b8ff" stroke="#63b8ff" points="461.63,-255.81 458.13,-245.81 454.63,-255.81 461.63,-255.81"/>
</a>
</g>
</g>
<!-- Node10 -->
<g id="Node000010" class="node">
<title>Node10</title>
<g id="a_Node000010"><a xlink:href="asset__manager_8hpp.html" target="_top" xlink:title=" ">
<polygon fill="white" stroke="#666666" points="623.88,-244 522.38,-244 522.38,-224 623.88,-224 623.88,-244"/>
<text xml:space="preserve" text-anchor="middle" x="573.12" y="-230.5" font-family="Helvetica,sans-Serif" font-size="10.00">asset_manager.hpp</text>
</a>
</g>
</g>
<!-- Node2&#45;&gt;Node10 -->
<g id="edge9_Node000002_Node000010" class="edge">
<title>Node2&#45;&gt;Node10</title>
<g id="a_edge9_Node000002_Node000010"><a xlink:title=" ">
<path fill="none" stroke="#63b8ff" d="M478.16,-279.59C495.94,-271.24 522.19,-258.92 542.59,-249.34"/>
<polygon fill="#63b8ff" stroke="#63b8ff" points="544,-252.54 551.57,-245.12 541.03,-246.21 544,-252.54"/>
</a>
</g>
</g>
<!-- Node6 -->
<g id="Node000006" class="node">
<title>Node6</title>
<g id="a_Node000006"><a xlink:href="config__structs_8hpp.html" target="_top" xlink:title=" ">
<polygon fill="white" stroke="#666666" points="96.25,-188 0,-188 0,-168 96.25,-168 96.25,-188"/>
<text xml:space="preserve" text-anchor="middle" x="48.12" y="-174.5" font-family="Helvetica,sans-Serif" font-size="10.00">config_structs.hpp</text>
</a>
</g>
</g>
<!-- Node5&#45;&gt;Node6 -->
<g id="edge5_Node000005_Node000006" class="edge">
<title>Node5&#45;&gt;Node6</title>
<g id="a_edge5_Node000005_Node000006"><a xlink:title=" ">
<path fill="none" stroke="#63b8ff" d="M411.09,-225.31C408.06,-224.85 405.05,-224.41 402.12,-224 274.06,-205.95 238.73,-206.34 107.88,-188.34"/>
<polygon fill="#63b8ff" stroke="#63b8ff" points="108.5,-184.89 98.12,-186.99 107.54,-191.83 108.5,-184.89"/>
</a>
</g>
</g>
<!-- Node7 -->
<g id="Node000007" class="node">
<title>Node7</title>
<g id="a_Node000007"><a xlink:title=" ">
<polygon fill="#e0e0e0" stroke="#999999" points="862.12,-20 822.12,-20 822.12,0 862.12,0 862.12,-20"/>
<text xml:space="preserve" text-anchor="middle" x="842.12" y="-6.5" font-family="Helvetica,sans-Serif" font-size="10.00">string</text>
</a>
</g>
</g>
<!-- Node6&#45;&gt;Node7 -->
<g id="edge6_Node000006_Node000007" class="edge">
<title>Node6&#45;&gt;Node7</title>
<g id="a_edge6_Node000006_Node000007"><a xlink:title=" ">
<path fill="none" stroke="#63b8ff" d="M47.89,-167.81C48.07,-153.49 50.69,-126.07 67.12,-112 181.45,-14.13 679.54,-10.04 810.49,-10.69"/>
<polygon fill="#63b8ff" stroke="#63b8ff" points="810.12,-14.18 820.14,-10.75 810.17,-7.18 810.12,-14.18"/>
</a>
</g>
</g>
<!-- Node8 -->
<g id="Node000008" class="node">
<title>Node8</title>
<g id="a_Node000008"><a xlink:title=" ">
<polygon fill="#e0e0e0" stroke="#999999" points="409,-132 371.25,-132 371.25,-112 409,-112 409,-132"/>
<text xml:space="preserve" text-anchor="middle" x="390.12" y="-118.5" font-family="Helvetica,sans-Serif" font-size="10.00">array</text>
</a>
</g>
</g>
<!-- Node6&#45;&gt;Node8 -->
<g id="edge7_Node000006_Node000008" class="edge">
<title>Node6&#45;&gt;Node8</title>
<g id="a_edge7_Node000006_Node000008"><a xlink:title=" ">
<path fill="none" stroke="#63b8ff" d="M96.4,-169.38C168.06,-158.06 300.49,-137.15 359.9,-127.77"/>
<polygon fill="#63b8ff" stroke="#63b8ff" points="360.27,-131.26 369.6,-126.24 359.18,-124.34 360.27,-131.26"/>
</a>
</g>
</g>
<!-- Node9 -->
<g id="Node000009" class="node">
<title>Node9</title>
<g id="a_Node000009"><a xlink:title=" ">
<polygon fill="#e0e0e0" stroke="#999999" points="129.88,-132 76.38,-132 76.38,-112 129.88,-112 129.88,-132"/>
<text xml:space="preserve" text-anchor="middle" x="103.12" y="-118.5" font-family="Helvetica,sans-Serif" font-size="10.00">toml.hpp</text>
</a>
</g>
</g>
<!-- Node6&#45;&gt;Node9 -->
<g id="edge8_Node000006_Node000009" class="edge">
<title>Node6&#45;&gt;Node9</title>
<g id="a_edge8_Node000006_Node000009"><a xlink:title=" ">
<path fill="none" stroke="#63b8ff" d="M57.71,-167.59C65.36,-160.08 76.28,-149.35 85.5,-140.3"/>
<polygon fill="#63b8ff" stroke="#63b8ff" points="87.89,-142.86 92.57,-133.36 82.99,-137.87 87.89,-142.86"/>
</a>
</g>
</g>
<!-- Node11 -->
<g id="Node000011" class="node">
<title>Node11</title>
<g id="a_Node000011"><a xlink:title=" ">
<polygon fill="#e0e0e0" stroke="#999999" points="952.5,-188 869.75,-188 869.75,-168 952.5,-168 952.5,-188"/>
<text xml:space="preserve" text-anchor="middle" x="911.12" y="-174.5" font-family="Helvetica,sans-Serif" font-size="10.00">unordered_map</text>
</a>
</g>
</g>
<!-- Node10&#45;&gt;Node11 -->
<g id="edge10_Node000010_Node000011" class="edge">
<title>Node10&#45;&gt;Node11</title>
<g id="a_edge10_Node000010_Node000011"><a xlink:title=" ">
<path fill="none" stroke="#63b8ff" d="M624.09,-224.86C687.25,-214.77 794.32,-197.66 858.31,-187.44"/>
<polygon fill="#63b8ff" stroke="#63b8ff" points="858.54,-190.95 867.86,-185.91 857.43,-184.03 858.54,-190.95"/>
</a>
</g>
</g>
<!-- Node12 -->
<g id="Node000012" class="node">
<title>Node12</title>
<g id="a_Node000012"><a xlink:title=" ">
<polygon fill="#e0e0e0" stroke="#999999" points="175.62,-188 114.62,-188 114.62,-168 175.62,-168 175.62,-188"/>
<text xml:space="preserve" text-anchor="middle" x="145.12" y="-174.5" font-family="Helvetica,sans-Serif" font-size="10.00">filesystem</text>
</a>
</g>
</g>
<!-- Node10&#45;&gt;Node12 -->
<g id="edge11_Node000010_Node000012" class="edge">
<title>Node10&#45;&gt;Node12</title>
<g id="a_edge11_Node000010_Node000012"><a xlink:title=" ">
<path fill="none" stroke="#63b8ff" d="M521.98,-225.06C519.32,-224.69 516.69,-224.34 514.12,-224 371.84,-205.37 332.14,-211.84 187.15,-188.16"/>
<polygon fill="#63b8ff" stroke="#63b8ff" points="188,-184.75 177.56,-186.57 186.85,-191.66 188,-184.75"/>
</a>
</g>
</g>
<!-- Node13 -->
<g id="Node000013" class="node">
<title>Node13</title>
<g id="a_Node000013"><a xlink:title=" ">
<polygon fill="#e0e0e0" stroke="#999999" points="332.25,-188 194,-188 194,-168 332.25,-168 332.25,-188"/>
<text xml:space="preserve" text-anchor="middle" x="263.12" y="-174.5" font-family="Helvetica,sans-Serif" font-size="10.00">SFML/Graphics/Texture.hpp</text>
</a>
</g>
</g>
<!-- Node10&#45;&gt;Node13 -->
<g id="edge12_Node000010_Node000013" class="edge">
<title>Node10&#45;&gt;Node13</title>
<g id="a_edge12_Node000010_Node000013"><a xlink:title=" ">
<path fill="none" stroke="#63b8ff" d="M521.93,-224.08C469.05,-214.87 386.34,-200.46 328.7,-190.42"/>
<polygon fill="#63b8ff" stroke="#63b8ff" points="329.47,-187 319.01,-188.74 328.26,-193.9 329.47,-187"/>
</a>
</g>
</g>
<!-- Node14 -->
<g id="Node000014" class="node">
<title>Node14</title>
<g id="a_Node000014"><a xlink:title=" ">
<polygon fill="#e0e0e0" stroke="#999999" points="813.88,-188 688.38,-188 688.38,-168 813.88,-168 813.88,-188"/>
<text xml:space="preserve" text-anchor="middle" x="751.12" y="-174.5" font-family="Helvetica,sans-Serif" font-size="10.00">SFML/Graphics/Font.hpp</text>
</a>
</g>
</g>
<!-- Node10&#45;&gt;Node14 -->
<g id="edge13_Node000010_Node000014" class="edge">
<title>Node10&#45;&gt;Node14</title>
<g id="a_edge13_Node000010_Node000014"><a xlink:title=" ">
<path fill="none" stroke="#63b8ff" d="M604.13,-223.59C633.18,-214.78 676.82,-201.54 709.01,-191.78"/>
<polygon fill="#63b8ff" stroke="#63b8ff" points="709.88,-195.17 718.43,-188.92 707.84,-188.47 709.88,-195.17"/>
</a>
</g>
</g>
<!-- Node15 -->
<g id="Node000015" class="node">
<title>Node15</title>
<g id="a_Node000015"><a xlink:title=" ">
<polygon fill="#e0e0e0" stroke="#999999" points="495.62,-188 350.62,-188 350.62,-168 495.62,-168 495.62,-188"/>
<text xml:space="preserve" text-anchor="middle" x="423.12" y="-174.5" font-family="Helvetica,sans-Serif" font-size="10.00">SFML/Audio/SoundBuffer.hpp</text>
</a>
</g>
</g>
<!-- Node10&#45;&gt;Node15 -->
<g id="edge14_Node000010_Node000015" class="edge">
<title>Node10&#45;&gt;Node15</title>
<g id="a_edge14_Node000010_Node000015"><a xlink:title=" ">
<path fill="none" stroke="#63b8ff" d="M547,-223.59C522.95,-214.94 487.02,-202 460.04,-192.29"/>
<polygon fill="#63b8ff" stroke="#63b8ff" points="461.48,-189.09 450.88,-188.99 459.1,-195.67 461.48,-189.09"/>
</a>
</g>
</g>
<!-- Node16 -->
<g id="Node000016" class="node">
<title>Node16</title>
<g id="a_Node000016"><a xlink:title=" ">
<polygon fill="#e0e0e0" stroke="#999999" points="632.12,-188 514.12,-188 514.12,-168 632.12,-168 632.12,-188"/>
<text xml:space="preserve" text-anchor="middle" x="573.12" y="-174.5" font-family="Helvetica,sans-Serif" font-size="10.00">SFML/Audio/Music.hpp</text>
</a>
</g>
</g>
<!-- Node10&#45;&gt;Node16 -->
<g id="edge15_Node000010_Node000016" class="edge">
<title>Node10&#45;&gt;Node16</title>
<g id="a_edge15_Node000010_Node000016"><a xlink:title=" ">
<path fill="none" stroke="#63b8ff" d="M573.12,-223.59C573.12,-217.01 573.12,-207.96 573.12,-199.73"/>
<polygon fill="#63b8ff" stroke="#63b8ff" points="576.63,-199.81 573.13,-189.81 569.63,-199.81 576.63,-199.81"/>
</a>
</g>
</g>
<!-- Node17 -->
<g id="Node000017" class="node">
<title>Node17</title>
<g id="a_Node000017"><a xlink:href="animation_8hpp.html" target="_top" xlink:title=" ">
<polygon fill="white" stroke="#666666" points="965.5,-76 888.75,-76 888.75,-56 965.5,-56 965.5,-76"/>
<text xml:space="preserve" text-anchor="middle" x="927.12" y="-62.5" font-family="Helvetica,sans-Serif" font-size="10.00">animation.hpp</text>
</a>
</g>
</g>
<!-- Node10&#45;&gt;Node17 -->
<g id="edge16_Node000010_Node000017" class="edge">
<title>Node10&#45;&gt;Node17</title>
<g id="a_edge16_Node000010_Node000017"><a xlink:title=" ">
<path fill="none" stroke="#63b8ff" d="M586.77,-223.63C606.56,-210.27 644.65,-185.45 679.12,-168 751.28,-131.49 839.88,-97.96 889.27,-80.22"/>
<polygon fill="#63b8ff" stroke="#63b8ff" points="890.4,-83.54 898.64,-76.88 888.04,-76.94 890.4,-83.54"/>
</a>
</g>
</g>
<!-- Node17&#45;&gt;Node7 -->
<g id="edge17_Node000017_Node000007" class="edge">
<title>Node17&#45;&gt;Node7</title>
<g id="a_edge17_Node000017_Node000007"><a xlink:title=" ">
<path fill="none" stroke="#63b8ff" d="M912.32,-55.59C899.72,-47.59 881.37,-35.93 866.59,-26.54"/>
<polygon fill="#63b8ff" stroke="#63b8ff" points="868.64,-23.7 858.32,-21.29 864.89,-29.61 868.64,-23.7"/>
</a>
</g>
</g>
<!-- Node18 -->
<g id="Node000018" class="node">
<title>Node18</title>
<g id="a_Node000018"><a xlink:title=" ">
<polygon fill="#e0e0e0" stroke="#999999" points="1011.88,-20 880.38,-20 880.38,0 1011.88,0 1011.88,-20"/>
<text xml:space="preserve" text-anchor="middle" x="946.12" y="-6.5" font-family="Helvetica,sans-Serif" font-size="10.00">SFML/Graphics/Sprite.hpp</text>
</a>
</g>
</g>
<!-- Node17&#45;&gt;Node18 -->
<g id="edge18_Node000017_Node000018" class="edge">
<title>Node17&#45;&gt;Node18</title>
<g id="a_edge18_Node000017_Node000018"><a xlink:title=" ">
<path fill="none" stroke="#63b8ff" d="M930.43,-55.59C932.8,-48.86 936.09,-39.53 939.03,-31.15"/>
<polygon fill="#63b8ff" stroke="#63b8ff" points="942.33,-32.32 942.35,-21.73 935.73,-30 942.33,-32.32"/>
</a>
</g>
</g>
<!-- Node19&#45;&gt;Node7 -->
<g id="edge20_Node000019_Node000007" class="edge">
<title>Node19&#45;&gt;Node7</title>
<g id="a_edge20_Node000019_Node000007"><a xlink:title=" ">
<path fill="none" stroke="#63b8ff" d="M809.77,-223.6C813.97,-214.66 819.96,-200.74 823.12,-188 836.89,-132.66 840.68,-65.15 841.73,-31.76"/>
<polygon fill="#63b8ff" stroke="#63b8ff" points="845.22,-31.97 841.98,-21.88 838.22,-31.79 845.22,-31.97"/>
</a>
</g>
</g>
<!-- Node20&#45;&gt;Node11 -->
<g id="edge22_Node000020_Node000011" class="edge">
<title>Node20&#45;&gt;Node11</title>
<g id="a_edge22_Node000020_Node000011"><a xlink:title=" ">
<path fill="none" stroke="#63b8ff" d="M971.44,-281.82C951.52,-275.43 926.95,-263.91 914.12,-244 905.7,-230.91 905.47,-213.08 907.06,-199.4"/>
<polygon fill="#63b8ff" stroke="#63b8ff" points="910.48,-200.19 908.61,-189.76 903.57,-199.08 910.48,-200.19"/>
</a>
</g>
</g>
<!-- Node20&#45;&gt;Node19 -->
<g id="edge36_Node000020_Node000019" class="edge">
<title>Node20&#45;&gt;Node19</title>
<g id="a_edge36_Node000020_Node000019"><a xlink:title=" ">
<path fill="none" stroke="#63b8ff" d="M971.34,-280.56C937.9,-271.4 884.28,-256.7 847.01,-246.48"/>
<polygon fill="#63b8ff" stroke="#63b8ff" points="848.04,-243.14 837.47,-243.87 846.19,-249.89 848.04,-243.14"/>
</a>
</g>
</g>
<!-- Node21 -->
<g id="Node000021" class="node">
<title>Node21</title>
<g id="a_Node000021"><a xlink:title=" ">
<polygon fill="#e0e0e0" stroke="#999999" points="1021.75,-188 970.5,-188 970.5,-168 1021.75,-168 1021.75,-188"/>
<text xml:space="preserve" text-anchor="middle" x="996.12" y="-174.5" font-family="Helvetica,sans-Serif" font-size="10.00">memory</text>
</a>
</g>
</g>
<!-- Node20&#45;&gt;Node21 -->
<g id="edge23_Node000020_Node000021" class="edge">
<title>Node20&#45;&gt;Node21</title>
<g id="a_edge23_Node000020_Node000021"><a xlink:title=" ">
<path fill="none" stroke="#63b8ff" d="M971.51,-280.59C953.41,-273.87 931.98,-262.44 921.12,-244 908.28,-222.17 934.92,-203.98 959.93,-192.44"/>
<polygon fill="#63b8ff" stroke="#63b8ff" points="961.24,-195.69 969.04,-188.52 958.47,-189.26 961.24,-195.69"/>
</a>
</g>
</g>
<!-- Node22 -->
<g id="Node000022" class="node">
<title>Node22</title>
<g id="a_Node000022"><a xlink:title=" ">
<polygon fill="#e0e0e0" stroke="#999999" points="1073.88,-244 930.38,-244 930.38,-224 1073.88,-224 1073.88,-244"/>
<text xml:space="preserve" text-anchor="middle" x="1002.12" y="-230.5" font-family="Helvetica,sans-Serif" font-size="10.00">SFML/Window/Keyboard.hpp</text>
</a>
</g>
</g>
<!-- Node20&#45;&gt;Node22 -->
<g id="edge24_Node000020_Node000022" class="edge">
<title>Node20&#45;&gt;Node22</title>
<g id="a_edge24_Node000020_Node000022"><a xlink:title=" ">
<path fill="none" stroke="#63b8ff" d="M1002.12,-279.59C1002.12,-273.01 1002.12,-263.96 1002.12,-255.73"/>
<polygon fill="#63b8ff" stroke="#63b8ff" points="1005.63,-255.81 1002.13,-245.81 998.63,-255.81 1005.63,-255.81"/>
</a>
</g>
</g>
<!-- Node23 -->
<g id="Node000023" class="node">
<title>Node23</title>
<g id="a_Node000023"><a xlink:href="entity__manager_8hpp.html" target="_top" xlink:title=" ">
<polygon fill="white" stroke="#666666" points="1231.88,-244 1130.38,-244 1130.38,-224 1231.88,-224 1231.88,-244"/>
<text xml:space="preserve" text-anchor="middle" x="1181.12" y="-230.5" font-family="Helvetica,sans-Serif" font-size="10.00">entity_manager.hpp</text>
</a>
</g>
</g>
<!-- Node20&#45;&gt;Node23 -->
<g id="edge25_Node000020_Node000023" class="edge">
<title>Node20&#45;&gt;Node23</title>
<g id="a_edge25_Node000020_Node000023"><a xlink:title=" ">
<path fill="none" stroke="#63b8ff" d="M1032.9,-279.72C1062.14,-270.9 1106.35,-257.56 1138.88,-247.74"/>
<polygon fill="#63b8ff" stroke="#63b8ff" points="1139.84,-251.11 1148.41,-244.87 1137.82,-244.41 1139.84,-251.11"/>
</a>
</g>
</g>
<!-- Node23&#45;&gt;Node11 -->
<g id="edge27_Node000023_Node000011" class="edge">
<title>Node23&#45;&gt;Node11</title>
<g id="a_edge27_Node000023_Node000011"><a xlink:title=" ">
<path fill="none" stroke="#63b8ff" d="M1133.79,-223.53C1086.22,-214.02 1013.08,-199.39 963.72,-189.52"/>
<polygon fill="#63b8ff" stroke="#63b8ff" points="964.63,-186.13 954.13,-187.6 963.25,-192.99 964.63,-186.13"/>
</a>
</g>
</g>
<!-- Node23&#45;&gt;Node21 -->
<g id="edge28_Node000023_Node000021" class="edge">
<title>Node23&#45;&gt;Node21</title>
<g id="a_edge28_Node000023_Node000021"><a xlink:title=" ">
<path fill="none" stroke="#63b8ff" d="M1148.9,-223.59C1116.53,-214.15 1066.73,-199.61 1032.85,-189.72"/>
<polygon fill="#63b8ff" stroke="#63b8ff" points="1034.05,-186.42 1023.47,-186.98 1032.09,-193.14 1034.05,-186.42"/>
</a>
</g>
</g>
<!-- Node24 -->
<g id="Node000024" class="node">
<title>Node24</title>
<g id="a_Node000024"><a xlink:title=" ">
<polygon fill="#e0e0e0" stroke="#999999" points="1082.62,-188 1039.62,-188 1039.62,-168 1082.62,-168 1082.62,-188"/>
<text xml:space="preserve" text-anchor="middle" x="1061.12" y="-174.5" font-family="Helvetica,sans-Serif" font-size="10.00">vector</text>
</a>
</g>
</g>
<!-- Node23&#45;&gt;Node24 -->
<g id="edge26_Node000023_Node000024" class="edge">
<title>Node23&#45;&gt;Node24</title>
<g id="a_edge26_Node000023_Node000024"><a xlink:title=" ">
<path fill="none" stroke="#63b8ff" d="M1160.22,-223.59C1141.5,-215.17 1113.77,-202.69 1092.4,-193.07"/>
<polygon fill="#63b8ff" stroke="#63b8ff" points="1094.13,-190.01 1083.57,-189.1 1091.25,-196.4 1094.13,-190.01"/>
</a>
</g>
</g>
<!-- Node25 -->
<g id="Node000025" class="node">
<title>Node25</title>
<g id="a_Node000025"><a xlink:title=" ">
<polygon fill="#e0e0e0" stroke="#999999" points="1156,-188 1100.25,-188 1100.25,-168 1156,-168 1156,-188"/>
<text xml:space="preserve" text-anchor="middle" x="1128.12" y="-174.5" font-family="Helvetica,sans-Serif" font-size="10.00">algorithm</text>
</a>
</g>
</g>
<!-- Node23&#45;&gt;Node25 -->
<g id="edge29_Node000023_Node000025" class="edge">
<title>Node23&#45;&gt;Node25</title>
<g id="a_edge29_Node000023_Node000025"><a xlink:title=" ">
<path fill="none" stroke="#63b8ff" d="M1171.89,-223.59C1164.52,-216.08 1153.99,-205.35 1145.11,-196.3"/>
<polygon fill="#63b8ff" stroke="#63b8ff" points="1147.81,-194.06 1138.31,-189.38 1142.82,-198.97 1147.81,-194.06"/>
</a>
</g>
</g>
<!-- Node26 -->
<g id="Node000026" class="node">
<title>Node26</title>
<g id="a_Node000026"><a xlink:href="entity_8hpp.html" target="_top" xlink:title=" ">
<polygon fill="white" stroke="#666666" points="1232.12,-188 1174.12,-188 1174.12,-168 1232.12,-168 1232.12,-188"/>
<text xml:space="preserve" text-anchor="middle" x="1203.12" y="-174.5" font-family="Helvetica,sans-Serif" font-size="10.00">entity.hpp</text>
</a>
</g>
</g>
<!-- Node23&#45;&gt;Node26 -->
<g id="edge30_Node000023_Node000026" class="edge">
<title>Node23&#45;&gt;Node26</title>
<g id="a_edge30_Node000023_Node000026"><a xlink:title=" ">
<path fill="none" stroke="#63b8ff" d="M1184.96,-223.59C1187.73,-216.78 1191.59,-207.32 1195.03,-198.86"/>
<polygon fill="#63b8ff" stroke="#63b8ff" points="1198.23,-200.28 1198.77,-189.7 1191.75,-197.64 1198.23,-200.28"/>
</a>
</g>
</g>
<!-- Node27 -->
<g id="Node000027" class="node">
<title>Node27</title>
<g id="a_Node000027"><a xlink:title=" ">
<polygon fill="#e0e0e0" stroke="#999999" points="1125.62,-132 1088.62,-132 1088.62,-112 1125.62,-112 1125.62,-132"/>
<text xml:space="preserve" text-anchor="middle" x="1107.12" y="-118.5" font-family="Helvetica,sans-Serif" font-size="10.00">tuple</text>
</a>
</g>
</g>
<!-- Node26&#45;&gt;Node27 -->
<g id="edge31_Node000026_Node000027" class="edge">
<title>Node26&#45;&gt;Node27</title>
<g id="a_edge31_Node000026_Node000027"><a xlink:title=" ">
<path fill="none" stroke="#63b8ff" d="M1186.4,-167.59C1171.9,-159.44 1150.65,-147.48 1133.8,-138"/>
<polygon fill="#63b8ff" stroke="#63b8ff" points="1135.73,-135.07 1125.3,-133.22 1132.3,-141.17 1135.73,-135.07"/>
</a>
</g>
</g>
<!-- Node28 -->
<g id="Node000028" class="node">
<title>Node28</title>
<g id="a_Node000028"><a xlink:href="components_8hpp.html" target="_top" xlink:title=" ">
<polygon fill="white" stroke="#666666" points="1232.12,-132 1144.12,-132 1144.12,-112 1232.12,-112 1232.12,-132"/>
<text xml:space="preserve" text-anchor="middle" x="1188.12" y="-118.5" font-family="Helvetica,sans-Serif" font-size="10.00">components.hpp</text>
</a>
</g>
</g>
<!-- Node26&#45;&gt;Node28 -->
<g id="edge32_Node000026_Node000028" class="edge">
<title>Node26&#45;&gt;Node28</title>
<g id="a_edge32_Node000026_Node000028"><a xlink:title=" ">
<path fill="none" stroke="#63b8ff" d="M1200.51,-167.59C1198.64,-160.86 1196.05,-151.53 1193.72,-143.15"/>
<polygon fill="#63b8ff" stroke="#63b8ff" points="1197.16,-142.46 1191.11,-133.76 1190.42,-144.33 1197.16,-142.46"/>
</a>
</g>
</g>
<!-- Node28&#45;&gt;Node17 -->
<g id="edge35_Node000028_Node000017" class="edge">
<title>Node28&#45;&gt;Node17</title>
<g id="a_edge35_Node000028_Node000017"><a xlink:title=" ">
<path fill="none" stroke="#63b8ff" d="M1143.85,-111.84C1097.53,-102.26 1024.98,-87.25 976.76,-77.27"/>
<polygon fill="#63b8ff" stroke="#63b8ff" points="977.64,-73.88 967.14,-75.28 976.22,-80.73 977.64,-73.88"/>
</a>
</g>
</g>
<!-- Node29 -->
<g id="Node000029" class="node">
<title>Node29</title>
<g id="a_Node000029"><a xlink:title=" ">
<polygon fill="#e0e0e0" stroke="#999999" points="1308,-76 1174.25,-76 1174.25,-56 1308,-56 1308,-76"/>
<text xml:space="preserve" text-anchor="middle" x="1241.12" y="-62.5" font-family="Helvetica,sans-Serif" font-size="10.00">SFML/System/Vector2.hpp</text>
</a>
</g>
</g>
<!-- Node28&#45;&gt;Node29 -->
<g id="edge33_Node000028_Node000029" class="edge">
<title>Node28&#45;&gt;Node29</title>
<g id="a_edge33_Node000028_Node000029"><a xlink:title=" ">
<path fill="none" stroke="#63b8ff" d="M1197.36,-111.59C1204.73,-104.08 1215.26,-93.35 1224.14,-84.3"/>
<polygon fill="#63b8ff" stroke="#63b8ff" points="1226.43,-86.97 1230.94,-77.38 1221.44,-82.06 1226.43,-86.97"/>
</a>
</g>
</g>
<!-- Node30 -->
<g id="Node000030" class="node">
<title>Node30</title>
<g id="a_Node000030"><a xlink:title=" ">
<polygon fill="#e0e0e0" stroke="#999999" points="1155.88,-76 1036.38,-76 1036.38,-56 1155.88,-56 1155.88,-76"/>
<text xml:space="preserve" text-anchor="middle" x="1096.12" y="-62.5" font-family="Helvetica,sans-Serif" font-size="10.00">SFML/Audio/Sound.hpp</text>
</a>
</g>
</g>
<!-- Node28&#45;&gt;Node30 -->
<g id="edge34_Node000028_Node000030" class="edge">
<title>Node28&#45;&gt;Node30</title>
<g id="a_edge34_Node000028_Node000030"><a xlink:title=" ">
<path fill="none" stroke="#63b8ff" d="M1172.1,-111.59C1158.33,-103.51 1138.22,-91.71 1122.15,-82.27"/>
<polygon fill="#63b8ff" stroke="#63b8ff" points="1123.98,-79.29 1113.58,-77.25 1120.43,-85.33 1123.98,-79.29"/>
</a>
</g>
</g>
<!-- Node31&#45;&gt;Node14 -->
<g id="edge46_Node000031_Node000014" class="edge">
<title>Node31&#45;&gt;Node14</title>
<g id="a_edge46_Node000031_Node000014"><a xlink:title=" ">
<path fill="none" stroke="#63b8ff" d="M1248.09,-335.67C1214.43,-309.78 1119.43,-237.96 1083.12,-224 1037.5,-206.45 908.65,-192.55 825.54,-185.07"/>
<polygon fill="#63b8ff" stroke="#63b8ff" points="825.91,-181.59 815.64,-184.19 825.29,-188.56 825.91,-181.59"/>
</a>
</g>
</g>
<!-- Node31&#45;&gt;Node20 -->
<g id="edge38_Node000031_Node000020" class="edge">
<title>Node31&#45;&gt;Node20</title>
<g id="a_edge38_Node000031_Node000020"><a xlink:title=" ">
<path fill="none" stroke="#63b8ff" d="M1214.89,-335.53C1166.69,-325.44 1091.01,-309.6 1044.1,-299.79"/>
<polygon fill="#63b8ff" stroke="#63b8ff" points="1045.1,-296.42 1034.6,-297.8 1043.67,-303.27 1045.1,-296.42"/>
</a>
</g>
</g>
<!-- Node31&#45;&gt;Node30 -->
<g id="edge45_Node000031_Node000030" class="edge">
<title>Node31&#45;&gt;Node30</title>
<g id="a_edge45_Node000031_Node000030"><a xlink:title=" ">
<path fill="none" stroke="#63b8ff" d="M1260.12,-335.58C1260.12,-316.57 1260.12,-272.24 1260.12,-235 1260.12,-235 1260.12,-235 1260.12,-177 1260.12,-146.9 1262.23,-133.46 1241.12,-112 1228.57,-99.24 1188.54,-87.35 1153.7,-79.01"/>
<polygon fill="#63b8ff" stroke="#63b8ff" points="1154.63,-75.63 1144.09,-76.77 1153.04,-82.45 1154.63,-75.63"/>
</a>
</g>
</g>
<!-- Node32 -->
<g id="Node000032" class="node">
<title>Node32</title>
<g id="a_Node000032"><a xlink:href="misc_8hpp.html" target="_top" xlink:title=" ">
<polygon fill="white" stroke="#666666" points="1354,-188 1298.25,-188 1298.25,-168 1354,-168 1354,-188"/>
<text xml:space="preserve" text-anchor="middle" x="1326.12" y="-174.5" font-family="Helvetica,sans-Serif" font-size="10.00">misc.hpp</text>
</a>
</g>
</g>
<!-- Node31&#45;&gt;Node32 -->
<g id="edge39_Node000031_Node000032" class="edge">
<title>Node31&#45;&gt;Node32</title>
<g id="a_edge39_Node000031_Node000032"><a xlink:title=" ">
<path fill="none" stroke="#63b8ff" d="M1263.86,-335.6C1274.3,-309.35 1303.92,-234.84 1318.22,-198.89"/>
<polygon fill="#63b8ff" stroke="#63b8ff" points="1321.43,-200.29 1321.87,-189.7 1314.92,-197.7 1321.43,-200.29"/>
</a>
</g>
</g>
<!-- Node35 -->
<g id="Node000035" class="node">
<title>Node35</title>
<g id="a_Node000035"><a xlink:title=" ">
<polygon fill="#e0e0e0" stroke="#999999" points="1450.5,-300 1325.75,-300 1325.75,-280 1450.5,-280 1450.5,-300"/>
<text xml:space="preserve" text-anchor="middle" x="1388.12" y="-286.5" font-family="Helvetica,sans-Serif" font-size="10.00">SFML/Graphics/Text.hpp</text>
</a>
</g>
</g>
<!-- Node31&#45;&gt;Node35 -->
<g id="edge47_Node000031_Node000035" class="edge">
<title>Node31&#45;&gt;Node35</title>
<g id="a_edge47_Node000031_Node000035"><a xlink:title=" ">
<path fill="none" stroke="#63b8ff" d="M1282.42,-335.59C1302.49,-327.13 1332.24,-314.58 1355.08,-304.94"/>
<polygon fill="#63b8ff" stroke="#63b8ff" points="1356.41,-308.18 1364.26,-301.07 1353.69,-301.73 1356.41,-308.18"/>
</a>
</g>
</g>
<!-- Node32&#45;&gt;Node7 -->
<g id="edge43_Node000032_Node000007" class="edge">
<title>Node32&#45;&gt;Node7</title>
<g id="a_edge43_Node000032_Node000007"><a xlink:title=" ">
<path fill="none" stroke="#63b8ff" d="M1328.91,-167.82C1335.15,-145.22 1347.42,-86.48 1317.12,-56 1283.89,-22.56 956.55,-28.64 873.85,-19.59"/>
<polygon fill="#63b8ff" stroke="#63b8ff" points="874.47,-16.14 864.08,-18.18 873.47,-23.07 874.47,-16.14"/>
</a>
</g>
</g>
<!-- Node32&#45;&gt;Node8 -->
<g id="edge40_Node000032_Node000008" class="edge">
<title>Node32&#45;&gt;Node8</title>
<g id="a_edge40_Node000032_Node000008"><a xlink:title=" ">
<path fill="none" stroke="#63b8ff" d="M1297.83,-173.63C1281.31,-171.75 1260.06,-169.5 1241.12,-168 920.56,-142.57 530.89,-127.88 420.54,-124.03"/>
<polygon fill="#63b8ff" stroke="#63b8ff" points="420.95,-120.54 410.84,-123.69 420.71,-127.54 420.95,-120.54"/>
</a>
</g>
</g>
<!-- Node32&#45;&gt;Node29 -->
<g id="edge42_Node000032_Node000029" class="edge">
<title>Node32&#45;&gt;Node29</title>
<g id="a_edge42_Node000032_Node000029"><a xlink:title=" ">
<path fill="none" stroke="#63b8ff" d="M1318.88,-167.62C1304.83,-149.44 1273.65,-109.09 1255.33,-85.38"/>
<polygon fill="#63b8ff" stroke="#63b8ff" points="1258.16,-83.33 1249.28,-77.55 1252.62,-87.61 1258.16,-83.33"/>
</a>
</g>
</g>
<!-- Node33 -->
<g id="Node000033" class="node">
<title>Node33</title>
<g id="a_Node000033"><a xlink:title=" ">
<polygon fill="#e0e0e0" stroke="#999999" points="1493.75,-132 1364.5,-132 1364.5,-112 1493.75,-112 1493.75,-132"/>
<text xml:space="preserve" text-anchor="middle" x="1429.12" y="-118.5" font-family="Helvetica,sans-Serif" font-size="10.00">SFML/Graphics/Color.hpp</text>
</a>
</g>
</g>
<!-- Node32&#45;&gt;Node33 -->
<g id="edge41_Node000032_Node000033" class="edge">
<title>Node32&#45;&gt;Node33</title>
<g id="a_edge41_Node000032_Node000033"><a xlink:title=" ">
<path fill="none" stroke="#63b8ff" d="M1344.07,-167.59C1359.77,-159.36 1382.86,-147.26 1401.01,-137.74"/>
<polygon fill="#63b8ff" stroke="#63b8ff" points="1402.47,-140.93 1409.7,-133.18 1399.22,-134.73 1402.47,-140.93"/>
</a>
</g>
</g>
<!-- Node32&#45;&gt;Node34 -->
<g id="edge44_Node000032_Node000034" class="edge">
<title>Node32&#45;&gt;Node34</title>
<g id="a_edge44_Node000032_Node000034"><a xlink:title=" ">
<path fill="none" stroke="#63b8ff" d="M1354.33,-169.85C1387.15,-161.53 1443.27,-147.29 1500.02,-132.79"/>
<polygon fill="#63b8ff" stroke="#63b8ff" points="1500.71,-136.23 1509.53,-130.36 1498.97,-129.44 1500.71,-136.23"/>
</a>
</g>
</g>
</g>
</svg>
