<?xml version="1.0" encoding="UTF-8" standalone="no"?>
<!DOCTYPE svg PUBLIC "-//W3C//DTD SVG 1.1//EN"
 "http://www.w3.org/Graphics/SVG/1.1/DTD/svg11.dtd">
<!-- Generated by graphviz version 13.1.2 (20250808.2320)
 -->
<!-- Title: Graphical Class Hierarchy Pages: 1 -->
<svg width="156pt" height="66pt"
 viewBox="0.00 0.00 156.00 66.00" xmlns="http://www.w3.org/2000/svg" xmlns:xlink="http://www.w3.org/1999/xlink">
<g id="graph0" class="graph" transform="scale(1 1) rotate(0) translate(4 62)">
<title>Graphical Class Hierarchy</title>
<!-- Node0 -->
<g id="Node000000" class="node">
<title>Node0</title>
<g id="a_Node000000"><a xlink:href="class_scene.html" target="_top" xlink:title="Abstract class representing a game scene.">
<polygon fill="white" stroke="#666666" points="43.75,-39 0,-39 0,-19 43.75,-19 43.75,-39"/>
<text xml:space="preserve" text-anchor="middle" x="21.88" y="-25.5" font-family="Helvetica,sans-Serif" font-size="10.00">Scene</text>
</a>
</g>
</g>
<!-- Node1 -->
<g id="Node000001" class="node">
<title>Node1</title>
<g id="a_Node000001"><a xlink:href="class_scene_menu.html" target="_top" xlink:title="Represents the menu scene.">
<polygon fill="white" stroke="#666666" points="147.5,-58 79.75,-58 79.75,-38 147.5,-38 147.5,-58"/>
<text xml:space="preserve" text-anchor="middle" x="113.62" y="-44.5" font-family="Helvetica,sans-Serif" font-size="10.00">SceneMenu</text>
</a>
</g>
</g>
<!-- Node0&#45;&gt;Node1 -->
<g id="edge11_Node000000_Node000001" class="edge">
<title>Node0&#45;&gt;Node1</title>
<g id="a_edge11_Node000000_Node000001"><a xlink:title=" ">
<path fill="none" stroke="#63b8ff" d="M55.22,-35.85C63.14,-37.52 71.62,-39.32 79.58,-41"/>
<polygon fill="#63b8ff" stroke="#63b8ff" points="56.13,-32.46 45.63,-33.82 54.68,-39.31 56.13,-32.46"/>
</a>
</g>
</g>
<!-- Node2 -->
<g id="Node000002" class="node">
<title>Node2</title>
<g id="a_Node000002"><a xlink:href="class_scene_play.html" target="_top" xlink:title="Represents the main gameplay scene.">
<polygon fill="white" stroke="#666666" points="145.25,-20 82,-20 82,0 145.25,0 145.25,-20"/>
<text xml:space="preserve" text-anchor="middle" x="113.62" y="-6.5" font-family="Helvetica,sans-Serif" font-size="10.00">ScenePlay</text>
</a>
</g>
</g>
<!-- Node0&#45;&gt;Node2 -->
<g id="edge12_Node000000_Node000002" class="edge">
<title>Node0&#45;&gt;Node2</title>
<g id="a_edge12_Node000000_Node000002"><a xlink:title=" ">
<path fill="none" stroke="#63b8ff" d="M55.31,-22.13C63.9,-20.32 73.15,-18.36 81.65,-16.56"/>
<polygon fill="#63b8ff" stroke="#63b8ff" points="54.68,-18.69 45.63,-24.18 56.13,-25.54 54.68,-18.69"/>
</a>
</g>
</g>
</g>
</svg>
