<?xml version="1.0" encoding="UTF-8" standalone="no"?>
<!DOCTYPE svg PUBLIC "-//W3C//DTD SVG 1.1//EN"
 "http://www.w3.org/Graphics/SVG/1.1/DTD/svg11.dtd">
<!-- Generated by graphviz version 13.1.2 (20250808.2320)
 -->
<!-- Title: Graphical Class Hierarchy Pages: 1 -->
<svg width="192pt" height="332pt"
 viewBox="0.00 0.00 192.00 332.00" xmlns="http://www.w3.org/2000/svg" xmlns:xlink="http://www.w3.org/1999/xlink">
<g id="graph0" class="graph" transform="scale(1 1) rotate(0) translate(4 328)">
<title>Graphical Class Hierarchy</title>
<!-- Node0 -->
<g id="Node000000" class="node">
<title>Node0</title>
<g id="a_Node000000"><a xlink:href="struct_component.html" target="_top" xlink:title="Abstract base component.">
<polygon fill="white" stroke="#666666" points="66.25,-172 0,-172 0,-152 66.25,-152 66.25,-172"/>
<text xml:space="preserve" text-anchor="middle" x="33.12" y="-158.5" font-family="Helvetica,sans-Serif" font-size="10.00">Component</text>
</a>
</g>
</g>
<!-- Node1 -->
<g id="Node000001" class="node">
<title>Node1</title>
<g id="a_Node000001"><a xlink:href="struct_c_animation.html" target="_top" xlink:title="Animation component to make an animated entity.">
<polygon fill="white" stroke="#666666" points="176.38,-324 109.38,-324 109.38,-304 176.38,-304 176.38,-324"/>
<text xml:space="preserve" text-anchor="middle" x="142.88" y="-310.5" font-family="Helvetica,sans-Serif" font-size="10.00">CAnimation</text>
</a>
</g>
</g>
<!-- Node0&#45;&gt;Node1 -->
<g id="edge1_Node000000_Node000001" class="edge">
<title>Node0&#45;&gt;Node1</title>
<g id="a_edge1_Node000000_Node000001"><a xlink:title=" ">
<path fill="none" stroke="#63b8ff" d="M40.23,-183.15C49.44,-211.79 69.4,-263 102.25,-295 105.75,-298.41 109.97,-301.3 114.34,-303.72"/>
<polygon fill="#63b8ff" stroke="#63b8ff" points="43.64,-182.36 37.37,-173.82 36.95,-184.41 43.64,-182.36"/>
</a>
</g>
</g>
<!-- Node2 -->
<g id="Node000002" class="node">
<title>Node2</title>
<g id="a_Node000002"><a xlink:href="struct_c_bounding_box.html" target="_top" xlink:title="Bounding box component to know if entities collide.">
<polygon fill="white" stroke="#666666" points="183.5,-286 102.25,-286 102.25,-266 183.5,-266 183.5,-286"/>
<text xml:space="preserve" text-anchor="middle" x="142.88" y="-272.5" font-family="Helvetica,sans-Serif" font-size="10.00">CBoundingBox</text>
</a>
</g>
</g>
<!-- Node0&#45;&gt;Node2 -->
<g id="edge2_Node000000_Node000002" class="edge">
<title>Node0&#45;&gt;Node2</title>
<g id="a_edge2_Node000000_Node000002"><a xlink:title=" ">
<path fill="none" stroke="#63b8ff" d="M44.77,-182.51C56.49,-203.48 77.07,-235.88 102.25,-257 106.22,-260.33 110.88,-263.24 115.58,-265.7"/>
<polygon fill="#63b8ff" stroke="#63b8ff" points="47.88,-180.91 40.05,-173.78 41.72,-184.24 47.88,-180.91"/>
</a>
</g>
</g>
<!-- Node3 -->
<g id="Node000003" class="node">
<title>Node3</title>
<g id="a_Node000003"><a xlink:href="struct_c_gravity.html" target="_top" xlink:title="Gravity component to apply a downward force on an entity.">
<polygon fill="white" stroke="#666666" points="170.38,-248 115.38,-248 115.38,-228 170.38,-228 170.38,-248"/>
<text xml:space="preserve" text-anchor="middle" x="142.88" y="-234.5" font-family="Helvetica,sans-Serif" font-size="10.00">CGravity</text>
</a>
</g>
</g>
<!-- Node0&#45;&gt;Node3 -->
<g id="edge3_Node000000_Node000003" class="edge">
<title>Node0&#45;&gt;Node3</title>
<g id="a_edge3_Node000000_Node000003"><a xlink:title=" ">
<path fill="none" stroke="#63b8ff" d="M52.76,-179.79C65.92,-191.79 84.34,-207.47 102.25,-219 107.13,-222.14 112.6,-225.09 117.88,-227.68"/>
<polygon fill="#63b8ff" stroke="#63b8ff" points="55.38,-177.45 45.67,-173.2 50.61,-182.57 55.38,-177.45"/>
</a>
</g>
</g>
<!-- Node4 -->
<g id="Node000004" class="node">
<title>Node4</title>
<g id="a_Node000004"><a xlink:href="struct_c_input.html" target="_top" xlink:title="Input component to handle user inputs.">
<polygon fill="white" stroke="#666666" points="165.5,-210 120.25,-210 120.25,-190 165.5,-190 165.5,-210"/>
<text xml:space="preserve" text-anchor="middle" x="142.88" y="-196.5" font-family="Helvetica,sans-Serif" font-size="10.00">CInput</text>
</a>
</g>
</g>
<!-- Node0&#45;&gt;Node4 -->
<g id="edge4_Node000000_Node000004" class="edge">
<title>Node0&#45;&gt;Node4</title>
<g id="a_edge4_Node000000_Node000004"><a xlink:title=" ">
<path fill="none" stroke="#63b8ff" d="M74.64,-176.29C89.94,-181.68 106.77,-187.62 119.76,-192.2"/>
<polygon fill="#63b8ff" stroke="#63b8ff" points="75.88,-173.01 65.28,-172.99 73.55,-179.61 75.88,-173.01"/>
</a>
</g>
</g>
<!-- Node5 -->
<g id="Node000005" class="node">
<title>Node5</title>
<g id="a_Node000005"><a xlink:href="struct_c_jump.html" target="_top" xlink:title="Jump component to handle variable jump height.">
<polygon fill="white" stroke="#666666" points="166.62,-172 119.12,-172 119.12,-152 166.62,-152 166.62,-172"/>
<text xml:space="preserve" text-anchor="middle" x="142.88" y="-158.5" font-family="Helvetica,sans-Serif" font-size="10.00">CJump</text>
</a>
</g>
</g>
<!-- Node0&#45;&gt;Node5 -->
<g id="edge5_Node000000_Node000005" class="edge">
<title>Node0&#45;&gt;Node5</title>
<g id="a_edge5_Node000000_Node000005"><a xlink:title=" ">
<path fill="none" stroke="#63b8ff" d="M78.19,-162C92.17,-162 107.07,-162 118.93,-162"/>
<polygon fill="#63b8ff" stroke="#63b8ff" points="78.26,-158.5 68.26,-162 78.26,-165.5 78.26,-158.5"/>
</a>
</g>
</g>
<!-- Node6 -->
<g id="Node000006" class="node">
<title>Node6</title>
<g id="a_Node000006"><a xlink:href="struct_c_life_span.html" target="_top" xlink:title="Lifespan component to know when to destroy an entity.">
<polygon fill="white" stroke="#666666" points="173.75,-134 112,-134 112,-114 173.75,-114 173.75,-134"/>
<text xml:space="preserve" text-anchor="middle" x="142.88" y="-120.5" font-family="Helvetica,sans-Serif" font-size="10.00">CLifeSpan</text>
</a>
</g>
</g>
<!-- Node0&#45;&gt;Node6 -->
<g id="edge6_Node000000_Node000006" class="edge">
<title>Node0&#45;&gt;Node6</title>
<g id="a_edge6_Node000000_Node000006"><a xlink:title=" ">
<path fill="none" stroke="#63b8ff" d="M74.51,-147.76C87.04,-143.34 100.59,-138.56 112.24,-134.45"/>
<polygon fill="#63b8ff" stroke="#63b8ff" points="73.55,-144.39 65.28,-151.01 75.88,-150.99 73.55,-144.39"/>
</a>
</g>
</g>
<!-- Node7 -->
<g id="Node000007" class="node">
<title>Node7</title>
<g id="a_Node000007"><a xlink:href="struct_c_sound.html" target="_top" xlink:title="Sound component to play a sound">
<polygon fill="white" stroke="#666666" points="168.5,-96 117.25,-96 117.25,-76 168.5,-76 168.5,-96"/>
<text xml:space="preserve" text-anchor="middle" x="142.88" y="-82.5" font-family="Helvetica,sans-Serif" font-size="10.00">CSound</text>
</a>
</g>
</g>
<!-- Node0&#45;&gt;Node7 -->
<g id="edge7_Node000000_Node000007" class="edge">
<title>Node0&#45;&gt;Node7</title>
<g id="a_edge7_Node000000_Node000007"><a xlink:title=" ">
<path fill="none" stroke="#63b8ff" d="M52.76,-144.21C65.92,-132.21 84.34,-116.53 102.25,-105 107.13,-101.86 112.6,-98.91 117.88,-96.32"/>
<polygon fill="#63b8ff" stroke="#63b8ff" points="50.61,-141.43 45.67,-150.8 55.38,-146.55 50.61,-141.43"/>
</a>
</g>
</g>
<!-- Node8 -->
<g id="Node000008" class="node">
<title>Node8</title>
<g id="a_Node000008"><a xlink:href="struct_c_state.html" target="_top" xlink:title="State component to know the current state of an entity.">
<polygon fill="white" stroke="#666666" points="166.25,-58 119.5,-58 119.5,-38 166.25,-38 166.25,-58"/>
<text xml:space="preserve" text-anchor="middle" x="142.88" y="-44.5" font-family="Helvetica,sans-Serif" font-size="10.00">CState</text>
</a>
</g>
</g>
<!-- Node0&#45;&gt;Node8 -->
<g id="edge8_Node000000_Node000008" class="edge">
<title>Node0&#45;&gt;Node8</title>
<g id="a_edge8_Node000000_Node000008"><a xlink:title=" ">
<path fill="none" stroke="#63b8ff" d="M44.77,-141.49C56.49,-120.52 77.07,-88.12 102.25,-67 107.28,-62.78 113.4,-59.26 119.31,-56.43"/>
<polygon fill="#63b8ff" stroke="#63b8ff" points="41.72,-139.76 40.05,-150.22 47.88,-143.09 41.72,-139.76"/>
</a>
</g>
</g>
<!-- Node9 -->
<g id="Node000009" class="node">
<title>Node9</title>
<g id="a_Node000009"><a xlink:href="struct_c_transform.html" target="_top" xlink:title="Transform component for position, velocity, etc.">
<polygon fill="white" stroke="#666666" points="176.75,-20 109,-20 109,0 176.75,0 176.75,-20"/>
<text xml:space="preserve" text-anchor="middle" x="142.88" y="-6.5" font-family="Helvetica,sans-Serif" font-size="10.00">CTransform</text>
</a>
</g>
</g>
<!-- Node0&#45;&gt;Node9 -->
<g id="edge9_Node000000_Node000009" class="edge">
<title>Node0&#45;&gt;Node9</title>
<g id="a_edge9_Node000000_Node000009"><a xlink:title=" ">
<path fill="none" stroke="#63b8ff" d="M40.23,-140.85C49.44,-112.21 69.4,-61 102.25,-29 105.75,-25.59 109.97,-22.7 114.34,-20.28"/>
<polygon fill="#63b8ff" stroke="#63b8ff" points="36.95,-139.59 37.37,-150.18 43.64,-141.64 36.95,-139.59"/>
</a>
</g>
</g>
</g>
</svg>
