<?xml version="1.0" encoding="UTF-8" standalone="no"?>
<!DOCTYPE svg PUBLIC "-//W3C//DTD SVG 1.1//EN"
 "http://www.w3.org/Graphics/SVG/1.1/DTD/svg11.dtd">
<!-- Generated by graphviz version 13.1.2 (20250808.2320)
 -->
<!-- Title: absolute_vec Pages: 1 -->
<svg width="231pt" height="90pt"
 viewBox="0.00 0.00 231.00 90.00" xmlns="http://www.w3.org/2000/svg" xmlns:xlink="http://www.w3.org/1999/xlink">
<g id="graph0" class="graph" transform="scale(1 1) rotate(0) translate(4 86)">
<title>absolute_vec</title>
<!-- Node1 -->
<g id="Node000001" class="node">
<title>Node1</title>
<g id="a_Node000001"><a xlink:title="Absolute value of each element of a vector.">
<polygon fill="#999999" stroke="#666666" points="222.5,-51 148.75,-51 148.75,-31 222.5,-31 222.5,-51"/>
<text xml:space="preserve" text-anchor="middle" x="185.62" y="-37.5" font-family="Helvetica,sans-Serif" font-size="10.00">absolute_vec</text>
</a>
</g>
</g>
<!-- Node2 -->
<g id="Node000002" class="node">
<title>Node2</title>
<g id="a_Node000002"><a xlink:href="namespace_physics.html#ab17f884bb569635f6fc4b88da5c76fc2" target="_top" xlink:title="Get the current overlap between two entities that have a BoundingBox component.">
<polygon fill="white" stroke="#666666" points="109.38,-82 3.38,-82 3.38,-50 109.38,-50 109.38,-82"/>
<text xml:space="preserve" text-anchor="start" x="11.38" y="-68.5" font-family="Helvetica,sans-Serif" font-size="10.00">Physics::get_current</text>
<text xml:space="preserve" text-anchor="middle" x="56.38" y="-56.5" font-family="Helvetica,sans-Serif" font-size="10.00">_overlap</text>
</a>
</g>
</g>
<!-- Node1&#45;&gt;Node2 -->
<g id="edge1_Node000001_Node000002" class="edge">
<title>Node1&#45;&gt;Node2</title>
<g id="a_edge1_Node000001_Node000002"><a xlink:title=" ">
<path fill="none" stroke="#63b8ff" d="M137.4,-50.28C128.39,-52.05 118.9,-53.91 109.74,-55.71"/>
<polygon fill="#63b8ff" stroke="#63b8ff" points="137.88,-53.75 147.02,-48.39 136.53,-46.88 137.88,-53.75"/>
</a>
</g>
</g>
<!-- Node3 -->
<g id="Node000003" class="node">
<title>Node3</title>
<g id="a_Node000003"><a xlink:href="namespace_physics.html#a4c40cc588037b53592c0dfa79f4ee641" target="_top" xlink:title="Get the previous overlap between two entities that have a BoundingBox component.">
<polygon fill="white" stroke="#666666" points="112.75,-32 0,-32 0,0 112.75,0 112.75,-32"/>
<text xml:space="preserve" text-anchor="start" x="8" y="-18.5" font-family="Helvetica,sans-Serif" font-size="10.00">Physics::get_previous</text>
<text xml:space="preserve" text-anchor="middle" x="56.38" y="-6.5" font-family="Helvetica,sans-Serif" font-size="10.00">_overlap</text>
</a>
</g>
</g>
<!-- Node1&#45;&gt;Node3 -->
<g id="edge2_Node000001_Node000003" class="edge">
<title>Node1&#45;&gt;Node3</title>
<g id="a_edge2_Node000001_Node000003"><a xlink:title=" ">
<path fill="none" stroke="#63b8ff" d="M137.27,-31.7C129.39,-30.15 121.16,-28.53 113.09,-26.95"/>
<polygon fill="#63b8ff" stroke="#63b8ff" points="136.53,-35.12 147.02,-33.61 137.88,-28.25 136.53,-35.12"/>
</a>
</g>
</g>
</g>
</svg>
