<?xml version="1.0" encoding="UTF-8" standalone="no"?>
<!DOCTYPE svg PUBLIC "-//W3C//DTD SVG 1.1//EN"
 "http://www.w3.org/Graphics/SVG/1.1/DTD/svg11.dtd">
<!-- Generated by graphviz version 13.1.2 (20250808.2320)
 -->
<!-- Title: src/misc.hpp Pages: 1 -->
<svg width="360pt" height="140pt"
 viewBox="0.00 0.00 360.00 140.00" xmlns="http://www.w3.org/2000/svg" xmlns:xlink="http://www.w3.org/1999/xlink">
<g id="graph0" class="graph" transform="scale(1 1) rotate(0) translate(4 136)">
<title>src/misc.hpp</title>
<!-- Node1 -->
<g id="Node000001" class="node">
<title>Node1</title>
<g id="a_Node000001"><a xlink:title=" ">
<polygon fill="#999999" stroke="#666666" points="162.62,-132 90.38,-132 90.38,-112 162.62,-112 162.62,-132"/>
<text xml:space="preserve" text-anchor="middle" x="126.5" y="-118.5" font-family="Helvetica,sans-Serif" font-size="10.00">src/misc.hpp</text>
</a>
</g>
</g>
<!-- Node2 -->
<g id="Node000002" class="node">
<title>Node2</title>
<g id="a_Node000002"><a xlink:href="misc_8cpp.html" target="_top" xlink:title=" ">
<polygon fill="white" stroke="#666666" points="108.62,-76 36.38,-76 36.38,-56 108.62,-56 108.62,-76"/>
<text xml:space="preserve" text-anchor="middle" x="72.5" y="-62.5" font-family="Helvetica,sans-Serif" font-size="10.00">src/misc.cpp</text>
</a>
</g>
</g>
<!-- Node1&#45;&gt;Node2 -->
<g id="edge1_Node000001_Node000002" class="edge">
<title>Node1&#45;&gt;Node2</title>
<g id="a_edge1_Node000001_Node000002"><a xlink:title=" ">
<path fill="none" stroke="#63b8ff" d="M109.07,-103.57C100,-94.5 89.28,-83.78 81.8,-76.3"/>
<polygon fill="#63b8ff" stroke="#63b8ff" points="106.48,-105.93 116.02,-110.52 111.43,-100.98 106.48,-105.93"/>
</a>
</g>
</g>
<!-- Node3 -->
<g id="Node000003" class="node">
<title>Node3</title>
<g id="a_Node000003"><a xlink:href="scene__menu_8hpp.html" target="_top" xlink:title=" ">
<polygon fill="white" stroke="#666666" points="233.88,-76 127.12,-76 127.12,-56 233.88,-56 233.88,-76"/>
<text xml:space="preserve" text-anchor="middle" x="180.5" y="-62.5" font-family="Helvetica,sans-Serif" font-size="10.00">src/scene_menu.hpp</text>
</a>
</g>
</g>
<!-- Node1&#45;&gt;Node3 -->
<g id="edge2_Node000001_Node000003" class="edge">
<title>Node1&#45;&gt;Node3</title>
<g id="a_edge2_Node000001_Node000003"><a xlink:title=" ">
<path fill="none" stroke="#63b8ff" d="M143.93,-103.57C153,-94.5 163.72,-83.78 171.2,-76.3"/>
<polygon fill="#63b8ff" stroke="#63b8ff" points="141.57,-100.98 136.98,-110.52 146.52,-105.93 141.57,-100.98"/>
</a>
</g>
</g>
<!-- Node4 -->
<g id="Node000004" class="node">
<title>Node4</title>
<g id="a_Node000004"><a xlink:href="game__engine_8cpp.html" target="_top" xlink:title=" ">
<polygon fill="white" stroke="#666666" points="109,-20 0,-20 0,0 109,0 109,-20"/>
<text xml:space="preserve" text-anchor="middle" x="54.5" y="-6.5" font-family="Helvetica,sans-Serif" font-size="10.00">src/game_engine.cpp</text>
</a>
</g>
</g>
<!-- Node3&#45;&gt;Node4 -->
<g id="edge3_Node000003_Node000004" class="edge">
<title>Node3&#45;&gt;Node4</title>
<g id="a_edge3_Node000003_Node000004"><a xlink:title=" ">
<path fill="none" stroke="#63b8ff" d="M148.16,-51.14C125.72,-41.52 96.43,-28.97 76.62,-20.48"/>
<polygon fill="#63b8ff" stroke="#63b8ff" points="146.59,-54.28 157.16,-55 149.35,-47.84 146.59,-54.28"/>
</a>
</g>
</g>
<!-- Node5 -->
<g id="Node000005" class="node">
<title>Node5</title>
<g id="a_Node000005"><a xlink:href="scene__menu_8cpp.html" target="_top" xlink:title=" ">
<polygon fill="white" stroke="#666666" points="233.88,-20 127.12,-20 127.12,0 233.88,0 233.88,-20"/>
<text xml:space="preserve" text-anchor="middle" x="180.5" y="-6.5" font-family="Helvetica,sans-Serif" font-size="10.00">src/scene_menu.cpp</text>
</a>
</g>
</g>
<!-- Node3&#45;&gt;Node5 -->
<g id="edge4_Node000003_Node000005" class="edge">
<title>Node3&#45;&gt;Node5</title>
<g id="a_edge4_Node000003_Node000005"><a xlink:title=" ">
<path fill="none" stroke="#63b8ff" d="M180.5,-44.13C180.5,-35.9 180.5,-26.85 180.5,-20.3"/>
<polygon fill="#63b8ff" stroke="#63b8ff" points="177,-44.08 180.5,-54.08 184,-44.08 177,-44.08"/>
</a>
</g>
</g>
<!-- Node6 -->
<g id="Node000006" class="node">
<title>Node6</title>
<g id="a_Node000006"><a xlink:href="scene__play_8cpp.html" target="_top" xlink:title=" ">
<polygon fill="white" stroke="#666666" points="351.5,-20 251.5,-20 251.5,0 351.5,0 351.5,-20"/>
<text xml:space="preserve" text-anchor="middle" x="301.5" y="-6.5" font-family="Helvetica,sans-Serif" font-size="10.00">src/scene_play.cpp</text>
</a>
</g>
</g>
<!-- Node3&#45;&gt;Node6 -->
<g id="edge5_Node000003_Node000006" class="edge">
<title>Node3&#45;&gt;Node6</title>
<g id="a_edge5_Node000003_Node000006"><a xlink:title=" ">
<path fill="none" stroke="#63b8ff" d="M211.85,-51.01C233.36,-41.41 261.32,-28.93 280.26,-20.48"/>
<polygon fill="#63b8ff" stroke="#63b8ff" points="210.66,-47.71 202.96,-54.98 213.52,-54.1 210.66,-47.71"/>
</a>
</g>
</g>
</g>
</svg>
