<?xml version="1.0" encoding="UTF-8" standalone="no"?>
<!DOCTYPE svg PUBLIC "-//W3C//DTD SVG 1.1//EN"
 "http://www.w3.org/Graphics/SVG/1.1/DTD/svg11.dtd">
<!-- Generated by graphviz version 13.1.2 (20250808.2320)
 -->
<!-- Title: src/misc.cpp Pages: 1 -->
<svg width="503pt" height="140pt"
 viewBox="0.00 0.00 503.00 140.00" xmlns="http://www.w3.org/2000/svg" xmlns:xlink="http://www.w3.org/1999/xlink">
<g id="graph0" class="graph" transform="scale(1 1) rotate(0) translate(4 136)">
<title>src/misc.cpp</title>
<!-- Node1 -->
<g id="Node000001" class="node">
<title>Node1</title>
<g id="a_Node000001"><a xlink:title=" ">
<polygon fill="#999999" stroke="#666666" points="375,-132 302.75,-132 302.75,-112 375,-112 375,-132"/>
<text xml:space="preserve" text-anchor="middle" x="338.88" y="-118.5" font-family="Helvetica,sans-Serif" font-size="10.00">src/misc.cpp</text>
</a>
</g>
</g>
<!-- Node2 -->
<g id="Node000002" class="node">
<title>Node2</title>
<g id="a_Node000002"><a xlink:href="misc_8hpp.html" target="_top" xlink:title=" ">
<polygon fill="white" stroke="#666666" points="223.75,-76 168,-76 168,-56 223.75,-56 223.75,-76"/>
<text xml:space="preserve" text-anchor="middle" x="195.88" y="-62.5" font-family="Helvetica,sans-Serif" font-size="10.00">misc.hpp</text>
</a>
</g>
</g>
<!-- Node1&#45;&gt;Node2 -->
<g id="edge1_Node000001_Node000002" class="edge">
<title>Node1&#45;&gt;Node2</title>
<g id="a_edge1_Node000001_Node000002"><a xlink:title=" ">
<path fill="none" stroke="#63b8ff" d="M313.97,-111.59C291.14,-102.97 257.09,-90.12 231.41,-80.42"/>
<polygon fill="#63b8ff" stroke="#63b8ff" points="232.99,-77.27 222.39,-77.01 230.51,-83.82 232.99,-77.27"/>
</a>
</g>
</g>
<!-- Node7 -->
<g id="Node000007" class="node">
<title>Node7</title>
<g id="a_Node000007"><a xlink:title=" ">
<polygon fill="#e0e0e0" stroke="#999999" points="295.62,-76 242.12,-76 242.12,-56 295.62,-56 295.62,-76"/>
<text xml:space="preserve" text-anchor="middle" x="268.88" y="-62.5" font-family="Helvetica,sans-Serif" font-size="10.00">iostream</text>
</a>
</g>
</g>
<!-- Node1&#45;&gt;Node7 -->
<g id="edge6_Node000001_Node000007" class="edge">
<title>Node1&#45;&gt;Node7</title>
<g id="a_edge6_Node000001_Node000007"><a xlink:title=" ">
<path fill="none" stroke="#63b8ff" d="M326.68,-111.59C316.54,-103.77 301.88,-92.46 289.86,-83.19"/>
<polygon fill="#63b8ff" stroke="#63b8ff" points="292.18,-80.56 282.13,-77.22 287.91,-86.1 292.18,-80.56"/>
</a>
</g>
</g>
<!-- Node8 -->
<g id="Node000008" class="node">
<title>Node8</title>
<g id="a_Node000008"><a xlink:title=" ">
<polygon fill="#e0e0e0" stroke="#999999" points="364.5,-76 313.25,-76 313.25,-56 364.5,-56 364.5,-76"/>
<text xml:space="preserve" text-anchor="middle" x="338.88" y="-62.5" font-family="Helvetica,sans-Serif" font-size="10.00">sstream</text>
</a>
</g>
</g>
<!-- Node1&#45;&gt;Node8 -->
<g id="edge7_Node000001_Node000008" class="edge">
<title>Node1&#45;&gt;Node8</title>
<g id="a_edge7_Node000001_Node000008"><a xlink:title=" ">
<path fill="none" stroke="#63b8ff" d="M338.88,-111.59C338.88,-105.01 338.88,-95.96 338.88,-87.73"/>
<polygon fill="#63b8ff" stroke="#63b8ff" points="342.38,-87.81 338.88,-77.81 335.38,-87.81 342.38,-87.81"/>
</a>
</g>
</g>
<!-- Node9 -->
<g id="Node000009" class="node">
<title>Node9</title>
<g id="a_Node000009"><a xlink:title=" ">
<polygon fill="#e0e0e0" stroke="#999999" points="432.75,-76 383,-76 383,-56 432.75,-56 432.75,-76"/>
<text xml:space="preserve" text-anchor="middle" x="407.88" y="-62.5" font-family="Helvetica,sans-Serif" font-size="10.00">iomanip</text>
</a>
</g>
</g>
<!-- Node1&#45;&gt;Node9 -->
<g id="edge8_Node000001_Node000009" class="edge">
<title>Node1&#45;&gt;Node9</title>
<g id="a_edge8_Node000001_Node000009"><a xlink:title=" ">
<path fill="none" stroke="#63b8ff" d="M350.89,-111.59C360.89,-103.77 375.34,-92.46 387.18,-83.19"/>
<polygon fill="#63b8ff" stroke="#63b8ff" points="389.08,-86.15 394.8,-77.23 384.77,-80.64 389.08,-86.15"/>
</a>
</g>
</g>
<!-- Node10 -->
<g id="Node000010" class="node">
<title>Node10</title>
<g id="a_Node000010"><a xlink:title=" ">
<polygon fill="#e0e0e0" stroke="#999999" points="494.75,-76 451,-76 451,-56 494.75,-56 494.75,-76"/>
<text xml:space="preserve" text-anchor="middle" x="472.88" y="-62.5" font-family="Helvetica,sans-Serif" font-size="10.00">format</text>
</a>
</g>
</g>
<!-- Node1&#45;&gt;Node10 -->
<g id="edge9_Node000001_Node000010" class="edge">
<title>Node1&#45;&gt;Node10</title>
<g id="a_edge9_Node000001_Node000010"><a xlink:title=" ">
<path fill="none" stroke="#63b8ff" d="M362.22,-111.59C383.8,-102.89 416.1,-89.88 440.24,-80.15"/>
<polygon fill="#63b8ff" stroke="#63b8ff" points="441.32,-83.49 449.29,-76.51 438.7,-77 441.32,-83.49"/>
</a>
</g>
</g>
<!-- Node3 -->
<g id="Node000003" class="node">
<title>Node3</title>
<g id="a_Node000003"><a xlink:title=" ">
<polygon fill="#e0e0e0" stroke="#999999" points="37.75,-20 0,-20 0,0 37.75,0 37.75,-20"/>
<text xml:space="preserve" text-anchor="middle" x="18.88" y="-6.5" font-family="Helvetica,sans-Serif" font-size="10.00">array</text>
</a>
</g>
</g>
<!-- Node2&#45;&gt;Node3 -->
<g id="edge2_Node000002_Node000003" class="edge">
<title>Node2&#45;&gt;Node3</title>
<g id="a_edge2_Node000002_Node000003"><a xlink:title=" ">
<path fill="none" stroke="#63b8ff" d="M167.54,-56.61C139.7,-48.32 95.74,-35.15 49.09,-20.65"/>
<polygon fill="#63b8ff" stroke="#63b8ff" points="50.17,-17.32 39.59,-17.69 48.09,-24.01 50.17,-17.32"/>
</a>
</g>
</g>
<!-- Node4 -->
<g id="Node000004" class="node">
<title>Node4</title>
<g id="a_Node000004"><a xlink:title=" ">
<polygon fill="#e0e0e0" stroke="#999999" points="185.5,-20 56.25,-20 56.25,0 185.5,0 185.5,-20"/>
<text xml:space="preserve" text-anchor="middle" x="120.88" y="-6.5" font-family="Helvetica,sans-Serif" font-size="10.00">SFML/Graphics/Color.hpp</text>
</a>
</g>
</g>
<!-- Node2&#45;&gt;Node4 -->
<g id="edge3_Node000002_Node000004" class="edge">
<title>Node2&#45;&gt;Node4</title>
<g id="a_edge3_Node000002_Node000004"><a xlink:title=" ">
<path fill="none" stroke="#63b8ff" d="M182.81,-55.59C171.91,-47.74 156.12,-36.38 143.22,-27.09"/>
<polygon fill="#63b8ff" stroke="#63b8ff" points="145.43,-24.37 135.27,-21.36 141.34,-30.05 145.43,-24.37"/>
</a>
</g>
</g>
<!-- Node5 -->
<g id="Node000005" class="node">
<title>Node5</title>
<g id="a_Node000005"><a xlink:title=" ">
<polygon fill="#e0e0e0" stroke="#999999" points="337.75,-20 204,-20 204,0 337.75,0 337.75,-20"/>
<text xml:space="preserve" text-anchor="middle" x="270.88" y="-6.5" font-family="Helvetica,sans-Serif" font-size="10.00">SFML/System/Vector2.hpp</text>
</a>
</g>
</g>
<!-- Node2&#45;&gt;Node5 -->
<g id="edge4_Node000002_Node000005" class="edge">
<title>Node2&#45;&gt;Node5</title>
<g id="a_edge4_Node000002_Node000005"><a xlink:title=" ">
<path fill="none" stroke="#63b8ff" d="M208.94,-55.59C219.84,-47.74 235.63,-36.38 248.53,-27.09"/>
<polygon fill="#63b8ff" stroke="#63b8ff" points="250.41,-30.05 256.48,-21.36 246.32,-24.37 250.41,-30.05"/>
</a>
</g>
</g>
<!-- Node6 -->
<g id="Node000006" class="node">
<title>Node6</title>
<g id="a_Node000006"><a xlink:title=" ">
<polygon fill="#e0e0e0" stroke="#999999" points="395.88,-20 355.88,-20 355.88,0 395.88,0 395.88,-20"/>
<text xml:space="preserve" text-anchor="middle" x="375.88" y="-6.5" font-family="Helvetica,sans-Serif" font-size="10.00">string</text>
</a>
</g>
</g>
<!-- Node2&#45;&gt;Node6 -->
<g id="edge5_Node000002_Node000006" class="edge">
<title>Node2&#45;&gt;Node6</title>
<g id="a_edge5_Node000002_Node000006"><a xlink:title=" ">
<path fill="none" stroke="#63b8ff" d="M224.01,-56.72C252.23,-48.39 297.19,-35.06 344.77,-20.62"/>
<polygon fill="#63b8ff" stroke="#63b8ff" points="345.61,-24.02 354.15,-17.76 343.57,-17.32 345.61,-24.02"/>
</a>
</g>
</g>
</g>
</svg>
