<?xml version="1.0" encoding="UTF-8" standalone="no"?>
<!DOCTYPE svg PUBLIC "-//W3C//DTD SVG 1.1//EN"
 "http://www.w3.org/Graphics/SVG/1.1/DTD/svg11.dtd">
<!-- Generated by graphviz version 13.1.2 (20250808.2320)
 -->
<!-- Title: src/physics.hpp Pages: 1 -->
<svg width="520pt" height="252pt"
 viewBox="0.00 0.00 520.00 252.00" xmlns="http://www.w3.org/2000/svg" xmlns:xlink="http://www.w3.org/1999/xlink">
<g id="graph0" class="graph" transform="scale(1 1) rotate(0) translate(4 248)">
<title>src/physics.hpp</title>
<!-- Node1 -->
<g id="Node000001" class="node">
<title>Node1</title>
<g id="a_Node000001"><a xlink:title=" ">
<polygon fill="#999999" stroke="#666666" points="155.12,-244 70.12,-244 70.12,-224 155.12,-224 155.12,-244"/>
<text xml:space="preserve" text-anchor="middle" x="112.62" y="-230.5" font-family="Helvetica,sans-Serif" font-size="10.00">src/physics.hpp</text>
</a>
</g>
</g>
<!-- Node2 -->
<g id="Node000002" class="node">
<title>Node2</title>
<g id="a_Node000002"><a xlink:title=" ">
<polygon fill="#e0e0e0" stroke="#999999" points="51.25,-188 0,-188 0,-168 51.25,-168 51.25,-188"/>
<text xml:space="preserve" text-anchor="middle" x="25.62" y="-174.5" font-family="Helvetica,sans-Serif" font-size="10.00">memory</text>
</a>
</g>
</g>
<!-- Node1&#45;&gt;Node2 -->
<g id="edge1_Node000001_Node000002" class="edge">
<title>Node1&#45;&gt;Node2</title>
<g id="a_edge1_Node000001_Node000002"><a xlink:title=" ">
<path fill="none" stroke="#63b8ff" d="M97.47,-223.59C84.58,-215.59 65.79,-203.93 50.67,-194.54"/>
<polygon fill="#63b8ff" stroke="#63b8ff" points="52.53,-191.58 42.18,-189.28 48.83,-197.53 52.53,-191.58"/>
</a>
</g>
</g>
<!-- Node3 -->
<g id="Node000003" class="node">
<title>Node3</title>
<g id="a_Node000003"><a xlink:title=" ">
<polygon fill="#e0e0e0" stroke="#999999" points="108.25,-188 69,-188 69,-168 108.25,-168 108.25,-188"/>
<text xml:space="preserve" text-anchor="middle" x="88.62" y="-174.5" font-family="Helvetica,sans-Serif" font-size="10.00">limits</text>
</a>
</g>
</g>
<!-- Node1&#45;&gt;Node3 -->
<g id="edge2_Node000001_Node000003" class="edge">
<title>Node1&#45;&gt;Node3</title>
<g id="a_edge2_Node000001_Node000003"><a xlink:title=" ">
<path fill="none" stroke="#63b8ff" d="M108.44,-223.59C105.38,-216.7 101.11,-207.1 97.32,-198.57"/>
<polygon fill="#63b8ff" stroke="#63b8ff" points="100.63,-197.4 93.37,-189.68 94.24,-200.24 100.63,-197.4"/>
</a>
</g>
</g>
<!-- Node4 -->
<g id="Node000004" class="node">
<title>Node4</title>
<g id="a_Node000004"><a xlink:title=" ">
<polygon fill="#e0e0e0" stroke="#999999" points="200.5,-76 66.75,-76 66.75,-56 200.5,-56 200.5,-76"/>
<text xml:space="preserve" text-anchor="middle" x="133.62" y="-62.5" font-family="Helvetica,sans-Serif" font-size="10.00">SFML/System/Vector2.hpp</text>
</a>
</g>
</g>
<!-- Node1&#45;&gt;Node4 -->
<g id="edge3_Node000001_Node000004" class="edge">
<title>Node1&#45;&gt;Node4</title>
<g id="a_edge3_Node000001_Node000004"><a xlink:title=" ">
<path fill="none" stroke="#63b8ff" d="M113.81,-223.6C117.12,-197.46 126.48,-123.48 131.05,-87.36"/>
<polygon fill="#63b8ff" stroke="#63b8ff" points="134.48,-88.16 132.26,-77.8 127.53,-87.28 134.48,-88.16"/>
</a>
</g>
</g>
<!-- Node5 -->
<g id="Node000005" class="node">
<title>Node5</title>
<g id="a_Node000005"><a xlink:href="entity_8hpp.html" target="_top" xlink:title=" ">
<polygon fill="white" stroke="#666666" points="223.62,-188 165.62,-188 165.62,-168 223.62,-168 223.62,-188"/>
<text xml:space="preserve" text-anchor="middle" x="194.62" y="-174.5" font-family="Helvetica,sans-Serif" font-size="10.00">entity.hpp</text>
</a>
</g>
</g>
<!-- Node1&#45;&gt;Node5 -->
<g id="edge4_Node000001_Node000005" class="edge">
<title>Node1&#45;&gt;Node5</title>
<g id="a_edge4_Node000001_Node000005"><a xlink:title=" ">
<path fill="none" stroke="#63b8ff" d="M126.91,-223.59C139.06,-215.59 156.76,-203.93 171.02,-194.54"/>
<polygon fill="#63b8ff" stroke="#63b8ff" points="172.54,-197.73 178.97,-189.31 168.69,-191.89 172.54,-197.73"/>
</a>
</g>
</g>
<!-- Node6 -->
<g id="Node000006" class="node">
<title>Node6</title>
<g id="a_Node000006"><a xlink:title=" ">
<polygon fill="#e0e0e0" stroke="#999999" points="213.12,-132 176.12,-132 176.12,-112 213.12,-112 213.12,-132"/>
<text xml:space="preserve" text-anchor="middle" x="194.62" y="-118.5" font-family="Helvetica,sans-Serif" font-size="10.00">tuple</text>
</a>
</g>
</g>
<!-- Node5&#45;&gt;Node6 -->
<g id="edge5_Node000005_Node000006" class="edge">
<title>Node5&#45;&gt;Node6</title>
<g id="a_edge5_Node000005_Node000006"><a xlink:title=" ">
<path fill="none" stroke="#63b8ff" d="M194.62,-167.59C194.62,-161.01 194.62,-151.96 194.62,-143.73"/>
<polygon fill="#63b8ff" stroke="#63b8ff" points="198.13,-143.81 194.63,-133.81 191.13,-143.81 198.13,-143.81"/>
</a>
</g>
</g>
<!-- Node7 -->
<g id="Node000007" class="node">
<title>Node7</title>
<g id="a_Node000007"><a xlink:href="components_8hpp.html" target="_top" xlink:title=" ">
<polygon fill="white" stroke="#666666" points="321.62,-132 233.62,-132 233.62,-112 321.62,-112 321.62,-132"/>
<text xml:space="preserve" text-anchor="middle" x="277.62" y="-118.5" font-family="Helvetica,sans-Serif" font-size="10.00">components.hpp</text>
</a>
</g>
</g>
<!-- Node5&#45;&gt;Node7 -->
<g id="edge6_Node000005_Node000007" class="edge">
<title>Node5&#45;&gt;Node7</title>
<g id="a_edge6_Node000005_Node000007"><a xlink:title=" ">
<path fill="none" stroke="#63b8ff" d="M209.08,-167.59C221.38,-159.59 239.3,-147.93 253.73,-138.54"/>
<polygon fill="#63b8ff" stroke="#63b8ff" points="255.31,-141.69 261.79,-133.3 251.5,-135.82 255.31,-141.69"/>
</a>
</g>
</g>
<!-- Node7&#45;&gt;Node4 -->
<g id="edge7_Node000007_Node000004" class="edge">
<title>Node7&#45;&gt;Node4</title>
<g id="a_edge7_Node000007_Node000004"><a xlink:title=" ">
<path fill="none" stroke="#63b8ff" d="M252.54,-111.59C229.56,-102.97 195.27,-90.12 169.41,-80.42"/>
<polygon fill="#63b8ff" stroke="#63b8ff" points="170.91,-77.25 160.32,-77.01 168.46,-83.8 170.91,-77.25"/>
</a>
</g>
</g>
<!-- Node8 -->
<g id="Node000008" class="node">
<title>Node8</title>
<g id="a_Node000008"><a xlink:title=" ">
<polygon fill="#e0e0e0" stroke="#999999" points="338.38,-76 218.88,-76 218.88,-56 338.38,-56 338.38,-76"/>
<text xml:space="preserve" text-anchor="middle" x="278.62" y="-62.5" font-family="Helvetica,sans-Serif" font-size="10.00">SFML/Audio/Sound.hpp</text>
</a>
</g>
</g>
<!-- Node7&#45;&gt;Node8 -->
<g id="edge8_Node000007_Node000008" class="edge">
<title>Node7&#45;&gt;Node8</title>
<g id="a_edge8_Node000007_Node000008"><a xlink:title=" ">
<path fill="none" stroke="#63b8ff" d="M277.8,-111.59C277.92,-105.01 278.09,-95.96 278.24,-87.73"/>
<polygon fill="#63b8ff" stroke="#63b8ff" points="281.74,-87.87 278.42,-77.81 274.74,-87.75 281.74,-87.87"/>
</a>
</g>
</g>
<!-- Node9 -->
<g id="Node000009" class="node">
<title>Node9</title>
<g id="a_Node000009"><a xlink:href="animation_8hpp.html" target="_top" xlink:title=" ">
<polygon fill="white" stroke="#666666" points="433,-76 356.25,-76 356.25,-56 433,-56 433,-76"/>
<text xml:space="preserve" text-anchor="middle" x="394.62" y="-62.5" font-family="Helvetica,sans-Serif" font-size="10.00">animation.hpp</text>
</a>
</g>
</g>
<!-- Node7&#45;&gt;Node9 -->
<g id="edge9_Node000007_Node000009" class="edge">
<title>Node7&#45;&gt;Node9</title>
<g id="a_edge9_Node000007_Node000009"><a xlink:title=" ">
<path fill="none" stroke="#63b8ff" d="M298,-111.59C316.18,-103.21 343.05,-90.8 363.84,-81.21"/>
<polygon fill="#63b8ff" stroke="#63b8ff" points="365.1,-84.48 372.71,-77.11 362.17,-78.13 365.1,-84.48"/>
</a>
</g>
</g>
<!-- Node10 -->
<g id="Node000010" class="node">
<title>Node10</title>
<g id="a_Node000010"><a xlink:title=" ">
<polygon fill="#e0e0e0" stroke="#999999" points="362.62,-20 322.62,-20 322.62,0 362.62,0 362.62,-20"/>
<text xml:space="preserve" text-anchor="middle" x="342.62" y="-6.5" font-family="Helvetica,sans-Serif" font-size="10.00">string</text>
</a>
</g>
</g>
<!-- Node9&#45;&gt;Node10 -->
<g id="edge10_Node000009_Node000010" class="edge">
<title>Node9&#45;&gt;Node10</title>
<g id="a_edge10_Node000009_Node000010"><a xlink:title=" ">
<path fill="none" stroke="#63b8ff" d="M385.57,-55.59C378.41,-48.16 368.22,-37.58 359.56,-28.58"/>
<polygon fill="#63b8ff" stroke="#63b8ff" points="362.09,-26.16 352.63,-21.39 357.04,-31.02 362.09,-26.16"/>
</a>
</g>
</g>
<!-- Node11 -->
<g id="Node000011" class="node">
<title>Node11</title>
<g id="a_Node000011"><a xlink:title=" ">
<polygon fill="#e0e0e0" stroke="#999999" points="512.38,-20 380.88,-20 380.88,0 512.38,0 512.38,-20"/>
<text xml:space="preserve" text-anchor="middle" x="446.62" y="-6.5" font-family="Helvetica,sans-Serif" font-size="10.00">SFML/Graphics/Sprite.hpp</text>
</a>
</g>
</g>
<!-- Node9&#45;&gt;Node11 -->
<g id="edge11_Node000009_Node000011" class="edge">
<title>Node9&#45;&gt;Node11</title>
<g id="a_edge11_Node000009_Node000011"><a xlink:title=" ">
<path fill="none" stroke="#63b8ff" d="M403.68,-55.59C410.84,-48.16 421.03,-37.58 429.69,-28.58"/>
<polygon fill="#63b8ff" stroke="#63b8ff" points="432.21,-31.02 436.62,-21.39 427.16,-26.16 432.21,-31.02"/>
</a>
</g>
</g>
</g>
</svg>
