<?xml version="1.0" encoding="UTF-8" standalone="no"?>
<!DOCTYPE svg PUBLIC "-//W3C//DTD SVG 1.1//EN"
 "http://www.w3.org/Graphics/SVG/1.1/DTD/svg11.dtd">
<!-- Generated by graphviz version 13.1.2 (20250808.2320)
 -->
<!-- Title: src/physics.hpp Pages: 1 -->
<svg width="463pt" height="252pt"
 viewBox="0.00 0.00 463.00 252.00" xmlns="http://www.w3.org/2000/svg" xmlns:xlink="http://www.w3.org/1999/xlink">
<g id="graph0" class="graph" transform="scale(1 1) rotate(0) translate(4 248)">
<title>src/physics.hpp</title>
<!-- Node1 -->
<g id="Node000001" class="node">
<title>Node1</title>
<g id="a_Node000001"><a xlink:title=" ">
<polygon fill="#999999" stroke="#666666" points="122.12,-244 37.12,-244 37.12,-224 122.12,-224 122.12,-244"/>
<text xml:space="preserve" text-anchor="middle" x="79.62" y="-230.5" font-family="Helvetica,sans-Serif" font-size="10.00">src/physics.hpp</text>
</a>
</g>
</g>
<!-- Node2 -->
<g id="Node000002" class="node">
<title>Node2</title>
<g id="a_Node000002"><a xlink:title=" ">
<polygon fill="#e0e0e0" stroke="#999999" points="51.25,-188 0,-188 0,-168 51.25,-168 51.25,-188"/>
<text xml:space="preserve" text-anchor="middle" x="25.62" y="-174.5" font-family="Helvetica,sans-Serif" font-size="10.00">memory</text>
</a>
</g>
</g>
<!-- Node1&#45;&gt;Node2 -->
<g id="edge1_Node000001_Node000002" class="edge">
<title>Node1&#45;&gt;Node2</title>
<g id="a_edge1_Node000001_Node000002"><a xlink:title=" ">
<path fill="none" stroke="#63b8ff" d="M70.22,-223.59C62.71,-216.08 51.98,-205.35 42.93,-196.3"/>
<polygon fill="#63b8ff" stroke="#63b8ff" points="45.54,-193.96 35.99,-189.37 40.59,-198.91 45.54,-193.96"/>
</a>
</g>
</g>
<!-- Node3 -->
<g id="Node000003" class="node">
<title>Node3</title>
<g id="a_Node000003"><a xlink:title=" ">
<polygon fill="#e0e0e0" stroke="#999999" points="143.5,-76 9.75,-76 9.75,-56 143.5,-56 143.5,-76"/>
<text xml:space="preserve" text-anchor="middle" x="76.62" y="-62.5" font-family="Helvetica,sans-Serif" font-size="10.00">SFML/System/Vector2.hpp</text>
</a>
</g>
</g>
<!-- Node1&#45;&gt;Node3 -->
<g id="edge2_Node000001_Node000003" class="edge">
<title>Node1&#45;&gt;Node3</title>
<g id="a_edge2_Node000001_Node000003"><a xlink:title=" ">
<path fill="none" stroke="#63b8ff" d="M79.46,-223.6C78.98,-197.46 77.65,-123.48 76.99,-87.36"/>
<polygon fill="#63b8ff" stroke="#63b8ff" points="80.5,-87.75 76.82,-77.81 73.5,-87.87 80.5,-87.75"/>
</a>
</g>
</g>
<!-- Node4 -->
<g id="Node000004" class="node">
<title>Node4</title>
<g id="a_Node000004"><a xlink:href="entity_8hpp.html" target="_top" xlink:title=" ">
<polygon fill="white" stroke="#666666" points="166.62,-188 108.62,-188 108.62,-168 166.62,-168 166.62,-188"/>
<text xml:space="preserve" text-anchor="middle" x="137.62" y="-174.5" font-family="Helvetica,sans-Serif" font-size="10.00">entity.hpp</text>
</a>
</g>
</g>
<!-- Node1&#45;&gt;Node4 -->
<g id="edge3_Node000001_Node000004" class="edge">
<title>Node1&#45;&gt;Node4</title>
<g id="a_edge3_Node000001_Node000004"><a xlink:title=" ">
<path fill="none" stroke="#63b8ff" d="M89.73,-223.59C97.88,-216.01 109.56,-205.13 119.34,-196.02"/>
<polygon fill="#63b8ff" stroke="#63b8ff" points="121.6,-198.71 126.53,-189.33 116.83,-193.58 121.6,-198.71"/>
</a>
</g>
</g>
<!-- Node5 -->
<g id="Node000005" class="node">
<title>Node5</title>
<g id="a_Node000005"><a xlink:title=" ">
<polygon fill="#e0e0e0" stroke="#999999" points="156.12,-132 119.12,-132 119.12,-112 156.12,-112 156.12,-132"/>
<text xml:space="preserve" text-anchor="middle" x="137.62" y="-118.5" font-family="Helvetica,sans-Serif" font-size="10.00">tuple</text>
</a>
</g>
</g>
<!-- Node4&#45;&gt;Node5 -->
<g id="edge4_Node000004_Node000005" class="edge">
<title>Node4&#45;&gt;Node5</title>
<g id="a_edge4_Node000004_Node000005"><a xlink:title=" ">
<path fill="none" stroke="#63b8ff" d="M137.62,-167.59C137.62,-161.01 137.62,-151.96 137.62,-143.73"/>
<polygon fill="#63b8ff" stroke="#63b8ff" points="141.13,-143.81 137.63,-133.81 134.13,-143.81 141.13,-143.81"/>
</a>
</g>
</g>
<!-- Node6 -->
<g id="Node000006" class="node">
<title>Node6</title>
<g id="a_Node000006"><a xlink:href="components_8hpp.html" target="_top" xlink:title=" ">
<polygon fill="white" stroke="#666666" points="264.62,-132 176.62,-132 176.62,-112 264.62,-112 264.62,-132"/>
<text xml:space="preserve" text-anchor="middle" x="220.62" y="-118.5" font-family="Helvetica,sans-Serif" font-size="10.00">components.hpp</text>
</a>
</g>
</g>
<!-- Node4&#45;&gt;Node6 -->
<g id="edge5_Node000004_Node000006" class="edge">
<title>Node4&#45;&gt;Node6</title>
<g id="a_edge5_Node000004_Node000006"><a xlink:title=" ">
<path fill="none" stroke="#63b8ff" d="M152.08,-167.59C164.38,-159.59 182.3,-147.93 196.73,-138.54"/>
<polygon fill="#63b8ff" stroke="#63b8ff" points="198.31,-141.69 204.79,-133.3 194.5,-135.82 198.31,-141.69"/>
</a>
</g>
</g>
<!-- Node6&#45;&gt;Node3 -->
<g id="edge6_Node000006_Node000003" class="edge">
<title>Node6&#45;&gt;Node3</title>
<g id="a_edge6_Node000006_Node000003"><a xlink:title=" ">
<path fill="none" stroke="#63b8ff" d="M195.54,-111.59C172.56,-102.97 138.27,-90.12 112.41,-80.42"/>
<polygon fill="#63b8ff" stroke="#63b8ff" points="113.91,-77.25 103.32,-77.01 111.46,-83.8 113.91,-77.25"/>
</a>
</g>
</g>
<!-- Node7 -->
<g id="Node000007" class="node">
<title>Node7</title>
<g id="a_Node000007"><a xlink:title=" ">
<polygon fill="#e0e0e0" stroke="#999999" points="281.38,-76 161.88,-76 161.88,-56 281.38,-56 281.38,-76"/>
<text xml:space="preserve" text-anchor="middle" x="221.62" y="-62.5" font-family="Helvetica,sans-Serif" font-size="10.00">SFML/Audio/Sound.hpp</text>
</a>
</g>
</g>
<!-- Node6&#45;&gt;Node7 -->
<g id="edge7_Node000006_Node000007" class="edge">
<title>Node6&#45;&gt;Node7</title>
<g id="a_edge7_Node000006_Node000007"><a xlink:title=" ">
<path fill="none" stroke="#63b8ff" d="M220.8,-111.59C220.92,-105.01 221.09,-95.96 221.24,-87.73"/>
<polygon fill="#63b8ff" stroke="#63b8ff" points="224.74,-87.87 221.42,-77.81 217.74,-87.75 224.74,-87.87"/>
</a>
</g>
</g>
<!-- Node8 -->
<g id="Node000008" class="node">
<title>Node8</title>
<g id="a_Node000008"><a xlink:href="animation_8hpp.html" target="_top" xlink:title=" ">
<polygon fill="white" stroke="#666666" points="376,-76 299.25,-76 299.25,-56 376,-56 376,-76"/>
<text xml:space="preserve" text-anchor="middle" x="337.62" y="-62.5" font-family="Helvetica,sans-Serif" font-size="10.00">animation.hpp</text>
</a>
</g>
</g>
<!-- Node6&#45;&gt;Node8 -->
<g id="edge8_Node000006_Node000008" class="edge">
<title>Node6&#45;&gt;Node8</title>
<g id="a_edge8_Node000006_Node000008"><a xlink:title=" ">
<path fill="none" stroke="#63b8ff" d="M241,-111.59C259.18,-103.21 286.05,-90.8 306.84,-81.21"/>
<polygon fill="#63b8ff" stroke="#63b8ff" points="308.1,-84.48 315.71,-77.11 305.17,-78.13 308.1,-84.48"/>
</a>
</g>
</g>
<!-- Node9 -->
<g id="Node000009" class="node">
<title>Node9</title>
<g id="a_Node000009"><a xlink:title=" ">
<polygon fill="#e0e0e0" stroke="#999999" points="305.62,-20 265.62,-20 265.62,0 305.62,0 305.62,-20"/>
<text xml:space="preserve" text-anchor="middle" x="285.62" y="-6.5" font-family="Helvetica,sans-Serif" font-size="10.00">string</text>
</a>
</g>
</g>
<!-- Node8&#45;&gt;Node9 -->
<g id="edge9_Node000008_Node000009" class="edge">
<title>Node8&#45;&gt;Node9</title>
<g id="a_edge9_Node000008_Node000009"><a xlink:title=" ">
<path fill="none" stroke="#63b8ff" d="M328.57,-55.59C321.41,-48.16 311.22,-37.58 302.56,-28.58"/>
<polygon fill="#63b8ff" stroke="#63b8ff" points="305.09,-26.16 295.63,-21.39 300.04,-31.02 305.09,-26.16"/>
</a>
</g>
</g>
<!-- Node10 -->
<g id="Node000010" class="node">
<title>Node10</title>
<g id="a_Node000010"><a xlink:title=" ">
<polygon fill="#e0e0e0" stroke="#999999" points="455.38,-20 323.88,-20 323.88,0 455.38,0 455.38,-20"/>
<text xml:space="preserve" text-anchor="middle" x="389.62" y="-6.5" font-family="Helvetica,sans-Serif" font-size="10.00">SFML/Graphics/Sprite.hpp</text>
</a>
</g>
</g>
<!-- Node8&#45;&gt;Node10 -->
<g id="edge10_Node000008_Node000010" class="edge">
<title>Node8&#45;&gt;Node10</title>
<g id="a_edge10_Node000008_Node000010"><a xlink:title=" ">
<path fill="none" stroke="#63b8ff" d="M346.68,-55.59C353.84,-48.16 364.03,-37.58 372.69,-28.58"/>
<polygon fill="#63b8ff" stroke="#63b8ff" points="375.21,-31.02 379.62,-21.39 370.16,-26.16 375.21,-31.02"/>
</a>
</g>
</g>
</g>
</svg>
