<?xml version="1.0" encoding="UTF-8" standalone="no"?>
<!DOCTYPE svg PUBLIC "-//W3C//DTD SVG 1.1//EN"
 "http://www.w3.org/Graphics/SVG/1.1/DTD/svg11.dtd">
<!-- Generated by graphviz version 13.1.2 (20250808.2320)
 -->
<!-- Title: src/scene_menu.hpp Pages: 1 -->
<!--zoomable 364 -->

<svg id="main" version="1.1" xmlns="http://www.w3.org/2000/svg" xmlns:xlink="http://www.w3.org/1999/xlink" xml:space="preserve" onload="init(evt)">
<style type="text/css"><![CDATA[
.node, .edge {opacity: 0.7;}
.node.selected, .edge.selected {opacity: 1;}
.edge:hover path { stroke: red; }
.edge:hover polygon { stroke: red; fill: red; }
]]></style>

<defs>
  <circle id="rim" cx="0" cy="0" r="7"/>
  <circle id="rim2" cx="0" cy="0" r="3.5"/>
  <g id="zoomPlus">
    <use xlink:href="#rim" fill="#404040"><set attributeName="fill" to="#808080" begin="zoomplus.mouseover" end="zoomplus.mouseout"/></use>
    <path d="M-4,0h8M0,-4v8" fill="none" stroke="white" stroke-width="1.5" pointer-events="none"/>
  </g>
  <g id="zoomMin">
    <use xlink:href="#rim" fill="#404040"><set attributeName="fill" to="#808080" begin="zoomminus.mouseover" end="zoomminus.mouseout"/></use>
    <path d="M-4,0h8" fill="none" stroke="white" stroke-width="1.5" pointer-events="none"/>
  </g>
  <g id="arrowUp" transform="translate(30 24)">
    <use xlink:href="#rim"/>
    <path pointer-events="none" fill="none" stroke="white" stroke-width="1.5" d="M0,-3.0v7 M-2.5,-0.5L0,-3.0L2.5,-0.5"/>
  </g>
  <g id="arrowRight" transform="rotate(90) translate(36 -43)">
    <use xlink:href="#rim"/>
    <path pointer-events="none" fill="none" stroke="white" stroke-width="1.5" d="M0,-3.0v7 M-2.5,-0.5L0,-3.0L2.5,-0.5"/>
  </g>
  <g id="arrowDown" transform="rotate(180) translate(-30 -48)">
    <use xlink:href="#rim"/>
    <path pointer-events="none" fill="none" stroke="white" stroke-width="1.5" d="M0,-3.0v7 M-2.5,-0.5L0,-3.0L2.5,-0.5"/>
  </g>
  <g id="arrowLeft" transform="rotate(270) translate(-36 17)">
    <use xlink:href="#rim"/>
    <path pointer-events="none" fill="none" stroke="white" stroke-width="1.5" d="M0,-3.0v7 M-2.5,-0.5L0,-3.0L2.5,-0.5"/>
  </g>
  <g id="resetDef">
    <use xlink:href="#rim2" fill="#404040"><set attributeName="fill" to="#808080" begin="reset.mouseover" end="reset.mouseout"/></use>
  </g>
</defs>
<script type="application/ecmascript">
var viewWidth = 766;
var viewHeight = 364;
var sectionId = 'dynsection-0';
</script>
<script type="application/ecmascript" xlink:href="svg.min.js"/>
<svg id="graph" class="graph">
<g id="viewport">
<title>src/scene_menu.hpp</title>
<!-- Node1 -->
<g id="Node000001" class="node">
<title>Node1</title>
<g id="a_Node000001"><a xlink:title=" ">
<polygon fill="#999999" stroke="#666666" points="494.81,-356 388.06,-356 388.06,-336 494.81,-336 494.81,-356"/>
<text xml:space="preserve" text-anchor="middle" x="441.44" y="-342.5" font-family="Helvetica,sans-Serif" font-size="10.00">src/scene_menu.hpp</text>
</a>
</g>
</g>
<!-- Node2 -->
<g id="Node000002" class="node">
<title>Node2</title>
<g id="a_Node000002"><a xlink:href="scene_8hpp.html" target="_top" xlink:title=" ">
<polygon fill="white" stroke="#666666" points="471.94,-300 410.94,-300 410.94,-280 471.94,-280 471.94,-300"/>
<text xml:space="preserve" text-anchor="middle" x="441.44" y="-286.5" font-family="Helvetica,sans-Serif" font-size="10.00">scene.hpp</text>
</a>
</g>
</g>
<!-- Node1&#45;&gt;Node2 -->
<g id="edge1_Node000001_Node000002" class="edge">
<title>Node1&#45;&gt;Node2</title>
<g id="a_edge1_Node000001_Node000002"><a xlink:title=" ">
<path fill="none" stroke="#63b8ff" d="M441.44,-335.59C441.44,-329.01 441.44,-319.96 441.44,-311.73"/>
<polygon fill="#63b8ff" stroke="#63b8ff" points="444.94,-311.81 441.44,-301.81 437.94,-311.81 444.94,-311.81"/>
</a>
</g>
</g>
<!-- Node13 -->
<g id="Node000013" class="node">
<title>Node13</title>
<g id="a_Node000013"><a xlink:title=" ">
<polygon fill="#e0e0e0" stroke="#999999" points="492.19,-76 372.69,-76 372.69,-56 492.19,-56 492.19,-76"/>
<text xml:space="preserve" text-anchor="middle" x="432.44" y="-62.5" font-family="Helvetica,sans-Serif" font-size="10.00">SFML/Audio/Sound.hpp</text>
</a>
</g>
</g>
<!-- Node1&#45;&gt;Node13 -->
<g id="edge25_Node000001_Node000013" class="edge">
<title>Node1&#45;&gt;Node13</title>
<g id="a_edge25_Node000001_Node000013"><a xlink:title=" ">
<path fill="none" stroke="#63b8ff" d="M387.58,-338.68C328.34,-328.38 241.44,-301.87 241.44,-235 241.44,-235 241.44,-235 241.44,-177 241.44,-119.63 306.95,-91.73 361.23,-78.46"/>
<polygon fill="#63b8ff" stroke="#63b8ff" points="361.83,-81.91 370.79,-76.26 360.26,-75.09 361.83,-81.91"/>
</a>
</g>
</g>
<!-- Node18 -->
<g id="Node000018" class="node">
<title>Node18</title>
<g id="a_Node000018"><a xlink:href="misc_8hpp.html" target="_top" xlink:title=" ">
<polygon fill="white" stroke="#666666" points="165.31,-132 109.56,-132 109.56,-112 165.31,-112 165.31,-132"/>
<text xml:space="preserve" text-anchor="middle" x="137.44" y="-118.5" font-family="Helvetica,sans-Serif" font-size="10.00">misc.hpp</text>
</a>
</g>
</g>
<!-- Node1&#45;&gt;Node18 -->
<g id="edge20_Node000001_Node000018" class="edge">
<title>Node1&#45;&gt;Node18</title>
<g id="a_edge20_Node000001_Node000018"><a xlink:title=" ">
<path fill="none" stroke="#63b8ff" d="M387.71,-339.05C332.78,-332.04 252.11,-318.91 227.44,-300 174.83,-259.69 150.48,-180.09 141.61,-142.95"/>
<polygon fill="#63b8ff" stroke="#63b8ff" points="145.12,-142.58 139.51,-133.58 138.29,-144.11 145.12,-142.58"/>
</a>
</g>
</g>
<!-- Node21 -->
<g id="Node000021" class="node">
<title>Node21</title>
<g id="a_Node000021"><a xlink:title=" ">
<polygon fill="#e0e0e0" stroke="#999999" points="615.19,-300 489.69,-300 489.69,-280 615.19,-280 615.19,-300"/>
<text xml:space="preserve" text-anchor="middle" x="552.44" y="-286.5" font-family="Helvetica,sans-Serif" font-size="10.00">SFML/Graphics/Font.hpp</text>
</a>
</g>
</g>
<!-- Node1&#45;&gt;Node21 -->
<g id="edge26_Node000001_Node000021" class="edge">
<title>Node1&#45;&gt;Node21</title>
<g id="a_edge26_Node000001_Node000021"><a xlink:title=" ">
<path fill="none" stroke="#63b8ff" d="M460.77,-335.59C477.86,-327.28 503.04,-315.03 522.69,-305.47"/>
<polygon fill="#63b8ff" stroke="#63b8ff" points="524.13,-308.66 531.59,-301.14 521.07,-302.37 524.13,-308.66"/>
</a>
</g>
</g>
<!-- Node22 -->
<g id="Node000022" class="node">
<title>Node22</title>
<g id="a_Node000022"><a xlink:title=" ">
<polygon fill="#e0e0e0" stroke="#999999" points="757.81,-300 633.06,-300 633.06,-280 757.81,-280 757.81,-300"/>
<text xml:space="preserve" text-anchor="middle" x="695.44" y="-286.5" font-family="Helvetica,sans-Serif" font-size="10.00">SFML/Graphics/Text.hpp</text>
</a>
</g>
</g>
<!-- Node1&#45;&gt;Node22 -->
<g id="edge27_Node000001_Node000022" class="edge">
<title>Node1&#45;&gt;Node22</title>
<g id="a_edge27_Node000001_Node000022"><a xlink:title=" ">
<path fill="none" stroke="#63b8ff" d="M485.97,-335.53C528.82,-326.42 593.74,-312.62 639.93,-302.8"/>
<polygon fill="#63b8ff" stroke="#63b8ff" points="640.42,-306.27 649.48,-300.77 638.97,-299.43 640.42,-306.27"/>
</a>
</g>
</g>
<!-- Node3 -->
<g id="Node000003" class="node">
<title>Node3</title>
<g id="a_Node000003"><a xlink:title=" ">
<polygon fill="#e0e0e0" stroke="#999999" points="672.81,-188 590.06,-188 590.06,-168 672.81,-168 672.81,-188"/>
<text xml:space="preserve" text-anchor="middle" x="631.44" y="-174.5" font-family="Helvetica,sans-Serif" font-size="10.00">unordered_map</text>
</a>
</g>
</g>
<!-- Node2&#45;&gt;Node3 -->
<g id="edge2_Node000002_Node000003" class="edge">
<title>Node2&#45;&gt;Node3</title>
<g id="a_edge2_Node000002_Node000003"><a xlink:title=" ">
<path fill="none" stroke="#63b8ff" d="M472.29,-281.27C507.59,-272.04 562.81,-256.3 580.44,-244 597.67,-231.98 611.87,-212.44 620.88,-197.92"/>
<polygon fill="#63b8ff" stroke="#63b8ff" points="623.65,-200.1 625.72,-189.71 617.62,-196.55 623.65,-200.1"/>
</a>
</g>
</g>
<!-- Node4 -->
<g id="Node000004" class="node">
<title>Node4</title>
<g id="a_Node000004"><a xlink:title=" ">
<polygon fill="#e0e0e0" stroke="#999999" points="361.06,-188 309.81,-188 309.81,-168 361.06,-168 361.06,-188"/>
<text xml:space="preserve" text-anchor="middle" x="335.44" y="-174.5" font-family="Helvetica,sans-Serif" font-size="10.00">memory</text>
</a>
</g>
</g>
<!-- Node2&#45;&gt;Node4 -->
<g id="edge3_Node000002_Node000004" class="edge">
<title>Node2&#45;&gt;Node4</title>
<g id="a_edge3_Node000002_Node000004"><a xlink:title=" ">
<path fill="none" stroke="#63b8ff" d="M440.97,-279.53C439.82,-265.83 435.89,-240.34 422.44,-224 409.46,-208.24 389.51,-197.36 371.99,-190.26"/>
<polygon fill="#63b8ff" stroke="#63b8ff" points="373.49,-187.08 362.9,-186.84 371.03,-193.63 373.49,-187.08"/>
</a>
</g>
</g>
<!-- Node5 -->
<g id="Node000005" class="node">
<title>Node5</title>
<g id="a_Node000005"><a xlink:title=" ">
<polygon fill="#e0e0e0" stroke="#999999" points="413.19,-244 269.69,-244 269.69,-224 413.19,-224 413.19,-244"/>
<text xml:space="preserve" text-anchor="middle" x="341.44" y="-230.5" font-family="Helvetica,sans-Serif" font-size="10.00">SFML/Window/Keyboard.hpp</text>
</a>
</g>
</g>
<!-- Node2&#45;&gt;Node5 -->
<g id="edge4_Node000002_Node000005" class="edge">
<title>Node2&#45;&gt;Node5</title>
<g id="a_edge4_Node000002_Node000005"><a xlink:title=" ">
<path fill="none" stroke="#63b8ff" d="M424.02,-279.59C408.77,-271.36 386.36,-259.26 368.73,-249.74"/>
<polygon fill="#63b8ff" stroke="#63b8ff" points="370.79,-246.87 360.33,-245.2 367.46,-253.03 370.79,-246.87"/>
</a>
</g>
</g>
<!-- Node6 -->
<g id="Node000006" class="node">
<title>Node6</title>
<g id="a_Node000006"><a xlink:href="entity__manager_8hpp.html" target="_top" xlink:title=" ">
<polygon fill="white" stroke="#666666" points="571.19,-244 469.69,-244 469.69,-224 571.19,-224 571.19,-244"/>
<text xml:space="preserve" text-anchor="middle" x="520.44" y="-230.5" font-family="Helvetica,sans-Serif" font-size="10.00">entity_manager.hpp</text>
</a>
</g>
</g>
<!-- Node2&#45;&gt;Node6 -->
<g id="edge5_Node000002_Node000006" class="edge">
<title>Node2&#45;&gt;Node6</title>
<g id="a_edge5_Node000002_Node000006"><a xlink:title=" ">
<path fill="none" stroke="#63b8ff" d="M455.2,-279.59C466.8,-271.67 483.64,-260.16 497.3,-250.82"/>
<polygon fill="#63b8ff" stroke="#63b8ff" points="499.04,-253.87 505.32,-245.33 495.09,-248.09 499.04,-253.87"/>
</a>
</g>
</g>
<!-- Node17 -->
<g id="Node000017" class="node">
<title>Node17</title>
<g id="a_Node000017"><a xlink:href="action_8hpp.html" target="_top" xlink:title=" ">
<polygon fill="white" stroke="#666666" points="721.94,-244 660.94,-244 660.94,-224 721.94,-224 721.94,-244"/>
<text xml:space="preserve" text-anchor="middle" x="691.44" y="-230.5" font-family="Helvetica,sans-Serif" font-size="10.00">action.hpp</text>
</a>
</g>
</g>
<!-- Node2&#45;&gt;Node17 -->
<g id="edge18_Node000002_Node000017" class="edge">
<title>Node2&#45;&gt;Node17</title>
<g id="a_edge18_Node000002_Node000017"><a xlink:title=" ">
<path fill="none" stroke="#63b8ff" d="M472.09,-281.88C474.91,-281.24 477.73,-280.6 480.44,-280 539.05,-266.99 607,-252.63 649.6,-243.71"/>
<polygon fill="#63b8ff" stroke="#63b8ff" points="650.1,-247.18 659.17,-241.71 648.67,-240.33 650.1,-247.18"/>
</a>
</g>
</g>
<!-- Node6&#45;&gt;Node3 -->
<g id="edge7_Node000006_Node000003" class="edge">
<title>Node6&#45;&gt;Node3</title>
<g id="a_edge7_Node000006_Node000003"><a xlink:title=" ">
<path fill="none" stroke="#63b8ff" d="M539.77,-223.59C556.86,-215.28 582.04,-203.03 601.69,-193.47"/>
<polygon fill="#63b8ff" stroke="#63b8ff" points="603.13,-196.66 610.59,-189.14 600.07,-190.37 603.13,-196.66"/>
</a>
</g>
</g>
<!-- Node6&#45;&gt;Node4 -->
<g id="edge8_Node000006_Node000004" class="edge">
<title>Node6&#45;&gt;Node4</title>
<g id="a_edge8_Node000006_Node000004"><a xlink:title=" ">
<path fill="none" stroke="#63b8ff" d="M488.21,-223.59C455.85,-214.15 406.04,-199.61 372.16,-189.72"/>
<polygon fill="#63b8ff" stroke="#63b8ff" points="373.37,-186.42 362.79,-186.98 371.4,-193.14 373.37,-186.42"/>
</a>
</g>
</g>
<!-- Node7 -->
<g id="Node000007" class="node">
<title>Node7</title>
<g id="a_Node000007"><a xlink:title=" ">
<polygon fill="#e0e0e0" stroke="#999999" points="498.94,-188 455.94,-188 455.94,-168 498.94,-168 498.94,-188"/>
<text xml:space="preserve" text-anchor="middle" x="477.44" y="-174.5" font-family="Helvetica,sans-Serif" font-size="10.00">vector</text>
</a>
</g>
</g>
<!-- Node6&#45;&gt;Node7 -->
<g id="edge6_Node000006_Node000007" class="edge">
<title>Node6&#45;&gt;Node7</title>
<g id="a_edge6_Node000006_Node000007"><a xlink:title=" ">
<path fill="none" stroke="#63b8ff" d="M512.95,-223.59C507.15,-216.32 498.95,-206.02 491.89,-197.15"/>
<polygon fill="#63b8ff" stroke="#63b8ff" points="494.75,-195.12 485.79,-189.48 489.28,-199.49 494.75,-195.12"/>
</a>
</g>
</g>
<!-- Node8 -->
<g id="Node000008" class="node">
<title>Node8</title>
<g id="a_Node000008"><a xlink:title=" ">
<polygon fill="#e0e0e0" stroke="#999999" points="572.31,-188 516.56,-188 516.56,-168 572.31,-168 572.31,-188"/>
<text xml:space="preserve" text-anchor="middle" x="544.44" y="-174.5" font-family="Helvetica,sans-Serif" font-size="10.00">algorithm</text>
</a>
</g>
</g>
<!-- Node6&#45;&gt;Node8 -->
<g id="edge9_Node000006_Node000008" class="edge">
<title>Node6&#45;&gt;Node8</title>
<g id="a_edge9_Node000006_Node000008"><a xlink:title=" ">
<path fill="none" stroke="#63b8ff" d="M524.62,-223.59C527.68,-216.7 531.95,-207.1 535.74,-198.57"/>
<polygon fill="#63b8ff" stroke="#63b8ff" points="538.83,-200.24 539.69,-189.68 532.43,-197.4 538.83,-200.24"/>
</a>
</g>
</g>
<!-- Node9 -->
<g id="Node000009" class="node">
<title>Node9</title>
<g id="a_Node000009"><a xlink:href="entity_8hpp.html" target="_top" xlink:title=" ">
<polygon fill="white" stroke="#666666" points="437.44,-188 379.44,-188 379.44,-168 437.44,-168 437.44,-188"/>
<text xml:space="preserve" text-anchor="middle" x="408.44" y="-174.5" font-family="Helvetica,sans-Serif" font-size="10.00">entity.hpp</text>
</a>
</g>
</g>
<!-- Node6&#45;&gt;Node9 -->
<g id="edge10_Node000006_Node000009" class="edge">
<title>Node6&#45;&gt;Node9</title>
<g id="a_edge10_Node000006_Node000009"><a xlink:title=" ">
<path fill="none" stroke="#63b8ff" d="M500.93,-223.59C483.69,-215.28 458.28,-203.03 438.45,-193.47"/>
<polygon fill="#63b8ff" stroke="#63b8ff" points="439.99,-190.33 429.46,-189.14 436.95,-196.63 439.99,-190.33"/>
</a>
</g>
</g>
<!-- Node10 -->
<g id="Node000010" class="node">
<title>Node10</title>
<g id="a_Node000010"><a xlink:title=" ">
<polygon fill="#e0e0e0" stroke="#999999" points="507.94,-132 470.94,-132 470.94,-112 507.94,-112 507.94,-132"/>
<text xml:space="preserve" text-anchor="middle" x="489.44" y="-118.5" font-family="Helvetica,sans-Serif" font-size="10.00">tuple</text>
</a>
</g>
</g>
<!-- Node9&#45;&gt;Node10 -->
<g id="edge11_Node000009_Node000010" class="edge">
<title>Node9&#45;&gt;Node10</title>
<g id="a_edge11_Node000009_Node000010"><a xlink:title=" ">
<path fill="none" stroke="#63b8ff" d="M422.55,-167.59C434.44,-159.67 451.7,-148.16 465.72,-138.82"/>
<polygon fill="#63b8ff" stroke="#63b8ff" points="467.58,-141.78 473.96,-133.32 463.7,-135.95 467.58,-141.78"/>
</a>
</g>
</g>
<!-- Node11 -->
<g id="Node000011" class="node">
<title>Node11</title>
<g id="a_Node000011"><a xlink:href="components_8hpp.html" target="_top" xlink:title=" ">
<polygon fill="white" stroke="#666666" points="452.44,-132 364.44,-132 364.44,-112 452.44,-112 452.44,-132"/>
<text xml:space="preserve" text-anchor="middle" x="408.44" y="-118.5" font-family="Helvetica,sans-Serif" font-size="10.00">components.hpp</text>
</a>
</g>
</g>
<!-- Node9&#45;&gt;Node11 -->
<g id="edge12_Node000009_Node000011" class="edge">
<title>Node9&#45;&gt;Node11</title>
<g id="a_edge12_Node000009_Node000011"><a xlink:title=" ">
<path fill="none" stroke="#63b8ff" d="M408.44,-167.59C408.44,-161.01 408.44,-151.96 408.44,-143.73"/>
<polygon fill="#63b8ff" stroke="#63b8ff" points="411.94,-143.81 408.44,-133.81 404.94,-143.81 411.94,-143.81"/>
</a>
</g>
</g>
<!-- Node12 -->
<g id="Node000012" class="node">
<title>Node12</title>
<g id="a_Node000012"><a xlink:title=" ">
<polygon fill="#e0e0e0" stroke="#999999" points="354.31,-76 220.56,-76 220.56,-56 354.31,-56 354.31,-76"/>
<text xml:space="preserve" text-anchor="middle" x="287.44" y="-62.5" font-family="Helvetica,sans-Serif" font-size="10.00">SFML/System/Vector2.hpp</text>
</a>
</g>
</g>
<!-- Node11&#45;&gt;Node12 -->
<g id="edge13_Node000011_Node000012" class="edge">
<title>Node11&#45;&gt;Node12</title>
<g id="a_edge13_Node000011_Node000012"><a xlink:title=" ">
<path fill="none" stroke="#63b8ff" d="M387.36,-111.59C368.48,-103.17 340.52,-90.69 318.98,-81.07"/>
<polygon fill="#63b8ff" stroke="#63b8ff" points="320.62,-77.98 310.06,-77.1 317.77,-84.37 320.62,-77.98"/>
</a>
</g>
</g>
<!-- Node11&#45;&gt;Node13 -->
<g id="edge14_Node000011_Node000013" class="edge">
<title>Node11&#45;&gt;Node13</title>
<g id="a_edge14_Node000011_Node000013"><a xlink:title=" ">
<path fill="none" stroke="#63b8ff" d="M412.62,-111.59C415.68,-104.7 419.95,-95.1 423.74,-86.57"/>
<polygon fill="#63b8ff" stroke="#63b8ff" points="426.83,-88.24 427.69,-77.68 420.43,-85.4 426.83,-88.24"/>
</a>
</g>
</g>
<!-- Node14 -->
<g id="Node000014" class="node">
<title>Node14</title>
<g id="a_Node000014"><a xlink:href="animation_8hpp.html" target="_top" xlink:title=" ">
<polygon fill="white" stroke="#666666" points="586.81,-76 510.06,-76 510.06,-56 586.81,-56 586.81,-76"/>
<text xml:space="preserve" text-anchor="middle" x="548.44" y="-62.5" font-family="Helvetica,sans-Serif" font-size="10.00">animation.hpp</text>
</a>
</g>
</g>
<!-- Node11&#45;&gt;Node14 -->
<g id="edge15_Node000011_Node000014" class="edge">
<title>Node11&#45;&gt;Node14</title>
<g id="a_edge15_Node000011_Node000014"><a xlink:title=" ">
<path fill="none" stroke="#63b8ff" d="M432.83,-111.59C455.07,-103.01 488.21,-90.23 513.31,-80.55"/>
<polygon fill="#63b8ff" stroke="#63b8ff" points="514.38,-83.89 522.45,-77.02 511.86,-77.36 514.38,-83.89"/>
</a>
</g>
</g>
<!-- Node15 -->
<g id="Node000015" class="node">
<title>Node15</title>
<g id="a_Node000015"><a xlink:title=" ">
<polygon fill="#e0e0e0" stroke="#999999" points="516.44,-20 476.44,-20 476.44,0 516.44,0 516.44,-20"/>
<text xml:space="preserve" text-anchor="middle" x="496.44" y="-6.5" font-family="Helvetica,sans-Serif" font-size="10.00">string</text>
</a>
</g>
</g>
<!-- Node14&#45;&gt;Node15 -->
<g id="edge16_Node000014_Node000015" class="edge">
<title>Node14&#45;&gt;Node15</title>
<g id="a_edge16_Node000014_Node000015"><a xlink:title=" ">
<path fill="none" stroke="#63b8ff" d="M539.38,-55.59C532.22,-48.16 522.03,-37.58 513.37,-28.58"/>
<polygon fill="#63b8ff" stroke="#63b8ff" points="515.9,-26.16 506.44,-21.39 510.86,-31.02 515.9,-26.16"/>
</a>
</g>
</g>
<!-- Node16 -->
<g id="Node000016" class="node">
<title>Node16</title>
<g id="a_Node000016"><a xlink:title=" ">
<polygon fill="#e0e0e0" stroke="#999999" points="666.19,-20 534.69,-20 534.69,0 666.19,0 666.19,-20"/>
<text xml:space="preserve" text-anchor="middle" x="600.44" y="-6.5" font-family="Helvetica,sans-Serif" font-size="10.00">SFML/Graphics/Sprite.hpp</text>
</a>
</g>
</g>
<!-- Node14&#45;&gt;Node16 -->
<g id="edge17_Node000014_Node000016" class="edge">
<title>Node14&#45;&gt;Node16</title>
<g id="a_edge17_Node000014_Node000016"><a xlink:title=" ">
<path fill="none" stroke="#63b8ff" d="M557.5,-55.59C564.66,-48.16 574.85,-37.58 583.51,-28.58"/>
<polygon fill="#63b8ff" stroke="#63b8ff" points="586.02,-31.02 590.44,-21.39 580.98,-26.16 586.02,-31.02"/>
</a>
</g>
</g>
<!-- Node17&#45;&gt;Node15 -->
<g id="edge19_Node000017_Node000015" class="edge">
<title>Node17&#45;&gt;Node15</title>
<g id="a_edge19_Node000017_Node000015"><a xlink:title=" ">
<path fill="none" stroke="#63b8ff" d="M691.44,-223.78C691.14,-210.81 689.42,-186.69 681.44,-168 656.78,-110.29 644.58,-95.04 595.44,-56 584.3,-47.15 551.97,-33.13 527.26,-23.09"/>
<polygon fill="#63b8ff" stroke="#63b8ff" points="528.87,-19.96 518.28,-19.48 526.26,-26.46 528.87,-19.96"/>
</a>
</g>
</g>
<!-- Node18&#45;&gt;Node12 -->
<g id="edge23_Node000018_Node000012" class="edge">
<title>Node18&#45;&gt;Node12</title>
<g id="a_edge23_Node000018_Node000012"><a xlink:title=" ">
<path fill="none" stroke="#63b8ff" d="M163.57,-111.59C187.62,-102.94 223.54,-90 250.52,-80.29"/>
<polygon fill="#63b8ff" stroke="#63b8ff" points="251.46,-83.67 259.68,-76.99 249.09,-77.09 251.46,-83.67"/>
</a>
</g>
</g>
<!-- Node18&#45;&gt;Node15 -->
<g id="edge24_Node000018_Node000015" class="edge">
<title>Node18&#45;&gt;Node15</title>
<g id="a_edge24_Node000018_Node000015"><a xlink:title=" ">
<path fill="none" stroke="#63b8ff" d="M109.16,-117.27C61.93,-109.97 -24.79,-91.33 7.44,-56 38.29,-22.18 361.48,-13.44 464.84,-11.49"/>
<polygon fill="#63b8ff" stroke="#63b8ff" points="464.6,-15 474.54,-11.32 464.48,-8 464.6,-15"/>
</a>
</g>
</g>
<!-- Node19 -->
<g id="Node000019" class="node">
<title>Node19</title>
<g id="a_Node000019"><a xlink:title=" ">
<polygon fill="#e0e0e0" stroke="#999999" points="54.31,-76 16.56,-76 16.56,-56 54.31,-56 54.31,-76"/>
<text xml:space="preserve" text-anchor="middle" x="35.44" y="-62.5" font-family="Helvetica,sans-Serif" font-size="10.00">array</text>
</a>
</g>
</g>
<!-- Node18&#45;&gt;Node19 -->
<g id="edge21_Node000018_Node000019" class="edge">
<title>Node18&#45;&gt;Node19</title>
<g id="a_edge21_Node000018_Node000019"><a xlink:title=" ">
<path fill="none" stroke="#63b8ff" d="M119.67,-111.59C104.12,-103.36 81.26,-91.26 63.28,-81.74"/>
<polygon fill="#63b8ff" stroke="#63b8ff" points="65.16,-78.77 54.68,-77.19 61.88,-84.96 65.16,-78.77"/>
</a>
</g>
</g>
<!-- Node20 -->
<g id="Node000020" class="node">
<title>Node20</title>
<g id="a_Node000020"><a xlink:title=" ">
<polygon fill="#e0e0e0" stroke="#999999" points="202.06,-76 72.81,-76 72.81,-56 202.06,-56 202.06,-76"/>
<text xml:space="preserve" text-anchor="middle" x="137.44" y="-62.5" font-family="Helvetica,sans-Serif" font-size="10.00">SFML/Graphics/Color.hpp</text>
</a>
</g>
</g>
<!-- Node18&#45;&gt;Node20 -->
<g id="edge22_Node000018_Node000020" class="edge">
<title>Node18&#45;&gt;Node20</title>
<g id="a_edge22_Node000018_Node000020"><a xlink:title=" ">
<path fill="none" stroke="#63b8ff" d="M137.44,-111.59C137.44,-105.01 137.44,-95.96 137.44,-87.73"/>
<polygon fill="#63b8ff" stroke="#63b8ff" points="140.94,-87.81 137.44,-77.81 133.94,-87.81 140.94,-87.81"/>
</a>
</g>
</g>
</g>
</svg>

<g id="navigator" transform="translate(0 0)" fill="#404254">
  <rect fill="#f2f5e9" fill-opacity="0.5" stroke="#606060" stroke-width=".5" x="0" y="0" width="60" height="60"/>
  <use id="zoomplus" xlink:href="#zoomPlus" x="17" y="9" onmousedown="handleZoom(evt,'in')"/>
  <use id="zoomminus" xlink:href="#zoomMin" x="42" y="9" onmousedown="handleZoom(evt,'out')"/>
  <use id="reset" xlink:href="#resetDef" x="30" y="36" onmousedown="handleReset()"/>
   <use id="arrowup" xlink:href="#arrowUp" x="0" y="0" onmousedown="handlePan(0,-1)"/>
  <use id="arrowright" xlink:href="#arrowRight" x="0" y="0" onmousedown="handlePan(1,0)"/>
  <use id="arrowdown" xlink:href="#arrowDown" x="0" y="0" onmousedown="handlePan(0,1)"/>
  <use id="arrowleft" xlink:href="#arrowLeft" x="0" y="0" onmousedown="handlePan(-1,0)"/>
</g>
<svg viewBox="0 0 15 15" width="100%" height="30px" preserveAspectRatio="xMaxYMin meet">
 <g id="arrow_out" transform="scale(0.3 0.3)">
  <a xlink:href="scene__menu_8hpp__incl_org.svg" target="_base">
   <rect id="button" ry="5" rx="5" y="6" x="6" height="38" width="38"
        fill="#f2f5e9" fill-opacity="0.5" stroke="#606060" stroke-width="1.0"/>
   <path id="arrow"
     d="M 11.500037,31.436501 C 11.940474,20.09759 22.043105,11.32322 32.158766,21.979434 L 37.068811,17.246167 C 37.068811,17.246167 37.088388,32 37.088388,32 L 22.160133,31.978069 C 22.160133,31.978069 26.997745,27.140456 26.997745,27.140456 C 18.528582,18.264221 13.291696,25.230495 11.500037,31.436501 z"
     style="fill:#404040;"/>
  </a>
 </g>
</svg>

<style type='text/css'>
<![CDATA[
[data-mouse-over-selected='false'] { opacity: 0.7; }
[data-mouse-over-selected='true']  { opacity: 1.0; }
]]>
</style>
<script type="application/ecmascript"><![CDATA[
document.addEventListener('DOMContentLoaded', (event) => {
  highlightEdges();
  highlightAdjacentNodes();
});
]]></script>
</svg>
