<?xml version="1.0" encoding="UTF-8" standalone="no"?>
<!DOCTYPE svg PUBLIC "-//W3C//DTD SVG 1.1//EN"
 "http://www.w3.org/Graphics/SVG/1.1/DTD/svg11.dtd">
<!-- Generated by graphviz version 13.1.2 (20250808.2320)
 -->
<!-- Title: src/scene_play.cpp Pages: 1 -->
<svg width="1492pt" height="420pt"
 viewBox="0.00 0.00 1492.00 420.00" xmlns="http://www.w3.org/2000/svg" xmlns:xlink="http://www.w3.org/1999/xlink">
<g id="graph0" class="graph" transform="scale(1 1) rotate(0) translate(4 416)">
<title>src/scene_play.cpp</title>
<!-- Node1 -->
<g id="Node000001" class="node">
<title>Node1</title>
<g id="a_Node000001"><a xlink:title=" ">
<polygon fill="#999999" stroke="#666666" points="964.88,-412 864.88,-412 864.88,-392 964.88,-392 964.88,-412"/>
<text xml:space="preserve" text-anchor="middle" x="914.88" y="-398.5" font-family="Helvetica,sans-Serif" font-size="10.00">src/scene_play.cpp</text>
</a>
</g>
</g>
<!-- Node2 -->
<g id="Node000002" class="node">
<title>Node2</title>
<g id="a_Node000002"><a xlink:href="scene__play_8hpp.html" target="_top" xlink:title=" ">
<polygon fill="white" stroke="#666666" points="701.62,-356 618.12,-356 618.12,-336 701.62,-336 701.62,-356"/>
<text xml:space="preserve" text-anchor="middle" x="659.88" y="-342.5" font-family="Helvetica,sans-Serif" font-size="10.00">scene_play.hpp</text>
</a>
</g>
</g>
<!-- Node1&#45;&gt;Node2 -->
<g id="edge1_Node000001_Node000002" class="edge">
<title>Node1&#45;&gt;Node2</title>
<g id="a_edge1_Node000001_Node000002"><a xlink:title=" ">
<path fill="none" stroke="#63b8ff" d="M870.17,-391.53C826.36,-382.25 759.57,-368.11 713.06,-358.26"/>
<polygon fill="#63b8ff" stroke="#63b8ff" points="713.98,-354.88 703.47,-356.23 712.53,-361.73 713.98,-354.88"/>
</a>
</g>
</g>
<!-- Node24 -->
<g id="Node000024" class="node">
<title>Node24</title>
<g id="a_Node000024"><a xlink:href="game__engine_8hpp.html" target="_top" xlink:title=" ">
<polygon fill="white" stroke="#666666" points="870.12,-356 777.62,-356 777.62,-336 870.12,-336 870.12,-356"/>
<text xml:space="preserve" text-anchor="middle" x="823.88" y="-342.5" font-family="Helvetica,sans-Serif" font-size="10.00">game_engine.hpp</text>
</a>
</g>
</g>
<!-- Node1&#45;&gt;Node24 -->
<g id="edge28_Node000001_Node000024" class="edge">
<title>Node1&#45;&gt;Node24</title>
<g id="a_edge28_Node000001_Node000024"><a xlink:title=" ">
<path fill="none" stroke="#63b8ff" d="M899.02,-391.59C885.41,-383.51 865.51,-371.71 849.61,-362.27"/>
<polygon fill="#63b8ff" stroke="#63b8ff" points="851.54,-359.35 841.15,-357.25 847.97,-365.37 851.54,-359.35"/>
</a>
</g>
</g>
<!-- Node33 -->
<g id="Node000033" class="node">
<title>Node33</title>
<g id="a_Node000033"><a xlink:href="scene__menu_8hpp.html" target="_top" xlink:title=" ">
<polygon fill="white" stroke="#666666" points="540,-356 449.75,-356 449.75,-336 540,-336 540,-356"/>
<text xml:space="preserve" text-anchor="middle" x="494.88" y="-342.5" font-family="Helvetica,sans-Serif" font-size="10.00">scene_menu.hpp</text>
</a>
</g>
</g>
<!-- Node1&#45;&gt;Node33 -->
<g id="edge41_Node000001_Node000033" class="edge">
<title>Node1&#45;&gt;Node33</title>
<g id="a_edge41_Node000001_Node000033"><a xlink:title=" ">
<path fill="none" stroke="#63b8ff" d="M864.63,-394.54C786,-384.43 634.34,-364.93 551.79,-354.32"/>
<polygon fill="#63b8ff" stroke="#63b8ff" points="552.24,-350.85 541.87,-353.04 551.35,-357.79 552.24,-350.85"/>
</a>
</g>
</g>
<!-- Node36 -->
<g id="Node000036" class="node">
<title>Node36</title>
<g id="a_Node000036"><a xlink:href="physics_8hpp.html" target="_top" xlink:title=" ">
<polygon fill="white" stroke="#666666" points="106.12,-244 37.62,-244 37.62,-224 106.12,-224 106.12,-244"/>
<text xml:space="preserve" text-anchor="middle" x="71.88" y="-230.5" font-family="Helvetica,sans-Serif" font-size="10.00">physics.hpp</text>
</a>
</g>
</g>
<!-- Node1&#45;&gt;Node36 -->
<g id="edge51_Node000001_Node000036" class="edge">
<title>Node1&#45;&gt;Node36</title>
<g id="a_edge51_Node000001_Node000036"><a xlink:title=" ">
<path fill="none" stroke="#63b8ff" d="M864.43,-399.97C709.84,-395.99 245.54,-377.69 119.88,-300 102.38,-289.18 89.18,-269.43 81.09,-254.53"/>
<polygon fill="#63b8ff" stroke="#63b8ff" points="84.24,-253 76.6,-245.66 78,-256.17 84.24,-253"/>
</a>
</g>
</g>
<!-- Node37 -->
<g id="Node000037" class="node">
<title>Node37</title>
<g id="a_Node000037"><a xlink:title=" ">
<polygon fill="#e0e0e0" stroke="#999999" points="941.62,-356 888.12,-356 888.12,-336 941.62,-336 941.62,-356"/>
<text xml:space="preserve" text-anchor="middle" x="914.88" y="-342.5" font-family="Helvetica,sans-Serif" font-size="10.00">iostream</text>
</a>
</g>
</g>
<!-- Node1&#45;&gt;Node37 -->
<g id="edge55_Node000001_Node000037" class="edge">
<title>Node1&#45;&gt;Node37</title>
<g id="a_edge55_Node000001_Node000037"><a xlink:title=" ">
<path fill="none" stroke="#63b8ff" d="M914.88,-391.59C914.88,-385.01 914.88,-375.96 914.88,-367.73"/>
<polygon fill="#63b8ff" stroke="#63b8ff" points="918.38,-367.81 914.88,-357.81 911.38,-367.81 918.38,-367.81"/>
</a>
</g>
</g>
<!-- Node38 -->
<g id="Node000038" class="node">
<title>Node38</title>
<g id="a_Node000038"><a xlink:title=" ">
<polygon fill="#e0e0e0" stroke="#999999" points="1003.75,-356 960,-356 960,-336 1003.75,-336 1003.75,-356"/>
<text xml:space="preserve" text-anchor="middle" x="981.88" y="-342.5" font-family="Helvetica,sans-Serif" font-size="10.00">format</text>
</a>
</g>
</g>
<!-- Node1&#45;&gt;Node38 -->
<g id="edge56_Node000001_Node000038" class="edge">
<title>Node1&#45;&gt;Node38</title>
<g id="a_edge56_Node000001_Node000038"><a xlink:title=" ">
<path fill="none" stroke="#63b8ff" d="M926.55,-391.59C936.15,-383.85 950,-372.69 961.44,-363.47"/>
<polygon fill="#63b8ff" stroke="#63b8ff" points="963.57,-366.25 969.16,-357.25 959.18,-360.8 963.57,-366.25"/>
</a>
</g>
</g>
<!-- Node39 -->
<g id="Node000039" class="node">
<title>Node39</title>
<g id="a_Node000039"><a xlink:title=" ">
<polygon fill="#e0e0e0" stroke="#999999" points="1069.62,-356 1022.12,-356 1022.12,-336 1069.62,-336 1069.62,-356"/>
<text xml:space="preserve" text-anchor="middle" x="1045.88" y="-342.5" font-family="Helvetica,sans-Serif" font-size="10.00">imgui.h</text>
</a>
</g>
</g>
<!-- Node1&#45;&gt;Node39 -->
<g id="edge57_Node000001_Node000039" class="edge">
<title>Node1&#45;&gt;Node39</title>
<g id="a_edge57_Node000001_Node000039"><a xlink:title=" ">
<path fill="none" stroke="#63b8ff" d="M937.69,-391.59C958.32,-383.09 988.96,-370.46 1012.37,-360.81"/>
<polygon fill="#63b8ff" stroke="#63b8ff" points="1013.57,-364.1 1021.48,-357.06 1010.9,-357.63 1013.57,-364.1"/>
</a>
</g>
</g>
<!-- Node40 -->
<g id="Node000040" class="node">
<title>Node40</title>
<g id="a_Node000040"><a xlink:title=" ">
<polygon fill="#e0e0e0" stroke="#999999" points="1164.25,-356 1087.5,-356 1087.5,-336 1164.25,-336 1164.25,-356"/>
<text xml:space="preserve" text-anchor="middle" x="1125.88" y="-342.5" font-family="Helvetica,sans-Serif" font-size="10.00">imgui&#45;SFML.h</text>
</a>
</g>
</g>
<!-- Node1&#45;&gt;Node40 -->
<g id="edge58_Node000001_Node000040" class="edge">
<title>Node1&#45;&gt;Node40</title>
<g id="a_edge58_Node000001_Node000040"><a xlink:title=" ">
<path fill="none" stroke="#63b8ff" d="M951.63,-391.59C986.66,-382.63 1039.61,-369.08 1077.94,-359.27"/>
<polygon fill="#63b8ff" stroke="#63b8ff" points="1078.55,-362.72 1087.37,-356.85 1076.81,-355.94 1078.55,-362.72"/>
</a>
</g>
</g>
<!-- Node41 -->
<g id="Node000041" class="node">
<title>Node41</title>
<g id="a_Node000041"><a xlink:title=" ">
<polygon fill="#e0e0e0" stroke="#999999" points="1359.88,-356 1181.88,-356 1181.88,-336 1359.88,-336 1359.88,-356"/>
<text xml:space="preserve" text-anchor="middle" x="1270.88" y="-342.5" font-family="Helvetica,sans-Serif" font-size="10.00">SFML/Graphics/RectangleShape.hpp</text>
</a>
</g>
</g>
<!-- Node1&#45;&gt;Node41 -->
<g id="edge59_Node000001_Node000041" class="edge">
<title>Node1&#45;&gt;Node41</title>
<g id="a_edge59_Node000001_Node000041"><a xlink:title=" ">
<path fill="none" stroke="#63b8ff" d="M965.13,-393.38C1025.58,-384.21 1127.6,-368.73 1197.02,-358.2"/>
<polygon fill="#63b8ff" stroke="#63b8ff" points="1197.44,-361.68 1206.8,-356.72 1196.39,-354.76 1197.44,-361.68"/>
</a>
</g>
</g>
<!-- Node3 -->
<g id="Node000003" class="node">
<title>Node3</title>
<g id="a_Node000003"><a xlink:href="scene_8hpp.html" target="_top" xlink:title=" ">
<polygon fill="white" stroke="#666666" points="496.38,-300 435.38,-300 435.38,-280 496.38,-280 496.38,-300"/>
<text xml:space="preserve" text-anchor="middle" x="465.88" y="-286.5" font-family="Helvetica,sans-Serif" font-size="10.00">scene.hpp</text>
</a>
</g>
</g>
<!-- Node2&#45;&gt;Node3 -->
<g id="edge2_Node000002_Node000003" class="edge">
<title>Node2&#45;&gt;Node3</title>
<g id="a_edge2_Node000002_Node000003"><a xlink:title=" ">
<path fill="none" stroke="#63b8ff" d="M626.08,-335.59C593.17,-326.43 543.06,-312.48 507.66,-302.63"/>
<polygon fill="#63b8ff" stroke="#63b8ff" points="508.75,-299.3 498.18,-299.99 506.88,-306.05 508.75,-299.3"/>
</a>
</g>
</g>
<!-- Node14 -->
<g id="Node000014" class="node">
<title>Node14</title>
<g id="a_Node000014"><a xlink:title=" ">
<polygon fill="#e0e0e0" stroke="#999999" points="271.62,-76 152.12,-76 152.12,-56 271.62,-56 271.62,-76"/>
<text xml:space="preserve" text-anchor="middle" x="211.88" y="-62.5" font-family="Helvetica,sans-Serif" font-size="10.00">SFML/Audio/Sound.hpp</text>
</a>
</g>
</g>
<!-- Node2&#45;&gt;Node14 -->
<g id="edge25_Node000002_Node000014" class="edge">
<title>Node2&#45;&gt;Node14</title>
<g id="a_edge25_Node000002_Node000014"><a xlink:title=" ">
<path fill="none" stroke="#63b8ff" d="M617.9,-340.91C513.66,-330.05 246.34,-297.54 176.88,-244 148.24,-221.93 128.17,-198.31 147.88,-168 169.34,-134.97 207.41,-165.03 228.88,-132 237.9,-118.11 231.68,-99.62 224.35,-85.92"/>
<polygon fill="#63b8ff" stroke="#63b8ff" points="227.41,-84.22 219.28,-77.43 221.4,-87.81 227.41,-84.22"/>
</a>
</g>
</g>
<!-- Node19 -->
<g id="Node000019" class="node">
<title>Node19</title>
<g id="a_Node000019"><a xlink:href="config__structs_8hpp.html" target="_top" xlink:title=" ">
<polygon fill="white" stroke="#666666" points="1484,-244 1387.75,-244 1387.75,-224 1484,-224 1484,-244"/>
<text xml:space="preserve" text-anchor="middle" x="1435.88" y="-230.5" font-family="Helvetica,sans-Serif" font-size="10.00">config_structs.hpp</text>
</a>
</g>
</g>
<!-- Node2&#45;&gt;Node19 -->
<g id="edge21_Node000002_Node000019" class="edge">
<title>Node2&#45;&gt;Node19</title>
<g id="a_edge21_Node000002_Node000019"><a xlink:title=" ">
<path fill="none" stroke="#63b8ff" d="M702.12,-340.18C747.89,-334.12 822.58,-321.78 883.88,-300 901.86,-293.61 903.54,-285.3 921.88,-280 1114.06,-224.42 1174.37,-266.33 1376.12,-244.2"/>
<polygon fill="#63b8ff" stroke="#63b8ff" points="1376.36,-247.7 1385.9,-243.09 1375.56,-240.75 1376.36,-247.7"/>
</a>
</g>
</g>
<!-- Node22 -->
<g id="Node000022" class="node">
<title>Node22</title>
<g id="a_Node000022"><a xlink:title=" ">
<polygon fill="#e0e0e0" stroke="#999999" points="757.62,-244 632.12,-244 632.12,-224 757.62,-224 757.62,-244"/>
<text xml:space="preserve" text-anchor="middle" x="694.88" y="-230.5" font-family="Helvetica,sans-Serif" font-size="10.00">SFML/Graphics/Font.hpp</text>
</a>
</g>
</g>
<!-- Node2&#45;&gt;Node22 -->
<g id="edge26_Node000002_Node000022" class="edge">
<title>Node2&#45;&gt;Node22</title>
<g id="a_edge26_Node000002_Node000022"><a xlink:title=" ">
<path fill="none" stroke="#63b8ff" d="M666.82,-335.52C672.87,-326.76 681.36,-313.14 685.88,-300 690.81,-285.62 693.05,-268.56 694.06,-255.53"/>
<polygon fill="#63b8ff" stroke="#63b8ff" points="697.55,-255.78 694.63,-245.6 690.56,-255.38 697.55,-255.78"/>
</a>
</g>
</g>
<!-- Node23 -->
<g id="Node000023" class="node">
<title>Node23</title>
<g id="a_Node000023"><a xlink:title=" ">
<polygon fill="#e0e0e0" stroke="#999999" points="677.25,-300 552.5,-300 552.5,-280 677.25,-280 677.25,-300"/>
<text xml:space="preserve" text-anchor="middle" x="614.88" y="-286.5" font-family="Helvetica,sans-Serif" font-size="10.00">SFML/Graphics/Text.hpp</text>
</a>
</g>
</g>
<!-- Node2&#45;&gt;Node23 -->
<g id="edge27_Node000002_Node000023" class="edge">
<title>Node2&#45;&gt;Node23</title>
<g id="a_edge27_Node000002_Node000023"><a xlink:title=" ">
<path fill="none" stroke="#63b8ff" d="M652.04,-335.59C645.91,-328.24 637.2,-317.8 629.76,-308.87"/>
<polygon fill="#63b8ff" stroke="#63b8ff" points="632.68,-306.9 623.59,-301.46 627.31,-311.38 632.68,-306.9"/>
</a>
</g>
</g>
<!-- Node4 -->
<g id="Node000004" class="node">
<title>Node4</title>
<g id="a_Node000004"><a xlink:title=" ">
<polygon fill="#e0e0e0" stroke="#999999" points="667.25,-188 584.5,-188 584.5,-168 667.25,-168 667.25,-188"/>
<text xml:space="preserve" text-anchor="middle" x="625.88" y="-174.5" font-family="Helvetica,sans-Serif" font-size="10.00">unordered_map</text>
</a>
</g>
</g>
<!-- Node3&#45;&gt;Node4 -->
<g id="edge3_Node000003_Node000004" class="edge">
<title>Node3&#45;&gt;Node4</title>
<g id="a_edge3_Node000003_Node000004"><a xlink:title=" ">
<path fill="none" stroke="#63b8ff" d="M485.11,-279.57C501.9,-271.05 526.66,-257.76 546.88,-244 568.72,-229.13 591.86,-209.58 607.41,-195.82"/>
<polygon fill="#63b8ff" stroke="#63b8ff" points="609.38,-198.76 614.49,-189.48 604.71,-193.54 609.38,-198.76"/>
</a>
</g>
</g>
<!-- Node5 -->
<g id="Node000005" class="node">
<title>Node5</title>
<g id="a_Node000005"><a xlink:title=" ">
<polygon fill="#e0e0e0" stroke="#999999" points="208.5,-188 157.25,-188 157.25,-168 208.5,-168 208.5,-188"/>
<text xml:space="preserve" text-anchor="middle" x="182.88" y="-174.5" font-family="Helvetica,sans-Serif" font-size="10.00">memory</text>
</a>
</g>
</g>
<!-- Node3&#45;&gt;Node5 -->
<g id="edge4_Node000003_Node000005" class="edge">
<title>Node3&#45;&gt;Node5</title>
<g id="a_edge4_Node000003_Node000005"><a xlink:title=" ">
<path fill="none" stroke="#63b8ff" d="M435.03,-288.43C370.42,-286.57 224.06,-278.53 190.88,-244 179.78,-232.46 178.47,-213.96 179.54,-199.64"/>
<polygon fill="#63b8ff" stroke="#63b8ff" points="182.99,-200.27 180.72,-189.92 176.04,-199.42 182.99,-200.27"/>
</a>
</g>
</g>
<!-- Node6 -->
<g id="Node000006" class="node">
<title>Node6</title>
<g id="a_Node000006"><a xlink:title=" ">
<polygon fill="#e0e0e0" stroke="#999999" points="537.62,-244 394.12,-244 394.12,-224 537.62,-224 537.62,-244"/>
<text xml:space="preserve" text-anchor="middle" x="465.88" y="-230.5" font-family="Helvetica,sans-Serif" font-size="10.00">SFML/Window/Keyboard.hpp</text>
</a>
</g>
</g>
<!-- Node3&#45;&gt;Node6 -->
<g id="edge5_Node000003_Node000006" class="edge">
<title>Node3&#45;&gt;Node6</title>
<g id="a_edge5_Node000003_Node000006"><a xlink:title=" ">
<path fill="none" stroke="#63b8ff" d="M465.88,-279.59C465.88,-273.01 465.88,-263.96 465.88,-255.73"/>
<polygon fill="#63b8ff" stroke="#63b8ff" points="469.38,-255.81 465.88,-245.81 462.38,-255.81 469.38,-255.81"/>
</a>
</g>
</g>
<!-- Node7 -->
<g id="Node000007" class="node">
<title>Node7</title>
<g id="a_Node000007"><a xlink:href="entity__manager_8hpp.html" target="_top" xlink:title=" ">
<polygon fill="white" stroke="#666666" points="301.62,-244 200.12,-244 200.12,-224 301.62,-224 301.62,-244"/>
<text xml:space="preserve" text-anchor="middle" x="250.88" y="-230.5" font-family="Helvetica,sans-Serif" font-size="10.00">entity_manager.hpp</text>
</a>
</g>
</g>
<!-- Node3&#45;&gt;Node7 -->
<g id="edge6_Node000003_Node000007" class="edge">
<title>Node3&#45;&gt;Node7</title>
<g id="a_edge6_Node000003_Node000007"><a xlink:title=" ">
<path fill="none" stroke="#63b8ff" d="M435.07,-281.26C399.65,-272.37 341.06,-257.65 299.47,-247.21"/>
<polygon fill="#63b8ff" stroke="#63b8ff" points="300.52,-243.86 289.96,-244.82 298.81,-250.65 300.52,-243.86"/>
</a>
</g>
</g>
<!-- Node18 -->
<g id="Node000018" class="node">
<title>Node18</title>
<g id="a_Node000018"><a xlink:href="action_8hpp.html" target="_top" xlink:title=" ">
<polygon fill="white" stroke="#666666" points="725.38,-132 664.38,-132 664.38,-112 725.38,-112 725.38,-132"/>
<text xml:space="preserve" text-anchor="middle" x="694.88" y="-118.5" font-family="Helvetica,sans-Serif" font-size="10.00">action.hpp</text>
</a>
</g>
</g>
<!-- Node3&#45;&gt;Node18 -->
<g id="edge19_Node000003_Node000018" class="edge">
<title>Node3&#45;&gt;Node18</title>
<g id="a_edge19_Node000003_Node000018"><a xlink:title=" ">
<path fill="none" stroke="#63b8ff" d="M489.98,-279.66C511.86,-271 544.9,-257.44 572.88,-244 596.36,-232.71 659.52,-208.28 675.88,-188 686.05,-175.39 690.77,-157.52 692.97,-143.71"/>
<polygon fill="#63b8ff" stroke="#63b8ff" points="696.42,-144.28 694.17,-133.93 689.48,-143.43 696.42,-144.28"/>
</a>
</g>
</g>
<!-- Node7&#45;&gt;Node4 -->
<g id="edge8_Node000007_Node000004" class="edge">
<title>Node7&#45;&gt;Node4</title>
<g id="a_edge8_Node000007_Node000004"><a xlink:title=" ">
<path fill="none" stroke="#63b8ff" d="M301.93,-225.32C304.96,-224.87 307.96,-224.43 310.88,-224 402.98,-210.51 510.32,-195.28 572.92,-186.45"/>
<polygon fill="#63b8ff" stroke="#63b8ff" points="573.17,-189.95 582.58,-185.09 572.19,-183.02 573.17,-189.95"/>
</a>
</g>
</g>
<!-- Node7&#45;&gt;Node5 -->
<g id="edge9_Node000007_Node000005" class="edge">
<title>Node7&#45;&gt;Node5</title>
<g id="a_edge9_Node000007_Node000005"><a xlink:title=" ">
<path fill="none" stroke="#63b8ff" d="M239.03,-223.59C229.18,-215.77 214.94,-204.46 203.27,-195.19"/>
<polygon fill="#63b8ff" stroke="#63b8ff" points="205.78,-192.72 195.77,-189.24 201.42,-198.2 205.78,-192.72"/>
</a>
</g>
</g>
<!-- Node8 -->
<g id="Node000008" class="node">
<title>Node8</title>
<g id="a_Node000008"><a xlink:title=" ">
<polygon fill="#e0e0e0" stroke="#999999" points="269.38,-188 226.38,-188 226.38,-168 269.38,-168 269.38,-188"/>
<text xml:space="preserve" text-anchor="middle" x="247.88" y="-174.5" font-family="Helvetica,sans-Serif" font-size="10.00">vector</text>
</a>
</g>
</g>
<!-- Node7&#45;&gt;Node8 -->
<g id="edge7_Node000007_Node000008" class="edge">
<title>Node7&#45;&gt;Node8</title>
<g id="a_edge7_Node000007_Node000008"><a xlink:title=" ">
<path fill="none" stroke="#63b8ff" d="M250.35,-223.59C249.99,-217.01 249.48,-207.96 249.03,-199.73"/>
<polygon fill="#63b8ff" stroke="#63b8ff" points="252.52,-199.6 248.48,-189.81 245.54,-199.99 252.52,-199.6"/>
</a>
</g>
</g>
<!-- Node9 -->
<g id="Node000009" class="node">
<title>Node9</title>
<g id="a_Node000009"><a xlink:title=" ">
<polygon fill="#e0e0e0" stroke="#999999" points="342.75,-188 287,-188 287,-168 342.75,-168 342.75,-188"/>
<text xml:space="preserve" text-anchor="middle" x="314.88" y="-174.5" font-family="Helvetica,sans-Serif" font-size="10.00">algorithm</text>
</a>
</g>
</g>
<!-- Node7&#45;&gt;Node9 -->
<g id="edge10_Node000007_Node000009" class="edge">
<title>Node7&#45;&gt;Node9</title>
<g id="a_edge10_Node000007_Node000009"><a xlink:title=" ">
<path fill="none" stroke="#63b8ff" d="M262.02,-223.59C271.2,-215.85 284.43,-204.69 295.36,-195.47"/>
<polygon fill="#63b8ff" stroke="#63b8ff" points="297.31,-198.4 302.7,-189.27 292.8,-193.05 297.31,-198.4"/>
</a>
</g>
</g>
<!-- Node10 -->
<g id="Node000010" class="node">
<title>Node10</title>
<g id="a_Node000010"><a xlink:href="entity_8hpp.html" target="_top" xlink:title=" ">
<polygon fill="white" stroke="#666666" points="100.88,-188 42.88,-188 42.88,-168 100.88,-168 100.88,-188"/>
<text xml:space="preserve" text-anchor="middle" x="71.88" y="-174.5" font-family="Helvetica,sans-Serif" font-size="10.00">entity.hpp</text>
</a>
</g>
</g>
<!-- Node7&#45;&gt;Node10 -->
<g id="edge11_Node000007_Node000010" class="edge">
<title>Node7&#45;&gt;Node10</title>
<g id="a_edge11_Node000007_Node000010"><a xlink:title=" ">
<path fill="none" stroke="#63b8ff" d="M219.7,-223.59C189.86,-214.59 144.7,-200.97 112.16,-191.15"/>
<polygon fill="#63b8ff" stroke="#63b8ff" points="113.25,-187.83 102.66,-188.29 111.23,-194.53 113.25,-187.83"/>
</a>
</g>
</g>
<!-- Node11 -->
<g id="Node000011" class="node">
<title>Node11</title>
<g id="a_Node000011"><a xlink:title=" ">
<polygon fill="#e0e0e0" stroke="#999999" points="75.38,-132 38.38,-132 38.38,-112 75.38,-112 75.38,-132"/>
<text xml:space="preserve" text-anchor="middle" x="56.88" y="-118.5" font-family="Helvetica,sans-Serif" font-size="10.00">tuple</text>
</a>
</g>
</g>
<!-- Node10&#45;&gt;Node11 -->
<g id="edge12_Node000010_Node000011" class="edge">
<title>Node10&#45;&gt;Node11</title>
<g id="a_edge12_Node000010_Node000011"><a xlink:title=" ">
<path fill="none" stroke="#63b8ff" d="M69.26,-167.59C67.39,-160.86 64.8,-151.53 62.47,-143.15"/>
<polygon fill="#63b8ff" stroke="#63b8ff" points="65.91,-142.46 59.86,-133.76 59.17,-144.33 65.91,-142.46"/>
</a>
</g>
</g>
<!-- Node12 -->
<g id="Node000012" class="node">
<title>Node12</title>
<g id="a_Node000012"><a xlink:href="components_8hpp.html" target="_top" xlink:title=" ">
<polygon fill="white" stroke="#666666" points="219.88,-132 131.88,-132 131.88,-112 219.88,-112 219.88,-132"/>
<text xml:space="preserve" text-anchor="middle" x="175.88" y="-118.5" font-family="Helvetica,sans-Serif" font-size="10.00">components.hpp</text>
</a>
</g>
</g>
<!-- Node10&#45;&gt;Node12 -->
<g id="edge13_Node000010_Node000012" class="edge">
<title>Node10&#45;&gt;Node12</title>
<g id="a_edge13_Node000010_Node000012"><a xlink:title=" ">
<path fill="none" stroke="#63b8ff" d="M89.99,-167.59C105.85,-159.36 129.16,-147.26 147.49,-137.74"/>
<polygon fill="#63b8ff" stroke="#63b8ff" points="149.01,-140.89 156.27,-133.18 145.79,-134.68 149.01,-140.89"/>
</a>
</g>
</g>
<!-- Node13 -->
<g id="Node000013" class="node">
<title>Node13</title>
<g id="a_Node000013"><a xlink:title=" ">
<polygon fill="#e0e0e0" stroke="#999999" points="133.75,-76 0,-76 0,-56 133.75,-56 133.75,-76"/>
<text xml:space="preserve" text-anchor="middle" x="66.88" y="-62.5" font-family="Helvetica,sans-Serif" font-size="10.00">SFML/System/Vector2.hpp</text>
</a>
</g>
</g>
<!-- Node12&#45;&gt;Node13 -->
<g id="edge14_Node000012_Node000013" class="edge">
<title>Node12&#45;&gt;Node13</title>
<g id="a_edge14_Node000012_Node000013"><a xlink:title=" ">
<path fill="none" stroke="#63b8ff" d="M156.89,-111.59C140.11,-103.28 115.38,-91.03 96.09,-81.47"/>
<polygon fill="#63b8ff" stroke="#63b8ff" points="97.88,-78.45 87.37,-77.15 94.77,-84.73 97.88,-78.45"/>
</a>
</g>
</g>
<!-- Node12&#45;&gt;Node14 -->
<g id="edge15_Node000012_Node000014" class="edge">
<title>Node12&#45;&gt;Node14</title>
<g id="a_edge15_Node000012_Node000014"><a xlink:title=" ">
<path fill="none" stroke="#63b8ff" d="M182.15,-111.59C186.89,-104.47 193.57,-94.45 199.4,-85.72"/>
<polygon fill="#63b8ff" stroke="#63b8ff" points="202.2,-87.82 204.84,-77.56 196.38,-83.94 202.2,-87.82"/>
</a>
</g>
</g>
<!-- Node15 -->
<g id="Node000015" class="node">
<title>Node15</title>
<g id="a_Node000015"><a xlink:href="animation_8hpp.html" target="_top" xlink:title=" ">
<polygon fill="white" stroke="#666666" points="608.25,-76 531.5,-76 531.5,-56 608.25,-56 608.25,-76"/>
<text xml:space="preserve" text-anchor="middle" x="569.88" y="-62.5" font-family="Helvetica,sans-Serif" font-size="10.00">animation.hpp</text>
</a>
</g>
</g>
<!-- Node12&#45;&gt;Node15 -->
<g id="edge16_Node000012_Node000015" class="edge">
<title>Node12&#45;&gt;Node15</title>
<g id="a_edge16_Node000012_Node000015"><a xlink:title=" ">
<path fill="none" stroke="#63b8ff" d="M220.31,-114.91C294.29,-104.77 442.25,-84.49 519.81,-73.86"/>
<polygon fill="#63b8ff" stroke="#63b8ff" points="520.25,-77.33 529.68,-72.51 519.3,-70.4 520.25,-77.33"/>
</a>
</g>
</g>
<!-- Node16 -->
<g id="Node000016" class="node">
<title>Node16</title>
<g id="a_Node000016"><a xlink:title=" ">
<polygon fill="#e0e0e0" stroke="#999999" points="698.88,-20 658.88,-20 658.88,0 698.88,0 698.88,-20"/>
<text xml:space="preserve" text-anchor="middle" x="678.88" y="-6.5" font-family="Helvetica,sans-Serif" font-size="10.00">string</text>
</a>
</g>
</g>
<!-- Node15&#45;&gt;Node16 -->
<g id="edge17_Node000015_Node000016" class="edge">
<title>Node15&#45;&gt;Node16</title>
<g id="a_edge17_Node000015_Node000016"><a xlink:title=" ">
<path fill="none" stroke="#63b8ff" d="M588.86,-55.59C605.64,-47.28 630.37,-35.03 649.66,-25.47"/>
<polygon fill="#63b8ff" stroke="#63b8ff" points="650.98,-28.73 658.38,-21.15 647.87,-22.45 650.98,-28.73"/>
</a>
</g>
</g>
<!-- Node17 -->
<g id="Node000017" class="node">
<title>Node17</title>
<g id="a_Node000017"><a xlink:title=" ">
<polygon fill="#e0e0e0" stroke="#999999" points="635.62,-20 504.12,-20 504.12,0 635.62,0 635.62,-20"/>
<text xml:space="preserve" text-anchor="middle" x="569.88" y="-6.5" font-family="Helvetica,sans-Serif" font-size="10.00">SFML/Graphics/Sprite.hpp</text>
</a>
</g>
</g>
<!-- Node15&#45;&gt;Node17 -->
<g id="edge18_Node000015_Node000017" class="edge">
<title>Node15&#45;&gt;Node17</title>
<g id="a_edge18_Node000015_Node000017"><a xlink:title=" ">
<path fill="none" stroke="#63b8ff" d="M569.88,-55.59C569.88,-49.01 569.88,-39.96 569.88,-31.73"/>
<polygon fill="#63b8ff" stroke="#63b8ff" points="573.38,-31.81 569.88,-21.81 566.38,-31.81 573.38,-31.81"/>
</a>
</g>
</g>
<!-- Node18&#45;&gt;Node16 -->
<g id="edge20_Node000018_Node000016" class="edge">
<title>Node18&#45;&gt;Node16</title>
<g id="a_edge20_Node000018_Node000016"><a xlink:title=" ">
<path fill="none" stroke="#63b8ff" d="M693.51,-111.62C690.95,-94.01 685.36,-55.59 681.88,-31.65"/>
<polygon fill="#63b8ff" stroke="#63b8ff" points="685.36,-31.24 680.45,-21.85 678.43,-32.25 685.36,-31.24"/>
</a>
</g>
</g>
<!-- Node19&#45;&gt;Node16 -->
<g id="edge22_Node000019_Node000016" class="edge">
<title>Node19&#45;&gt;Node16</title>
<g id="a_edge22_Node000019_Node000016"><a xlink:title=" ">
<path fill="none" stroke="#63b8ff" d="M1435.97,-223.96C1435.61,-209.86 1432.73,-182.71 1416.88,-168 1310.71,-69.49 837.36,-24.03 710.33,-13.46"/>
<polygon fill="#63b8ff" stroke="#63b8ff" points="710.91,-10 700.66,-12.67 710.34,-16.98 710.91,-10"/>
</a>
</g>
</g>
<!-- Node20 -->
<g id="Node000020" class="node">
<title>Node20</title>
<g id="a_Node000020"><a xlink:title=" ">
<polygon fill="#e0e0e0" stroke="#999999" points="1090.75,-188 1053,-188 1053,-168 1090.75,-168 1090.75,-188"/>
<text xml:space="preserve" text-anchor="middle" x="1071.88" y="-174.5" font-family="Helvetica,sans-Serif" font-size="10.00">array</text>
</a>
</g>
</g>
<!-- Node19&#45;&gt;Node20 -->
<g id="edge23_Node000019_Node000020" class="edge">
<title>Node19&#45;&gt;Node20</title>
<g id="a_edge23_Node000019_Node000020"><a xlink:title=" ">
<path fill="none" stroke="#63b8ff" d="M1387.37,-225.3C1384.5,-224.86 1381.65,-224.42 1378.88,-224 1277.63,-208.59 1157.44,-191.25 1102.29,-183.34"/>
<polygon fill="#63b8ff" stroke="#63b8ff" points="1102.82,-179.88 1092.43,-181.93 1101.83,-186.81 1102.82,-179.88"/>
</a>
</g>
</g>
<!-- Node21 -->
<g id="Node000021" class="node">
<title>Node21</title>
<g id="a_Node000021"><a xlink:title=" ">
<polygon fill="#e0e0e0" stroke="#999999" points="1407.62,-188 1354.12,-188 1354.12,-168 1407.62,-168 1407.62,-188"/>
<text xml:space="preserve" text-anchor="middle" x="1380.88" y="-174.5" font-family="Helvetica,sans-Serif" font-size="10.00">toml.hpp</text>
</a>
</g>
</g>
<!-- Node19&#45;&gt;Node21 -->
<g id="edge24_Node000019_Node000021" class="edge">
<title>Node19&#45;&gt;Node21</title>
<g id="a_edge24_Node000019_Node000021"><a xlink:title=" ">
<path fill="none" stroke="#63b8ff" d="M1426.29,-223.59C1418.64,-216.08 1407.72,-205.35 1398.5,-196.3"/>
<polygon fill="#63b8ff" stroke="#63b8ff" points="1401.01,-193.87 1391.43,-189.36 1396.11,-198.86 1401.01,-193.87"/>
</a>
</g>
</g>
<!-- Node25 -->
<g id="Node000025" class="node">
<title>Node25</title>
<g id="a_Node000025"><a xlink:title=" ">
<polygon fill="#e0e0e0" stroke="#999999" points="1214.88,-300 1042.88,-300 1042.88,-280 1214.88,-280 1214.88,-300"/>
<text xml:space="preserve" text-anchor="middle" x="1128.88" y="-286.5" font-family="Helvetica,sans-Serif" font-size="10.00">SFML/Graphics/RenderWindow.hpp</text>
</a>
</g>
</g>
<!-- Node24&#45;&gt;Node25 -->
<g id="edge29_Node000024_Node000025" class="edge">
<title>Node24&#45;&gt;Node25</title>
<g id="a_edge29_Node000024_Node000025"><a xlink:title=" ">
<path fill="none" stroke="#63b8ff" d="M870.53,-336.74C922.23,-327.59 1005.97,-312.76 1064.04,-302.48"/>
<polygon fill="#63b8ff" stroke="#63b8ff" points="1064.56,-305.94 1073.8,-300.75 1063.34,-299.05 1064.56,-305.94"/>
</a>
</g>
</g>
<!-- Node26 -->
<g id="Node000026" class="node">
<title>Node26</title>
<g id="a_Node000026"><a xlink:title=" ">
<polygon fill="#e0e0e0" stroke="#999999" points="1359,-300 1232.75,-300 1232.75,-280 1359,-280 1359,-300"/>
<text xml:space="preserve" text-anchor="middle" x="1295.88" y="-286.5" font-family="Helvetica,sans-Serif" font-size="10.00">SFML/System/Clock.hpp</text>
</a>
</g>
</g>
<!-- Node24&#45;&gt;Node26 -->
<g id="edge30_Node000024_Node000026" class="edge">
<title>Node24&#45;&gt;Node26</title>
<g id="a_edge30_Node000024_Node000026"><a xlink:title=" ">
<path fill="none" stroke="#63b8ff" d="M870.36,-337.2C873.24,-336.78 876.09,-336.37 878.88,-336 1028.1,-316.02 1068.82,-317.48 1221.12,-300.29"/>
<polygon fill="#63b8ff" stroke="#63b8ff" points="1221.24,-303.8 1230.78,-299.19 1220.44,-296.85 1221.24,-303.8"/>
</a>
</g>
</g>
<!-- Node27 -->
<g id="Node000027" class="node">
<title>Node27</title>
<g id="a_Node000027"><a xlink:href="config__parser_8hpp.html" target="_top" xlink:title=" ">
<polygon fill="white" stroke="#666666" points="1024.5,-300 931.25,-300 931.25,-280 1024.5,-280 1024.5,-300"/>
<text xml:space="preserve" text-anchor="middle" x="977.88" y="-286.5" font-family="Helvetica,sans-Serif" font-size="10.00">config_parser.hpp</text>
</a>
</g>
</g>
<!-- Node24&#45;&gt;Node27 -->
<g id="edge31_Node000024_Node000027" class="edge">
<title>Node24&#45;&gt;Node27</title>
<g id="a_edge31_Node000024_Node000027"><a xlink:title=" ">
<path fill="none" stroke="#63b8ff" d="M850.7,-335.59C875.5,-326.9 912.6,-313.89 940.34,-304.16"/>
<polygon fill="#63b8ff" stroke="#63b8ff" points="941.13,-307.59 949.41,-300.98 938.82,-300.99 941.13,-307.59"/>
</a>
</g>
</g>
<!-- Node28 -->
<g id="Node000028" class="node">
<title>Node28</title>
<g id="a_Node000028"><a xlink:href="asset__manager_8hpp.html" target="_top" xlink:title=" ">
<polygon fill="white" stroke="#666666" points="874.62,-300 773.12,-300 773.12,-280 874.62,-280 874.62,-300"/>
<text xml:space="preserve" text-anchor="middle" x="823.88" y="-286.5" font-family="Helvetica,sans-Serif" font-size="10.00">asset_manager.hpp</text>
</a>
</g>
</g>
<!-- Node24&#45;&gt;Node28 -->
<g id="edge33_Node000024_Node000028" class="edge">
<title>Node24&#45;&gt;Node28</title>
<g id="a_edge33_Node000024_Node000028"><a xlink:title=" ">
<path fill="none" stroke="#63b8ff" d="M823.88,-335.59C823.88,-329.01 823.88,-319.96 823.88,-311.73"/>
<polygon fill="#63b8ff" stroke="#63b8ff" points="827.38,-311.81 823.88,-301.81 820.38,-311.81 827.38,-311.81"/>
</a>
</g>
</g>
<!-- Node27&#45;&gt;Node19 -->
<g id="edge32_Node000027_Node000019" class="edge">
<title>Node27&#45;&gt;Node19</title>
<g id="a_edge32_Node000027_Node000019"><a xlink:title=" ">
<path fill="none" stroke="#63b8ff" d="M1024.9,-281.25C1027.94,-280.81 1030.95,-280.39 1033.88,-280 1183.12,-260.24 1224.11,-263.84 1376.24,-244.28"/>
<polygon fill="#63b8ff" stroke="#63b8ff" points="1376.42,-247.79 1385.89,-243.03 1375.52,-240.85 1376.42,-247.79"/>
</a>
</g>
</g>
<!-- Node28&#45;&gt;Node4 -->
<g id="edge34_Node000028_Node000004" class="edge">
<title>Node28&#45;&gt;Node4</title>
<g id="a_edge34_Node000028_Node000004"><a xlink:title=" ">
<path fill="none" stroke="#63b8ff" d="M818.07,-279.6C808.9,-265.51 789.73,-238.97 766.88,-224 740.33,-206.61 706.59,-195.53 678.77,-188.71"/>
<polygon fill="#63b8ff" stroke="#63b8ff" points="679.64,-185.32 669.11,-186.48 678.06,-192.14 679.64,-185.32"/>
</a>
</g>
</g>
<!-- Node28&#45;&gt;Node15 -->
<g id="edge40_Node000028_Node000015" class="edge">
<title>Node28&#45;&gt;Node15</title>
<g id="a_edge40_Node000028_Node000015"><a xlink:title=" ">
<path fill="none" stroke="#63b8ff" d="M821.19,-279.72C816.93,-266.25 807.58,-241.03 792.88,-224 744.94,-168.49 715.6,-174.57 655.88,-132 633.24,-115.87 607.93,-96.58 590.66,-83.23"/>
<polygon fill="#63b8ff" stroke="#63b8ff" points="593.2,-80.77 583.16,-77.4 588.91,-86.3 593.2,-80.77"/>
</a>
</g>
</g>
<!-- Node28&#45;&gt;Node22 -->
<g id="edge37_Node000028_Node000022" class="edge">
<title>Node28&#45;&gt;Node22</title>
<g id="a_edge37_Node000028_Node000022"><a xlink:title=" ">
<path fill="none" stroke="#63b8ff" d="M801.4,-279.59C781.09,-271.09 750.92,-258.46 727.87,-248.81"/>
<polygon fill="#63b8ff" stroke="#63b8ff" points="729.49,-245.7 718.92,-245.06 726.79,-252.15 729.49,-245.7"/>
</a>
</g>
</g>
<!-- Node29 -->
<g id="Node000029" class="node">
<title>Node29</title>
<g id="a_Node000029"><a xlink:title=" ">
<polygon fill="#e0e0e0" stroke="#999999" points="1049.38,-244 988.38,-244 988.38,-224 1049.38,-224 1049.38,-244"/>
<text xml:space="preserve" text-anchor="middle" x="1018.88" y="-230.5" font-family="Helvetica,sans-Serif" font-size="10.00">filesystem</text>
</a>
</g>
</g>
<!-- Node28&#45;&gt;Node29 -->
<g id="edge35_Node000028_Node000029" class="edge">
<title>Node28&#45;&gt;Node29</title>
<g id="a_edge35_Node000028_Node000029"><a xlink:title=" ">
<path fill="none" stroke="#63b8ff" d="M857.84,-279.59C891.02,-270.41 941.59,-256.4 977.19,-246.54"/>
<polygon fill="#63b8ff" stroke="#63b8ff" points="978.02,-249.94 986.73,-243.9 976.15,-243.2 978.02,-249.94"/>
</a>
</g>
</g>
<!-- Node30 -->
<g id="Node000030" class="node">
<title>Node30</title>
<g id="a_Node000030"><a xlink:title=" ">
<polygon fill="#e0e0e0" stroke="#999999" points="1206,-244 1067.75,-244 1067.75,-224 1206,-224 1206,-244"/>
<text xml:space="preserve" text-anchor="middle" x="1136.88" y="-230.5" font-family="Helvetica,sans-Serif" font-size="10.00">SFML/Graphics/Texture.hpp</text>
</a>
</g>
</g>
<!-- Node28&#45;&gt;Node30 -->
<g id="edge36_Node000028_Node000030" class="edge">
<title>Node28&#45;&gt;Node30</title>
<g id="a_edge36_Node000028_Node000030"><a xlink:title=" ">
<path fill="none" stroke="#63b8ff" d="M874.86,-280.2C928.21,-271 1012.18,-256.51 1070.63,-246.43"/>
<polygon fill="#63b8ff" stroke="#63b8ff" points="1071.21,-249.88 1080.47,-244.73 1070.02,-242.98 1071.21,-249.88"/>
</a>
</g>
</g>
<!-- Node31 -->
<g id="Node000031" class="node">
<title>Node31</title>
<g id="a_Node000031"><a xlink:title=" ">
<polygon fill="#e0e0e0" stroke="#999999" points="1369.38,-244 1224.38,-244 1224.38,-224 1369.38,-224 1369.38,-244"/>
<text xml:space="preserve" text-anchor="middle" x="1296.88" y="-230.5" font-family="Helvetica,sans-Serif" font-size="10.00">SFML/Audio/SoundBuffer.hpp</text>
</a>
</g>
</g>
<!-- Node28&#45;&gt;Node31 -->
<g id="edge38_Node000028_Node000031" class="edge">
<title>Node28&#45;&gt;Node31</title>
<g id="a_edge38_Node000028_Node000031"><a xlink:title=" ">
<path fill="none" stroke="#63b8ff" d="M874.95,-281.79C879.66,-281.17 884.35,-280.56 888.88,-280 896.83,-279.01 1095.32,-257.16 1212.46,-244.28"/>
<polygon fill="#63b8ff" stroke="#63b8ff" points="1212.82,-247.76 1222.38,-243.19 1212.06,-240.8 1212.82,-247.76"/>
</a>
</g>
</g>
<!-- Node32 -->
<g id="Node000032" class="node">
<title>Node32</title>
<g id="a_Node000032"><a xlink:title=" ">
<polygon fill="#e0e0e0" stroke="#999999" points="969.88,-244 851.88,-244 851.88,-224 969.88,-224 969.88,-244"/>
<text xml:space="preserve" text-anchor="middle" x="910.88" y="-230.5" font-family="Helvetica,sans-Serif" font-size="10.00">SFML/Audio/Music.hpp</text>
</a>
</g>
</g>
<!-- Node28&#45;&gt;Node32 -->
<g id="edge39_Node000028_Node000032" class="edge">
<title>Node28&#45;&gt;Node32</title>
<g id="a_edge39_Node000028_Node000032"><a xlink:title=" ">
<path fill="none" stroke="#63b8ff" d="M839.03,-279.59C851.92,-271.59 870.71,-259.93 885.83,-250.54"/>
<polygon fill="#63b8ff" stroke="#63b8ff" points="887.67,-253.53 894.32,-245.28 883.97,-247.58 887.67,-253.53"/>
</a>
</g>
</g>
<!-- Node33&#45;&gt;Node3 -->
<g id="edge42_Node000033_Node000003" class="edge">
<title>Node33&#45;&gt;Node3</title>
<g id="a_edge42_Node000033_Node000003"><a xlink:title=" ">
<path fill="none" stroke="#63b8ff" d="M489.82,-335.59C486.08,-328.63 480.85,-318.89 476.23,-310.29"/>
<polygon fill="#63b8ff" stroke="#63b8ff" points="479.4,-308.79 471.58,-301.63 473.23,-312.1 479.4,-308.79"/>
</a>
</g>
</g>
<!-- Node33&#45;&gt;Node14 -->
<g id="edge48_Node000033_Node000014" class="edge">
<title>Node33&#45;&gt;Node14</title>
<g id="a_edge48_Node000033_Node000014"><a xlink:title=" ">
<path fill="none" stroke="#63b8ff" d="M449.68,-344.31C329.28,-341.25 9.88,-324.69 9.88,-235 9.88,-235 9.88,-235 9.88,-177 9.88,-146.77 7.91,-132.76 29.88,-112 46.03,-96.73 96.77,-84.94 140.58,-77.27"/>
<polygon fill="#63b8ff" stroke="#63b8ff" points="141.07,-80.73 150.35,-75.61 139.9,-73.83 141.07,-80.73"/>
</a>
</g>
</g>
<!-- Node33&#45;&gt;Node22 -->
<g id="edge49_Node000033_Node000022" class="edge">
<title>Node33&#45;&gt;Node22</title>
<g id="a_edge49_Node000033_Node000022"><a xlink:title=" ">
<path fill="none" stroke="#63b8ff" d="M499.5,-335.53C506.9,-321.34 522.75,-294.68 543.88,-280 566.58,-264.23 594.89,-253.89 620.84,-247.16"/>
<polygon fill="#63b8ff" stroke="#63b8ff" points="621.44,-250.62 630.33,-244.85 619.78,-243.82 621.44,-250.62"/>
</a>
</g>
</g>
<!-- Node33&#45;&gt;Node23 -->
<g id="edge50_Node000033_Node000023" class="edge">
<title>Node33&#45;&gt;Node23</title>
<g id="a_edge50_Node000033_Node000023"><a xlink:title=" ">
<path fill="none" stroke="#63b8ff" d="M515.78,-335.59C534.5,-327.17 562.23,-314.69 583.6,-305.07"/>
<polygon fill="#63b8ff" stroke="#63b8ff" points="584.75,-308.4 592.43,-301.1 581.87,-302.01 584.75,-308.4"/>
</a>
</g>
</g>
<!-- Node34 -->
<g id="Node000034" class="node">
<title>Node34</title>
<g id="a_Node000034"><a xlink:href="misc_8hpp.html" target="_top" xlink:title=" ">
<polygon fill="white" stroke="#666666" points="375.75,-244 320,-244 320,-224 375.75,-224 375.75,-244"/>
<text xml:space="preserve" text-anchor="middle" x="347.88" y="-230.5" font-family="Helvetica,sans-Serif" font-size="10.00">misc.hpp</text>
</a>
</g>
</g>
<!-- Node33&#45;&gt;Node34 -->
<g id="edge43_Node000033_Node000034" class="edge">
<title>Node33&#45;&gt;Node34</title>
<g id="a_edge43_Node000033_Node000034"><a xlink:title=" ">
<path fill="none" stroke="#63b8ff" d="M479.71,-335.6C465.73,-326.79 444.52,-313.04 426.88,-300 405.62,-284.29 382.39,-264.88 366.65,-251.38"/>
<polygon fill="#63b8ff" stroke="#63b8ff" points="369.33,-249.07 359.47,-245.18 364.75,-254.37 369.33,-249.07"/>
</a>
</g>
</g>
<!-- Node34&#45;&gt;Node13 -->
<g id="edge46_Node000034_Node000013" class="edge">
<title>Node34&#45;&gt;Node13</title>
<g id="a_edge46_Node000034_Node000013"><a xlink:title=" ">
<path fill="none" stroke="#63b8ff" d="M352.04,-223.77C357.58,-209.89 365.25,-183.64 351.88,-168 284.92,-89.7 212.9,-182.1 122.88,-132 103.42,-121.17 87.59,-100.82 77.78,-85.77"/>
<polygon fill="#63b8ff" stroke="#63b8ff" points="81.01,-84.33 72.78,-77.66 75.05,-88.01 81.01,-84.33"/>
</a>
</g>
</g>
<!-- Node34&#45;&gt;Node16 -->
<g id="edge47_Node000034_Node000016" class="edge">
<title>Node34&#45;&gt;Node16</title>
<g id="a_edge47_Node000034_Node000016"><a xlink:title=" ">
<path fill="none" stroke="#63b8ff" d="M376.15,-226.1C379.1,-225.39 382.05,-224.68 384.88,-224 452.81,-207.74 478.86,-225.38 537.88,-188 602.24,-147.23 650.01,-66.65 669.38,-29.98"/>
<polygon fill="#63b8ff" stroke="#63b8ff" points="672.31,-31.93 673.78,-21.44 666.09,-28.73 672.31,-31.93"/>
</a>
</g>
</g>
<!-- Node34&#45;&gt;Node20 -->
<g id="edge44_Node000034_Node000020" class="edge">
<title>Node34&#45;&gt;Node20</title>
<g id="a_edge44_Node000034_Node000020"><a xlink:title=" ">
<path fill="none" stroke="#63b8ff" d="M376.06,-225.61C379.02,-225 382,-224.44 384.88,-224 636.41,-185.47 944.7,-179.9 1041.4,-179.12"/>
<polygon fill="#63b8ff" stroke="#63b8ff" points="1041.13,-182.62 1051.11,-179.05 1041.08,-175.62 1041.13,-182.62"/>
</a>
</g>
</g>
<!-- Node35 -->
<g id="Node000035" class="node">
<title>Node35</title>
<g id="a_Node000035"><a xlink:title=" ">
<polygon fill="#e0e0e0" stroke="#999999" points="528.5,-188 399.25,-188 399.25,-168 528.5,-168 528.5,-188"/>
<text xml:space="preserve" text-anchor="middle" x="463.88" y="-174.5" font-family="Helvetica,sans-Serif" font-size="10.00">SFML/Graphics/Color.hpp</text>
</a>
</g>
</g>
<!-- Node34&#45;&gt;Node35 -->
<g id="edge45_Node000034_Node000035" class="edge">
<title>Node34&#45;&gt;Node35</title>
<g id="a_edge45_Node000034_Node000035"><a xlink:title=" ">
<path fill="none" stroke="#63b8ff" d="M368.08,-223.59C386.1,-215.21 412.74,-202.8 433.36,-193.21"/>
<polygon fill="#63b8ff" stroke="#63b8ff" points="434.55,-196.51 442.14,-189.12 431.6,-190.17 434.55,-196.51"/>
</a>
</g>
</g>
<!-- Node36&#45;&gt;Node5 -->
<g id="edge52_Node000036_Node000005" class="edge">
<title>Node36&#45;&gt;Node5</title>
<g id="a_edge52_Node000036_Node000005"><a xlink:title=" ">
<path fill="none" stroke="#63b8ff" d="M91.21,-223.59C108.29,-215.28 133.48,-203.03 153.13,-193.47"/>
<polygon fill="#63b8ff" stroke="#63b8ff" points="154.57,-196.66 162.03,-189.14 151.5,-190.37 154.57,-196.66"/>
</a>
</g>
</g>
<!-- Node36&#45;&gt;Node10 -->
<g id="edge54_Node000036_Node000010" class="edge">
<title>Node36&#45;&gt;Node10</title>
<g id="a_edge54_Node000036_Node000010"><a xlink:title=" ">
<path fill="none" stroke="#63b8ff" d="M71.88,-223.59C71.88,-217.01 71.88,-207.96 71.88,-199.73"/>
<polygon fill="#63b8ff" stroke="#63b8ff" points="75.38,-199.81 71.88,-189.81 68.38,-199.81 75.38,-199.81"/>
</a>
</g>
</g>
<!-- Node36&#45;&gt;Node13 -->
<g id="edge53_Node000036_Node000013" class="edge">
<title>Node36&#45;&gt;Node13</title>
<g id="a_edge53_Node000036_Node000013"><a xlink:title=" ">
<path fill="none" stroke="#63b8ff" d="M60.7,-223.55C51.71,-215.22 39.65,-202.21 33.88,-188 24.47,-164.89 30.76,-156.94 29.88,-132 29.56,-123.12 26.88,-120.37 29.88,-112 33.55,-101.73 40.7,-92.13 47.73,-84.46"/>
<polygon fill="#63b8ff" stroke="#63b8ff" points="50.1,-87.04 54.66,-77.48 45.13,-82.11 50.1,-87.04"/>
</a>
</g>
</g>
</g>
</svg>
