<?xml version="1.0" encoding="UTF-8" standalone="no"?>
<!DOCTYPE svg PUBLIC "-//W3C//DTD SVG 1.1//EN"
 "http://www.w3.org/Graphics/SVG/1.1/DTD/svg11.dtd">
<!-- Generated by graphviz version 13.1.2 (20250808.2320)
 -->
<!-- Title: src/scene_menu.cpp Pages: 1 -->
<svg width="1709pt" height="420pt"
 viewBox="0.00 0.00 1709.00 420.00" xmlns="http://www.w3.org/2000/svg" xmlns:xlink="http://www.w3.org/1999/xlink">
<g id="graph0" class="graph" transform="scale(1 1) rotate(0) translate(4 416)">
<title>src/scene_menu.cpp</title>
<!-- Node1 -->
<g id="Node000001" class="node">
<title>Node1</title>
<g id="a_Node000001"><a xlink:title=" ">
<polygon fill="#999999" stroke="#666666" points="955.38,-412 848.62,-412 848.62,-392 955.38,-392 955.38,-412"/>
<text xml:space="preserve" text-anchor="middle" x="902" y="-398.5" font-family="Helvetica,sans-Serif" font-size="10.00">src/scene_menu.cpp</text>
</a>
</g>
</g>
<!-- Node2 -->
<g id="Node000002" class="node">
<title>Node2</title>
<g id="a_Node000002"><a xlink:href="scene__menu_8hpp.html" target="_top" xlink:title=" ">
<polygon fill="white" stroke="#666666" points="644.12,-356 553.88,-356 553.88,-336 644.12,-336 644.12,-356"/>
<text xml:space="preserve" text-anchor="middle" x="599" y="-342.5" font-family="Helvetica,sans-Serif" font-size="10.00">scene_menu.hpp</text>
</a>
</g>
</g>
<!-- Node1&#45;&gt;Node2 -->
<g id="edge1_Node000001_Node000002" class="edge">
<title>Node1&#45;&gt;Node2</title>
<g id="a_edge1_Node000001_Node000002"><a xlink:title=" ">
<path fill="none" stroke="#63b8ff" d="M848.87,-391.53C794.57,-381.85 710.56,-366.88 655.17,-357.01"/>
<polygon fill="#63b8ff" stroke="#63b8ff" points="656.1,-353.62 645.64,-355.31 654.87,-360.51 656.1,-353.62"/>
</a>
</g>
</g>
<!-- Node14 -->
<g id="Node000014" class="node">
<title>Node14</title>
<g id="a_Node000014"><a xlink:title=" ">
<polygon fill="#e0e0e0" stroke="#999999" points="253.75,-76 134.25,-76 134.25,-56 253.75,-56 253.75,-76"/>
<text xml:space="preserve" text-anchor="middle" x="194" y="-62.5" font-family="Helvetica,sans-Serif" font-size="10.00">SFML/Audio/Sound.hpp</text>
</a>
</g>
</g>
<!-- Node1&#45;&gt;Node14 -->
<g id="edge52_Node000001_Node000014" class="edge">
<title>Node1&#45;&gt;Node14</title>
<g id="a_edge52_Node000001_Node000014"><a xlink:title=" ">
<path fill="none" stroke="#63b8ff" d="M848.28,-400.13C654.09,-396.29 0,-376.98 0,-291 0,-291 0,-291 0,-177 0,-118.59 67.37,-90.82 122.71,-77.87"/>
<polygon fill="#63b8ff" stroke="#63b8ff" points="123.45,-81.29 132.47,-75.72 121.95,-74.45 123.45,-81.29"/>
</a>
</g>
</g>
<!-- Node25 -->
<g id="Node000025" class="node">
<title>Node25</title>
<g id="a_Node000025"><a xlink:href="game__engine_8hpp.html" target="_top" xlink:title=" ">
<polygon fill="white" stroke="#666666" points="1005.25,-356 912.75,-356 912.75,-336 1005.25,-336 1005.25,-356"/>
<text xml:space="preserve" text-anchor="middle" x="959" y="-342.5" font-family="Helvetica,sans-Serif" font-size="10.00">game_engine.hpp</text>
</a>
</g>
</g>
<!-- Node1&#45;&gt;Node25 -->
<g id="edge30_Node000001_Node000025" class="edge">
<title>Node1&#45;&gt;Node25</title>
<g id="a_edge30_Node000001_Node000025"><a xlink:title=" ">
<path fill="none" stroke="#63b8ff" d="M911.93,-391.59C919.94,-384.01 931.42,-373.13 941.03,-364.02"/>
<polygon fill="#63b8ff" stroke="#63b8ff" points="943.23,-366.76 948.09,-357.34 938.42,-361.68 943.23,-366.76"/>
</a>
</g>
</g>
<!-- Node36 -->
<g id="Node000036" class="node">
<title>Node36</title>
<g id="a_Node000036"><a xlink:href="scene__play_8hpp.html" target="_top" xlink:title=" ">
<polygon fill="white" stroke="#666666" points="868.75,-356 785.25,-356 785.25,-336 868.75,-336 868.75,-356"/>
<text xml:space="preserve" text-anchor="middle" x="827" y="-342.5" font-family="Helvetica,sans-Serif" font-size="10.00">scene_play.hpp</text>
</a>
</g>
</g>
<!-- Node1&#45;&gt;Node36 -->
<g id="edge46_Node000001_Node000036" class="edge">
<title>Node1&#45;&gt;Node36</title>
<g id="a_edge46_Node000001_Node000036"><a xlink:title=" ">
<path fill="none" stroke="#63b8ff" d="M888.94,-391.59C878.03,-383.74 862.25,-372.38 849.34,-363.09"/>
<polygon fill="#63b8ff" stroke="#63b8ff" points="851.55,-360.37 841.39,-357.36 847.46,-366.05 851.55,-360.37"/>
</a>
</g>
</g>
<!-- Node37 -->
<g id="Node000037" class="node">
<title>Node37</title>
<g id="a_Node000037"><a xlink:title=" ">
<polygon fill="#e0e0e0" stroke="#999999" points="1070.75,-356 1023.25,-356 1023.25,-336 1070.75,-336 1070.75,-356"/>
<text xml:space="preserve" text-anchor="middle" x="1047" y="-342.5" font-family="Helvetica,sans-Serif" font-size="10.00">imgui.h</text>
</a>
</g>
</g>
<!-- Node1&#45;&gt;Node37 -->
<g id="edge53_Node000001_Node000037" class="edge">
<title>Node1&#45;&gt;Node37</title>
<g id="a_edge53_Node000001_Node000037"><a xlink:title=" ">
<path fill="none" stroke="#63b8ff" d="M927.26,-391.59C950.83,-382.82 986.2,-369.64 1012.39,-359.89"/>
<polygon fill="#63b8ff" stroke="#63b8ff" points="1013.43,-363.24 1021.58,-356.47 1010.98,-356.68 1013.43,-363.24"/>
</a>
</g>
</g>
<!-- Node38 -->
<g id="Node000038" class="node">
<title>Node38</title>
<g id="a_Node000038"><a xlink:title=" ">
<polygon fill="#e0e0e0" stroke="#999999" points="1165.38,-356 1088.62,-356 1088.62,-336 1165.38,-336 1165.38,-356"/>
<text xml:space="preserve" text-anchor="middle" x="1127" y="-342.5" font-family="Helvetica,sans-Serif" font-size="10.00">imgui&#45;SFML.h</text>
</a>
</g>
</g>
<!-- Node1&#45;&gt;Node38 -->
<g id="edge54_Node000001_Node000038" class="edge">
<title>Node1&#45;&gt;Node38</title>
<g id="a_edge54_Node000001_Node000038"><a xlink:title=" ">
<path fill="none" stroke="#63b8ff" d="M941.45,-391.53C979.24,-382.46 1036.39,-368.75 1077.28,-358.93"/>
<polygon fill="#63b8ff" stroke="#63b8ff" points="1077.97,-362.37 1086.88,-356.63 1076.34,-355.56 1077.97,-362.37"/>
</a>
</g>
</g>
<!-- Node3 -->
<g id="Node000003" class="node">
<title>Node3</title>
<g id="a_Node000003"><a xlink:href="scene_8hpp.html" target="_top" xlink:title=" ">
<polygon fill="white" stroke="#666666" points="599.5,-300 538.5,-300 538.5,-280 599.5,-280 599.5,-300"/>
<text xml:space="preserve" text-anchor="middle" x="569" y="-286.5" font-family="Helvetica,sans-Serif" font-size="10.00">scene.hpp</text>
</a>
</g>
</g>
<!-- Node2&#45;&gt;Node3 -->
<g id="edge2_Node000002_Node000003" class="edge">
<title>Node2&#45;&gt;Node3</title>
<g id="a_edge2_Node000002_Node000003"><a xlink:title=" ">
<path fill="none" stroke="#63b8ff" d="M593.77,-335.59C589.9,-328.63 584.49,-318.89 579.72,-310.29"/>
<polygon fill="#63b8ff" stroke="#63b8ff" points="582.82,-308.66 574.9,-301.62 576.7,-312.06 582.82,-308.66"/>
</a>
</g>
</g>
<!-- Node2&#45;&gt;Node14 -->
<g id="edge27_Node000002_Node000014" class="edge">
<title>Node2&#45;&gt;Node14</title>
<g id="a_edge27_Node000002_Node000014"><a xlink:title=" ">
<path fill="none" stroke="#63b8ff" d="M553.57,-345.7C420.01,-346.55 38,-339.83 38,-235 38,-235 38,-235 38,-177 38,-124.5 97.75,-94.85 143.3,-79.87"/>
<polygon fill="#63b8ff" stroke="#63b8ff" points="144.28,-83.23 152.79,-76.92 142.2,-76.55 144.28,-83.23"/>
</a>
</g>
</g>
<!-- Node19 -->
<g id="Node000019" class="node">
<title>Node19</title>
<g id="a_Node000019"><a xlink:href="misc_8hpp.html" target="_top" xlink:title=" ">
<polygon fill="white" stroke="#666666" points="322.88,-244 267.12,-244 267.12,-224 322.88,-224 322.88,-244"/>
<text xml:space="preserve" text-anchor="middle" x="295" y="-230.5" font-family="Helvetica,sans-Serif" font-size="10.00">misc.hpp</text>
</a>
</g>
</g>
<!-- Node2&#45;&gt;Node19 -->
<g id="edge21_Node000002_Node000019" class="edge">
<title>Node2&#45;&gt;Node19</title>
<g id="a_edge21_Node000002_Node000019"><a xlink:title=" ">
<path fill="none" stroke="#63b8ff" d="M572.82,-335.53C518.61,-315.91 393.96,-270.81 331.73,-248.29"/>
<polygon fill="#63b8ff" stroke="#63b8ff" points="333.24,-245.12 322.65,-245 330.86,-251.7 333.24,-245.12"/>
</a>
</g>
</g>
<!-- Node23 -->
<g id="Node000023" class="node">
<title>Node23</title>
<g id="a_Node000023"><a xlink:title=" ">
<polygon fill="#e0e0e0" stroke="#999999" points="999.75,-244 874.25,-244 874.25,-224 999.75,-224 999.75,-244"/>
<text xml:space="preserve" text-anchor="middle" x="937" y="-230.5" font-family="Helvetica,sans-Serif" font-size="10.00">SFML/Graphics/Font.hpp</text>
</a>
</g>
</g>
<!-- Node2&#45;&gt;Node23 -->
<g id="edge28_Node000002_Node000023" class="edge">
<title>Node2&#45;&gt;Node23</title>
<g id="a_edge28_Node000002_Node000023"><a xlink:title=" ">
<path fill="none" stroke="#63b8ff" d="M603.01,-335.64C609.78,-321.1 624.92,-293.37 647,-280 656.21,-274.42 779.71,-256.59 862.55,-245.12"/>
<polygon fill="#63b8ff" stroke="#63b8ff" points="863.02,-248.59 872.45,-243.75 862.07,-241.65 863.02,-248.59"/>
</a>
</g>
</g>
<!-- Node24 -->
<g id="Node000024" class="node">
<title>Node24</title>
<g id="a_Node000024"><a xlink:title=" ">
<polygon fill="#e0e0e0" stroke="#999999" points="780.38,-300 655.62,-300 655.62,-280 780.38,-280 780.38,-300"/>
<text xml:space="preserve" text-anchor="middle" x="718" y="-286.5" font-family="Helvetica,sans-Serif" font-size="10.00">SFML/Graphics/Text.hpp</text>
</a>
</g>
</g>
<!-- Node2&#45;&gt;Node24 -->
<g id="edge29_Node000002_Node000024" class="edge">
<title>Node2&#45;&gt;Node24</title>
<g id="a_edge29_Node000002_Node000024"><a xlink:title=" ">
<path fill="none" stroke="#63b8ff" d="M619.73,-335.59C638.21,-327.21 665.54,-314.8 686.69,-305.21"/>
<polygon fill="#63b8ff" stroke="#63b8ff" points="688.07,-308.42 695.73,-301.1 685.18,-302.05 688.07,-308.42"/>
</a>
</g>
</g>
<!-- Node4 -->
<g id="Node000004" class="node">
<title>Node4</title>
<g id="a_Node000004"><a xlink:title=" ">
<polygon fill="#e0e0e0" stroke="#999999" points="780.38,-188 697.62,-188 697.62,-168 780.38,-168 780.38,-188"/>
<text xml:space="preserve" text-anchor="middle" x="739" y="-174.5" font-family="Helvetica,sans-Serif" font-size="10.00">unordered_map</text>
</a>
</g>
</g>
<!-- Node3&#45;&gt;Node4 -->
<g id="edge3_Node000003_Node000004" class="edge">
<title>Node3&#45;&gt;Node4</title>
<g id="a_edge3_Node000003_Node000004"><a xlink:title=" ">
<path fill="none" stroke="#63b8ff" d="M588.24,-279.57C605.35,-270.95 630.88,-257.52 652,-244 675.85,-228.74 701.66,-209.01 718.92,-195.31"/>
<polygon fill="#63b8ff" stroke="#63b8ff" points="720.77,-198.32 726.38,-189.33 716.39,-192.85 720.77,-198.32"/>
</a>
</g>
</g>
<!-- Node5 -->
<g id="Node000005" class="node">
<title>Node5</title>
<g id="a_Node000005"><a xlink:title=" ">
<polygon fill="#e0e0e0" stroke="#999999" points="412.62,-188 361.38,-188 361.38,-168 412.62,-168 412.62,-188"/>
<text xml:space="preserve" text-anchor="middle" x="387" y="-174.5" font-family="Helvetica,sans-Serif" font-size="10.00">memory</text>
</a>
</g>
</g>
<!-- Node3&#45;&gt;Node5 -->
<g id="edge4_Node000003_Node000005" class="edge">
<title>Node3&#45;&gt;Node5</title>
<g id="a_edge4_Node000003_Node000005"><a xlink:title=" ">
<path fill="none" stroke="#63b8ff" d="M560.06,-279.54C546.72,-265.86 520.34,-240.37 494,-224 471.85,-210.23 444.74,-198.88 423.35,-191.02"/>
<polygon fill="#63b8ff" stroke="#63b8ff" points="424.77,-187.81 414.17,-187.75 422.42,-194.41 424.77,-187.81"/>
</a>
</g>
</g>
<!-- Node6 -->
<g id="Node000006" class="node">
<title>Node6</title>
<g id="a_Node000006"><a xlink:title=" ">
<polygon fill="#e0e0e0" stroke="#999999" points="484.75,-244 341.25,-244 341.25,-224 484.75,-224 484.75,-244"/>
<text xml:space="preserve" text-anchor="middle" x="413" y="-230.5" font-family="Helvetica,sans-Serif" font-size="10.00">SFML/Window/Keyboard.hpp</text>
</a>
</g>
</g>
<!-- Node3&#45;&gt;Node6 -->
<g id="edge5_Node000003_Node000006" class="edge">
<title>Node3&#45;&gt;Node6</title>
<g id="a_edge5_Node000003_Node000006"><a xlink:title=" ">
<path fill="none" stroke="#63b8ff" d="M541.83,-279.59C516.7,-270.9 479.12,-257.89 451.02,-248.16"/>
<polygon fill="#63b8ff" stroke="#63b8ff" points="452.41,-244.94 441.82,-244.97 450.12,-251.55 452.41,-244.94"/>
</a>
</g>
</g>
<!-- Node7 -->
<g id="Node000007" class="node">
<title>Node7</title>
<g id="a_Node000007"><a xlink:href="entity__manager_8hpp.html" target="_top" xlink:title=" ">
<polygon fill="white" stroke="#666666" points="642.75,-244 541.25,-244 541.25,-224 642.75,-224 642.75,-244"/>
<text xml:space="preserve" text-anchor="middle" x="592" y="-230.5" font-family="Helvetica,sans-Serif" font-size="10.00">entity_manager.hpp</text>
</a>
</g>
</g>
<!-- Node3&#45;&gt;Node7 -->
<g id="edge6_Node000003_Node000007" class="edge">
<title>Node3&#45;&gt;Node7</title>
<g id="a_edge6_Node000003_Node000007"><a xlink:title=" ">
<path fill="none" stroke="#63b8ff" d="M573.01,-279.59C575.91,-272.78 579.94,-263.32 583.54,-254.86"/>
<polygon fill="#63b8ff" stroke="#63b8ff" points="586.75,-256.26 587.45,-245.69 580.31,-253.52 586.75,-256.26"/>
</a>
</g>
</g>
<!-- Node18 -->
<g id="Node000018" class="node">
<title>Node18</title>
<g id="a_Node000018"><a xlink:href="action_8hpp.html" target="_top" xlink:title=" ">
<polygon fill="white" stroke="#666666" points="938.5,-132 877.5,-132 877.5,-112 938.5,-112 938.5,-132"/>
<text xml:space="preserve" text-anchor="middle" x="908" y="-118.5" font-family="Helvetica,sans-Serif" font-size="10.00">action.hpp</text>
</a>
</g>
</g>
<!-- Node3&#45;&gt;Node18 -->
<g id="edge19_Node000003_Node000018" class="edge">
<title>Node3&#45;&gt;Node18</title>
<g id="a_edge19_Node000003_Node000018"><a xlink:title=" ">
<path fill="none" stroke="#63b8ff" d="M593.96,-279.62C616.63,-270.92 650.89,-257.35 680,-244 754.95,-209.64 839.93,-162.17 881.82,-138.18"/>
<polygon fill="#63b8ff" stroke="#63b8ff" points="883.5,-141.25 890.43,-133.23 880.01,-135.18 883.5,-141.25"/>
</a>
</g>
</g>
<!-- Node7&#45;&gt;Node4 -->
<g id="edge8_Node000007_Node000004" class="edge">
<title>Node7&#45;&gt;Node4</title>
<g id="a_edge8_Node000007_Node000004"><a xlink:title=" ">
<path fill="none" stroke="#63b8ff" d="M617.61,-223.59C641.07,-214.97 676.07,-202.12 702.47,-192.42"/>
<polygon fill="#63b8ff" stroke="#63b8ff" points="703.59,-195.73 711.77,-189 701.18,-189.16 703.59,-195.73"/>
</a>
</g>
</g>
<!-- Node7&#45;&gt;Node5 -->
<g id="edge9_Node000007_Node000005" class="edge">
<title>Node7&#45;&gt;Node5</title>
<g id="a_edge9_Node000007_Node000005"><a xlink:title=" ">
<path fill="none" stroke="#63b8ff" d="M556.29,-223.59C519.18,-213.82 461.37,-198.59 423.84,-188.7"/>
<polygon fill="#63b8ff" stroke="#63b8ff" points="424.92,-185.37 414.36,-186.21 423.13,-192.14 424.92,-185.37"/>
</a>
</g>
</g>
<!-- Node8 -->
<g id="Node000008" class="node">
<title>Node8</title>
<g id="a_Node000008"><a xlink:title=" ">
<polygon fill="#e0e0e0" stroke="#999999" points="603.5,-188 560.5,-188 560.5,-168 603.5,-168 603.5,-188"/>
<text xml:space="preserve" text-anchor="middle" x="582" y="-174.5" font-family="Helvetica,sans-Serif" font-size="10.00">vector</text>
</a>
</g>
</g>
<!-- Node7&#45;&gt;Node8 -->
<g id="edge7_Node000007_Node000008" class="edge">
<title>Node7&#45;&gt;Node8</title>
<g id="a_edge7_Node000007_Node000008"><a xlink:title=" ">
<path fill="none" stroke="#63b8ff" d="M590.26,-223.59C589.02,-216.93 587.32,-207.75 585.79,-199.44"/>
<polygon fill="#63b8ff" stroke="#63b8ff" points="589.26,-198.98 584,-189.79 582.38,-200.26 589.26,-198.98"/>
</a>
</g>
</g>
<!-- Node9 -->
<g id="Node000009" class="node">
<title>Node9</title>
<g id="a_Node000009"><a xlink:title=" ">
<polygon fill="#e0e0e0" stroke="#999999" points="486.88,-188 431.12,-188 431.12,-168 486.88,-168 486.88,-188"/>
<text xml:space="preserve" text-anchor="middle" x="459" y="-174.5" font-family="Helvetica,sans-Serif" font-size="10.00">algorithm</text>
</a>
</g>
</g>
<!-- Node7&#45;&gt;Node9 -->
<g id="edge10_Node000007_Node000009" class="edge">
<title>Node7&#45;&gt;Node9</title>
<g id="a_edge10_Node000007_Node000009"><a xlink:title=" ">
<path fill="none" stroke="#63b8ff" d="M568.83,-223.59C547.79,-215.05 516.5,-202.35 492.7,-192.68"/>
<polygon fill="#63b8ff" stroke="#63b8ff" points="494.33,-189.57 483.75,-189.05 491.7,-196.05 494.33,-189.57"/>
</a>
</g>
</g>
<!-- Node10 -->
<g id="Node000010" class="node">
<title>Node10</title>
<g id="a_Node000010"><a xlink:href="entity_8hpp.html" target="_top" xlink:title=" ">
<polygon fill="white" stroke="#666666" points="680,-188 622,-188 622,-168 680,-168 680,-188"/>
<text xml:space="preserve" text-anchor="middle" x="651" y="-174.5" font-family="Helvetica,sans-Serif" font-size="10.00">entity.hpp</text>
</a>
</g>
</g>
<!-- Node7&#45;&gt;Node10 -->
<g id="edge11_Node000007_Node000010" class="edge">
<title>Node7&#45;&gt;Node10</title>
<g id="a_edge11_Node000007_Node000010"><a xlink:title=" ">
<path fill="none" stroke="#63b8ff" d="M602.28,-223.59C610.57,-216.01 622.45,-205.13 632.4,-196.02"/>
<polygon fill="#63b8ff" stroke="#63b8ff" points="634.71,-198.65 639.72,-189.32 629.98,-193.49 634.71,-198.65"/>
</a>
</g>
</g>
<!-- Node11 -->
<g id="Node000011" class="node">
<title>Node11</title>
<g id="a_Node000011"><a xlink:title=" ">
<polygon fill="#e0e0e0" stroke="#999999" points="669.5,-132 632.5,-132 632.5,-112 669.5,-112 669.5,-132"/>
<text xml:space="preserve" text-anchor="middle" x="651" y="-118.5" font-family="Helvetica,sans-Serif" font-size="10.00">tuple</text>
</a>
</g>
</g>
<!-- Node10&#45;&gt;Node11 -->
<g id="edge12_Node000010_Node000011" class="edge">
<title>Node10&#45;&gt;Node11</title>
<g id="a_edge12_Node000010_Node000011"><a xlink:title=" ">
<path fill="none" stroke="#63b8ff" d="M651,-167.59C651,-161.01 651,-151.96 651,-143.73"/>
<polygon fill="#63b8ff" stroke="#63b8ff" points="654.5,-143.81 651,-133.81 647.5,-143.81 654.5,-143.81"/>
</a>
</g>
</g>
<!-- Node12 -->
<g id="Node000012" class="node">
<title>Node12</title>
<g id="a_Node000012"><a xlink:href="components_8hpp.html" target="_top" xlink:title=" ">
<polygon fill="white" stroke="#666666" points="859,-132 771,-132 771,-112 859,-112 859,-132"/>
<text xml:space="preserve" text-anchor="middle" x="815" y="-118.5" font-family="Helvetica,sans-Serif" font-size="10.00">components.hpp</text>
</a>
</g>
</g>
<!-- Node10&#45;&gt;Node12 -->
<g id="edge13_Node000010_Node000012" class="edge">
<title>Node10&#45;&gt;Node12</title>
<g id="a_edge13_Node000010_Node000012"><a xlink:title=" ">
<path fill="none" stroke="#63b8ff" d="M679.57,-167.59C706.1,-158.86 745.84,-145.77 775.42,-136.03"/>
<polygon fill="#63b8ff" stroke="#63b8ff" points="776.37,-139.4 784.77,-132.95 774.18,-132.76 776.37,-139.4"/>
</a>
</g>
</g>
<!-- Node13 -->
<g id="Node000013" class="node">
<title>Node13</title>
<g id="a_Node000013"><a xlink:title=" ">
<polygon fill="#e0e0e0" stroke="#999999" points="737.88,-76 604.12,-76 604.12,-56 737.88,-56 737.88,-76"/>
<text xml:space="preserve" text-anchor="middle" x="671" y="-62.5" font-family="Helvetica,sans-Serif" font-size="10.00">SFML/System/Vector2.hpp</text>
</a>
</g>
</g>
<!-- Node12&#45;&gt;Node13 -->
<g id="edge14_Node000012_Node000013" class="edge">
<title>Node12&#45;&gt;Node13</title>
<g id="a_edge14_Node000012_Node000013"><a xlink:title=" ">
<path fill="none" stroke="#63b8ff" d="M789.92,-111.59C766.93,-102.97 732.65,-90.12 706.79,-80.42"/>
<polygon fill="#63b8ff" stroke="#63b8ff" points="708.29,-77.25 697.7,-77.01 705.83,-83.8 708.29,-77.25"/>
</a>
</g>
</g>
<!-- Node12&#45;&gt;Node14 -->
<g id="edge15_Node000012_Node000014" class="edge">
<title>Node12&#45;&gt;Node14</title>
<g id="a_edge15_Node000012_Node000014"><a xlink:title=" ">
<path fill="none" stroke="#63b8ff" d="M770.71,-113.78C766.09,-113.13 761.45,-112.52 757,-112 580.82,-91.32 372.49,-77.39 265.43,-71.01"/>
<polygon fill="#63b8ff" stroke="#63b8ff" points="265.84,-67.52 255.65,-70.43 265.42,-74.51 265.84,-67.52"/>
</a>
</g>
</g>
<!-- Node15 -->
<g id="Node000015" class="node">
<title>Node15</title>
<g id="a_Node000015"><a xlink:href="animation_8hpp.html" target="_top" xlink:title=" ">
<polygon fill="white" stroke="#666666" points="1071.38,-76 994.62,-76 994.62,-56 1071.38,-56 1071.38,-76"/>
<text xml:space="preserve" text-anchor="middle" x="1033" y="-62.5" font-family="Helvetica,sans-Serif" font-size="10.00">animation.hpp</text>
</a>
</g>
</g>
<!-- Node12&#45;&gt;Node15 -->
<g id="edge16_Node000012_Node000015" class="edge">
<title>Node12&#45;&gt;Node15</title>
<g id="a_edge16_Node000012_Node000015"><a xlink:title=" ">
<path fill="none" stroke="#63b8ff" d="M853.22,-111.53C889.53,-102.54 944.3,-88.97 983.85,-79.18"/>
<polygon fill="#63b8ff" stroke="#63b8ff" points="984.49,-82.62 993.35,-76.82 982.8,-75.83 984.49,-82.62"/>
</a>
</g>
</g>
<!-- Node16 -->
<g id="Node000016" class="node">
<title>Node16</title>
<g id="a_Node000016"><a xlink:title=" ">
<polygon fill="#e0e0e0" stroke="#999999" points="945,-20 905,-20 905,0 945,0 945,-20"/>
<text xml:space="preserve" text-anchor="middle" x="925" y="-6.5" font-family="Helvetica,sans-Serif" font-size="10.00">string</text>
</a>
</g>
</g>
<!-- Node15&#45;&gt;Node16 -->
<g id="edge17_Node000015_Node000016" class="edge">
<title>Node15&#45;&gt;Node16</title>
<g id="a_edge17_Node000015_Node000016"><a xlink:title=" ">
<path fill="none" stroke="#63b8ff" d="M1014.19,-55.59C997.64,-47.32 973.29,-35.14 954.21,-25.6"/>
<polygon fill="#63b8ff" stroke="#63b8ff" points="955.82,-22.5 945.31,-21.16 952.69,-28.76 955.82,-22.5"/>
</a>
</g>
</g>
<!-- Node17 -->
<g id="Node000017" class="node">
<title>Node17</title>
<g id="a_Node000017"><a xlink:title=" ">
<polygon fill="#e0e0e0" stroke="#999999" points="1098.75,-20 967.25,-20 967.25,0 1098.75,0 1098.75,-20"/>
<text xml:space="preserve" text-anchor="middle" x="1033" y="-6.5" font-family="Helvetica,sans-Serif" font-size="10.00">SFML/Graphics/Sprite.hpp</text>
</a>
</g>
</g>
<!-- Node15&#45;&gt;Node17 -->
<g id="edge18_Node000015_Node000017" class="edge">
<title>Node15&#45;&gt;Node17</title>
<g id="a_edge18_Node000015_Node000017"><a xlink:title=" ">
<path fill="none" stroke="#63b8ff" d="M1033,-55.59C1033,-49.01 1033,-39.96 1033,-31.73"/>
<polygon fill="#63b8ff" stroke="#63b8ff" points="1036.5,-31.81 1033,-21.81 1029.5,-31.81 1036.5,-31.81"/>
</a>
</g>
</g>
<!-- Node18&#45;&gt;Node16 -->
<g id="edge20_Node000018_Node000016" class="edge">
<title>Node18&#45;&gt;Node16</title>
<g id="a_edge20_Node000018_Node000016"><a xlink:title=" ">
<path fill="none" stroke="#63b8ff" d="M909.45,-111.62C912.17,-94.01 918.11,-55.59 921.81,-31.65"/>
<polygon fill="#63b8ff" stroke="#63b8ff" points="925.25,-32.27 923.32,-21.85 918.34,-31.2 925.25,-32.27"/>
</a>
</g>
</g>
<!-- Node19&#45;&gt;Node13 -->
<g id="edge24_Node000019_Node000013" class="edge">
<title>Node19&#45;&gt;Node13</title>
<g id="a_edge24_Node000019_Node000013"><a xlink:title=" ">
<path fill="none" stroke="#63b8ff" d="M300.8,-223.59C309.97,-209.49 329.13,-182.94 352,-168 427.78,-118.49 529.5,-91.83 597.5,-78.55"/>
<polygon fill="#63b8ff" stroke="#63b8ff" points="597.88,-82.04 607.05,-76.73 596.57,-75.16 597.88,-82.04"/>
</a>
</g>
</g>
<!-- Node19&#45;&gt;Node16 -->
<g id="edge25_Node000019_Node000016" class="edge">
<title>Node19&#45;&gt;Node16</title>
<g id="a_edge25_Node000019_Node000016"><a xlink:title=" ">
<path fill="none" stroke="#63b8ff" d="M294.37,-223.66C293.04,-210.11 288.87,-184.8 276,-168 225.17,-101.68 67.6,-116.72 125,-56 151.87,-27.58 749.1,-14.36 893.69,-11.57"/>
<polygon fill="#63b8ff" stroke="#63b8ff" points="893.34,-15.08 903.27,-11.39 893.21,-8.08 893.34,-15.08"/>
</a>
</g>
</g>
<!-- Node20 -->
<g id="Node000020" class="node">
<title>Node20</title>
<g id="a_Node000020"><a xlink:title=" ">
<polygon fill="#e0e0e0" stroke="#999999" points="542.88,-188 505.12,-188 505.12,-168 542.88,-168 542.88,-188"/>
<text xml:space="preserve" text-anchor="middle" x="524" y="-174.5" font-family="Helvetica,sans-Serif" font-size="10.00">array</text>
</a>
</g>
</g>
<!-- Node19&#45;&gt;Node20 -->
<g id="edge22_Node000019_Node000020" class="edge">
<title>Node19&#45;&gt;Node20</title>
<g id="a_edge22_Node000019_Node000020"><a xlink:title=" ">
<path fill="none" stroke="#63b8ff" d="M323.27,-226.06C326.21,-225.35 329.17,-224.66 332,-224 401.3,-207.97 422.03,-207.45 493.82,-188.39"/>
<polygon fill="#63b8ff" stroke="#63b8ff" points="494.58,-191.81 503.33,-185.83 492.76,-185.05 494.58,-191.81"/>
</a>
</g>
</g>
<!-- Node21 -->
<g id="Node000021" class="node">
<title>Node21</title>
<g id="a_Node000021"><a xlink:title=" ">
<polygon fill="#e0e0e0" stroke="#999999" points="266.62,-188 137.38,-188 137.38,-168 266.62,-168 266.62,-188"/>
<text xml:space="preserve" text-anchor="middle" x="202" y="-174.5" font-family="Helvetica,sans-Serif" font-size="10.00">SFML/Graphics/Color.hpp</text>
</a>
</g>
</g>
<!-- Node19&#45;&gt;Node21 -->
<g id="edge23_Node000019_Node000021" class="edge">
<title>Node19&#45;&gt;Node21</title>
<g id="a_edge23_Node000019_Node000021"><a xlink:title=" ">
<path fill="none" stroke="#63b8ff" d="M278.8,-223.59C264.75,-215.44 244.17,-203.48 227.84,-194"/>
<polygon fill="#63b8ff" stroke="#63b8ff" points="230.04,-191.23 219.63,-189.24 226.53,-197.29 230.04,-191.23"/>
</a>
</g>
</g>
<!-- Node22 -->
<g id="Node000022" class="node">
<title>Node22</title>
<g id="a_Node000022"><a xlink:title=" ">
<polygon fill="#e0e0e0" stroke="#999999" points="119.75,-188 66.25,-188 66.25,-168 119.75,-168 119.75,-188"/>
<text xml:space="preserve" text-anchor="middle" x="93" y="-174.5" font-family="Helvetica,sans-Serif" font-size="10.00">iostream</text>
</a>
</g>
</g>
<!-- Node19&#45;&gt;Node22 -->
<g id="edge26_Node000019_Node000022" class="edge">
<title>Node19&#45;&gt;Node22</title>
<g id="a_edge26_Node000019_Node000022"><a xlink:title=" ">
<path fill="none" stroke="#63b8ff" d="M266.91,-225.49C231.59,-216.05 170.79,-199.8 131.25,-189.22"/>
<polygon fill="#63b8ff" stroke="#63b8ff" points="132.23,-185.86 121.67,-186.66 130.42,-192.63 132.23,-185.86"/>
</a>
</g>
</g>
<!-- Node26 -->
<g id="Node000026" class="node">
<title>Node26</title>
<g id="a_Node000026"><a xlink:title=" ">
<polygon fill="#e0e0e0" stroke="#999999" points="1196,-300 1024,-300 1024,-280 1196,-280 1196,-300"/>
<text xml:space="preserve" text-anchor="middle" x="1110" y="-286.5" font-family="Helvetica,sans-Serif" font-size="10.00">SFML/Graphics/RenderWindow.hpp</text>
</a>
</g>
</g>
<!-- Node25&#45;&gt;Node26 -->
<g id="edge31_Node000025_Node000026" class="edge">
<title>Node25&#45;&gt;Node26</title>
<g id="a_edge31_Node000025_Node000026"><a xlink:title=" ">
<path fill="none" stroke="#63b8ff" d="M985.3,-335.59C1009.51,-326.94 1045.68,-314 1072.84,-304.29"/>
<polygon fill="#63b8ff" stroke="#63b8ff" points="1073.83,-307.65 1082.07,-300.99 1071.47,-301.06 1073.83,-307.65"/>
</a>
</g>
</g>
<!-- Node27 -->
<g id="Node000027" class="node">
<title>Node27</title>
<g id="a_Node000027"><a xlink:title=" ">
<polygon fill="#e0e0e0" stroke="#999999" points="1340.12,-300 1213.88,-300 1213.88,-280 1340.12,-280 1340.12,-300"/>
<text xml:space="preserve" text-anchor="middle" x="1277" y="-286.5" font-family="Helvetica,sans-Serif" font-size="10.00">SFML/System/Clock.hpp</text>
</a>
</g>
</g>
<!-- Node25&#45;&gt;Node27 -->
<g id="edge32_Node000025_Node000027" class="edge">
<title>Node25&#45;&gt;Node27</title>
<g id="a_edge32_Node000025_Node000027"><a xlink:title=" ">
<path fill="none" stroke="#63b8ff" d="M1005.58,-337.09C1059.5,-327.93 1148.73,-312.78 1210.07,-302.37"/>
<polygon fill="#63b8ff" stroke="#63b8ff" points="1210.42,-305.86 1219.69,-300.73 1209.25,-298.96 1210.42,-305.86"/>
</a>
</g>
</g>
<!-- Node28 -->
<g id="Node000028" class="node">
<title>Node28</title>
<g id="a_Node000028"><a xlink:href="config__parser_8hpp.html" target="_top" xlink:title=" ">
<polygon fill="white" stroke="#666666" points="1005.62,-300 912.38,-300 912.38,-280 1005.62,-280 1005.62,-300"/>
<text xml:space="preserve" text-anchor="middle" x="959" y="-286.5" font-family="Helvetica,sans-Serif" font-size="10.00">config_parser.hpp</text>
</a>
</g>
</g>
<!-- Node25&#45;&gt;Node28 -->
<g id="edge33_Node000025_Node000028" class="edge">
<title>Node25&#45;&gt;Node28</title>
<g id="a_edge33_Node000025_Node000028"><a xlink:title=" ">
<path fill="none" stroke="#63b8ff" d="M959,-335.59C959,-329.01 959,-319.96 959,-311.73"/>
<polygon fill="#63b8ff" stroke="#63b8ff" points="962.5,-311.81 959,-301.81 955.5,-311.81 962.5,-311.81"/>
</a>
</g>
</g>
<!-- Node31 -->
<g id="Node000031" class="node">
<title>Node31</title>
<g id="a_Node000031"><a xlink:href="asset__manager_8hpp.html" target="_top" xlink:title=" ">
<polygon fill="white" stroke="#666666" points="1459.75,-300 1358.25,-300 1358.25,-280 1459.75,-280 1459.75,-300"/>
<text xml:space="preserve" text-anchor="middle" x="1409" y="-286.5" font-family="Helvetica,sans-Serif" font-size="10.00">asset_manager.hpp</text>
</a>
</g>
</g>
<!-- Node25&#45;&gt;Node31 -->
<g id="edge38_Node000025_Node000031" class="edge">
<title>Node25&#45;&gt;Node31</title>
<g id="a_edge38_Node000025_Node000031"><a xlink:title=" ">
<path fill="none" stroke="#63b8ff" d="M1005.48,-337.21C1008.36,-336.78 1011.22,-336.38 1014,-336 1158.77,-316.39 1198.55,-318.97 1346.63,-300.25"/>
<polygon fill="#63b8ff" stroke="#63b8ff" points="1346.98,-303.74 1356.46,-299 1346.09,-296.79 1346.98,-303.74"/>
</a>
</g>
</g>
<!-- Node29 -->
<g id="Node000029" class="node">
<title>Node29</title>
<g id="a_Node000029"><a xlink:href="config__structs_8hpp.html" target="_top" xlink:title=" ">
<polygon fill="white" stroke="#666666" points="1114.12,-244 1017.88,-244 1017.88,-224 1114.12,-224 1114.12,-244"/>
<text xml:space="preserve" text-anchor="middle" x="1066" y="-230.5" font-family="Helvetica,sans-Serif" font-size="10.00">config_structs.hpp</text>
</a>
</g>
</g>
<!-- Node28&#45;&gt;Node29 -->
<g id="edge34_Node000028_Node000029" class="edge">
<title>Node28&#45;&gt;Node29</title>
<g id="a_edge34_Node000028_Node000029"><a xlink:title=" ">
<path fill="none" stroke="#63b8ff" d="M977.64,-279.59C994.03,-271.32 1018.16,-259.14 1037.06,-249.6"/>
<polygon fill="#63b8ff" stroke="#63b8ff" points="1038.51,-252.79 1045.87,-245.16 1035.36,-246.54 1038.51,-252.79"/>
</a>
</g>
</g>
<!-- Node29&#45;&gt;Node16 -->
<g id="edge35_Node000029_Node000016" class="edge">
<title>Node29&#45;&gt;Node16</title>
<g id="a_edge35_Node000029_Node000016"><a xlink:title=" ">
<path fill="none" stroke="#63b8ff" d="M1057.88,-223.64C1050.3,-214.74 1038.88,-200.84 1030,-188 991.84,-132.82 953.17,-63.36 935.27,-30.26"/>
<polygon fill="#63b8ff" stroke="#63b8ff" points="938.56,-28.98 930.74,-21.83 932.39,-32.3 938.56,-28.98"/>
</a>
</g>
</g>
<!-- Node29&#45;&gt;Node20 -->
<g id="edge36_Node000029_Node000020" class="edge">
<title>Node29&#45;&gt;Node20</title>
<g id="a_edge36_Node000029_Node000020"><a xlink:title=" ">
<path fill="none" stroke="#63b8ff" d="M1017.53,-225.08C1014.64,-224.69 1011.79,-224.33 1009,-224 810.32,-200.53 753.91,-226.47 554.29,-187.98"/>
<polygon fill="#63b8ff" stroke="#63b8ff" points="555.1,-184.58 544.61,-186.09 553.75,-191.45 555.1,-184.58"/>
</a>
</g>
</g>
<!-- Node30 -->
<g id="Node000030" class="node">
<title>Node30</title>
<g id="a_Node000030"><a xlink:title=" ">
<polygon fill="#e0e0e0" stroke="#999999" points="1092.75,-188 1039.25,-188 1039.25,-168 1092.75,-168 1092.75,-188"/>
<text xml:space="preserve" text-anchor="middle" x="1066" y="-174.5" font-family="Helvetica,sans-Serif" font-size="10.00">toml.hpp</text>
</a>
</g>
</g>
<!-- Node29&#45;&gt;Node30 -->
<g id="edge37_Node000029_Node000030" class="edge">
<title>Node29&#45;&gt;Node30</title>
<g id="a_edge37_Node000029_Node000030"><a xlink:title=" ">
<path fill="none" stroke="#63b8ff" d="M1066,-223.59C1066,-217.01 1066,-207.96 1066,-199.73"/>
<polygon fill="#63b8ff" stroke="#63b8ff" points="1069.5,-199.81 1066,-189.81 1062.5,-199.81 1069.5,-199.81"/>
</a>
</g>
</g>
<!-- Node31&#45;&gt;Node4 -->
<g id="edge39_Node000031_Node000004" class="edge">
<title>Node31&#45;&gt;Node4</title>
<g id="a_edge39_Node000031_Node000004"><a xlink:title=" ">
<path fill="none" stroke="#63b8ff" d="M1357.95,-280.59C1290.85,-269.41 1179.31,-250.31 1161,-244 1142.96,-237.78 1141.23,-229.65 1123,-224 1008.74,-188.58 867.47,-180.67 792.16,-179.13"/>
<polygon fill="#63b8ff" stroke="#63b8ff" points="792.23,-175.63 782.17,-178.96 792.11,-182.63 792.23,-175.63"/>
</a>
</g>
</g>
<!-- Node31&#45;&gt;Node15 -->
<g id="edge45_Node000031_Node000015" class="edge">
<title>Node31&#45;&gt;Node15</title>
<g id="a_edge45_Node000031_Node000015"><a xlink:title=" ">
<path fill="none" stroke="#63b8ff" d="M1460.08,-288.66C1534.49,-286.95 1667.1,-278.94 1697,-244 1702.78,-237.25 1702.52,-230.97 1697,-224 1619.97,-126.64 1223.94,-83.46 1082.93,-71.01"/>
<polygon fill="#63b8ff" stroke="#63b8ff" points="1083.42,-67.54 1073.16,-70.16 1082.82,-74.51 1083.42,-67.54"/>
</a>
</g>
</g>
<!-- Node31&#45;&gt;Node23 -->
<g id="edge42_Node000031_Node000023" class="edge">
<title>Node31&#45;&gt;Node23</title>
<g id="a_edge42_Node000031_Node000023"><a xlink:title=" ">
<path fill="none" stroke="#63b8ff" d="M1357.96,-281.19C1354.93,-280.77 1351.93,-280.37 1349,-280 1201.8,-261.18 1161.81,-261.4 1011.24,-244.24"/>
<polygon fill="#63b8ff" stroke="#63b8ff" points="1012.05,-240.81 1001.71,-243.14 1011.25,-247.76 1012.05,-240.81"/>
</a>
</g>
</g>
<!-- Node32 -->
<g id="Node000032" class="node">
<title>Node32</title>
<g id="a_Node000032"><a xlink:title=" ">
<polygon fill="#e0e0e0" stroke="#999999" points="1367.5,-244 1306.5,-244 1306.5,-224 1367.5,-224 1367.5,-244"/>
<text xml:space="preserve" text-anchor="middle" x="1337" y="-230.5" font-family="Helvetica,sans-Serif" font-size="10.00">filesystem</text>
</a>
</g>
</g>
<!-- Node31&#45;&gt;Node32 -->
<g id="edge40_Node000031_Node000032" class="edge">
<title>Node31&#45;&gt;Node32</title>
<g id="a_edge40_Node000031_Node000032"><a xlink:title=" ">
<path fill="none" stroke="#63b8ff" d="M1396.46,-279.59C1386.03,-271.77 1370.95,-260.46 1358.59,-251.19"/>
<polygon fill="#63b8ff" stroke="#63b8ff" points="1360.71,-248.41 1350.61,-245.21 1356.51,-254.01 1360.71,-248.41"/>
</a>
</g>
</g>
<!-- Node33 -->
<g id="Node000033" class="node">
<title>Node33</title>
<g id="a_Node000033"><a xlink:title=" ">
<polygon fill="#e0e0e0" stroke="#999999" points="1524.12,-244 1385.88,-244 1385.88,-224 1524.12,-224 1524.12,-244"/>
<text xml:space="preserve" text-anchor="middle" x="1455" y="-230.5" font-family="Helvetica,sans-Serif" font-size="10.00">SFML/Graphics/Texture.hpp</text>
</a>
</g>
</g>
<!-- Node31&#45;&gt;Node33 -->
<g id="edge41_Node000031_Node000033" class="edge">
<title>Node31&#45;&gt;Node33</title>
<g id="a_edge41_Node000031_Node000033"><a xlink:title=" ">
<path fill="none" stroke="#63b8ff" d="M1417.01,-279.59C1423.28,-272.24 1432.17,-261.8 1439.78,-252.87"/>
<polygon fill="#63b8ff" stroke="#63b8ff" points="1442.28,-255.33 1446.1,-245.45 1436.95,-250.79 1442.28,-255.33"/>
</a>
</g>
</g>
<!-- Node34 -->
<g id="Node000034" class="node">
<title>Node34</title>
<g id="a_Node000034"><a xlink:title=" ">
<polygon fill="#e0e0e0" stroke="#999999" points="1687.5,-244 1542.5,-244 1542.5,-224 1687.5,-224 1687.5,-244"/>
<text xml:space="preserve" text-anchor="middle" x="1615" y="-230.5" font-family="Helvetica,sans-Serif" font-size="10.00">SFML/Audio/SoundBuffer.hpp</text>
</a>
</g>
</g>
<!-- Node31&#45;&gt;Node34 -->
<g id="edge43_Node000031_Node000034" class="edge">
<title>Node31&#45;&gt;Node34</title>
<g id="a_edge43_Node000031_Node000034"><a xlink:title=" ">
<path fill="none" stroke="#63b8ff" d="M1444.88,-279.59C1478.94,-270.67 1530.33,-257.19 1567.72,-247.39"/>
<polygon fill="#63b8ff" stroke="#63b8ff" points="1568.59,-250.78 1577.37,-244.86 1566.81,-244.01 1568.59,-250.78"/>
</a>
</g>
</g>
<!-- Node35 -->
<g id="Node000035" class="node">
<title>Node35</title>
<g id="a_Node000035"><a xlink:title=" ">
<polygon fill="#e0e0e0" stroke="#999999" points="1288,-244 1170,-244 1170,-224 1288,-224 1288,-244"/>
<text xml:space="preserve" text-anchor="middle" x="1229" y="-230.5" font-family="Helvetica,sans-Serif" font-size="10.00">SFML/Audio/Music.hpp</text>
</a>
</g>
</g>
<!-- Node31&#45;&gt;Node35 -->
<g id="edge44_Node000031_Node000035" class="edge">
<title>Node31&#45;&gt;Node35</title>
<g id="a_edge44_Node000031_Node000035"><a xlink:title=" ">
<path fill="none" stroke="#63b8ff" d="M1377.65,-279.59C1348.27,-270.78 1304.14,-257.54 1271.59,-247.78"/>
<polygon fill="#63b8ff" stroke="#63b8ff" points="1272.63,-244.44 1262.05,-244.91 1270.62,-251.14 1272.63,-244.44"/>
</a>
</g>
</g>
<!-- Node36&#45;&gt;Node3 -->
<g id="edge47_Node000036_Node000003" class="edge">
<title>Node36&#45;&gt;Node3</title>
<g id="a_edge47_Node000036_Node000003"><a xlink:title=" ">
<path fill="none" stroke="#63b8ff" d="M784.97,-336.2C736.96,-326.15 658.85,-309.81 610.89,-299.77"/>
<polygon fill="#63b8ff" stroke="#63b8ff" points="611.66,-296.35 601.16,-297.73 610.23,-303.21 611.66,-296.35"/>
</a>
</g>
</g>
<!-- Node36&#45;&gt;Node14 -->
<g id="edge49_Node000036_Node000014" class="edge">
<title>Node36&#45;&gt;Node14</title>
<g id="a_edge49_Node000036_Node000014"><a xlink:title=" ">
<path fill="none" stroke="#63b8ff" d="M827.62,-335.79C829.02,-307.54 829.62,-220.81 789,-168 755.55,-124.52 731.7,-127.25 679,-112 603.24,-90.07 380.37,-76.21 265.01,-70.3"/>
<polygon fill="#63b8ff" stroke="#63b8ff" points="265.53,-66.82 255.36,-69.81 265.17,-73.81 265.53,-66.82"/>
</a>
</g>
</g>
<!-- Node36&#45;&gt;Node23 -->
<g id="edge50_Node000036_Node000023" class="edge">
<title>Node36&#45;&gt;Node23</title>
<g id="a_edge50_Node000036_Node000023"><a xlink:title=" ">
<path fill="none" stroke="#63b8ff" d="M831.58,-335.78C838.55,-322.4 852.84,-297.28 870,-280 881.53,-268.39 896.48,-258.01 909.34,-250.15"/>
<polygon fill="#63b8ff" stroke="#63b8ff" points="910.94,-253.27 917.79,-245.18 907.39,-247.23 910.94,-253.27"/>
</a>
</g>
</g>
<!-- Node36&#45;&gt;Node24 -->
<g id="edge51_Node000036_Node000024" class="edge">
<title>Node36&#45;&gt;Node24</title>
<g id="a_edge51_Node000036_Node000024"><a xlink:title=" ">
<path fill="none" stroke="#63b8ff" d="M808.01,-335.59C791.24,-327.28 766.51,-315.03 747.21,-305.47"/>
<polygon fill="#63b8ff" stroke="#63b8ff" points="749.01,-302.45 738.49,-301.15 745.9,-308.73 749.01,-302.45"/>
</a>
</g>
</g>
<!-- Node36&#45;&gt;Node29 -->
<g id="edge48_Node000036_Node000029" class="edge">
<title>Node36&#45;&gt;Node29</title>
<g id="a_edge48_Node000036_Node000029"><a xlink:title=" ">
<path fill="none" stroke="#63b8ff" d="M835.39,-335.56C848.46,-321.43 875.1,-294.83 903,-280 935.23,-262.87 974.61,-251.77 1006.58,-244.87"/>
<polygon fill="#63b8ff" stroke="#63b8ff" points="1006.99,-248.36 1016.08,-242.91 1005.58,-241.51 1006.99,-248.36"/>
</a>
</g>
</g>
</g>
</svg>
