<?xml version="1.0" encoding="UTF-8" standalone="no"?>
<!DOCTYPE svg PUBLIC "-//W3C//DTD SVG 1.1//EN"
 "http://www.w3.org/Graphics/SVG/1.1/DTD/svg11.dtd">
<!-- Generated by graphviz version 13.1.2 (20250808.2320)
 -->
<!-- Title: src/scene.hpp Pages: 1 -->
<svg width="570pt" height="308pt"
 viewBox="0.00 0.00 570.00 308.00" xmlns="http://www.w3.org/2000/svg" xmlns:xlink="http://www.w3.org/1999/xlink">
<g id="graph0" class="graph" transform="scale(1 1) rotate(0) translate(4 304)">
<title>src/scene.hpp</title>
<!-- Node1 -->
<g id="Node000001" class="node">
<title>Node1</title>
<g id="a_Node000001"><a xlink:title=" ">
<polygon fill="#999999" stroke="#666666" points="244.12,-300 166.62,-300 166.62,-280 244.12,-280 244.12,-300"/>
<text xml:space="preserve" text-anchor="middle" x="205.38" y="-286.5" font-family="Helvetica,sans-Serif" font-size="10.00">src/scene.hpp</text>
</a>
</g>
</g>
<!-- Node2 -->
<g id="Node000002" class="node">
<title>Node2</title>
<g id="a_Node000002"><a xlink:title=" ">
<polygon fill="#e0e0e0" stroke="#999999" points="82.75,-188 0,-188 0,-168 82.75,-168 82.75,-188"/>
<text xml:space="preserve" text-anchor="middle" x="41.38" y="-174.5" font-family="Helvetica,sans-Serif" font-size="10.00">unordered_map</text>
</a>
</g>
</g>
<!-- Node1&#45;&gt;Node2 -->
<g id="edge1_Node000001_Node000002" class="edge">
<title>Node1&#45;&gt;Node2</title>
<g id="a_edge1_Node000001_Node000002"><a xlink:title=" ">
<path fill="none" stroke="#63b8ff" d="M188.98,-279.53C173.83,-270.67 150.79,-256.89 131.38,-244 107.39,-228.08 80.76,-208.62 62.73,-195.16"/>
<polygon fill="#63b8ff" stroke="#63b8ff" points="64.99,-192.47 54.89,-189.27 60.78,-198.07 64.99,-192.47"/>
</a>
</g>
</g>
<!-- Node3 -->
<g id="Node000003" class="node">
<title>Node3</title>
<g id="a_Node000003"><a xlink:title=" ">
<polygon fill="#e0e0e0" stroke="#999999" points="152,-188 100.75,-188 100.75,-168 152,-168 152,-188"/>
<text xml:space="preserve" text-anchor="middle" x="126.38" y="-174.5" font-family="Helvetica,sans-Serif" font-size="10.00">memory</text>
</a>
</g>
</g>
<!-- Node1&#45;&gt;Node3 -->
<g id="edge2_Node000001_Node000003" class="edge">
<title>Node1&#45;&gt;Node3</title>
<g id="a_edge2_Node000001_Node000003"><a xlink:title=" ">
<path fill="none" stroke="#63b8ff" d="M187.1,-279.55C173.7,-271.72 156.05,-259.41 145.38,-244 136.15,-230.68 131.35,-212.87 128.89,-199.25"/>
<polygon fill="#63b8ff" stroke="#63b8ff" points="132.39,-199.05 127.44,-189.68 125.47,-200.09 132.39,-199.05"/>
</a>
</g>
</g>
<!-- Node4 -->
<g id="Node000004" class="node">
<title>Node4</title>
<g id="a_Node000004"><a xlink:title=" ">
<polygon fill="#e0e0e0" stroke="#999999" points="562.12,-244 418.62,-244 418.62,-224 562.12,-224 562.12,-244"/>
<text xml:space="preserve" text-anchor="middle" x="490.38" y="-230.5" font-family="Helvetica,sans-Serif" font-size="10.00">SFML/Window/Keyboard.hpp</text>
</a>
</g>
</g>
<!-- Node1&#45;&gt;Node4 -->
<g id="edge3_Node000001_Node000004" class="edge">
<title>Node1&#45;&gt;Node4</title>
<g id="a_edge3_Node000001_Node000004"><a xlink:title=" ">
<path fill="none" stroke="#63b8ff" d="M244.41,-281.6C292.04,-272.58 373.15,-257.21 429.13,-246.6"/>
<polygon fill="#63b8ff" stroke="#63b8ff" points="429.66,-250.07 438.83,-244.77 428.36,-243.19 429.66,-250.07"/>
</a>
</g>
</g>
<!-- Node5 -->
<g id="Node000005" class="node">
<title>Node5</title>
<g id="a_Node000005"><a xlink:href="entity__manager_8hpp.html" target="_top" xlink:title=" ">
<polygon fill="white" stroke="#666666" points="256.12,-244 154.62,-244 154.62,-224 256.12,-224 256.12,-244"/>
<text xml:space="preserve" text-anchor="middle" x="205.38" y="-230.5" font-family="Helvetica,sans-Serif" font-size="10.00">entity_manager.hpp</text>
</a>
</g>
</g>
<!-- Node1&#45;&gt;Node5 -->
<g id="edge4_Node000001_Node000005" class="edge">
<title>Node1&#45;&gt;Node5</title>
<g id="a_edge4_Node000001_Node000005"><a xlink:title=" ">
<path fill="none" stroke="#63b8ff" d="M205.38,-279.59C205.38,-273.01 205.38,-263.96 205.38,-255.73"/>
<polygon fill="#63b8ff" stroke="#63b8ff" points="208.88,-255.81 205.38,-245.81 201.88,-255.81 208.88,-255.81"/>
</a>
</g>
</g>
<!-- Node16 -->
<g id="Node000016" class="node">
<title>Node16</title>
<g id="a_Node000016"><a xlink:href="action_8hpp.html" target="_top" xlink:title=" ">
<polygon fill="white" stroke="#666666" points="434.88,-132 373.88,-132 373.88,-112 434.88,-112 434.88,-132"/>
<text xml:space="preserve" text-anchor="middle" x="404.38" y="-118.5" font-family="Helvetica,sans-Serif" font-size="10.00">action.hpp</text>
</a>
</g>
</g>
<!-- Node1&#45;&gt;Node16 -->
<g id="edge17_Node000001_Node000016" class="edge">
<title>Node1&#45;&gt;Node16</title>
<g id="a_edge17_Node000001_Node000016"><a xlink:title=" ">
<path fill="none" stroke="#63b8ff" d="M229.09,-279.61C264.08,-264.74 329.89,-232.8 371.38,-188 383.35,-175.07 392.06,-156.98 397.51,-143.17"/>
<polygon fill="#63b8ff" stroke="#63b8ff" points="400.8,-144.38 400.95,-133.79 394.22,-141.97 400.8,-144.38"/>
</a>
</g>
</g>
<!-- Node5&#45;&gt;Node2 -->
<g id="edge6_Node000005_Node000002" class="edge">
<title>Node5&#45;&gt;Node2</title>
<g id="a_edge6_Node000005_Node000002"><a xlink:title=" ">
<path fill="none" stroke="#63b8ff" d="M176.81,-223.59C150.28,-214.86 110.54,-201.77 80.96,-192.03"/>
<polygon fill="#63b8ff" stroke="#63b8ff" points="82.2,-188.76 71.6,-188.95 80.01,-195.4 82.2,-188.76"/>
</a>
</g>
</g>
<!-- Node5&#45;&gt;Node3 -->
<g id="edge7_Node000005_Node000003" class="edge">
<title>Node5&#45;&gt;Node3</title>
<g id="a_edge7_Node000005_Node000003"><a xlink:title=" ">
<path fill="none" stroke="#63b8ff" d="M191.61,-223.59C180.02,-215.67 163.18,-204.16 149.51,-194.82"/>
<polygon fill="#63b8ff" stroke="#63b8ff" points="151.72,-192.09 141.49,-189.33 147.77,-197.87 151.72,-192.09"/>
</a>
</g>
</g>
<!-- Node6 -->
<g id="Node000006" class="node">
<title>Node6</title>
<g id="a_Node000006"><a xlink:title=" ">
<polygon fill="#e0e0e0" stroke="#999999" points="212.88,-188 169.88,-188 169.88,-168 212.88,-168 212.88,-188"/>
<text xml:space="preserve" text-anchor="middle" x="191.38" y="-174.5" font-family="Helvetica,sans-Serif" font-size="10.00">vector</text>
</a>
</g>
</g>
<!-- Node5&#45;&gt;Node6 -->
<g id="edge5_Node000005_Node000006" class="edge">
<title>Node5&#45;&gt;Node6</title>
<g id="a_edge5_Node000005_Node000006"><a xlink:title=" ">
<path fill="none" stroke="#63b8ff" d="M202.94,-223.59C201.21,-216.93 198.83,-207.75 196.67,-199.44"/>
<polygon fill="#63b8ff" stroke="#63b8ff" points="200.06,-198.56 194.17,-189.76 193.29,-200.32 200.06,-198.56"/>
</a>
</g>
</g>
<!-- Node7 -->
<g id="Node000007" class="node">
<title>Node7</title>
<g id="a_Node000007"><a xlink:title=" ">
<polygon fill="#e0e0e0" stroke="#999999" points="286.25,-188 230.5,-188 230.5,-168 286.25,-168 286.25,-188"/>
<text xml:space="preserve" text-anchor="middle" x="258.38" y="-174.5" font-family="Helvetica,sans-Serif" font-size="10.00">algorithm</text>
</a>
</g>
</g>
<!-- Node5&#45;&gt;Node7 -->
<g id="edge8_Node000005_Node000007" class="edge">
<title>Node5&#45;&gt;Node7</title>
<g id="a_edge8_Node000005_Node000007"><a xlink:title=" ">
<path fill="none" stroke="#63b8ff" d="M214.61,-223.59C221.98,-216.08 232.51,-205.35 241.39,-196.3"/>
<polygon fill="#63b8ff" stroke="#63b8ff" points="243.68,-198.97 248.19,-189.38 238.69,-194.06 243.68,-198.97"/>
</a>
</g>
</g>
<!-- Node8 -->
<g id="Node000008" class="node">
<title>Node8</title>
<g id="a_Node000008"><a xlink:href="entity_8hpp.html" target="_top" xlink:title=" ">
<polygon fill="white" stroke="#666666" points="362.38,-188 304.38,-188 304.38,-168 362.38,-168 362.38,-188"/>
<text xml:space="preserve" text-anchor="middle" x="333.38" y="-174.5" font-family="Helvetica,sans-Serif" font-size="10.00">entity.hpp</text>
</a>
</g>
</g>
<!-- Node5&#45;&gt;Node8 -->
<g id="edge9_Node000005_Node000008" class="edge">
<title>Node5&#45;&gt;Node8</title>
<g id="a_edge9_Node000005_Node000008"><a xlink:title=" ">
<path fill="none" stroke="#63b8ff" d="M227.67,-223.59C247.74,-215.13 277.49,-202.58 300.33,-192.94"/>
<polygon fill="#63b8ff" stroke="#63b8ff" points="301.66,-196.18 309.51,-189.07 298.94,-189.73 301.66,-196.18"/>
</a>
</g>
</g>
<!-- Node9 -->
<g id="Node000009" class="node">
<title>Node9</title>
<g id="a_Node000009"><a xlink:title=" ">
<polygon fill="#e0e0e0" stroke="#999999" points="351.88,-132 314.88,-132 314.88,-112 351.88,-112 351.88,-132"/>
<text xml:space="preserve" text-anchor="middle" x="333.38" y="-118.5" font-family="Helvetica,sans-Serif" font-size="10.00">tuple</text>
</a>
</g>
</g>
<!-- Node8&#45;&gt;Node9 -->
<g id="edge10_Node000008_Node000009" class="edge">
<title>Node8&#45;&gt;Node9</title>
<g id="a_edge10_Node000008_Node000009"><a xlink:title=" ">
<path fill="none" stroke="#63b8ff" d="M333.38,-167.59C333.38,-161.01 333.38,-151.96 333.38,-143.73"/>
<polygon fill="#63b8ff" stroke="#63b8ff" points="336.88,-143.81 333.38,-133.81 329.88,-143.81 336.88,-143.81"/>
</a>
</g>
</g>
<!-- Node10 -->
<g id="Node000010" class="node">
<title>Node10</title>
<g id="a_Node000010"><a xlink:href="components_8hpp.html" target="_top" xlink:title=" ">
<polygon fill="white" stroke="#666666" points="288.38,-132 200.38,-132 200.38,-112 288.38,-112 288.38,-132"/>
<text xml:space="preserve" text-anchor="middle" x="244.38" y="-118.5" font-family="Helvetica,sans-Serif" font-size="10.00">components.hpp</text>
</a>
</g>
</g>
<!-- Node8&#45;&gt;Node10 -->
<g id="edge11_Node000008_Node000010" class="edge">
<title>Node8&#45;&gt;Node10</title>
<g id="a_edge11_Node000008_Node000010"><a xlink:title=" ">
<path fill="none" stroke="#63b8ff" d="M317.87,-167.59C304.55,-159.51 285.1,-147.71 269.55,-138.27"/>
<polygon fill="#63b8ff" stroke="#63b8ff" points="271.66,-135.46 261.29,-133.26 268.03,-141.44 271.66,-135.46"/>
</a>
</g>
</g>
<!-- Node11 -->
<g id="Node000011" class="node">
<title>Node11</title>
<g id="a_Node000011"><a xlink:title=" ">
<polygon fill="#e0e0e0" stroke="#999999" points="149.25,-76 15.5,-76 15.5,-56 149.25,-56 149.25,-76"/>
<text xml:space="preserve" text-anchor="middle" x="82.38" y="-62.5" font-family="Helvetica,sans-Serif" font-size="10.00">SFML/System/Vector2.hpp</text>
</a>
</g>
</g>
<!-- Node10&#45;&gt;Node11 -->
<g id="edge12_Node000010_Node000011" class="edge">
<title>Node10&#45;&gt;Node11</title>
<g id="a_edge12_Node000010_Node000011"><a xlink:title=" ">
<path fill="none" stroke="#63b8ff" d="M216.16,-111.59C189.95,-102.86 150.69,-89.77 121.47,-80.03"/>
<polygon fill="#63b8ff" stroke="#63b8ff" points="122.84,-76.8 112.25,-76.96 120.63,-83.44 122.84,-76.8"/>
</a>
</g>
</g>
<!-- Node12 -->
<g id="Node000012" class="node">
<title>Node12</title>
<g id="a_Node000012"><a xlink:title=" ">
<polygon fill="#e0e0e0" stroke="#999999" points="287.12,-76 167.62,-76 167.62,-56 287.12,-56 287.12,-76"/>
<text xml:space="preserve" text-anchor="middle" x="227.38" y="-62.5" font-family="Helvetica,sans-Serif" font-size="10.00">SFML/Audio/Sound.hpp</text>
</a>
</g>
</g>
<!-- Node10&#45;&gt;Node12 -->
<g id="edge13_Node000010_Node000012" class="edge">
<title>Node10&#45;&gt;Node12</title>
<g id="a_edge13_Node000010_Node000012"><a xlink:title=" ">
<path fill="none" stroke="#63b8ff" d="M241.41,-111.59C239.29,-104.86 236.36,-95.53 233.72,-87.15"/>
<polygon fill="#63b8ff" stroke="#63b8ff" points="237.1,-86.23 230.76,-77.74 230.42,-88.33 237.1,-86.23"/>
</a>
</g>
</g>
<!-- Node13 -->
<g id="Node000013" class="node">
<title>Node13</title>
<g id="a_Node000013"><a xlink:href="animation_8hpp.html" target="_top" xlink:title=" ">
<polygon fill="white" stroke="#666666" points="381.75,-76 305,-76 305,-56 381.75,-56 381.75,-76"/>
<text xml:space="preserve" text-anchor="middle" x="343.38" y="-62.5" font-family="Helvetica,sans-Serif" font-size="10.00">animation.hpp</text>
</a>
</g>
</g>
<!-- Node10&#45;&gt;Node13 -->
<g id="edge14_Node000010_Node000013" class="edge">
<title>Node10&#45;&gt;Node13</title>
<g id="a_edge14_Node000010_Node000013"><a xlink:title=" ">
<path fill="none" stroke="#63b8ff" d="M261.62,-111.59C276.72,-103.36 298.9,-91.26 316.36,-81.74"/>
<polygon fill="#63b8ff" stroke="#63b8ff" points="317.56,-85.07 324.67,-77.2 314.21,-78.92 317.56,-85.07"/>
</a>
</g>
</g>
<!-- Node14 -->
<g id="Node000014" class="node">
<title>Node14</title>
<g id="a_Node000014"><a xlink:title=" ">
<polygon fill="#e0e0e0" stroke="#999999" points="429.38,-20 389.38,-20 389.38,0 429.38,0 429.38,-20"/>
<text xml:space="preserve" text-anchor="middle" x="409.38" y="-6.5" font-family="Helvetica,sans-Serif" font-size="10.00">string</text>
</a>
</g>
</g>
<!-- Node13&#45;&gt;Node14 -->
<g id="edge15_Node000013_Node000014" class="edge">
<title>Node13&#45;&gt;Node14</title>
<g id="a_edge15_Node000013_Node000014"><a xlink:title=" ">
<path fill="none" stroke="#63b8ff" d="M354.87,-55.59C364.34,-47.85 377.98,-36.69 389.25,-27.47"/>
<polygon fill="#63b8ff" stroke="#63b8ff" points="391.32,-30.3 396.84,-21.26 386.88,-24.88 391.32,-30.3"/>
</a>
</g>
</g>
<!-- Node15 -->
<g id="Node000015" class="node">
<title>Node15</title>
<g id="a_Node000015"><a xlink:title=" ">
<polygon fill="#e0e0e0" stroke="#999999" points="371.12,-20 239.62,-20 239.62,0 371.12,0 371.12,-20"/>
<text xml:space="preserve" text-anchor="middle" x="305.38" y="-6.5" font-family="Helvetica,sans-Serif" font-size="10.00">SFML/Graphics/Sprite.hpp</text>
</a>
</g>
</g>
<!-- Node13&#45;&gt;Node15 -->
<g id="edge16_Node000013_Node000015" class="edge">
<title>Node13&#45;&gt;Node15</title>
<g id="a_edge16_Node000013_Node000015"><a xlink:title=" ">
<path fill="none" stroke="#63b8ff" d="M336.76,-55.59C331.69,-48.39 324.54,-38.23 318.35,-29.43"/>
<polygon fill="#63b8ff" stroke="#63b8ff" points="321.41,-27.7 312.79,-21.54 315.68,-31.73 321.41,-27.7"/>
</a>
</g>
</g>
<!-- Node16&#45;&gt;Node14 -->
<g id="edge18_Node000016_Node000014" class="edge">
<title>Node16&#45;&gt;Node14</title>
<g id="a_edge18_Node000016_Node000014"><a xlink:title=" ">
<path fill="none" stroke="#63b8ff" d="M404.8,-111.62C405.6,-94.01 407.35,-55.59 408.44,-31.65"/>
<polygon fill="#63b8ff" stroke="#63b8ff" points="411.92,-32.02 408.88,-21.87 404.93,-31.7 411.92,-32.02"/>
</a>
</g>
</g>
</g>
</svg>
