<?xml version="1.0" encoding="UTF-8" standalone="no"?>
<!DOCTYPE svg PUBLIC "-//W3C//DTD SVG 1.1//EN"
 "http://www.w3.org/Graphics/SVG/1.1/DTD/svg11.dtd">
<!-- Generated by graphviz version 13.1.2 (20250808.2320)
 -->
<!-- Title: src/scene_play.cpp Pages: 1 -->
<!--zoomable 420 -->

<svg id="main" version="1.1" xmlns="http://www.w3.org/2000/svg" xmlns:xlink="http://www.w3.org/1999/xlink" xml:space="preserve" onload="init(evt)">
<style type="text/css"><![CDATA[
.node, .edge {opacity: 0.7;}
.node.selected, .edge.selected {opacity: 1;}
.edge:hover path { stroke: red; }
.edge:hover polygon { stroke: red; fill: red; }
]]></style>

<defs>
  <circle id="rim" cx="0" cy="0" r="7"/>
  <circle id="rim2" cx="0" cy="0" r="3.5"/>
  <g id="zoomPlus">
    <use xlink:href="#rim" fill="#404040"><set attributeName="fill" to="#808080" begin="zoomplus.mouseover" end="zoomplus.mouseout"/></use>
    <path d="M-4,0h8M0,-4v8" fill="none" stroke="white" stroke-width="1.5" pointer-events="none"/>
  </g>
  <g id="zoomMin">
    <use xlink:href="#rim" fill="#404040"><set attributeName="fill" to="#808080" begin="zoomminus.mouseover" end="zoomminus.mouseout"/></use>
    <path d="M-4,0h8" fill="none" stroke="white" stroke-width="1.5" pointer-events="none"/>
  </g>
  <g id="arrowUp" transform="translate(30 24)">
    <use xlink:href="#rim"/>
    <path pointer-events="none" fill="none" stroke="white" stroke-width="1.5" d="M0,-3.0v7 M-2.5,-0.5L0,-3.0L2.5,-0.5"/>
  </g>
  <g id="arrowRight" transform="rotate(90) translate(36 -43)">
    <use xlink:href="#rim"/>
    <path pointer-events="none" fill="none" stroke="white" stroke-width="1.5" d="M0,-3.0v7 M-2.5,-0.5L0,-3.0L2.5,-0.5"/>
  </g>
  <g id="arrowDown" transform="rotate(180) translate(-30 -48)">
    <use xlink:href="#rim"/>
    <path pointer-events="none" fill="none" stroke="white" stroke-width="1.5" d="M0,-3.0v7 M-2.5,-0.5L0,-3.0L2.5,-0.5"/>
  </g>
  <g id="arrowLeft" transform="rotate(270) translate(-36 17)">
    <use xlink:href="#rim"/>
    <path pointer-events="none" fill="none" stroke="white" stroke-width="1.5" d="M0,-3.0v7 M-2.5,-0.5L0,-3.0L2.5,-0.5"/>
  </g>
  <g id="resetDef">
    <use xlink:href="#rim2" fill="#404040"><set attributeName="fill" to="#808080" begin="reset.mouseover" end="reset.mouseout"/></use>
  </g>
</defs>
<script type="application/ecmascript">
var viewWidth = 2070;
var viewHeight = 420;
var sectionId = 'dynsection-0';
</script>
<script type="application/ecmascript" xlink:href="svg.min.js"/>
<svg id="graph" class="graph">
<g id="viewport">
<title>src/scene_play.cpp</title>
<!-- Node1 -->
<g id="Node000001" class="node">
<title>Node1</title>
<g id="a_Node000001"><a xlink:title=" ">
<polygon fill="#999999" stroke="#666666" points="1523.27,-412 1423.27,-412 1423.27,-392 1523.27,-392 1523.27,-412"/>
<text xml:space="preserve" text-anchor="middle" x="1473.27" y="-398.5" font-family="Helvetica,sans-Serif" font-size="10.00">src/scene_play.cpp</text>
</a>
</g>
</g>
<!-- Node2 -->
<g id="Node000002" class="node">
<title>Node2</title>
<g id="a_Node000002"><a xlink:href="scene__play_8hpp.html" target="_top" xlink:title=" ">
<polygon fill="white" stroke="#666666" points="944.02,-356 860.52,-356 860.52,-336 944.02,-336 944.02,-356"/>
<text xml:space="preserve" text-anchor="middle" x="902.27" y="-342.5" font-family="Helvetica,sans-Serif" font-size="10.00">scene_play.hpp</text>
</a>
</g>
</g>
<!-- Node1&#45;&gt;Node2 -->
<g id="edge1_Node000001_Node000002" class="edge">
<title>Node1&#45;&gt;Node2</title>
<g id="a_edge1_Node000001_Node000002"><a xlink:title=" ">
<path fill="none" stroke="#63b8ff" d="M1423.1,-396.26C1315.97,-386.12 1065.69,-362.45 955.72,-352.05"/>
<polygon fill="#63b8ff" stroke="#63b8ff" points="956.06,-348.57 945.77,-351.11 955.4,-355.54 956.06,-348.57"/>
</a>
</g>
</g>
<!-- Node24 -->
<g id="Node000024" class="node">
<title>Node24</title>
<g id="a_Node000024"><a xlink:href="game__engine_8hpp.html" target="_top" xlink:title=" ">
<polygon fill="white" stroke="#666666" points="548.52,-356 456.02,-356 456.02,-336 548.52,-336 548.52,-356"/>
<text xml:space="preserve" text-anchor="middle" x="502.27" y="-342.5" font-family="Helvetica,sans-Serif" font-size="10.00">game_engine.hpp</text>
</a>
</g>
</g>
<!-- Node1&#45;&gt;Node24 -->
<g id="edge28_Node000001_Node000024" class="edge">
<title>Node1&#45;&gt;Node24</title>
<g id="a_edge28_Node000001_Node000024"><a xlink:title=" ">
<path fill="none" stroke="#63b8ff" d="M1422.77,-398.19C1257.82,-389.02 735.43,-359.97 560.21,-350.22"/>
<polygon fill="#63b8ff" stroke="#63b8ff" points="560.62,-346.74 550.44,-349.68 560.23,-353.73 560.62,-346.74"/>
</a>
</g>
</g>
<!-- Node33 -->
<g id="Node000033" class="node">
<title>Node33</title>
<g id="a_Node000033"><a xlink:href="scene__menu_8hpp.html" target="_top" xlink:title=" ">
<polygon fill="white" stroke="#666666" points="1251.4,-356 1161.15,-356 1161.15,-336 1251.4,-336 1251.4,-356"/>
<text xml:space="preserve" text-anchor="middle" x="1206.27" y="-342.5" font-family="Helvetica,sans-Serif" font-size="10.00">scene_menu.hpp</text>
</a>
</g>
</g>
<!-- Node1&#45;&gt;Node33 -->
<g id="edge41_Node000001_Node000033" class="edge">
<title>Node1&#45;&gt;Node33</title>
<g id="a_edge41_Node000001_Node000033"><a xlink:title=" ">
<path fill="none" stroke="#63b8ff" d="M1426.46,-391.53C1380.91,-382.32 1311.63,-368.31 1262.98,-358.47"/>
<polygon fill="#63b8ff" stroke="#63b8ff" points="1263.67,-355.04 1253.18,-356.49 1262.29,-361.9 1263.67,-355.04"/>
</a>
</g>
</g>
<!-- Node36 -->
<g id="Node000036" class="node">
<title>Node36</title>
<g id="a_Node000036"><a xlink:title=" ">
<polygon fill="#e0e0e0" stroke="#999999" points="1733.02,-188 1679.52,-188 1679.52,-168 1733.02,-168 1733.02,-188"/>
<text xml:space="preserve" text-anchor="middle" x="1706.27" y="-174.5" font-family="Helvetica,sans-Serif" font-size="10.00">iostream</text>
</a>
</g>
</g>
<!-- Node1&#45;&gt;Node36 -->
<g id="edge57_Node000001_Node000036" class="edge">
<title>Node1&#45;&gt;Node36</title>
<g id="a_edge57_Node000001_Node000036"><a xlink:title=" ">
<path fill="none" stroke="#63b8ff" d="M1469.27,-391.52C1464.34,-378.24 1457.69,-353.75 1467.27,-336 1510.06,-256.7 1612.31,-210.93 1668.2,-191"/>
<polygon fill="#63b8ff" stroke="#63b8ff" points="1669.32,-194.32 1677.62,-187.75 1667.03,-187.7 1669.32,-194.32"/>
</a>
</g>
</g>
<!-- Node37 -->
<g id="Node000037" class="node">
<title>Node37</title>
<g id="a_Node000037"><a xlink:href="physics_8hpp.html" target="_top" xlink:title=" ">
<polygon fill="white" stroke="#666666" points="1395.52,-244 1327.02,-244 1327.02,-224 1395.52,-224 1395.52,-244"/>
<text xml:space="preserve" text-anchor="middle" x="1361.27" y="-230.5" font-family="Helvetica,sans-Serif" font-size="10.00">physics.hpp</text>
</a>
</g>
</g>
<!-- Node1&#45;&gt;Node37 -->
<g id="edge52_Node000001_Node000037" class="edge">
<title>Node1&#45;&gt;Node37</title>
<g id="a_edge52_Node000001_Node000037"><a xlink:title=" ">
<path fill="none" stroke="#63b8ff" d="M1464.41,-391.74C1456.16,-382.9 1443.75,-369.05 1434.27,-356 1409.38,-321.75 1384.88,-278.69 1371.55,-254.26"/>
<polygon fill="#63b8ff" stroke="#63b8ff" points="1374.8,-252.92 1366.97,-245.78 1368.64,-256.24 1374.8,-252.92"/>
</a>
</g>
</g>
<!-- Node39 -->
<g id="Node000039" class="node">
<title>Node39</title>
<g id="a_Node000039"><a xlink:title=" ">
<polygon fill="#e0e0e0" stroke="#999999" points="1520.15,-356 1476.4,-356 1476.4,-336 1520.15,-336 1520.15,-356"/>
<text xml:space="preserve" text-anchor="middle" x="1498.27" y="-342.5" font-family="Helvetica,sans-Serif" font-size="10.00">format</text>
</a>
</g>
</g>
<!-- Node1&#45;&gt;Node39 -->
<g id="edge58_Node000001_Node000039" class="edge">
<title>Node1&#45;&gt;Node39</title>
<g id="a_edge58_Node000001_Node000039"><a xlink:title=" ">
<path fill="none" stroke="#63b8ff" d="M1477.63,-391.59C1480.82,-384.7 1485.26,-375.1 1489.21,-366.57"/>
<polygon fill="#63b8ff" stroke="#63b8ff" points="1492.31,-368.22 1493.33,-357.67 1485.95,-365.28 1492.31,-368.22"/>
</a>
</g>
</g>
<!-- Node40 -->
<g id="Node000040" class="node">
<title>Node40</title>
<g id="a_Node000040"><a xlink:title=" ">
<polygon fill="#e0e0e0" stroke="#999999" points="1586.02,-356 1538.52,-356 1538.52,-336 1586.02,-336 1586.02,-356"/>
<text xml:space="preserve" text-anchor="middle" x="1562.27" y="-342.5" font-family="Helvetica,sans-Serif" font-size="10.00">imgui.h</text>
</a>
</g>
</g>
<!-- Node1&#45;&gt;Node40 -->
<g id="edge59_Node000001_Node000040" class="edge">
<title>Node1&#45;&gt;Node40</title>
<g id="a_edge59_Node000001_Node000040"><a xlink:title=" ">
<path fill="none" stroke="#63b8ff" d="M1488.78,-391.59C1502.09,-383.51 1521.55,-371.71 1537.1,-362.27"/>
<polygon fill="#63b8ff" stroke="#63b8ff" points="1538.62,-365.44 1545.36,-357.26 1534.99,-359.46 1538.62,-365.44"/>
</a>
</g>
</g>
<!-- Node41 -->
<g id="Node000041" class="node">
<title>Node41</title>
<g id="a_Node000041"><a xlink:title=" ">
<polygon fill="#e0e0e0" stroke="#999999" points="1680.65,-356 1603.9,-356 1603.9,-336 1680.65,-336 1680.65,-356"/>
<text xml:space="preserve" text-anchor="middle" x="1642.27" y="-342.5" font-family="Helvetica,sans-Serif" font-size="10.00">imgui&#45;SFML.h</text>
</a>
</g>
</g>
<!-- Node1&#45;&gt;Node41 -->
<g id="edge60_Node000001_Node000041" class="edge">
<title>Node1&#45;&gt;Node41</title>
<g id="a_edge60_Node000001_Node000041"><a xlink:title=" ">
<path fill="none" stroke="#63b8ff" d="M1502.71,-391.59C1530.17,-382.82 1571.36,-369.66 1601.89,-359.9"/>
<polygon fill="#63b8ff" stroke="#63b8ff" points="1602.7,-363.32 1611.16,-356.94 1600.57,-356.65 1602.7,-363.32"/>
</a>
</g>
</g>
<!-- Node42 -->
<g id="Node000042" class="node">
<title>Node42</title>
<g id="a_Node000042"><a xlink:title=" ">
<polygon fill="#e0e0e0" stroke="#999999" points="1876.27,-356 1698.27,-356 1698.27,-336 1876.27,-336 1876.27,-356"/>
<text xml:space="preserve" text-anchor="middle" x="1787.27" y="-342.5" font-family="Helvetica,sans-Serif" font-size="10.00">SFML/Graphics/RectangleShape.hpp</text>
</a>
</g>
</g>
<!-- Node1&#45;&gt;Node42 -->
<g id="edge61_Node000001_Node000042" class="edge">
<title>Node1&#45;&gt;Node42</title>
<g id="a_edge61_Node000001_Node000042"><a xlink:title=" ">
<path fill="none" stroke="#63b8ff" d="M1523.72,-392.32C1577.3,-383.11 1662.24,-368.5 1721.14,-358.37"/>
<polygon fill="#63b8ff" stroke="#63b8ff" points="1721.44,-361.87 1730.7,-356.73 1720.25,-354.97 1721.44,-361.87"/>
</a>
</g>
</g>
<!-- Node43 -->
<g id="Node000043" class="node">
<title>Node43</title>
<g id="a_Node000043"><a xlink:title=" ">
<polygon fill="#e0e0e0" stroke="#999999" points="2062.02,-356 1894.52,-356 1894.52,-336 2062.02,-336 2062.02,-356"/>
<text xml:space="preserve" text-anchor="middle" x="1978.27" y="-342.5" font-family="Helvetica,sans-Serif" font-size="10.00">SFML/Graphics/ConvexShape.hpp</text>
</a>
</g>
</g>
<!-- Node1&#45;&gt;Node43 -->
<g id="edge62_Node000001_Node000043" class="edge">
<title>Node1&#45;&gt;Node43</title>
<g id="a_edge62_Node000001_Node000043"><a xlink:title=" ">
<path fill="none" stroke="#63b8ff" d="M1523.54,-395.62C1607.19,-386.68 1776.28,-368.6 1883.05,-357.18"/>
<polygon fill="#63b8ff" stroke="#63b8ff" points="1883.39,-360.67 1892.96,-356.12 1882.64,-353.71 1883.39,-360.67"/>
</a>
</g>
</g>
<!-- Node3 -->
<g id="Node000003" class="node">
<title>Node3</title>
<g id="a_Node000003"><a xlink:href="scene_8hpp.html" target="_top" xlink:title=" ">
<polygon fill="white" stroke="#666666" points="1126.77,-300 1065.77,-300 1065.77,-280 1126.77,-280 1126.77,-300"/>
<text xml:space="preserve" text-anchor="middle" x="1096.27" y="-286.5" font-family="Helvetica,sans-Serif" font-size="10.00">scene.hpp</text>
</a>
</g>
</g>
<!-- Node2&#45;&gt;Node3 -->
<g id="edge2_Node000002_Node000003" class="edge">
<title>Node2&#45;&gt;Node3</title>
<g id="a_edge2_Node000002_Node000003"><a xlink:title=" ">
<path fill="none" stroke="#63b8ff" d="M936.07,-335.59C968.98,-326.43 1019.09,-312.48 1054.49,-302.63"/>
<polygon fill="#63b8ff" stroke="#63b8ff" points="1055.27,-306.05 1063.97,-299.99 1053.4,-299.3 1055.27,-306.05"/>
</a>
</g>
</g>
<!-- Node14 -->
<g id="Node000014" class="node">
<title>Node14</title>
<g id="a_Node000014"><a xlink:title=" ">
<polygon fill="#e0e0e0" stroke="#999999" points="1229.02,-76 1109.52,-76 1109.52,-56 1229.02,-56 1229.02,-76"/>
<text xml:space="preserve" text-anchor="middle" x="1169.27" y="-62.5" font-family="Helvetica,sans-Serif" font-size="10.00">SFML/Audio/Sound.hpp</text>
</a>
</g>
</g>
<!-- Node2&#45;&gt;Node14 -->
<g id="edge25_Node000002_Node000014" class="edge">
<title>Node2&#45;&gt;Node14</title>
<g id="a_edge25_Node000002_Node000014"><a xlink:title=" ">
<path fill="none" stroke="#63b8ff" d="M895.44,-335.53C882.85,-317.12 857.27,-274.82 857.27,-235 857.27,-235 857.27,-235 857.27,-177 857.27,-126.28 1005.8,-93.18 1097.9,-77.54"/>
<polygon fill="#63b8ff" stroke="#63b8ff" points="1098.33,-81.01 1107.62,-75.92 1097.18,-74.11 1098.33,-81.01"/>
</a>
</g>
</g>
<!-- Node19 -->
<g id="Node000019" class="node">
<title>Node19</title>
<g id="a_Node000019"><a xlink:href="config__structs_8hpp.html" target="_top" xlink:title=" ">
<polygon fill="white" stroke="#666666" points="685.4,-244 589.15,-244 589.15,-224 685.4,-224 685.4,-244"/>
<text xml:space="preserve" text-anchor="middle" x="637.27" y="-230.5" font-family="Helvetica,sans-Serif" font-size="10.00">config_structs.hpp</text>
</a>
</g>
</g>
<!-- Node2&#45;&gt;Node19 -->
<g id="edge21_Node000002_Node000019" class="edge">
<title>Node2&#45;&gt;Node19</title>
<g id="a_edge21_Node000002_Node000019"><a xlink:title=" ">
<path fill="none" stroke="#63b8ff" d="M879.68,-335.62C832.84,-316.18 724.97,-271.4 670.31,-248.71"/>
<polygon fill="#63b8ff" stroke="#63b8ff" points="671.79,-245.54 661.21,-244.94 669.1,-252 671.79,-245.54"/>
</a>
</g>
</g>
<!-- Node22 -->
<g id="Node000022" class="node">
<title>Node22</title>
<g id="a_Node000022"><a xlink:title=" ">
<polygon fill="#e0e0e0" stroke="#999999" points="829.02,-244 703.52,-244 703.52,-224 829.02,-224 829.02,-244"/>
<text xml:space="preserve" text-anchor="middle" x="766.27" y="-230.5" font-family="Helvetica,sans-Serif" font-size="10.00">SFML/Graphics/Font.hpp</text>
</a>
</g>
</g>
<!-- Node2&#45;&gt;Node22 -->
<g id="edge26_Node000002_Node000022" class="edge">
<title>Node2&#45;&gt;Node22</title>
<g id="a_edge26_Node000002_Node000022"><a xlink:title=" ">
<path fill="none" stroke="#63b8ff" d="M889.47,-335.52C877.43,-326.54 858.95,-312.58 843.27,-300 823.39,-284.04 801.19,-265.18 785.75,-251.9"/>
<polygon fill="#63b8ff" stroke="#63b8ff" points="788.1,-249.31 778.24,-245.42 783.52,-254.6 788.1,-249.31"/>
</a>
</g>
</g>
<!-- Node23 -->
<g id="Node000023" class="node">
<title>Node23</title>
<g id="a_Node000023"><a xlink:title=" ">
<polygon fill="#e0e0e0" stroke="#999999" points="1009.65,-300 884.9,-300 884.9,-280 1009.65,-280 1009.65,-300"/>
<text xml:space="preserve" text-anchor="middle" x="947.27" y="-286.5" font-family="Helvetica,sans-Serif" font-size="10.00">SFML/Graphics/Text.hpp</text>
</a>
</g>
</g>
<!-- Node2&#45;&gt;Node23 -->
<g id="edge27_Node000002_Node000023" class="edge">
<title>Node2&#45;&gt;Node23</title>
<g id="a_edge27_Node000002_Node000023"><a xlink:title=" ">
<path fill="none" stroke="#63b8ff" d="M910.11,-335.59C916.24,-328.24 924.94,-317.8 932.39,-308.87"/>
<polygon fill="#63b8ff" stroke="#63b8ff" points="934.84,-311.38 938.56,-301.46 929.46,-306.9 934.84,-311.38"/>
</a>
</g>
</g>
<!-- Node4 -->
<g id="Node000004" class="node">
<title>Node4</title>
<g id="a_Node000004"><a xlink:title=" ">
<polygon fill="#e0e0e0" stroke="#999999" points="967.65,-188 884.9,-188 884.9,-168 967.65,-168 967.65,-188"/>
<text xml:space="preserve" text-anchor="middle" x="926.27" y="-174.5" font-family="Helvetica,sans-Serif" font-size="10.00">unordered_map</text>
</a>
</g>
</g>
<!-- Node3&#45;&gt;Node4 -->
<g id="edge3_Node000003_Node000004" class="edge">
<title>Node3&#45;&gt;Node4</title>
<g id="a_edge3_Node000003_Node000004"><a xlink:title=" ">
<path fill="none" stroke="#63b8ff" d="M1096.05,-279.64C1095.2,-265.61 1091.52,-239.14 1076.27,-224 1062.31,-210.14 1016.2,-197.57 978.75,-189.26"/>
<polygon fill="#63b8ff" stroke="#63b8ff" points="979.95,-185.94 969.43,-187.25 978.47,-192.78 979.95,-185.94"/>
</a>
</g>
</g>
<!-- Node5 -->
<g id="Node000005" class="node">
<title>Node5</title>
<g id="a_Node000005"><a xlink:title=" ">
<polygon fill="#e0e0e0" stroke="#999999" points="1226.9,-188 1175.65,-188 1175.65,-168 1226.9,-168 1226.9,-188"/>
<text xml:space="preserve" text-anchor="middle" x="1201.27" y="-174.5" font-family="Helvetica,sans-Serif" font-size="10.00">memory</text>
</a>
</g>
</g>
<!-- Node3&#45;&gt;Node5 -->
<g id="edge4_Node000003_Node000005" class="edge">
<title>Node3&#45;&gt;Node5</title>
<g id="a_edge4_Node000003_Node000005"><a xlink:title=" ">
<path fill="none" stroke="#63b8ff" d="M1127.23,-288.72C1159.89,-286.56 1209.92,-277.55 1234.27,-244 1245.13,-229.04 1232.86,-210 1220.32,-196.4"/>
<polygon fill="#63b8ff" stroke="#63b8ff" points="1222.89,-194.02 1213.35,-189.42 1217.94,-198.97 1222.89,-194.02"/>
</a>
</g>
</g>
<!-- Node6 -->
<g id="Node000006" class="node">
<title>Node6</title>
<g id="a_Node000006"><a xlink:title=" ">
<polygon fill="#e0e0e0" stroke="#999999" points="1067.02,-244 923.52,-244 923.52,-224 1067.02,-224 1067.02,-244"/>
<text xml:space="preserve" text-anchor="middle" x="995.27" y="-230.5" font-family="Helvetica,sans-Serif" font-size="10.00">SFML/Window/Keyboard.hpp</text>
</a>
</g>
</g>
<!-- Node3&#45;&gt;Node6 -->
<g id="edge5_Node000003_Node000006" class="edge">
<title>Node3&#45;&gt;Node6</title>
<g id="a_edge5_Node000003_Node000006"><a xlink:title=" ">
<path fill="none" stroke="#63b8ff" d="M1078.68,-279.59C1063.35,-271.4 1040.85,-259.37 1023.09,-249.87"/>
<polygon fill="#63b8ff" stroke="#63b8ff" points="1024.81,-246.82 1014.34,-245.19 1021.51,-252.99 1024.81,-246.82"/>
</a>
</g>
</g>
<!-- Node7 -->
<g id="Node000007" class="node">
<title>Node7</title>
<g id="a_Node000007"><a xlink:href="entity__manager_8hpp.html" target="_top" xlink:title=" ">
<polygon fill="white" stroke="#666666" points="1225.02,-244 1123.52,-244 1123.52,-224 1225.02,-224 1225.02,-244"/>
<text xml:space="preserve" text-anchor="middle" x="1174.27" y="-230.5" font-family="Helvetica,sans-Serif" font-size="10.00">entity_manager.hpp</text>
</a>
</g>
</g>
<!-- Node3&#45;&gt;Node7 -->
<g id="edge6_Node000003_Node000007" class="edge">
<title>Node3&#45;&gt;Node7</title>
<g id="a_edge6_Node000003_Node000007"><a xlink:title=" ">
<path fill="none" stroke="#63b8ff" d="M1109.86,-279.59C1121.31,-271.67 1137.94,-260.16 1151.43,-250.82"/>
<polygon fill="#63b8ff" stroke="#63b8ff" points="1153.11,-253.91 1159.34,-245.34 1149.12,-248.16 1153.11,-253.91"/>
</a>
</g>
</g>
<!-- Node18 -->
<g id="Node000018" class="node">
<title>Node18</title>
<g id="a_Node000018"><a xlink:href="action_8hpp.html" target="_top" xlink:title=" ">
<polygon fill="white" stroke="#666666" points="797.77,-132 736.77,-132 736.77,-112 797.77,-112 797.77,-132"/>
<text xml:space="preserve" text-anchor="middle" x="767.27" y="-118.5" font-family="Helvetica,sans-Serif" font-size="10.00">action.hpp</text>
</a>
</g>
</g>
<!-- Node3&#45;&gt;Node18 -->
<g id="edge19_Node000003_Node000018" class="edge">
<title>Node3&#45;&gt;Node18</title>
<g id="a_edge19_Node000003_Node000018"><a xlink:title=" ">
<path fill="none" stroke="#63b8ff" d="M1065.54,-282.18C1017.26,-271.36 927.76,-250.78 914.27,-244 860.37,-216.92 808.62,-166.96 783.34,-140.51"/>
<polygon fill="#63b8ff" stroke="#63b8ff" points="785.98,-138.2 776.58,-133.31 780.88,-142.99 785.98,-138.2"/>
</a>
</g>
</g>
<!-- Node7&#45;&gt;Node4 -->
<g id="edge8_Node000007_Node000004" class="edge">
<title>Node7&#45;&gt;Node4</title>
<g id="a_edge8_Node000007_Node000004"><a xlink:title=" ">
<path fill="none" stroke="#63b8ff" d="M1130.79,-223.53C1088.53,-214.33 1024.29,-200.34 979.1,-190.5"/>
<polygon fill="#63b8ff" stroke="#63b8ff" points="980.04,-187.13 969.53,-188.42 978.56,-193.97 980.04,-187.13"/>
</a>
</g>
</g>
<!-- Node7&#45;&gt;Node5 -->
<g id="edge9_Node000007_Node000005" class="edge">
<title>Node7&#45;&gt;Node5</title>
<g id="a_edge9_Node000007_Node000005"><a xlink:title=" ">
<path fill="none" stroke="#63b8ff" d="M1178.98,-223.59C1182.42,-216.7 1187.22,-207.1 1191.49,-198.57"/>
<polygon fill="#63b8ff" stroke="#63b8ff" points="1194.61,-200.16 1195.95,-189.65 1188.34,-197.03 1194.61,-200.16"/>
</a>
</g>
</g>
<!-- Node8 -->
<g id="Node000008" class="node">
<title>Node8</title>
<g id="a_Node000008"><a xlink:title=" ">
<polygon fill="#e0e0e0" stroke="#999999" points="1101.77,-188 1058.77,-188 1058.77,-168 1101.77,-168 1101.77,-188"/>
<text xml:space="preserve" text-anchor="middle" x="1080.27" y="-174.5" font-family="Helvetica,sans-Serif" font-size="10.00">vector</text>
</a>
</g>
</g>
<!-- Node7&#45;&gt;Node8 -->
<g id="edge7_Node000007_Node000008" class="edge">
<title>Node7&#45;&gt;Node8</title>
<g id="a_edge7_Node000007_Node000008"><a xlink:title=" ">
<path fill="none" stroke="#63b8ff" d="M1157.9,-223.59C1143.7,-215.44 1122.89,-203.48 1106.39,-194"/>
<polygon fill="#63b8ff" stroke="#63b8ff" points="1108.5,-191.18 1098.09,-189.23 1105.01,-197.25 1108.5,-191.18"/>
</a>
</g>
</g>
<!-- Node9 -->
<g id="Node000009" class="node">
<title>Node9</title>
<g id="a_Node000009"><a xlink:title=" ">
<polygon fill="#e0e0e0" stroke="#999999" points="1041.15,-188 985.4,-188 985.4,-168 1041.15,-168 1041.15,-188"/>
<text xml:space="preserve" text-anchor="middle" x="1013.27" y="-174.5" font-family="Helvetica,sans-Serif" font-size="10.00">algorithm</text>
</a>
</g>
</g>
<!-- Node7&#45;&gt;Node9 -->
<g id="edge10_Node000007_Node000009" class="edge">
<title>Node7&#45;&gt;Node9</title>
<g id="a_edge10_Node000007_Node000009"><a xlink:title=" ">
<path fill="none" stroke="#63b8ff" d="M1146.23,-223.59C1120.19,-214.86 1081.17,-201.77 1052.13,-192.03"/>
<polygon fill="#63b8ff" stroke="#63b8ff" points="1053.56,-188.82 1042.97,-188.96 1051.34,-195.46 1053.56,-188.82"/>
</a>
</g>
</g>
<!-- Node10 -->
<g id="Node000010" class="node">
<title>Node10</title>
<g id="a_Node000010"><a xlink:href="entity_8hpp.html" target="_top" xlink:title=" ">
<polygon fill="white" stroke="#666666" points="1341.27,-188 1283.27,-188 1283.27,-168 1341.27,-168 1341.27,-188"/>
<text xml:space="preserve" text-anchor="middle" x="1312.27" y="-174.5" font-family="Helvetica,sans-Serif" font-size="10.00">entity.hpp</text>
</a>
</g>
</g>
<!-- Node7&#45;&gt;Node10 -->
<g id="edge11_Node000007_Node000010" class="edge">
<title>Node7&#45;&gt;Node10</title>
<g id="a_edge11_Node000007_Node000010"><a xlink:title=" ">
<path fill="none" stroke="#63b8ff" d="M1198.31,-223.59C1220.24,-215.01 1252.9,-202.23 1277.64,-192.55"/>
<polygon fill="#63b8ff" stroke="#63b8ff" points="1278.6,-195.93 1286.64,-189.03 1276.05,-189.42 1278.6,-195.93"/>
</a>
</g>
</g>
<!-- Node11 -->
<g id="Node000011" class="node">
<title>Node11</title>
<g id="a_Node000011"><a xlink:title=" ">
<polygon fill="#e0e0e0" stroke="#999999" points="1340.77,-132 1303.77,-132 1303.77,-112 1340.77,-112 1340.77,-132"/>
<text xml:space="preserve" text-anchor="middle" x="1322.27" y="-118.5" font-family="Helvetica,sans-Serif" font-size="10.00">tuple</text>
</a>
</g>
</g>
<!-- Node10&#45;&gt;Node11 -->
<g id="edge12_Node000010_Node000011" class="edge">
<title>Node10&#45;&gt;Node11</title>
<g id="a_edge12_Node000010_Node000011"><a xlink:title=" ">
<path fill="none" stroke="#63b8ff" d="M1314.01,-167.59C1315.25,-160.93 1316.95,-151.75 1318.49,-143.44"/>
<polygon fill="#63b8ff" stroke="#63b8ff" points="1321.9,-144.26 1320.28,-133.79 1315.01,-142.98 1321.9,-144.26"/>
</a>
</g>
</g>
<!-- Node12 -->
<g id="Node000012" class="node">
<title>Node12</title>
<g id="a_Node000012"><a xlink:href="components_8hpp.html" target="_top" xlink:title=" ">
<polygon fill="white" stroke="#666666" points="1285.27,-132 1197.27,-132 1197.27,-112 1285.27,-112 1285.27,-132"/>
<text xml:space="preserve" text-anchor="middle" x="1241.27" y="-118.5" font-family="Helvetica,sans-Serif" font-size="10.00">components.hpp</text>
</a>
</g>
</g>
<!-- Node10&#45;&gt;Node12 -->
<g id="edge13_Node000010_Node000012" class="edge">
<title>Node10&#45;&gt;Node12</title>
<g id="a_edge13_Node000010_Node000012"><a xlink:title=" ">
<path fill="none" stroke="#63b8ff" d="M1299.91,-167.59C1289.62,-159.77 1274.75,-148.46 1262.56,-139.19"/>
<polygon fill="#63b8ff" stroke="#63b8ff" points="1264.78,-136.48 1254.7,-133.21 1260.54,-142.05 1264.78,-136.48"/>
</a>
</g>
</g>
<!-- Node13 -->
<g id="Node000013" class="node">
<title>Node13</title>
<g id="a_Node000013"><a xlink:title=" ">
<polygon fill="#e0e0e0" stroke="#999999" points="1436.15,-76 1302.4,-76 1302.4,-56 1436.15,-56 1436.15,-76"/>
<text xml:space="preserve" text-anchor="middle" x="1369.27" y="-62.5" font-family="Helvetica,sans-Serif" font-size="10.00">SFML/System/Vector2.hpp</text>
</a>
</g>
</g>
<!-- Node12&#45;&gt;Node13 -->
<g id="edge14_Node000012_Node000013" class="edge">
<title>Node12&#45;&gt;Node13</title>
<g id="a_edge14_Node000012_Node000013"><a xlink:title=" ">
<path fill="none" stroke="#63b8ff" d="M1263.57,-111.59C1283.64,-103.13 1313.39,-90.58 1336.22,-80.94"/>
<polygon fill="#63b8ff" stroke="#63b8ff" points="1337.56,-84.18 1345.41,-77.07 1334.83,-77.73 1337.56,-84.18"/>
</a>
</g>
</g>
<!-- Node12&#45;&gt;Node14 -->
<g id="edge15_Node000012_Node000014" class="edge">
<title>Node12&#45;&gt;Node14</title>
<g id="a_edge15_Node000012_Node000014"><a xlink:title=" ">
<path fill="none" stroke="#63b8ff" d="M1228.73,-111.59C1218.3,-103.77 1203.23,-92.46 1190.86,-83.19"/>
<polygon fill="#63b8ff" stroke="#63b8ff" points="1192.98,-80.41 1182.88,-77.21 1188.78,-86.01 1192.98,-80.41"/>
</a>
</g>
</g>
<!-- Node15 -->
<g id="Node000015" class="node">
<title>Node15</title>
<g id="a_Node000015"><a xlink:href="animation_8hpp.html" target="_top" xlink:title=" ">
<polygon fill="white" stroke="#666666" points="624.65,-76 547.9,-76 547.9,-56 624.65,-56 624.65,-76"/>
<text xml:space="preserve" text-anchor="middle" x="586.27" y="-62.5" font-family="Helvetica,sans-Serif" font-size="10.00">animation.hpp</text>
</a>
</g>
</g>
<!-- Node12&#45;&gt;Node15 -->
<g id="edge16_Node000012_Node000015" class="edge">
<title>Node12&#45;&gt;Node15</title>
<g id="a_edge16_Node000012_Node000015"><a xlink:title=" ">
<path fill="none" stroke="#63b8ff" d="M1197.02,-117.35C1079.54,-107.67 760.29,-81.35 636.38,-71.13"/>
<polygon fill="#63b8ff" stroke="#63b8ff" points="636.77,-67.65 626.52,-70.32 636.2,-74.63 636.77,-67.65"/>
</a>
</g>
</g>
<!-- Node16 -->
<g id="Node000016" class="node">
<title>Node16</title>
<g id="a_Node000016"><a xlink:title=" ">
<polygon fill="#e0e0e0" stroke="#999999" points="771.27,-20 731.27,-20 731.27,0 771.27,0 771.27,-20"/>
<text xml:space="preserve" text-anchor="middle" x="751.27" y="-6.5" font-family="Helvetica,sans-Serif" font-size="10.00">string</text>
</a>
</g>
</g>
<!-- Node15&#45;&gt;Node16 -->
<g id="edge17_Node000015_Node000016" class="edge">
<title>Node15&#45;&gt;Node16</title>
<g id="a_edge17_Node000015_Node000016"><a xlink:title=" ">
<path fill="none" stroke="#63b8ff" d="M615.01,-55.59C644.49,-45.95 690.18,-31 720.4,-21.1"/>
<polygon fill="#63b8ff" stroke="#63b8ff" points="721.31,-24.49 729.73,-18.05 719.13,-17.84 721.31,-24.49"/>
</a>
</g>
</g>
<!-- Node17 -->
<g id="Node000017" class="node">
<title>Node17</title>
<g id="a_Node000017"><a xlink:title=" ">
<polygon fill="#e0e0e0" stroke="#999999" points="652.02,-20 520.52,-20 520.52,0 652.02,0 652.02,-20"/>
<text xml:space="preserve" text-anchor="middle" x="586.27" y="-6.5" font-family="Helvetica,sans-Serif" font-size="10.00">SFML/Graphics/Sprite.hpp</text>
</a>
</g>
</g>
<!-- Node15&#45;&gt;Node17 -->
<g id="edge18_Node000015_Node000017" class="edge">
<title>Node15&#45;&gt;Node17</title>
<g id="a_edge18_Node000015_Node000017"><a xlink:title=" ">
<path fill="none" stroke="#63b8ff" d="M586.27,-55.59C586.27,-49.01 586.27,-39.96 586.27,-31.73"/>
<polygon fill="#63b8ff" stroke="#63b8ff" points="589.77,-31.81 586.27,-21.81 582.77,-31.81 589.77,-31.81"/>
</a>
</g>
</g>
<!-- Node18&#45;&gt;Node16 -->
<g id="edge20_Node000018_Node000016" class="edge">
<title>Node18&#45;&gt;Node16</title>
<g id="a_edge20_Node000018_Node000016"><a xlink:title=" ">
<path fill="none" stroke="#63b8ff" d="M765.91,-111.62C763.35,-94.01 757.76,-55.59 754.28,-31.65"/>
<polygon fill="#63b8ff" stroke="#63b8ff" points="757.75,-31.24 752.85,-21.85 750.83,-32.25 757.75,-31.24"/>
</a>
</g>
</g>
<!-- Node19&#45;&gt;Node16 -->
<g id="edge22_Node000019_Node000016" class="edge">
<title>Node19&#45;&gt;Node16</title>
<g id="a_edge22_Node000019_Node000016"><a xlink:title=" ">
<path fill="none" stroke="#63b8ff" d="M642.03,-223.74C659.12,-190.46 717.7,-76.39 741.3,-30.42"/>
<polygon fill="#63b8ff" stroke="#63b8ff" points="744.35,-32.14 745.81,-21.64 738.13,-28.94 744.35,-32.14"/>
</a>
</g>
</g>
<!-- Node20 -->
<g id="Node000020" class="node">
<title>Node20</title>
<g id="a_Node000020"><a xlink:title=" ">
<polygon fill="#e0e0e0" stroke="#999999" points="1157.15,-188 1119.4,-188 1119.4,-168 1157.15,-168 1157.15,-188"/>
<text xml:space="preserve" text-anchor="middle" x="1138.27" y="-174.5" font-family="Helvetica,sans-Serif" font-size="10.00">array</text>
</a>
</g>
</g>
<!-- Node19&#45;&gt;Node20 -->
<g id="edge23_Node000019_Node000020" class="edge">
<title>Node19&#45;&gt;Node20</title>
<g id="a_edge23_Node000019_Node000020"><a xlink:title=" ">
<path fill="none" stroke="#63b8ff" d="M685.75,-225.11C688.63,-224.71 691.49,-224.34 694.27,-224 875.23,-201.93 927.04,-224.72 1107.72,-188.35"/>
<polygon fill="#63b8ff" stroke="#63b8ff" points="1108.38,-191.79 1117.47,-186.35 1106.97,-184.93 1108.38,-191.79"/>
</a>
</g>
</g>
<!-- Node21 -->
<g id="Node000021" class="node">
<title>Node21</title>
<g id="a_Node000021"><a xlink:title=" ">
<polygon fill="#e0e0e0" stroke="#999999" points="734.02,-188 680.52,-188 680.52,-168 734.02,-168 734.02,-188"/>
<text xml:space="preserve" text-anchor="middle" x="707.27" y="-174.5" font-family="Helvetica,sans-Serif" font-size="10.00">toml.hpp</text>
</a>
</g>
</g>
<!-- Node19&#45;&gt;Node21 -->
<g id="edge24_Node000019_Node000021" class="edge">
<title>Node19&#45;&gt;Node21</title>
<g id="a_edge24_Node000019_Node000021"><a xlink:title=" ">
<path fill="none" stroke="#63b8ff" d="M649.47,-223.59C659.6,-215.77 674.26,-204.46 686.28,-195.19"/>
<polygon fill="#63b8ff" stroke="#63b8ff" points="688.24,-198.1 694.02,-189.22 683.97,-192.56 688.24,-198.1"/>
</a>
</g>
</g>
<!-- Node25 -->
<g id="Node000025" class="node">
<title>Node25</title>
<g id="a_Node000025"><a xlink:title=" ">
<polygon fill="#e0e0e0" stroke="#999999" points="289.27,-300 117.27,-300 117.27,-280 289.27,-280 289.27,-300"/>
<text xml:space="preserve" text-anchor="middle" x="203.27" y="-286.5" font-family="Helvetica,sans-Serif" font-size="10.00">SFML/Graphics/RenderWindow.hpp</text>
</a>
</g>
</g>
<!-- Node24&#45;&gt;Node25 -->
<g id="edge29_Node000024_Node000025" class="edge">
<title>Node24&#45;&gt;Node25</title>
<g id="a_edge29_Node000024_Node000025"><a xlink:title=" ">
<path fill="none" stroke="#63b8ff" d="M455.55,-336.56C404.85,-327.4 323.56,-312.72 267.01,-302.51"/>
<polygon fill="#63b8ff" stroke="#63b8ff" points="267.65,-299.07 257.19,-300.74 266.41,-305.96 267.65,-299.07"/>
</a>
</g>
</g>
<!-- Node26 -->
<g id="Node000026" class="node">
<title>Node26</title>
<g id="a_Node000026"><a xlink:title=" ">
<polygon fill="#e0e0e0" stroke="#999999" points="433.4,-300 307.15,-300 307.15,-280 433.4,-280 433.4,-300"/>
<text xml:space="preserve" text-anchor="middle" x="370.27" y="-286.5" font-family="Helvetica,sans-Serif" font-size="10.00">SFML/System/Clock.hpp</text>
</a>
</g>
</g>
<!-- Node24&#45;&gt;Node26 -->
<g id="edge30_Node000024_Node000026" class="edge">
<title>Node24&#45;&gt;Node26</title>
<g id="a_edge30_Node000024_Node000026"><a xlink:title=" ">
<path fill="none" stroke="#63b8ff" d="M479.28,-335.59C458.49,-327.09 427.62,-314.46 404.03,-304.81"/>
<polygon fill="#63b8ff" stroke="#63b8ff" points="405.43,-301.6 394.85,-301.05 402.78,-308.08 405.43,-301.6"/>
</a>
</g>
</g>
<!-- Node27 -->
<g id="Node000027" class="node">
<title>Node27</title>
<g id="a_Node000027"><a xlink:href="config__parser_8hpp.html" target="_top" xlink:title=" ">
<polygon fill="white" stroke="#666666" points="673.9,-300 580.65,-300 580.65,-280 673.9,-280 673.9,-300"/>
<text xml:space="preserve" text-anchor="middle" x="627.27" y="-286.5" font-family="Helvetica,sans-Serif" font-size="10.00">config_parser.hpp</text>
</a>
</g>
</g>
<!-- Node24&#45;&gt;Node27 -->
<g id="edge31_Node000024_Node000027" class="edge">
<title>Node24&#45;&gt;Node27</title>
<g id="a_edge31_Node000024_Node000027"><a xlink:title=" ">
<path fill="none" stroke="#63b8ff" d="M524.05,-335.59C543.64,-327.13 572.7,-314.58 595,-304.94"/>
<polygon fill="#63b8ff" stroke="#63b8ff" points="596.15,-308.26 603.94,-301.08 593.37,-301.83 596.15,-308.26"/>
</a>
</g>
</g>
<!-- Node28 -->
<g id="Node000028" class="node">
<title>Node28</title>
<g id="a_Node000028"><a xlink:href="asset__manager_8hpp.html" target="_top" xlink:title=" ">
<polygon fill="white" stroke="#666666" points="553.02,-300 451.52,-300 451.52,-280 553.02,-280 553.02,-300"/>
<text xml:space="preserve" text-anchor="middle" x="502.27" y="-286.5" font-family="Helvetica,sans-Serif" font-size="10.00">asset_manager.hpp</text>
</a>
</g>
</g>
<!-- Node24&#45;&gt;Node28 -->
<g id="edge33_Node000024_Node000028" class="edge">
<title>Node24&#45;&gt;Node28</title>
<g id="a_edge33_Node000024_Node000028"><a xlink:title=" ">
<path fill="none" stroke="#63b8ff" d="M502.27,-335.59C502.27,-329.01 502.27,-319.96 502.27,-311.73"/>
<polygon fill="#63b8ff" stroke="#63b8ff" points="505.77,-311.81 502.27,-301.81 498.77,-311.81 505.77,-311.81"/>
</a>
</g>
</g>
<!-- Node27&#45;&gt;Node19 -->
<g id="edge32_Node000027_Node000019" class="edge">
<title>Node27&#45;&gt;Node19</title>
<g id="a_edge32_Node000027_Node000019"><a xlink:title=" ">
<path fill="none" stroke="#63b8ff" d="M629.01,-279.59C630.25,-272.93 631.95,-263.75 633.49,-255.44"/>
<polygon fill="#63b8ff" stroke="#63b8ff" points="636.9,-256.26 635.28,-245.79 630.01,-254.98 636.9,-256.26"/>
</a>
</g>
</g>
<!-- Node28&#45;&gt;Node4 -->
<g id="edge34_Node000028_Node000004" class="edge">
<title>Node28&#45;&gt;Node4</title>
<g id="a_edge34_Node000028_Node000004"><a xlink:title=" ">
<path fill="none" stroke="#63b8ff" d="M510.26,-279.55C523.26,-264.89 550.55,-236.99 580.27,-224 631.69,-201.53 789.93,-188.01 873.43,-182.26"/>
<polygon fill="#63b8ff" stroke="#63b8ff" points="873.44,-185.77 883.18,-181.6 872.97,-178.78 873.44,-185.77"/>
</a>
</g>
</g>
<!-- Node28&#45;&gt;Node15 -->
<g id="edge40_Node000028_Node000015" class="edge">
<title>Node28&#45;&gt;Node15</title>
<g id="a_edge40_Node000028_Node000015"><a xlink:title=" ">
<path fill="none" stroke="#63b8ff" d="M451.24,-281.11C448.21,-280.71 445.2,-280.34 442.27,-280 345.24,-268.73 -53.09,-301.57 6.27,-224 71.6,-138.64 407.56,-88.98 536.14,-72.85"/>
<polygon fill="#63b8ff" stroke="#63b8ff" points="536.56,-76.32 546.06,-71.62 535.7,-69.37 536.56,-76.32"/>
</a>
</g>
</g>
<!-- Node28&#45;&gt;Node22 -->
<g id="edge37_Node000028_Node000022" class="edge">
<title>Node28&#45;&gt;Node22</title>
<g id="a_edge37_Node000028_Node000022"><a xlink:title=" ">
<path fill="none" stroke="#63b8ff" d="M548.56,-279.53C593.19,-270.4 660.85,-256.56 708.89,-246.74"/>
<polygon fill="#63b8ff" stroke="#63b8ff" points="709.46,-250.19 718.56,-244.76 708.06,-243.34 709.46,-250.19"/>
</a>
</g>
</g>
<!-- Node29 -->
<g id="Node000029" class="node">
<title>Node29</title>
<g id="a_Node000029"><a xlink:title=" ">
<polygon fill="#e0e0e0" stroke="#999999" points="532.77,-244 471.77,-244 471.77,-224 532.77,-224 532.77,-244"/>
<text xml:space="preserve" text-anchor="middle" x="502.27" y="-230.5" font-family="Helvetica,sans-Serif" font-size="10.00">filesystem</text>
</a>
</g>
</g>
<!-- Node28&#45;&gt;Node29 -->
<g id="edge35_Node000028_Node000029" class="edge">
<title>Node28&#45;&gt;Node29</title>
<g id="a_edge35_Node000028_Node000029"><a xlink:title=" ">
<path fill="none" stroke="#63b8ff" d="M502.27,-279.59C502.27,-273.01 502.27,-263.96 502.27,-255.73"/>
<polygon fill="#63b8ff" stroke="#63b8ff" points="505.77,-255.81 502.27,-245.81 498.77,-255.81 505.77,-255.81"/>
</a>
</g>
</g>
<!-- Node30 -->
<g id="Node000030" class="node">
<title>Node30</title>
<g id="a_Node000030"><a xlink:title=" ">
<polygon fill="#e0e0e0" stroke="#999999" points="153.4,-244 15.15,-244 15.15,-224 153.4,-224 153.4,-244"/>
<text xml:space="preserve" text-anchor="middle" x="84.27" y="-230.5" font-family="Helvetica,sans-Serif" font-size="10.00">SFML/Graphics/Texture.hpp</text>
</a>
</g>
</g>
<!-- Node28&#45;&gt;Node30 -->
<g id="edge36_Node000028_Node000030" class="edge">
<title>Node28&#45;&gt;Node30</title>
<g id="a_edge36_Node000028_Node000030"><a xlink:title=" ">
<path fill="none" stroke="#63b8ff" d="M451.22,-281.26C448.2,-280.82 445.19,-280.4 442.27,-280 347.14,-266.89 237.57,-253.34 164.96,-244.59"/>
<polygon fill="#63b8ff" stroke="#63b8ff" points="165.49,-241.12 155.14,-243.4 164.65,-248.07 165.49,-241.12"/>
</a>
</g>
</g>
<!-- Node31 -->
<g id="Node000031" class="node">
<title>Node31</title>
<g id="a_Node000031"><a xlink:title=" ">
<polygon fill="#e0e0e0" stroke="#999999" points="316.77,-244 171.77,-244 171.77,-224 316.77,-224 316.77,-244"/>
<text xml:space="preserve" text-anchor="middle" x="244.27" y="-230.5" font-family="Helvetica,sans-Serif" font-size="10.00">SFML/Audio/SoundBuffer.hpp</text>
</a>
</g>
</g>
<!-- Node28&#45;&gt;Node31 -->
<g id="edge38_Node000028_Node000031" class="edge">
<title>Node28&#45;&gt;Node31</title>
<g id="a_edge38_Node000028_Node000031"><a xlink:title=" ">
<path fill="none" stroke="#63b8ff" d="M457.04,-279.53C413.51,-270.42 347.58,-256.62 300.65,-246.8"/>
<polygon fill="#63b8ff" stroke="#63b8ff" points="301.44,-243.39 290.94,-244.77 300.01,-250.24 301.44,-243.39"/>
</a>
</g>
</g>
<!-- Node32 -->
<g id="Node000032" class="node">
<title>Node32</title>
<g id="a_Node000032"><a xlink:title=" ">
<polygon fill="#e0e0e0" stroke="#999999" points="453.27,-244 335.27,-244 335.27,-224 453.27,-224 453.27,-244"/>
<text xml:space="preserve" text-anchor="middle" x="394.27" y="-230.5" font-family="Helvetica,sans-Serif" font-size="10.00">SFML/Audio/Music.hpp</text>
</a>
</g>
</g>
<!-- Node28&#45;&gt;Node32 -->
<g id="edge39_Node000028_Node000032" class="edge">
<title>Node28&#45;&gt;Node32</title>
<g id="a_edge39_Node000028_Node000032"><a xlink:title=" ">
<path fill="none" stroke="#63b8ff" d="M483.46,-279.59C466.91,-271.32 442.56,-259.14 423.48,-249.6"/>
<polygon fill="#63b8ff" stroke="#63b8ff" points="425.1,-246.5 414.59,-245.16 421.96,-252.76 425.1,-246.5"/>
</a>
</g>
</g>
<!-- Node33&#45;&gt;Node3 -->
<g id="edge42_Node000033_Node000003" class="edge">
<title>Node33&#45;&gt;Node3</title>
<g id="a_edge42_Node000033_Node000003"><a xlink:title=" ">
<path fill="none" stroke="#63b8ff" d="M1187.11,-335.59C1170.18,-327.28 1145.22,-315.03 1125.75,-305.47"/>
<polygon fill="#63b8ff" stroke="#63b8ff" points="1127.46,-302.41 1116.94,-301.15 1124.38,-308.7 1127.46,-302.41"/>
</a>
</g>
</g>
<!-- Node33&#45;&gt;Node14 -->
<g id="edge49_Node000033_Node000014" class="edge">
<title>Node33&#45;&gt;Node14</title>
<g id="a_edge49_Node000033_Node000014"><a xlink:title=" ">
<path fill="none" stroke="#63b8ff" d="M1213.06,-335.65C1226.7,-315.8 1255.65,-267.7 1250.27,-224 1247.14,-198.54 1250.46,-189.37 1236.27,-168 1221.52,-145.78 1203.46,-153.92 1188.27,-132 1179.05,-118.68 1174.25,-100.87 1171.78,-87.25"/>
<polygon fill="#63b8ff" stroke="#63b8ff" points="1175.29,-87.05 1170.34,-77.68 1168.37,-88.09 1175.29,-87.05"/>
</a>
</g>
</g>
<!-- Node33&#45;&gt;Node22 -->
<g id="edge50_Node000033_Node000022" class="edge">
<title>Node33&#45;&gt;Node22</title>
<g id="a_edge50_Node000033_Node000022"><a xlink:title=" ">
<path fill="none" stroke="#63b8ff" d="M1168.27,-335.56C1137.77,-327.5 1094.11,-314.87 1057.27,-300 1039.21,-292.71 1036.73,-286.23 1018.27,-280 960.23,-260.43 891.64,-248.88 840.69,-242.4"/>
<polygon fill="#63b8ff" stroke="#63b8ff" points="841.3,-238.95 830.94,-241.2 840.44,-245.9 841.3,-238.95"/>
</a>
</g>
</g>
<!-- Node33&#45;&gt;Node23 -->
<g id="edge51_Node000033_Node000023" class="edge">
<title>Node33&#45;&gt;Node23</title>
<g id="a_edge51_Node000033_Node000023"><a xlink:title=" ">
<path fill="none" stroke="#63b8ff" d="M1160.86,-335.53C1117.17,-326.42 1050.98,-312.62 1003.87,-302.8"/>
<polygon fill="#63b8ff" stroke="#63b8ff" points="1004.62,-299.38 994.11,-300.77 1003.19,-306.23 1004.62,-299.38"/>
</a>
</g>
</g>
<!-- Node34 -->
<g id="Node000034" class="node">
<title>Node34</title>
<g id="a_Node000034"><a xlink:href="misc_8hpp.html" target="_top" xlink:title=" ">
<polygon fill="white" stroke="#666666" points="1469.15,-244 1413.4,-244 1413.4,-224 1469.15,-224 1469.15,-244"/>
<text xml:space="preserve" text-anchor="middle" x="1441.27" y="-230.5" font-family="Helvetica,sans-Serif" font-size="10.00">misc.hpp</text>
</a>
</g>
</g>
<!-- Node33&#45;&gt;Node34 -->
<g id="edge43_Node000033_Node000034" class="edge">
<title>Node33&#45;&gt;Node34</title>
<g id="a_edge43_Node000033_Node000034"><a xlink:title=" ">
<path fill="none" stroke="#63b8ff" d="M1227.19,-335.63C1247.26,-326.61 1278.41,-312.52 1305.27,-300 1342.13,-282.82 1384.34,-262.55 1411.84,-249.27"/>
<polygon fill="#63b8ff" stroke="#63b8ff" points="1413.12,-252.54 1420.6,-245.03 1410.07,-246.24 1413.12,-252.54"/>
</a>
</g>
</g>
<!-- Node34&#45;&gt;Node13 -->
<g id="edge46_Node000034_Node000013" class="edge">
<title>Node34&#45;&gt;Node13</title>
<g id="a_edge46_Node000034_Node000013"><a xlink:title=" ">
<path fill="none" stroke="#63b8ff" d="M1444.18,-223.89C1447.78,-211.06 1452.72,-187.09 1446.27,-168 1434.82,-134.1 1406.94,-102.59 1388.07,-84.06"/>
<polygon fill="#63b8ff" stroke="#63b8ff" points="1390.64,-81.67 1380.98,-77.32 1385.81,-86.75 1390.64,-81.67"/>
</a>
</g>
</g>
<!-- Node34&#45;&gt;Node16 -->
<g id="edge47_Node000034_Node000016" class="edge">
<title>Node34&#45;&gt;Node16</title>
<g id="a_edge47_Node000034_Node000016"><a xlink:title=" ">
<path fill="none" stroke="#63b8ff" d="M1469.57,-230.55C1517.71,-225.74 1612.29,-213.24 1632.27,-188 1637.79,-181.03 1636.66,-175.73 1632.27,-168 1584.51,-83.72 1537.76,-84.83 1445.27,-56 1319.19,-16.7 901.82,-11.7 783.06,-11.08"/>
<polygon fill="#63b8ff" stroke="#63b8ff" points="783.12,-7.58 773.11,-11.04 783.09,-14.58 783.12,-7.58"/>
</a>
</g>
</g>
<!-- Node34&#45;&gt;Node20 -->
<g id="edge44_Node000034_Node000020" class="edge">
<title>Node34&#45;&gt;Node20</title>
<g id="a_edge44_Node000034_Node000020"><a xlink:title=" ">
<path fill="none" stroke="#63b8ff" d="M1413.05,-225.86C1410.09,-225.2 1407.13,-224.56 1404.27,-224 1302.79,-204.02 1272.43,-211.88 1168.42,-188.17"/>
<polygon fill="#63b8ff" stroke="#63b8ff" points="1169.45,-184.81 1158.91,-185.95 1167.86,-191.63 1169.45,-184.81"/>
</a>
</g>
</g>
<!-- Node35 -->
<g id="Node000035" class="node">
<title>Node35</title>
<g id="a_Node000035"><a xlink:title=" ">
<polygon fill="#e0e0e0" stroke="#999999" points="1622.9,-188 1493.65,-188 1493.65,-168 1622.9,-168 1622.9,-188"/>
<text xml:space="preserve" text-anchor="middle" x="1558.27" y="-174.5" font-family="Helvetica,sans-Serif" font-size="10.00">SFML/Graphics/Color.hpp</text>
</a>
</g>
</g>
<!-- Node34&#45;&gt;Node35 -->
<g id="edge45_Node000034_Node000035" class="edge">
<title>Node34&#45;&gt;Node35</title>
<g id="a_edge45_Node000034_Node000035"><a xlink:title=" ">
<path fill="none" stroke="#63b8ff" d="M1461.65,-223.59C1479.83,-215.21 1506.7,-202.8 1527.49,-193.21"/>
<polygon fill="#63b8ff" stroke="#63b8ff" points="1528.75,-196.48 1536.36,-189.11 1525.81,-190.13 1528.75,-196.48"/>
</a>
</g>
</g>
<!-- Node34&#45;&gt;Node36 -->
<g id="edge48_Node000034_Node000036" class="edge">
<title>Node34&#45;&gt;Node36</title>
<g id="a_edge48_Node000034_Node000036"><a xlink:title=" ">
<path fill="none" stroke="#63b8ff" d="M1469.27,-226.94C1473.95,-225.94 1478.74,-224.93 1483.27,-224 1564.03,-207.36 1584.55,-204.84 1665.27,-188 1666.27,-187.79 1667.28,-187.58 1668.3,-187.36"/>
<polygon fill="#63b8ff" stroke="#63b8ff" points="1668.86,-190.82 1677.9,-185.3 1667.39,-183.98 1668.86,-190.82"/>
</a>
</g>
</g>
<!-- Node37&#45;&gt;Node5 -->
<g id="edge53_Node000037_Node000005" class="edge">
<title>Node37&#45;&gt;Node5</title>
<g id="a_edge53_Node000037_Node000005"><a xlink:title=" ">
<path fill="none" stroke="#63b8ff" d="M1333.4,-223.59C1306.89,-214.64 1266.84,-201.13 1237.78,-191.32"/>
<polygon fill="#63b8ff" stroke="#63b8ff" points="1239.26,-188.13 1228.67,-188.25 1237.03,-194.76 1239.26,-188.13"/>
</a>
</g>
</g>
<!-- Node37&#45;&gt;Node10 -->
<g id="edge56_Node000037_Node000010" class="edge">
<title>Node37&#45;&gt;Node10</title>
<g id="a_edge56_Node000037_Node000010"><a xlink:title=" ">
<path fill="none" stroke="#63b8ff" d="M1352.74,-223.59C1345.99,-216.16 1336.39,-205.58 1328.23,-196.58"/>
<polygon fill="#63b8ff" stroke="#63b8ff" points="1331.04,-194.47 1321.73,-189.42 1325.86,-199.18 1331.04,-194.47"/>
</a>
</g>
</g>
<!-- Node37&#45;&gt;Node13 -->
<g id="edge55_Node000037_Node000013" class="edge">
<title>Node37&#45;&gt;Node13</title>
<g id="a_edge55_Node000037_Node000013"><a xlink:title=" ">
<path fill="none" stroke="#63b8ff" d="M1361.73,-223.6C1362.99,-197.46 1366.55,-123.48 1368.29,-87.36"/>
<polygon fill="#63b8ff" stroke="#63b8ff" points="1371.77,-87.97 1368.75,-77.81 1364.77,-87.63 1371.77,-87.97"/>
</a>
</g>
</g>
<!-- Node38 -->
<g id="Node000038" class="node">
<title>Node38</title>
<g id="a_Node000038"><a xlink:title=" ">
<polygon fill="#e0e0e0" stroke="#999999" points="1436.9,-188 1397.65,-188 1397.65,-168 1436.9,-168 1436.9,-188"/>
<text xml:space="preserve" text-anchor="middle" x="1417.27" y="-174.5" font-family="Helvetica,sans-Serif" font-size="10.00">limits</text>
</a>
</g>
</g>
<!-- Node37&#45;&gt;Node38 -->
<g id="edge54_Node000037_Node000038" class="edge">
<title>Node37&#45;&gt;Node38</title>
<g id="a_edge54_Node000037_Node000038"><a xlink:title=" ">
<path fill="none" stroke="#63b8ff" d="M1371.03,-223.59C1378.9,-216.01 1390.17,-205.13 1399.62,-196.02"/>
<polygon fill="#63b8ff" stroke="#63b8ff" points="1401.77,-198.81 1406.54,-189.35 1396.91,-193.77 1401.77,-198.81"/>
</a>
</g>
</g>
</g>
</svg>

<g id="navigator" transform="translate(0 0)" fill="#404254">
  <rect fill="#f2f5e9" fill-opacity="0.5" stroke="#606060" stroke-width=".5" x="0" y="0" width="60" height="60"/>
  <use id="zoomplus" xlink:href="#zoomPlus" x="17" y="9" onmousedown="handleZoom(evt,'in')"/>
  <use id="zoomminus" xlink:href="#zoomMin" x="42" y="9" onmousedown="handleZoom(evt,'out')"/>
  <use id="reset" xlink:href="#resetDef" x="30" y="36" onmousedown="handleReset()"/>
   <use id="arrowup" xlink:href="#arrowUp" x="0" y="0" onmousedown="handlePan(0,-1)"/>
  <use id="arrowright" xlink:href="#arrowRight" x="0" y="0" onmousedown="handlePan(1,0)"/>
  <use id="arrowdown" xlink:href="#arrowDown" x="0" y="0" onmousedown="handlePan(0,1)"/>
  <use id="arrowleft" xlink:href="#arrowLeft" x="0" y="0" onmousedown="handlePan(-1,0)"/>
</g>
<svg viewBox="0 0 15 15" width="100%" height="30px" preserveAspectRatio="xMaxYMin meet">
 <g id="arrow_out" transform="scale(0.3 0.3)">
  <a xlink:href="scene__play_8cpp__incl_org.svg" target="_base">
   <rect id="button" ry="5" rx="5" y="6" x="6" height="38" width="38"
        fill="#f2f5e9" fill-opacity="0.5" stroke="#606060" stroke-width="1.0"/>
   <path id="arrow"
     d="M 11.500037,31.436501 C 11.940474,20.09759 22.043105,11.32322 32.158766,21.979434 L 37.068811,17.246167 C 37.068811,17.246167 37.088388,32 37.088388,32 L 22.160133,31.978069 C 22.160133,31.978069 26.997745,27.140456 26.997745,27.140456 C 18.528582,18.264221 13.291696,25.230495 11.500037,31.436501 z"
     style="fill:#404040;"/>
  </a>
 </g>
</svg>

<style type='text/css'>
<![CDATA[
[data-mouse-over-selected='false'] { opacity: 0.7; }
[data-mouse-over-selected='true']  { opacity: 1.0; }
]]>
</style>
<script type="application/ecmascript"><![CDATA[
document.addEventListener('DOMContentLoaded', (event) => {
  highlightEdges();
  highlightAdjacentNodes();
});
]]></script>
</svg>
