<?xml version="1.0" encoding="UTF-8" standalone="no"?>
<!DOCTYPE svg PUBLIC "-//W3C//DTD SVG 1.1//EN"
 "http://www.w3.org/Graphics/SVG/1.1/DTD/svg11.dtd">
<!-- Generated by graphviz version 13.1.2 (20250808.2320)
 -->
<!-- Title: src/scene_menu.cpp Pages: 1 -->
<!--zoomable 420 -->

<svg id="main" version="1.1" xmlns="http://www.w3.org/2000/svg" xmlns:xlink="http://www.w3.org/1999/xlink" xml:space="preserve" onload="init(evt)">
<style type="text/css"><![CDATA[
.node, .edge {opacity: 0.7;}
.node.selected, .edge.selected {opacity: 1;}
.edge:hover path { stroke: red; }
.edge:hover polygon { stroke: red; fill: red; }
]]></style>

<defs>
  <circle id="rim" cx="0" cy="0" r="7"/>
  <circle id="rim2" cx="0" cy="0" r="3.5"/>
  <g id="zoomPlus">
    <use xlink:href="#rim" fill="#404040"><set attributeName="fill" to="#808080" begin="zoomplus.mouseover" end="zoomplus.mouseout"/></use>
    <path d="M-4,0h8M0,-4v8" fill="none" stroke="white" stroke-width="1.5" pointer-events="none"/>
  </g>
  <g id="zoomMin">
    <use xlink:href="#rim" fill="#404040"><set attributeName="fill" to="#808080" begin="zoomminus.mouseover" end="zoomminus.mouseout"/></use>
    <path d="M-4,0h8" fill="none" stroke="white" stroke-width="1.5" pointer-events="none"/>
  </g>
  <g id="arrowUp" transform="translate(30 24)">
    <use xlink:href="#rim"/>
    <path pointer-events="none" fill="none" stroke="white" stroke-width="1.5" d="M0,-3.0v7 M-2.5,-0.5L0,-3.0L2.5,-0.5"/>
  </g>
  <g id="arrowRight" transform="rotate(90) translate(36 -43)">
    <use xlink:href="#rim"/>
    <path pointer-events="none" fill="none" stroke="white" stroke-width="1.5" d="M0,-3.0v7 M-2.5,-0.5L0,-3.0L2.5,-0.5"/>
  </g>
  <g id="arrowDown" transform="rotate(180) translate(-30 -48)">
    <use xlink:href="#rim"/>
    <path pointer-events="none" fill="none" stroke="white" stroke-width="1.5" d="M0,-3.0v7 M-2.5,-0.5L0,-3.0L2.5,-0.5"/>
  </g>
  <g id="arrowLeft" transform="rotate(270) translate(-36 17)">
    <use xlink:href="#rim"/>
    <path pointer-events="none" fill="none" stroke="white" stroke-width="1.5" d="M0,-3.0v7 M-2.5,-0.5L0,-3.0L2.5,-0.5"/>
  </g>
  <g id="resetDef">
    <use xlink:href="#rim2" fill="#404040"><set attributeName="fill" to="#808080" begin="reset.mouseover" end="reset.mouseout"/></use>
  </g>
</defs>
<script type="application/ecmascript">
var viewWidth = 1484;
var viewHeight = 420;
var sectionId = 'dynsection-0';
</script>
<script type="application/ecmascript" xlink:href="svg.min.js"/>
<svg id="graph" class="graph">
<g id="viewport">
<title>src/scene_menu.cpp</title>
<!-- Node1 -->
<g id="Node000001" class="node">
<title>Node1</title>
<g id="a_Node000001"><a xlink:title=" ">
<polygon fill="#999999" stroke="#666666" points="734.12,-412 627.38,-412 627.38,-392 734.12,-392 734.12,-412"/>
<text xml:space="preserve" text-anchor="middle" x="680.75" y="-398.5" font-family="Helvetica,sans-Serif" font-size="10.00">src/scene_menu.cpp</text>
</a>
</g>
</g>
<!-- Node2 -->
<g id="Node000002" class="node">
<title>Node2</title>
<g id="a_Node000002"><a xlink:href="scene__menu_8hpp.html" target="_top" xlink:title=" ">
<polygon fill="white" stroke="#666666" points="497.88,-356 407.62,-356 407.62,-336 497.88,-336 497.88,-356"/>
<text xml:space="preserve" text-anchor="middle" x="452.75" y="-342.5" font-family="Helvetica,sans-Serif" font-size="10.00">scene_menu.hpp</text>
</a>
</g>
</g>
<!-- Node1&#45;&gt;Node2 -->
<g id="edge1_Node000001_Node000002" class="edge">
<title>Node1&#45;&gt;Node2</title>
<g id="a_edge1_Node000001_Node000002"><a xlink:title=" ">
<path fill="none" stroke="#63b8ff" d="M640.77,-391.53C602.64,-382.5 545.03,-368.85 503.63,-359.05"/>
<polygon fill="#63b8ff" stroke="#63b8ff" points="504.69,-355.7 494.15,-356.81 503.08,-362.52 504.69,-355.7"/>
</a>
</g>
</g>
<!-- Node14 -->
<g id="Node000014" class="node">
<title>Node14</title>
<g id="a_Node000014"><a xlink:title=" ">
<polygon fill="#e0e0e0" stroke="#999999" points="119.5,-76 0,-76 0,-56 119.5,-56 119.5,-76"/>
<text xml:space="preserve" text-anchor="middle" x="59.75" y="-62.5" font-family="Helvetica,sans-Serif" font-size="10.00">SFML/Audio/Sound.hpp</text>
</a>
</g>
</g>
<!-- Node1&#45;&gt;Node14 -->
<g id="edge51_Node000001_Node000014" class="edge">
<title>Node1&#45;&gt;Node14</title>
<g id="a_edge51_Node000001_Node000014"><a xlink:title=" ">
<path fill="none" stroke="#63b8ff" d="M626.98,-397.93C466.62,-388.08 2.75,-354.13 2.75,-291 2.75,-291 2.75,-291 2.75,-177 2.75,-141.35 26.64,-105.75 43.49,-85.08"/>
<polygon fill="#63b8ff" stroke="#63b8ff" points="46.05,-87.48 49.86,-77.6 40.72,-82.94 46.05,-87.48"/>
</a>
</g>
</g>
<!-- Node24 -->
<g id="Node000024" class="node">
<title>Node24</title>
<g id="a_Node000024"><a xlink:href="game__engine_8hpp.html" target="_top" xlink:title=" ">
<polygon fill="white" stroke="#666666" points="811,-356 718.5,-356 718.5,-336 811,-336 811,-356"/>
<text xml:space="preserve" text-anchor="middle" x="764.75" y="-342.5" font-family="Helvetica,sans-Serif" font-size="10.00">game_engine.hpp</text>
</a>
</g>
</g>
<!-- Node1&#45;&gt;Node24 -->
<g id="edge29_Node000001_Node000024" class="edge">
<title>Node1&#45;&gt;Node24</title>
<g id="a_edge29_Node000001_Node000024"><a xlink:title=" ">
<path fill="none" stroke="#63b8ff" d="M695.38,-391.59C707.83,-383.59 725.97,-371.93 740.57,-362.54"/>
<polygon fill="#63b8ff" stroke="#63b8ff" points="742.21,-365.65 748.73,-357.3 738.43,-359.76 742.21,-365.65"/>
</a>
</g>
</g>
<!-- Node35 -->
<g id="Node000035" class="node">
<title>Node35</title>
<g id="a_Node000035"><a xlink:href="scene__play_8hpp.html" target="_top" xlink:title=" ">
<polygon fill="white" stroke="#666666" points="621.5,-356 538,-356 538,-336 621.5,-336 621.5,-356"/>
<text xml:space="preserve" text-anchor="middle" x="579.75" y="-342.5" font-family="Helvetica,sans-Serif" font-size="10.00">scene_play.hpp</text>
</a>
</g>
</g>
<!-- Node1&#45;&gt;Node35 -->
<g id="edge45_Node000001_Node000035" class="edge">
<title>Node1&#45;&gt;Node35</title>
<g id="a_edge45_Node000001_Node000035"><a xlink:title=" ">
<path fill="none" stroke="#63b8ff" d="M663.16,-391.59C647.83,-383.4 625.33,-371.37 607.56,-361.87"/>
<polygon fill="#63b8ff" stroke="#63b8ff" points="609.28,-358.82 598.81,-357.19 605.98,-364.99 609.28,-358.82"/>
</a>
</g>
</g>
<!-- Node36 -->
<g id="Node000036" class="node">
<title>Node36</title>
<g id="a_Node000036"><a xlink:title=" ">
<polygon fill="#e0e0e0" stroke="#999999" points="876.5,-356 829,-356 829,-336 876.5,-336 876.5,-356"/>
<text xml:space="preserve" text-anchor="middle" x="852.75" y="-342.5" font-family="Helvetica,sans-Serif" font-size="10.00">imgui.h</text>
</a>
</g>
</g>
<!-- Node1&#45;&gt;Node36 -->
<g id="edge52_Node000001_Node000036" class="edge">
<title>Node1&#45;&gt;Node36</title>
<g id="a_edge52_Node000001_Node000036"><a xlink:title=" ">
<path fill="none" stroke="#63b8ff" d="M710.71,-391.59C740.54,-382.23 786.31,-367.86 817.78,-357.98"/>
<polygon fill="#63b8ff" stroke="#63b8ff" points="818.74,-361.35 827.23,-355.01 816.64,-354.67 818.74,-361.35"/>
</a>
</g>
</g>
<!-- Node37 -->
<g id="Node000037" class="node">
<title>Node37</title>
<g id="a_Node000037"><a xlink:title=" ">
<polygon fill="#e0e0e0" stroke="#999999" points="971.12,-356 894.38,-356 894.38,-336 971.12,-336 971.12,-356"/>
<text xml:space="preserve" text-anchor="middle" x="932.75" y="-342.5" font-family="Helvetica,sans-Serif" font-size="10.00">imgui&#45;SFML.h</text>
</a>
</g>
</g>
<!-- Node1&#45;&gt;Node37 -->
<g id="edge53_Node000001_Node000037" class="edge">
<title>Node1&#45;&gt;Node37</title>
<g id="a_edge53_Node000001_Node000037"><a xlink:title=" ">
<path fill="none" stroke="#63b8ff" d="M724.93,-391.53C769.05,-382.08 836.73,-367.57 882.78,-357.71"/>
<polygon fill="#63b8ff" stroke="#63b8ff" points="883.47,-361.14 892.51,-355.62 882,-354.29 883.47,-361.14"/>
</a>
</g>
</g>
<!-- Node3 -->
<g id="Node000003" class="node">
<title>Node3</title>
<g id="a_Node000003"><a xlink:href="scene_8hpp.html" target="_top" xlink:title=" ">
<polygon fill="white" stroke="#666666" points="443.25,-300 382.25,-300 382.25,-280 443.25,-280 443.25,-300"/>
<text xml:space="preserve" text-anchor="middle" x="412.75" y="-286.5" font-family="Helvetica,sans-Serif" font-size="10.00">scene.hpp</text>
</a>
</g>
</g>
<!-- Node2&#45;&gt;Node3 -->
<g id="edge2_Node000002_Node000003" class="edge">
<title>Node2&#45;&gt;Node3</title>
<g id="a_edge2_Node000002_Node000003"><a xlink:title=" ">
<path fill="none" stroke="#63b8ff" d="M445.78,-335.59C440.45,-328.39 432.92,-318.23 426.4,-309.43"/>
<polygon fill="#63b8ff" stroke="#63b8ff" points="429.3,-307.47 420.54,-301.51 423.68,-311.63 429.3,-307.47"/>
</a>
</g>
</g>
<!-- Node2&#45;&gt;Node14 -->
<g id="edge26_Node000002_Node000014" class="edge">
<title>Node2&#45;&gt;Node14</title>
<g id="a_edge26_Node000002_Node000014"><a xlink:title=" ">
<path fill="none" stroke="#63b8ff" d="M407.48,-342.5C300.45,-335.34 40.75,-310.24 40.75,-235 40.75,-235 40.75,-235 40.75,-177 40.75,-145.26 48.53,-109.11 54.13,-87.19"/>
<polygon fill="#63b8ff" stroke="#63b8ff" points="57.44,-88.35 56.64,-77.79 50.68,-86.54 57.44,-88.35"/>
</a>
</g>
</g>
<!-- Node19 -->
<g id="Node000019" class="node">
<title>Node19</title>
<g id="a_Node000019"><a xlink:href="misc_8hpp.html" target="_top" xlink:title=" ">
<polygon fill="white" stroke="#666666" points="209.62,-244 153.88,-244 153.88,-224 209.62,-224 209.62,-244"/>
<text xml:space="preserve" text-anchor="middle" x="181.75" y="-230.5" font-family="Helvetica,sans-Serif" font-size="10.00">misc.hpp</text>
</a>
</g>
</g>
<!-- Node2&#45;&gt;Node19 -->
<g id="edge21_Node000002_Node000019" class="edge">
<title>Node2&#45;&gt;Node19</title>
<g id="a_edge21_Node000002_Node000019"><a xlink:title=" ">
<path fill="none" stroke="#63b8ff" d="M429.64,-335.62C381.65,-316.14 270.98,-271.22 215.19,-248.57"/>
<polygon fill="#63b8ff" stroke="#63b8ff" points="216.78,-245.44 206.2,-244.92 214.15,-251.93 216.78,-245.44"/>
</a>
</g>
</g>
<!-- Node22 -->
<g id="Node000022" class="node">
<title>Node22</title>
<g id="a_Node000022"><a xlink:title=" ">
<polygon fill="#e0e0e0" stroke="#999999" points="749.5,-244 624,-244 624,-224 749.5,-224 749.5,-244"/>
<text xml:space="preserve" text-anchor="middle" x="686.75" y="-230.5" font-family="Helvetica,sans-Serif" font-size="10.00">SFML/Graphics/Font.hpp</text>
</a>
</g>
</g>
<!-- Node2&#45;&gt;Node22 -->
<g id="edge27_Node000002_Node000022" class="edge">
<title>Node2&#45;&gt;Node22</title>
<g id="a_edge27_Node000002_Node000022"><a xlink:title=" ">
<path fill="none" stroke="#63b8ff" d="M455.48,-335.85C460.22,-321.59 471.37,-294.24 490.75,-280 510.15,-265.74 565.55,-253.78 612.52,-245.79"/>
<polygon fill="#63b8ff" stroke="#63b8ff" points="612.85,-249.28 622.14,-244.19 611.7,-242.37 612.85,-249.28"/>
</a>
</g>
</g>
<!-- Node23 -->
<g id="Node000023" class="node">
<title>Node23</title>
<g id="a_Node000023"><a xlink:title=" ">
<polygon fill="#e0e0e0" stroke="#999999" points="624.12,-300 499.38,-300 499.38,-280 624.12,-280 624.12,-300"/>
<text xml:space="preserve" text-anchor="middle" x="561.75" y="-286.5" font-family="Helvetica,sans-Serif" font-size="10.00">SFML/Graphics/Text.hpp</text>
</a>
</g>
</g>
<!-- Node2&#45;&gt;Node23 -->
<g id="edge28_Node000002_Node000023" class="edge">
<title>Node2&#45;&gt;Node23</title>
<g id="a_edge28_Node000002_Node000023"><a xlink:title=" ">
<path fill="none" stroke="#63b8ff" d="M471.74,-335.59C488.51,-327.28 513.24,-315.03 532.54,-305.47"/>
<polygon fill="#63b8ff" stroke="#63b8ff" points="533.85,-308.73 541.26,-301.15 530.74,-302.45 533.85,-308.73"/>
</a>
</g>
</g>
<!-- Node4 -->
<g id="Node000004" class="node">
<title>Node4</title>
<g id="a_Node000004"><a xlink:title=" ">
<polygon fill="#e0e0e0" stroke="#999999" points="750.12,-188 667.38,-188 667.38,-168 750.12,-168 750.12,-188"/>
<text xml:space="preserve" text-anchor="middle" x="708.75" y="-174.5" font-family="Helvetica,sans-Serif" font-size="10.00">unordered_map</text>
</a>
</g>
</g>
<!-- Node3&#45;&gt;Node4 -->
<g id="edge3_Node000003_Node000004" class="edge">
<title>Node3&#45;&gt;Node4</title>
<g id="a_edge3_Node000003_Node000004"><a xlink:title=" ">
<path fill="none" stroke="#63b8ff" d="M441.56,-279.56C467.28,-270.92 505.87,-257.48 538.75,-244 558.25,-236 562.24,-231.97 581.75,-224 610.61,-212.21 643.84,-200.5 669.07,-191.98"/>
<polygon fill="#63b8ff" stroke="#63b8ff" points="669.9,-195.39 678.27,-188.9 667.68,-188.75 669.9,-195.39"/>
</a>
</g>
</g>
<!-- Node5 -->
<g id="Node000005" class="node">
<title>Node5</title>
<g id="a_Node000005"><a xlink:title=" ">
<polygon fill="#e0e0e0" stroke="#999999" points="382.38,-188 331.12,-188 331.12,-168 382.38,-168 382.38,-188"/>
<text xml:space="preserve" text-anchor="middle" x="356.75" y="-174.5" font-family="Helvetica,sans-Serif" font-size="10.00">memory</text>
</a>
</g>
</g>
<!-- Node3&#45;&gt;Node5 -->
<g id="edge4_Node000003_Node000005" class="edge">
<title>Node3&#45;&gt;Node5</title>
<g id="a_edge4_Node000003_Node000005"><a xlink:title=" ">
<path fill="none" stroke="#63b8ff" d="M408.29,-279.7C402.19,-267.03 390.85,-243.7 380.75,-224 376.41,-215.54 371.49,-206.26 367.24,-198.33"/>
<polygon fill="#63b8ff" stroke="#63b8ff" points="370.35,-196.73 362.52,-189.59 364.19,-200.06 370.35,-196.73"/>
</a>
</g>
</g>
<!-- Node6 -->
<g id="Node000006" class="node">
<title>Node6</title>
<g id="a_Node000006"><a xlink:title=" ">
<polygon fill="#e0e0e0" stroke="#999999" points="371.5,-244 228,-244 228,-224 371.5,-224 371.5,-244"/>
<text xml:space="preserve" text-anchor="middle" x="299.75" y="-230.5" font-family="Helvetica,sans-Serif" font-size="10.00">SFML/Window/Keyboard.hpp</text>
</a>
</g>
</g>
<!-- Node3&#45;&gt;Node6 -->
<g id="edge5_Node000003_Node000006" class="edge">
<title>Node3&#45;&gt;Node6</title>
<g id="a_edge5_Node000003_Node000006"><a xlink:title=" ">
<path fill="none" stroke="#63b8ff" d="M393.07,-279.59C375.59,-271.24 349.8,-258.92 329.75,-249.34"/>
<polygon fill="#63b8ff" stroke="#63b8ff" points="331.48,-246.29 320.95,-245.13 328.47,-252.6 331.48,-246.29"/>
</a>
</g>
</g>
<!-- Node7 -->
<g id="Node000007" class="node">
<title>Node7</title>
<g id="a_Node000007"><a xlink:href="entity__manager_8hpp.html" target="_top" xlink:title=" ">
<polygon fill="white" stroke="#666666" points="529.5,-244 428,-244 428,-224 529.5,-224 529.5,-244"/>
<text xml:space="preserve" text-anchor="middle" x="478.75" y="-230.5" font-family="Helvetica,sans-Serif" font-size="10.00">entity_manager.hpp</text>
</a>
</g>
</g>
<!-- Node3&#45;&gt;Node7 -->
<g id="edge6_Node000003_Node000007" class="edge">
<title>Node3&#45;&gt;Node7</title>
<g id="a_edge6_Node000003_Node000007"><a xlink:title=" ">
<path fill="none" stroke="#63b8ff" d="M424.25,-279.59C433.71,-271.85 447.35,-260.69 458.62,-251.47"/>
<polygon fill="#63b8ff" stroke="#63b8ff" points="460.69,-254.3 466.21,-245.26 456.26,-248.88 460.69,-254.3"/>
</a>
</g>
</g>
<!-- Node18 -->
<g id="Node000018" class="node">
<title>Node18</title>
<g id="a_Node000018"><a xlink:href="action_8hpp.html" target="_top" xlink:title=" ">
<polygon fill="white" stroke="#666666" points="787.25,-132 726.25,-132 726.25,-112 787.25,-112 787.25,-132"/>
<text xml:space="preserve" text-anchor="middle" x="756.75" y="-118.5" font-family="Helvetica,sans-Serif" font-size="10.00">action.hpp</text>
</a>
</g>
</g>
<!-- Node3&#45;&gt;Node18 -->
<g id="edge19_Node000003_Node000018" class="edge">
<title>Node3&#45;&gt;Node18</title>
<g id="a_edge19_Node000003_Node000018"><a xlink:title=" ">
<path fill="none" stroke="#63b8ff" d="M443.47,-282.33C476.48,-274.74 530.21,-261.14 574.75,-244 593.3,-236.86 596.11,-230.9 614.75,-224 676.62,-201.11 718.15,-240 758.75,-188 768.53,-175.47 766.95,-157.07 763.55,-143.04"/>
<polygon fill="#63b8ff" stroke="#63b8ff" points="766.93,-142.15 760.75,-133.55 760.22,-144.13 766.93,-142.15"/>
</a>
</g>
</g>
<!-- Node7&#45;&gt;Node4 -->
<g id="edge8_Node000007_Node000004" class="edge">
<title>Node7&#45;&gt;Node4</title>
<g id="a_edge8_Node000007_Node000004"><a xlink:title=" ">
<path fill="none" stroke="#63b8ff" d="M519.08,-223.53C557.55,-214.5 615.67,-200.85 657.42,-191.05"/>
<polygon fill="#63b8ff" stroke="#63b8ff" points="658.06,-194.5 667,-188.8 656.46,-187.68 658.06,-194.5"/>
</a>
</g>
</g>
<!-- Node7&#45;&gt;Node5 -->
<g id="edge9_Node000007_Node000005" class="edge">
<title>Node7&#45;&gt;Node5</title>
<g id="a_edge9_Node000007_Node000005"><a xlink:title=" ">
<path fill="none" stroke="#63b8ff" d="M457.5,-223.59C438.46,-215.17 410.27,-202.69 388.55,-193.07"/>
<polygon fill="#63b8ff" stroke="#63b8ff" points="390.11,-189.94 379.55,-189.09 387.28,-196.34 390.11,-189.94"/>
</a>
</g>
</g>
<!-- Node8 -->
<g id="Node000008" class="node">
<title>Node8</title>
<g id="a_Node000008"><a xlink:title=" ">
<polygon fill="#e0e0e0" stroke="#999999" points="573.25,-188 530.25,-188 530.25,-168 573.25,-168 573.25,-188"/>
<text xml:space="preserve" text-anchor="middle" x="551.75" y="-174.5" font-family="Helvetica,sans-Serif" font-size="10.00">vector</text>
</a>
</g>
</g>
<!-- Node7&#45;&gt;Node8 -->
<g id="edge7_Node000007_Node000008" class="edge">
<title>Node7&#45;&gt;Node8</title>
<g id="a_edge7_Node000007_Node000008"><a xlink:title=" ">
<path fill="none" stroke="#63b8ff" d="M491.47,-223.59C502.14,-215.7 517.63,-204.24 530.23,-194.92"/>
<polygon fill="#63b8ff" stroke="#63b8ff" points="532.01,-197.96 537.96,-189.2 527.84,-192.33 532.01,-197.96"/>
</a>
</g>
</g>
<!-- Node9 -->
<g id="Node000009" class="node">
<title>Node9</title>
<g id="a_Node000009"><a xlink:title=" ">
<polygon fill="#e0e0e0" stroke="#999999" points="456.62,-188 400.88,-188 400.88,-168 456.62,-168 456.62,-188"/>
<text xml:space="preserve" text-anchor="middle" x="428.75" y="-174.5" font-family="Helvetica,sans-Serif" font-size="10.00">algorithm</text>
</a>
</g>
</g>
<!-- Node7&#45;&gt;Node9 -->
<g id="edge10_Node000007_Node000009" class="edge">
<title>Node7&#45;&gt;Node9</title>
<g id="a_edge10_Node000007_Node000009"><a xlink:title=" ">
<path fill="none" stroke="#63b8ff" d="M470.04,-223.59C463.16,-216.16 453.36,-205.58 445.03,-196.58"/>
<polygon fill="#63b8ff" stroke="#63b8ff" points="447.75,-194.37 438.39,-189.41 442.61,-199.12 447.75,-194.37"/>
</a>
</g>
</g>
<!-- Node10 -->
<g id="Node000010" class="node">
<title>Node10</title>
<g id="a_Node000010"><a xlink:href="entity_8hpp.html" target="_top" xlink:title=" ">
<polygon fill="white" stroke="#666666" points="649.75,-188 591.75,-188 591.75,-168 649.75,-168 649.75,-188"/>
<text xml:space="preserve" text-anchor="middle" x="620.75" y="-174.5" font-family="Helvetica,sans-Serif" font-size="10.00">entity.hpp</text>
</a>
</g>
</g>
<!-- Node7&#45;&gt;Node10 -->
<g id="edge11_Node000007_Node000010" class="edge">
<title>Node7&#45;&gt;Node10</title>
<g id="a_edge11_Node000007_Node000010"><a xlink:title=" ">
<path fill="none" stroke="#63b8ff" d="M503.48,-223.59C526.05,-215.01 559.66,-202.23 585.12,-192.55"/>
<polygon fill="#63b8ff" stroke="#63b8ff" points="586.3,-195.84 594.41,-189.02 583.82,-189.3 586.3,-195.84"/>
</a>
</g>
</g>
<!-- Node11 -->
<g id="Node000011" class="node">
<title>Node11</title>
<g id="a_Node000011"><a xlink:title=" ">
<polygon fill="#e0e0e0" stroke="#999999" points="558.25,-132 521.25,-132 521.25,-112 558.25,-112 558.25,-132"/>
<text xml:space="preserve" text-anchor="middle" x="539.75" y="-118.5" font-family="Helvetica,sans-Serif" font-size="10.00">tuple</text>
</a>
</g>
</g>
<!-- Node10&#45;&gt;Node11 -->
<g id="edge12_Node000010_Node000011" class="edge">
<title>Node10&#45;&gt;Node11</title>
<g id="a_edge12_Node000010_Node000011"><a xlink:title=" ">
<path fill="none" stroke="#63b8ff" d="M606.64,-167.59C594.75,-159.67 577.48,-148.16 563.47,-138.82"/>
<polygon fill="#63b8ff" stroke="#63b8ff" points="565.49,-135.95 555.23,-133.32 561.61,-141.78 565.49,-135.95"/>
</a>
</g>
</g>
<!-- Node12 -->
<g id="Node000012" class="node">
<title>Node12</title>
<g id="a_Node000012"><a xlink:href="components_8hpp.html" target="_top" xlink:title=" ">
<polygon fill="white" stroke="#666666" points="664.75,-132 576.75,-132 576.75,-112 664.75,-112 664.75,-132"/>
<text xml:space="preserve" text-anchor="middle" x="620.75" y="-118.5" font-family="Helvetica,sans-Serif" font-size="10.00">components.hpp</text>
</a>
</g>
</g>
<!-- Node10&#45;&gt;Node12 -->
<g id="edge13_Node000010_Node000012" class="edge">
<title>Node10&#45;&gt;Node12</title>
<g id="a_edge13_Node000010_Node000012"><a xlink:title=" ">
<path fill="none" stroke="#63b8ff" d="M620.75,-167.59C620.75,-161.01 620.75,-151.96 620.75,-143.73"/>
<polygon fill="#63b8ff" stroke="#63b8ff" points="624.25,-143.81 620.75,-133.81 617.25,-143.81 624.25,-143.81"/>
</a>
</g>
</g>
<!-- Node13 -->
<g id="Node000013" class="node">
<title>Node13</title>
<g id="a_Node000013"><a xlink:title=" ">
<polygon fill="#e0e0e0" stroke="#999999" points="557.62,-76 423.88,-76 423.88,-56 557.62,-56 557.62,-76"/>
<text xml:space="preserve" text-anchor="middle" x="490.75" y="-62.5" font-family="Helvetica,sans-Serif" font-size="10.00">SFML/System/Vector2.hpp</text>
</a>
</g>
</g>
<!-- Node12&#45;&gt;Node13 -->
<g id="edge14_Node000012_Node000013" class="edge">
<title>Node12&#45;&gt;Node13</title>
<g id="a_edge14_Node000012_Node000013"><a xlink:title=" ">
<path fill="none" stroke="#63b8ff" d="M598.11,-111.59C577.63,-103.09 547.23,-90.46 524,-80.81"/>
<polygon fill="#63b8ff" stroke="#63b8ff" points="525.55,-77.66 514.97,-77.06 522.86,-84.13 525.55,-77.66"/>
</a>
</g>
</g>
<!-- Node12&#45;&gt;Node14 -->
<g id="edge15_Node000012_Node000014" class="edge">
<title>Node12&#45;&gt;Node14</title>
<g id="a_edge15_Node000012_Node000014"><a xlink:title=" ">
<path fill="none" stroke="#63b8ff" d="M576.26,-113.18C573.38,-112.76 570.53,-112.36 567.75,-112 412.54,-91.98 229.49,-78.15 131.03,-71.51"/>
<polygon fill="#63b8ff" stroke="#63b8ff" points="131.46,-68.03 121.25,-70.86 131,-75.02 131.46,-68.03"/>
</a>
</g>
</g>
<!-- Node15 -->
<g id="Node000015" class="node">
<title>Node15</title>
<g id="a_Node000015"><a xlink:href="animation_8hpp.html" target="_top" xlink:title=" ">
<polygon fill="white" stroke="#666666" points="920.12,-76 843.38,-76 843.38,-56 920.12,-56 920.12,-76"/>
<text xml:space="preserve" text-anchor="middle" x="881.75" y="-62.5" font-family="Helvetica,sans-Serif" font-size="10.00">animation.hpp</text>
</a>
</g>
</g>
<!-- Node12&#45;&gt;Node15 -->
<g id="edge16_Node000012_Node000015" class="edge">
<title>Node12&#45;&gt;Node15</title>
<g id="a_edge16_Node000012_Node000015"><a xlink:title=" ">
<path fill="none" stroke="#63b8ff" d="M665.03,-111.84C711.34,-102.26 783.89,-87.25 832.12,-77.27"/>
<polygon fill="#63b8ff" stroke="#63b8ff" points="832.66,-80.73 841.74,-75.28 831.24,-73.88 832.66,-80.73"/>
</a>
</g>
</g>
<!-- Node16 -->
<g id="Node000016" class="node">
<title>Node16</title>
<g id="a_Node000016"><a xlink:title=" ">
<polygon fill="#e0e0e0" stroke="#999999" points="797.75,-20 757.75,-20 757.75,0 797.75,0 797.75,-20"/>
<text xml:space="preserve" text-anchor="middle" x="777.75" y="-6.5" font-family="Helvetica,sans-Serif" font-size="10.00">string</text>
</a>
</g>
</g>
<!-- Node15&#45;&gt;Node16 -->
<g id="edge17_Node000015_Node000016" class="edge">
<title>Node15&#45;&gt;Node16</title>
<g id="a_edge17_Node000015_Node000016"><a xlink:title=" ">
<path fill="none" stroke="#63b8ff" d="M863.63,-55.59C847.78,-47.36 824.47,-35.26 806.13,-25.74"/>
<polygon fill="#63b8ff" stroke="#63b8ff" points="807.84,-22.68 797.35,-21.18 804.61,-28.89 807.84,-22.68"/>
</a>
</g>
</g>
<!-- Node17 -->
<g id="Node000017" class="node">
<title>Node17</title>
<g id="a_Node000017"><a xlink:title=" ">
<polygon fill="#e0e0e0" stroke="#999999" points="947.5,-20 816,-20 816,0 947.5,0 947.5,-20"/>
<text xml:space="preserve" text-anchor="middle" x="881.75" y="-6.5" font-family="Helvetica,sans-Serif" font-size="10.00">SFML/Graphics/Sprite.hpp</text>
</a>
</g>
</g>
<!-- Node15&#45;&gt;Node17 -->
<g id="edge18_Node000015_Node000017" class="edge">
<title>Node15&#45;&gt;Node17</title>
<g id="a_edge18_Node000015_Node000017"><a xlink:title=" ">
<path fill="none" stroke="#63b8ff" d="M881.75,-55.59C881.75,-49.01 881.75,-39.96 881.75,-31.73"/>
<polygon fill="#63b8ff" stroke="#63b8ff" points="885.25,-31.81 881.75,-21.81 878.25,-31.81 885.25,-31.81"/>
</a>
</g>
</g>
<!-- Node18&#45;&gt;Node16 -->
<g id="edge20_Node000018_Node000016" class="edge">
<title>Node18&#45;&gt;Node16</title>
<g id="a_edge20_Node000018_Node000016"><a xlink:title=" ">
<path fill="none" stroke="#63b8ff" d="M758.54,-111.62C761.9,-94.01 769.24,-55.59 773.81,-31.65"/>
<polygon fill="#63b8ff" stroke="#63b8ff" points="777.24,-32.32 775.68,-21.84 770.37,-31.01 777.24,-32.32"/>
</a>
</g>
</g>
<!-- Node19&#45;&gt;Node13 -->
<g id="edge24_Node000019_Node000013" class="edge">
<title>Node19&#45;&gt;Node13</title>
<g id="a_edge24_Node000019_Node000013"><a xlink:title=" ">
<path fill="none" stroke="#63b8ff" d="M203.58,-223.51C223.4,-214.73 253.35,-201.11 278.75,-188 347.57,-152.48 426.17,-106.01 465.51,-82.33"/>
<polygon fill="#63b8ff" stroke="#63b8ff" points="467.26,-85.36 474.01,-77.2 463.64,-79.37 467.26,-85.36"/>
</a>
</g>
</g>
<!-- Node19&#45;&gt;Node16 -->
<g id="edge25_Node000019_Node000016" class="edge">
<title>Node19&#45;&gt;Node16</title>
<g id="a_edge25_Node000019_Node000016"><a xlink:title=" ">
<path fill="none" stroke="#63b8ff" d="M195.63,-223.54C208.69,-214.57 228.73,-200.62 245.75,-188 322.31,-131.24 326.72,-92.52 414.75,-56 474.6,-31.17 669.72,-17.33 746.4,-12.74"/>
<polygon fill="#63b8ff" stroke="#63b8ff" points="746.36,-16.25 756.14,-12.17 745.95,-9.26 746.36,-16.25"/>
</a>
</g>
</g>
<!-- Node20 -->
<g id="Node000020" class="node">
<title>Node20</title>
<g id="a_Node000020"><a xlink:title=" ">
<polygon fill="#e0e0e0" stroke="#999999" points="512.62,-188 474.88,-188 474.88,-168 512.62,-168 512.62,-188"/>
<text xml:space="preserve" text-anchor="middle" x="493.75" y="-174.5" font-family="Helvetica,sans-Serif" font-size="10.00">array</text>
</a>
</g>
</g>
<!-- Node19&#45;&gt;Node20 -->
<g id="edge22_Node000019_Node000020" class="edge">
<title>Node19&#45;&gt;Node20</title>
<g id="a_edge22_Node000019_Node000020"><a xlink:title=" ">
<path fill="none" stroke="#63b8ff" d="M209.97,-225.85C212.93,-225.18 215.89,-224.55 218.75,-224 324.15,-203.55 355.66,-212.44 463.55,-188.16"/>
<polygon fill="#63b8ff" stroke="#63b8ff" points="464.15,-191.61 473.11,-185.96 462.58,-184.79 464.15,-191.61"/>
</a>
</g>
</g>
<!-- Node21 -->
<g id="Node000021" class="node">
<title>Node21</title>
<g id="a_Node000021"><a xlink:title=" ">
<polygon fill="#e0e0e0" stroke="#999999" points="236.38,-188 107.12,-188 107.12,-168 236.38,-168 236.38,-188"/>
<text xml:space="preserve" text-anchor="middle" x="171.75" y="-174.5" font-family="Helvetica,sans-Serif" font-size="10.00">SFML/Graphics/Color.hpp</text>
</a>
</g>
</g>
<!-- Node19&#45;&gt;Node21 -->
<g id="edge23_Node000019_Node000021" class="edge">
<title>Node19&#45;&gt;Node21</title>
<g id="a_edge23_Node000019_Node000021"><a xlink:title=" ">
<path fill="none" stroke="#63b8ff" d="M180.01,-223.59C178.77,-216.93 177.07,-207.75 175.54,-199.44"/>
<polygon fill="#63b8ff" stroke="#63b8ff" points="179.01,-198.98 173.75,-189.79 172.13,-200.26 179.01,-198.98"/>
</a>
</g>
</g>
<!-- Node25 -->
<g id="Node000025" class="node">
<title>Node25</title>
<g id="a_Node000025"><a xlink:title=" ">
<polygon fill="#e0e0e0" stroke="#999999" points="1001.75,-300 829.75,-300 829.75,-280 1001.75,-280 1001.75,-300"/>
<text xml:space="preserve" text-anchor="middle" x="915.75" y="-286.5" font-family="Helvetica,sans-Serif" font-size="10.00">SFML/Graphics/RenderWindow.hpp</text>
</a>
</g>
</g>
<!-- Node24&#45;&gt;Node25 -->
<g id="edge30_Node000024_Node000025" class="edge">
<title>Node24&#45;&gt;Node25</title>
<g id="a_edge30_Node000024_Node000025"><a xlink:title=" ">
<path fill="none" stroke="#63b8ff" d="M791.05,-335.59C815.26,-326.94 851.43,-314 878.59,-304.29"/>
<polygon fill="#63b8ff" stroke="#63b8ff" points="879.58,-307.65 887.82,-300.99 877.22,-301.06 879.58,-307.65"/>
</a>
</g>
</g>
<!-- Node26 -->
<g id="Node000026" class="node">
<title>Node26</title>
<g id="a_Node000026"><a xlink:title=" ">
<polygon fill="#e0e0e0" stroke="#999999" points="1145.88,-300 1019.62,-300 1019.62,-280 1145.88,-280 1145.88,-300"/>
<text xml:space="preserve" text-anchor="middle" x="1082.75" y="-286.5" font-family="Helvetica,sans-Serif" font-size="10.00">SFML/System/Clock.hpp</text>
</a>
</g>
</g>
<!-- Node24&#45;&gt;Node26 -->
<g id="edge31_Node000024_Node000026" class="edge">
<title>Node24&#45;&gt;Node26</title>
<g id="a_edge31_Node000024_Node000026"><a xlink:title=" ">
<path fill="none" stroke="#63b8ff" d="M811.33,-337.09C865.25,-327.93 954.48,-312.78 1015.82,-302.37"/>
<polygon fill="#63b8ff" stroke="#63b8ff" points="1016.17,-305.86 1025.44,-300.73 1015,-298.96 1016.17,-305.86"/>
</a>
</g>
</g>
<!-- Node27 -->
<g id="Node000027" class="node">
<title>Node27</title>
<g id="a_Node000027"><a xlink:href="config__parser_8hpp.html" target="_top" xlink:title=" ">
<polygon fill="white" stroke="#666666" points="811.38,-300 718.12,-300 718.12,-280 811.38,-280 811.38,-300"/>
<text xml:space="preserve" text-anchor="middle" x="764.75" y="-286.5" font-family="Helvetica,sans-Serif" font-size="10.00">config_parser.hpp</text>
</a>
</g>
</g>
<!-- Node24&#45;&gt;Node27 -->
<g id="edge32_Node000024_Node000027" class="edge">
<title>Node24&#45;&gt;Node27</title>
<g id="a_edge32_Node000024_Node000027"><a xlink:title=" ">
<path fill="none" stroke="#63b8ff" d="M764.75,-335.59C764.75,-329.01 764.75,-319.96 764.75,-311.73"/>
<polygon fill="#63b8ff" stroke="#63b8ff" points="768.25,-311.81 764.75,-301.81 761.25,-311.81 768.25,-311.81"/>
</a>
</g>
</g>
<!-- Node30 -->
<g id="Node000030" class="node">
<title>Node30</title>
<g id="a_Node000030"><a xlink:href="asset__manager_8hpp.html" target="_top" xlink:title=" ">
<polygon fill="white" stroke="#666666" points="1265.5,-300 1164,-300 1164,-280 1265.5,-280 1265.5,-300"/>
<text xml:space="preserve" text-anchor="middle" x="1214.75" y="-286.5" font-family="Helvetica,sans-Serif" font-size="10.00">asset_manager.hpp</text>
</a>
</g>
</g>
<!-- Node24&#45;&gt;Node30 -->
<g id="edge37_Node000024_Node000030" class="edge">
<title>Node24&#45;&gt;Node30</title>
<g id="a_edge37_Node000024_Node000030"><a xlink:title=" ">
<path fill="none" stroke="#63b8ff" d="M811.23,-337.21C814.11,-336.78 816.97,-336.38 819.75,-336 964.52,-316.39 1004.3,-318.97 1152.38,-300.25"/>
<polygon fill="#63b8ff" stroke="#63b8ff" points="1152.73,-303.74 1162.21,-299 1151.84,-296.79 1152.73,-303.74"/>
</a>
</g>
</g>
<!-- Node28 -->
<g id="Node000028" class="node">
<title>Node28</title>
<g id="a_Node000028"><a xlink:href="config__structs_8hpp.html" target="_top" xlink:title=" ">
<polygon fill="white" stroke="#666666" points="863.88,-244 767.62,-244 767.62,-224 863.88,-224 863.88,-244"/>
<text xml:space="preserve" text-anchor="middle" x="815.75" y="-230.5" font-family="Helvetica,sans-Serif" font-size="10.00">config_structs.hpp</text>
</a>
</g>
</g>
<!-- Node27&#45;&gt;Node28 -->
<g id="edge33_Node000027_Node000028" class="edge">
<title>Node27&#45;&gt;Node28</title>
<g id="a_edge33_Node000027_Node000028"><a xlink:title=" ">
<path fill="none" stroke="#63b8ff" d="M773.63,-279.59C780.65,-272.16 790.65,-261.58 799.14,-252.58"/>
<polygon fill="#63b8ff" stroke="#63b8ff" points="801.61,-255.07 805.93,-245.4 796.52,-250.27 801.61,-255.07"/>
</a>
</g>
</g>
<!-- Node28&#45;&gt;Node16 -->
<g id="edge34_Node000028_Node000016" class="edge">
<title>Node28&#45;&gt;Node16</title>
<g id="a_edge34_Node000028_Node000016"><a xlink:title=" ">
<path fill="none" stroke="#63b8ff" d="M814.37,-223.57C811.36,-203.18 803.91,-153.49 796.75,-112 791.93,-84.04 785.77,-51.85 781.79,-31.47"/>
<polygon fill="#63b8ff" stroke="#63b8ff" points="785.28,-31.08 779.92,-21.94 778.41,-32.42 785.28,-31.08"/>
</a>
</g>
</g>
<!-- Node28&#45;&gt;Node20 -->
<g id="edge35_Node000028_Node000020" class="edge">
<title>Node28&#45;&gt;Node20</title>
<g id="a_edge35_Node000028_Node000020"><a xlink:title=" ">
<path fill="none" stroke="#63b8ff" d="M767.24,-225.32C764.37,-224.87 761.52,-224.43 758.75,-224 656.96,-208.23 627.41,-212.09 523.85,-188.17"/>
<polygon fill="#63b8ff" stroke="#63b8ff" points="524.92,-184.83 514.39,-185.95 523.33,-191.64 524.92,-184.83"/>
</a>
</g>
</g>
<!-- Node29 -->
<g id="Node000029" class="node">
<title>Node29</title>
<g id="a_Node000029"><a xlink:title=" ">
<polygon fill="#e0e0e0" stroke="#999999" points="897.5,-188 844,-188 844,-168 897.5,-168 897.5,-188"/>
<text xml:space="preserve" text-anchor="middle" x="870.75" y="-174.5" font-family="Helvetica,sans-Serif" font-size="10.00">toml.hpp</text>
</a>
</g>
</g>
<!-- Node28&#45;&gt;Node29 -->
<g id="edge36_Node000028_Node000029" class="edge">
<title>Node28&#45;&gt;Node29</title>
<g id="a_edge36_Node000028_Node000029"><a xlink:title=" ">
<path fill="none" stroke="#63b8ff" d="M825.33,-223.59C832.98,-216.08 843.91,-205.35 853.13,-196.3"/>
<polygon fill="#63b8ff" stroke="#63b8ff" points="855.52,-198.86 860.2,-189.36 850.61,-193.87 855.52,-198.86"/>
</a>
</g>
</g>
<!-- Node30&#45;&gt;Node4 -->
<g id="edge38_Node000030_Node000004" class="edge">
<title>Node30&#45;&gt;Node4</title>
<g id="a_edge38_Node000030_Node000004"><a xlink:title=" ">
<path fill="none" stroke="#63b8ff" d="M1163.69,-281.33C1160.66,-280.88 1157.67,-280.43 1154.75,-280 1046.76,-263.9 1015.71,-277.35 911.75,-244 893.2,-238.05 890.91,-231.06 872.75,-224 836.44,-209.88 794,-198.36 761.38,-190.52"/>
<polygon fill="#63b8ff" stroke="#63b8ff" points="762.29,-187.13 751.76,-188.24 760.68,-193.95 762.29,-187.13"/>
</a>
</g>
</g>
<!-- Node30&#45;&gt;Node15 -->
<g id="edge44_Node000030_Node000015" class="edge">
<title>Node30&#45;&gt;Node15</title>
<g id="a_edge44_Node000030_Node000015"><a xlink:title=" ">
<path fill="none" stroke="#63b8ff" d="M1252.91,-279.57C1287.09,-269.19 1329.2,-250.4 1310.75,-224 1223.28,-98.85 1024.76,-73.14 931.67,-68.09"/>
<polygon fill="#63b8ff" stroke="#63b8ff" points="931.99,-64.6 921.84,-67.62 931.66,-71.59 931.99,-64.6"/>
</a>
</g>
</g>
<!-- Node30&#45;&gt;Node22 -->
<g id="edge41_Node000030_Node000022" class="edge">
<title>Node30&#45;&gt;Node22</title>
<g id="a_edge41_Node000030_Node000022"><a xlink:title=" ">
<path fill="none" stroke="#63b8ff" d="M1163.71,-281.14C1160.68,-280.74 1157.68,-280.35 1154.75,-280 982.97,-259.33 936.4,-262.8 761.39,-244.25"/>
<polygon fill="#63b8ff" stroke="#63b8ff" points="761.77,-240.77 751.46,-243.18 761.03,-247.73 761.77,-240.77"/>
</a>
</g>
</g>
<!-- Node31 -->
<g id="Node000031" class="node">
<title>Node31</title>
<g id="a_Node000031"><a xlink:title=" ">
<polygon fill="#e0e0e0" stroke="#999999" points="981.25,-244 920.25,-244 920.25,-224 981.25,-224 981.25,-244"/>
<text xml:space="preserve" text-anchor="middle" x="950.75" y="-230.5" font-family="Helvetica,sans-Serif" font-size="10.00">filesystem</text>
</a>
</g>
</g>
<!-- Node30&#45;&gt;Node31 -->
<g id="edge39_Node000030_Node000031" class="edge">
<title>Node30&#45;&gt;Node31</title>
<g id="a_edge39_Node000030_Node000031"><a xlink:title=" ">
<path fill="none" stroke="#63b8ff" d="M1166.18,-279.58C1123.16,-271.16 1058.36,-258.29 992.71,-244.38"/>
<polygon fill="#63b8ff" stroke="#63b8ff" points="993.73,-241.02 983.22,-242.36 992.28,-247.87 993.73,-241.02"/>
</a>
</g>
</g>
<!-- Node32 -->
<g id="Node000032" class="node">
<title>Node32</title>
<g id="a_Node000032"><a xlink:title=" ">
<polygon fill="#e0e0e0" stroke="#999999" points="1137.88,-244 999.62,-244 999.62,-224 1137.88,-224 1137.88,-244"/>
<text xml:space="preserve" text-anchor="middle" x="1068.75" y="-230.5" font-family="Helvetica,sans-Serif" font-size="10.00">SFML/Graphics/Texture.hpp</text>
</a>
</g>
</g>
<!-- Node30&#45;&gt;Node32 -->
<g id="edge40_Node000030_Node000032" class="edge">
<title>Node30&#45;&gt;Node32</title>
<g id="a_edge40_Node000030_Node000032"><a xlink:title=" ">
<path fill="none" stroke="#63b8ff" d="M1189.32,-279.59C1166.01,-270.97 1131.25,-258.12 1105.03,-248.42"/>
<polygon fill="#63b8ff" stroke="#63b8ff" points="1106.39,-245.19 1095.8,-245 1103.96,-251.76 1106.39,-245.19"/>
</a>
</g>
</g>
<!-- Node33 -->
<g id="Node000033" class="node">
<title>Node33</title>
<g id="a_Node000033"><a xlink:title=" ">
<polygon fill="#e0e0e0" stroke="#999999" points="1301.25,-244 1156.25,-244 1156.25,-224 1301.25,-224 1301.25,-244"/>
<text xml:space="preserve" text-anchor="middle" x="1228.75" y="-230.5" font-family="Helvetica,sans-Serif" font-size="10.00">SFML/Audio/SoundBuffer.hpp</text>
</a>
</g>
</g>
<!-- Node30&#45;&gt;Node33 -->
<g id="edge42_Node000030_Node000033" class="edge">
<title>Node30&#45;&gt;Node33</title>
<g id="a_edge42_Node000030_Node000033"><a xlink:title=" ">
<path fill="none" stroke="#63b8ff" d="M1217.19,-279.59C1218.92,-272.93 1221.3,-263.75 1223.45,-255.44"/>
<polygon fill="#63b8ff" stroke="#63b8ff" points="1226.84,-256.32 1225.96,-245.76 1220.06,-254.56 1226.84,-256.32"/>
</a>
</g>
</g>
<!-- Node34 -->
<g id="Node000034" class="node">
<title>Node34</title>
<g id="a_Node000034"><a xlink:title=" ">
<polygon fill="#e0e0e0" stroke="#999999" points="1475.75,-244 1357.75,-244 1357.75,-224 1475.75,-224 1475.75,-244"/>
<text xml:space="preserve" text-anchor="middle" x="1416.75" y="-230.5" font-family="Helvetica,sans-Serif" font-size="10.00">SFML/Audio/Music.hpp</text>
</a>
</g>
</g>
<!-- Node30&#45;&gt;Node34 -->
<g id="edge43_Node000030_Node000034" class="edge">
<title>Node30&#45;&gt;Node34</title>
<g id="a_edge43_Node000030_Node000034"><a xlink:title=" ">
<path fill="none" stroke="#63b8ff" d="M1249.94,-279.59C1283.33,-270.67 1333.73,-257.19 1370.39,-247.39"/>
<polygon fill="#63b8ff" stroke="#63b8ff" points="1371.07,-250.83 1379.83,-244.87 1369.26,-244.07 1371.07,-250.83"/>
</a>
</g>
</g>
<!-- Node35&#45;&gt;Node3 -->
<g id="edge46_Node000035_Node000003" class="edge">
<title>Node35&#45;&gt;Node3</title>
<g id="a_edge46_Node000035_Node000003"><a xlink:title=" ">
<path fill="none" stroke="#63b8ff" d="M550.66,-335.59C523.53,-326.82 482.82,-313.66 452.66,-303.9"/>
<polygon fill="#63b8ff" stroke="#63b8ff" points="454.1,-300.69 443.51,-300.95 451.94,-307.35 454.1,-300.69"/>
</a>
</g>
</g>
<!-- Node35&#45;&gt;Node14 -->
<g id="edge48_Node000035_Node000014" class="edge">
<title>Node35&#45;&gt;Node14</title>
<g id="a_edge48_Node000035_Node000014"><a xlink:title=" ">
<path fill="none" stroke="#63b8ff" d="M537.66,-338.77C441.92,-324.04 211.01,-285.19 144.75,-244 88.83,-209.24 68.9,-126.16 62.49,-87.47"/>
<polygon fill="#63b8ff" stroke="#63b8ff" points="65.97,-87.06 61.03,-77.69 59.05,-88.09 65.97,-87.06"/>
</a>
</g>
</g>
<!-- Node35&#45;&gt;Node22 -->
<g id="edge49_Node000035_Node000022" class="edge">
<title>Node35&#45;&gt;Node22</title>
<g id="a_edge49_Node000035_Node000022"><a xlink:title=" ">
<path fill="none" stroke="#63b8ff" d="M592.06,-335.55C603.15,-326.81 619.68,-313.21 632.75,-300 647.53,-285.06 662.67,-266.49 673.15,-253.03"/>
<polygon fill="#63b8ff" stroke="#63b8ff" points="675.65,-255.52 678.96,-245.46 670.1,-251.26 675.65,-255.52"/>
</a>
</g>
</g>
<!-- Node35&#45;&gt;Node23 -->
<g id="edge50_Node000035_Node000023" class="edge">
<title>Node35&#45;&gt;Node23</title>
<g id="a_edge50_Node000035_Node000023"><a xlink:title=" ">
<path fill="none" stroke="#63b8ff" d="M576.61,-335.59C574.37,-328.86 571.26,-319.53 568.47,-311.15"/>
<polygon fill="#63b8ff" stroke="#63b8ff" points="571.81,-310.11 565.33,-301.73 565.17,-312.33 571.81,-310.11"/>
</a>
</g>
</g>
<!-- Node35&#45;&gt;Node28 -->
<g id="edge47_Node000035_Node000028" class="edge">
<title>Node35&#45;&gt;Node28</title>
<g id="a_edge47_Node000035_Node000028"><a xlink:title=" ">
<path fill="none" stroke="#63b8ff" d="M597.51,-335.56C622.21,-322.55 668.45,-298.6 708.75,-280 732.9,-268.85 760.59,-257.24 781.75,-248.6"/>
<polygon fill="#63b8ff" stroke="#63b8ff" points="782.82,-251.95 790.77,-244.94 780.19,-245.46 782.82,-251.95"/>
</a>
</g>
</g>
</g>
</svg>

<g id="navigator" transform="translate(0 0)" fill="#404254">
  <rect fill="#f2f5e9" fill-opacity="0.5" stroke="#606060" stroke-width=".5" x="0" y="0" width="60" height="60"/>
  <use id="zoomplus" xlink:href="#zoomPlus" x="17" y="9" onmousedown="handleZoom(evt,'in')"/>
  <use id="zoomminus" xlink:href="#zoomMin" x="42" y="9" onmousedown="handleZoom(evt,'out')"/>
  <use id="reset" xlink:href="#resetDef" x="30" y="36" onmousedown="handleReset()"/>
   <use id="arrowup" xlink:href="#arrowUp" x="0" y="0" onmousedown="handlePan(0,-1)"/>
  <use id="arrowright" xlink:href="#arrowRight" x="0" y="0" onmousedown="handlePan(1,0)"/>
  <use id="arrowdown" xlink:href="#arrowDown" x="0" y="0" onmousedown="handlePan(0,1)"/>
  <use id="arrowleft" xlink:href="#arrowLeft" x="0" y="0" onmousedown="handlePan(-1,0)"/>
</g>
<svg viewBox="0 0 15 15" width="100%" height="30px" preserveAspectRatio="xMaxYMin meet">
 <g id="arrow_out" transform="scale(0.3 0.3)">
  <a xlink:href="scene__menu_8cpp__incl_org.svg" target="_base">
   <rect id="button" ry="5" rx="5" y="6" x="6" height="38" width="38"
        fill="#f2f5e9" fill-opacity="0.5" stroke="#606060" stroke-width="1.0"/>
   <path id="arrow"
     d="M 11.500037,31.436501 C 11.940474,20.09759 22.043105,11.32322 32.158766,21.979434 L 37.068811,17.246167 C 37.068811,17.246167 37.088388,32 37.088388,32 L 22.160133,31.978069 C 22.160133,31.978069 26.997745,27.140456 26.997745,27.140456 C 18.528582,18.264221 13.291696,25.230495 11.500037,31.436501 z"
     style="fill:#404040;"/>
  </a>
 </g>
</svg>

<style type='text/css'>
<![CDATA[
[data-mouse-over-selected='false'] { opacity: 0.7; }
[data-mouse-over-selected='true']  { opacity: 1.0; }
]]>
</style>
<script type="application/ecmascript"><![CDATA[
document.addEventListener('DOMContentLoaded', (event) => {
  highlightEdges();
  highlightAdjacentNodes();
});
]]></script>
</svg>
