<?xml version="1.0" encoding="UTF-8" standalone="no"?>
<!DOCTYPE svg PUBLIC "-//W3C//DTD SVG 1.1//EN"
 "http://www.w3.org/Graphics/SVG/1.1/DTD/svg11.dtd">
<!-- Generated by graphviz version 13.1.2 (20250808.2320)
 -->
<!-- Title: src/scene.cpp Pages: 1 -->
<!--zoomable 364 -->

<svg id="main" version="1.1" xmlns="http://www.w3.org/2000/svg" xmlns:xlink="http://www.w3.org/1999/xlink" xml:space="preserve" onload="init(evt)">
<style type="text/css"><![CDATA[
.node, .edge {opacity: 0.7;}
.node.selected, .edge.selected {opacity: 1;}
.edge:hover path { stroke: red; }
.edge:hover polygon { stroke: red; fill: red; }
]]></style>

<defs>
  <circle id="rim" cx="0" cy="0" r="7"/>
  <circle id="rim2" cx="0" cy="0" r="3.5"/>
  <g id="zoomPlus">
    <use xlink:href="#rim" fill="#404040"><set attributeName="fill" to="#808080" begin="zoomplus.mouseover" end="zoomplus.mouseout"/></use>
    <path d="M-4,0h8M0,-4v8" fill="none" stroke="white" stroke-width="1.5" pointer-events="none"/>
  </g>
  <g id="zoomMin">
    <use xlink:href="#rim" fill="#404040"><set attributeName="fill" to="#808080" begin="zoomminus.mouseover" end="zoomminus.mouseout"/></use>
    <path d="M-4,0h8" fill="none" stroke="white" stroke-width="1.5" pointer-events="none"/>
  </g>
  <g id="arrowUp" transform="translate(30 24)">
    <use xlink:href="#rim"/>
    <path pointer-events="none" fill="none" stroke="white" stroke-width="1.5" d="M0,-3.0v7 M-2.5,-0.5L0,-3.0L2.5,-0.5"/>
  </g>
  <g id="arrowRight" transform="rotate(90) translate(36 -43)">
    <use xlink:href="#rim"/>
    <path pointer-events="none" fill="none" stroke="white" stroke-width="1.5" d="M0,-3.0v7 M-2.5,-0.5L0,-3.0L2.5,-0.5"/>
  </g>
  <g id="arrowDown" transform="rotate(180) translate(-30 -48)">
    <use xlink:href="#rim"/>
    <path pointer-events="none" fill="none" stroke="white" stroke-width="1.5" d="M0,-3.0v7 M-2.5,-0.5L0,-3.0L2.5,-0.5"/>
  </g>
  <g id="arrowLeft" transform="rotate(270) translate(-36 17)">
    <use xlink:href="#rim"/>
    <path pointer-events="none" fill="none" stroke="white" stroke-width="1.5" d="M0,-3.0v7 M-2.5,-0.5L0,-3.0L2.5,-0.5"/>
  </g>
  <g id="resetDef">
    <use xlink:href="#rim2" fill="#404040"><set attributeName="fill" to="#808080" begin="reset.mouseover" end="reset.mouseout"/></use>
  </g>
</defs>
<script type="application/ecmascript">
var viewWidth = 1255;
var viewHeight = 364;
var sectionId = 'dynsection-0';
</script>
<script type="application/ecmascript" xlink:href="svg.min.js"/>
<svg id="graph" class="graph">
<g id="viewport">
<title>src/scene.cpp</title>
<!-- Node1 -->
<g id="Node000001" class="node">
<title>Node1</title>
<g id="a_Node000001"><a xlink:title=" ">
<polygon fill="#999999" stroke="#666666" points="540.25,-356 462.75,-356 462.75,-336 540.25,-336 540.25,-356"/>
<text xml:space="preserve" text-anchor="middle" x="501.5" y="-342.5" font-family="Helvetica,sans-Serif" font-size="10.00">src/scene.cpp</text>
</a>
</g>
</g>
<!-- Node2 -->
<g id="Node000002" class="node">
<title>Node2</title>
<g id="a_Node000002"><a xlink:href="scene_8hpp.html" target="_top" xlink:title=" ">
<polygon fill="white" stroke="#666666" points="311,-300 250,-300 250,-280 311,-280 311,-300"/>
<text xml:space="preserve" text-anchor="middle" x="280.5" y="-286.5" font-family="Helvetica,sans-Serif" font-size="10.00">scene.hpp</text>
</a>
</g>
</g>
<!-- Node1&#45;&gt;Node2 -->
<g id="edge1_Node000001_Node000002" class="edge">
<title>Node1&#45;&gt;Node2</title>
<g id="a_edge1_Node000001_Node000002"><a xlink:title=" ">
<path fill="none" stroke="#63b8ff" d="M462.75,-335.53C423.46,-325.93 362.84,-311.12 322.44,-301.25"/>
<polygon fill="#63b8ff" stroke="#63b8ff" points="323.37,-297.87 312.83,-298.9 321.71,-304.67 323.37,-297.87"/>
</a>
</g>
</g>
<!-- Node18 -->
<g id="Node000018" class="node">
<title>Node18</title>
<g id="a_Node000018"><a xlink:href="game__engine_8hpp.html" target="_top" xlink:title=" ">
<polygon fill="white" stroke="#666666" points="788.75,-300 696.25,-300 696.25,-280 788.75,-280 788.75,-300"/>
<text xml:space="preserve" text-anchor="middle" x="742.5" y="-286.5" font-family="Helvetica,sans-Serif" font-size="10.00">game_engine.hpp</text>
</a>
</g>
</g>
<!-- Node1&#45;&gt;Node18 -->
<g id="edge20_Node000001_Node000018" class="edge">
<title>Node1&#45;&gt;Node18</title>
<g id="a_edge20_Node000001_Node000018"><a xlink:title=" ">
<path fill="none" stroke="#63b8ff" d="M540.49,-336.26C580.89,-327.21 644.32,-313 689.31,-302.92"/>
<polygon fill="#63b8ff" stroke="#63b8ff" points="689.85,-306.38 698.85,-300.78 688.32,-299.55 689.85,-306.38"/>
</a>
</g>
</g>
<!-- Node3 -->
<g id="Node000003" class="node">
<title>Node3</title>
<g id="a_Node000003"><a xlink:title=" ">
<polygon fill="#e0e0e0" stroke="#999999" points="415.88,-188 333.12,-188 333.12,-168 415.88,-168 415.88,-188"/>
<text xml:space="preserve" text-anchor="middle" x="374.5" y="-174.5" font-family="Helvetica,sans-Serif" font-size="10.00">unordered_map</text>
</a>
</g>
</g>
<!-- Node2&#45;&gt;Node3 -->
<g id="edge2_Node000002_Node000003" class="edge">
<title>Node2&#45;&gt;Node3</title>
<g id="a_edge2_Node000002_Node000003"><a xlink:title=" ">
<path fill="none" stroke="#63b8ff" d="M284.5,-279.93C290.59,-266.72 303.14,-241.82 318.5,-224 327.85,-213.15 340.08,-202.98 350.73,-195.06"/>
<polygon fill="#63b8ff" stroke="#63b8ff" points="352.61,-198.02 358.7,-189.35 348.53,-192.33 352.61,-198.02"/>
</a>
</g>
</g>
<!-- Node4 -->
<g id="Node000004" class="node">
<title>Node4</title>
<g id="a_Node000004"><a xlink:title=" ">
<polygon fill="#e0e0e0" stroke="#999999" points="315.12,-188 263.88,-188 263.88,-168 315.12,-168 315.12,-188"/>
<text xml:space="preserve" text-anchor="middle" x="289.5" y="-174.5" font-family="Helvetica,sans-Serif" font-size="10.00">memory</text>
</a>
</g>
</g>
<!-- Node2&#45;&gt;Node4 -->
<g id="edge3_Node000002_Node000004" class="edge">
<title>Node2&#45;&gt;Node4</title>
<g id="a_edge3_Node000002_Node000004"><a xlink:title=" ">
<path fill="none" stroke="#63b8ff" d="M281.18,-279.74C282.11,-267.13 283.85,-243.85 285.5,-224 286.16,-215.99 286.94,-207.19 287.63,-199.5"/>
<polygon fill="#63b8ff" stroke="#63b8ff" points="291.09,-200.09 288.5,-189.81 284.12,-199.46 291.09,-200.09"/>
</a>
</g>
</g>
<!-- Node5 -->
<g id="Node000005" class="node">
<title>Node5</title>
<g id="a_Node000005"><a xlink:title=" ">
<polygon fill="#e0e0e0" stroke="#999999" points="471.25,-244 327.75,-244 327.75,-224 471.25,-224 471.25,-244"/>
<text xml:space="preserve" text-anchor="middle" x="399.5" y="-230.5" font-family="Helvetica,sans-Serif" font-size="10.00">SFML/Window/Keyboard.hpp</text>
</a>
</g>
</g>
<!-- Node2&#45;&gt;Node5 -->
<g id="edge4_Node000002_Node000005" class="edge">
<title>Node2&#45;&gt;Node5</title>
<g id="a_edge4_Node000002_Node000005"><a xlink:title=" ">
<path fill="none" stroke="#63b8ff" d="M301.23,-279.59C319.71,-271.21 347.04,-258.8 368.19,-249.21"/>
<polygon fill="#63b8ff" stroke="#63b8ff" points="369.57,-252.42 377.23,-245.1 366.68,-246.05 369.57,-252.42"/>
</a>
</g>
</g>
<!-- Node6 -->
<g id="Node000006" class="node">
<title>Node6</title>
<g id="a_Node000006"><a xlink:href="entity__manager_8hpp.html" target="_top" xlink:title=" ">
<polygon fill="white" stroke="#666666" points="233.25,-244 131.75,-244 131.75,-224 233.25,-224 233.25,-244"/>
<text xml:space="preserve" text-anchor="middle" x="182.5" y="-230.5" font-family="Helvetica,sans-Serif" font-size="10.00">entity_manager.hpp</text>
</a>
</g>
</g>
<!-- Node2&#45;&gt;Node6 -->
<g id="edge5_Node000002_Node000006" class="edge">
<title>Node2&#45;&gt;Node6</title>
<g id="a_edge5_Node000002_Node000006"><a xlink:title=" ">
<path fill="none" stroke="#63b8ff" d="M263.43,-279.59C248.62,-271.44 226.93,-259.48 209.73,-250"/>
<polygon fill="#63b8ff" stroke="#63b8ff" points="211.48,-246.97 201.03,-245.21 208.1,-253.1 211.48,-246.97"/>
</a>
</g>
</g>
<!-- Node17 -->
<g id="Node000017" class="node">
<title>Node17</title>
<g id="a_Node000017"><a xlink:href="action_8hpp.html" target="_top" xlink:title=" ">
<polygon fill="white" stroke="#666666" points="61,-76 0,-76 0,-56 61,-56 61,-76"/>
<text xml:space="preserve" text-anchor="middle" x="30.5" y="-62.5" font-family="Helvetica,sans-Serif" font-size="10.00">action.hpp</text>
</a>
</g>
</g>
<!-- Node2&#45;&gt;Node17 -->
<g id="edge18_Node000002_Node000017" class="edge">
<title>Node2&#45;&gt;Node17</title>
<g id="a_edge18_Node000002_Node000017"><a xlink:title=" ">
<path fill="none" stroke="#63b8ff" d="M249.51,-286.89C195.65,-281.32 86.39,-261.1 43.5,-188 25.12,-156.67 25.56,-112.84 27.84,-87.43"/>
<polygon fill="#63b8ff" stroke="#63b8ff" points="31.28,-88.11 28.9,-77.79 24.33,-87.34 31.28,-88.11"/>
</a>
</g>
</g>
<!-- Node6&#45;&gt;Node3 -->
<g id="edge7_Node000006_Node000003" class="edge">
<title>Node6&#45;&gt;Node3</title>
<g id="a_edge7_Node000006_Node000003"><a xlink:title=" ">
<path fill="none" stroke="#63b8ff" d="M215.94,-223.59C247.55,-214.71 295.18,-201.31 329.98,-191.52"/>
<polygon fill="#63b8ff" stroke="#63b8ff" points="330.66,-194.97 339.34,-188.89 328.76,-188.23 330.66,-194.97"/>
</a>
</g>
</g>
<!-- Node6&#45;&gt;Node4 -->
<g id="edge8_Node000006_Node000004" class="edge">
<title>Node6&#45;&gt;Node4</title>
<g id="a_edge8_Node000006_Node000004"><a xlink:title=" ">
<path fill="none" stroke="#63b8ff" d="M201.14,-223.59C217.53,-215.32 241.66,-203.14 260.56,-193.6"/>
<polygon fill="#63b8ff" stroke="#63b8ff" points="262.01,-196.79 269.37,-189.16 258.86,-190.54 262.01,-196.79"/>
</a>
</g>
</g>
<!-- Node7 -->
<g id="Node000007" class="node">
<title>Node7</title>
<g id="a_Node000007"><a xlink:title=" ">
<polygon fill="#e0e0e0" stroke="#999999" points="246,-188 203,-188 203,-168 246,-168 246,-188"/>
<text xml:space="preserve" text-anchor="middle" x="224.5" y="-174.5" font-family="Helvetica,sans-Serif" font-size="10.00">vector</text>
</a>
</g>
</g>
<!-- Node6&#45;&gt;Node7 -->
<g id="edge6_Node000006_Node000007" class="edge">
<title>Node6&#45;&gt;Node7</title>
<g id="a_edge6_Node000006_Node000007"><a xlink:title=" ">
<path fill="none" stroke="#63b8ff" d="M189.82,-223.59C195.48,-216.32 203.49,-206.02 210.39,-197.15"/>
<polygon fill="#63b8ff" stroke="#63b8ff" points="212.96,-199.54 216.34,-189.49 207.44,-195.24 212.96,-199.54"/>
</a>
</g>
</g>
<!-- Node8 -->
<g id="Node000008" class="node">
<title>Node8</title>
<g id="a_Node000008"><a xlink:title=" ">
<polygon fill="#e0e0e0" stroke="#999999" points="108.38,-188 52.62,-188 52.62,-168 108.38,-168 108.38,-188"/>
<text xml:space="preserve" text-anchor="middle" x="80.5" y="-174.5" font-family="Helvetica,sans-Serif" font-size="10.00">algorithm</text>
</a>
</g>
</g>
<!-- Node6&#45;&gt;Node8 -->
<g id="edge9_Node000006_Node000008" class="edge">
<title>Node6&#45;&gt;Node8</title>
<g id="a_edge9_Node000006_Node000008"><a xlink:title=" ">
<path fill="none" stroke="#63b8ff" d="M164.73,-223.59C149.18,-215.36 126.32,-203.26 108.34,-193.74"/>
<polygon fill="#63b8ff" stroke="#63b8ff" points="110.22,-190.77 99.74,-189.19 106.94,-196.96 110.22,-190.77"/>
</a>
</g>
</g>
<!-- Node9 -->
<g id="Node000009" class="node">
<title>Node9</title>
<g id="a_Node000009"><a xlink:href="entity_8hpp.html" target="_top" xlink:title=" ">
<polygon fill="white" stroke="#666666" points="184.5,-188 126.5,-188 126.5,-168 184.5,-168 184.5,-188"/>
<text xml:space="preserve" text-anchor="middle" x="155.5" y="-174.5" font-family="Helvetica,sans-Serif" font-size="10.00">entity.hpp</text>
</a>
</g>
</g>
<!-- Node6&#45;&gt;Node9 -->
<g id="edge10_Node000006_Node000009" class="edge">
<title>Node6&#45;&gt;Node9</title>
<g id="a_edge10_Node000006_Node000009"><a xlink:title=" ">
<path fill="none" stroke="#63b8ff" d="M177.8,-223.59C174.35,-216.7 169.55,-207.1 165.29,-198.57"/>
<polygon fill="#63b8ff" stroke="#63b8ff" points="168.43,-197.03 160.83,-189.65 162.17,-200.16 168.43,-197.03"/>
</a>
</g>
</g>
<!-- Node10 -->
<g id="Node000010" class="node">
<title>Node10</title>
<g id="a_Node000010"><a xlink:title=" ">
<polygon fill="#e0e0e0" stroke="#999999" points="255,-132 218,-132 218,-112 255,-112 255,-132"/>
<text xml:space="preserve" text-anchor="middle" x="236.5" y="-118.5" font-family="Helvetica,sans-Serif" font-size="10.00">tuple</text>
</a>
</g>
</g>
<!-- Node9&#45;&gt;Node10 -->
<g id="edge11_Node000009_Node000010" class="edge">
<title>Node9&#45;&gt;Node10</title>
<g id="a_edge11_Node000009_Node000010"><a xlink:title=" ">
<path fill="none" stroke="#63b8ff" d="M169.61,-167.59C181.5,-159.67 198.77,-148.16 212.78,-138.82"/>
<polygon fill="#63b8ff" stroke="#63b8ff" points="214.64,-141.78 221.02,-133.32 210.76,-135.95 214.64,-141.78"/>
</a>
</g>
</g>
<!-- Node11 -->
<g id="Node000011" class="node">
<title>Node11</title>
<g id="a_Node000011"><a xlink:href="components_8hpp.html" target="_top" xlink:title=" ">
<polygon fill="white" stroke="#666666" points="199.5,-132 111.5,-132 111.5,-112 199.5,-112 199.5,-132"/>
<text xml:space="preserve" text-anchor="middle" x="155.5" y="-118.5" font-family="Helvetica,sans-Serif" font-size="10.00">components.hpp</text>
</a>
</g>
</g>
<!-- Node9&#45;&gt;Node11 -->
<g id="edge12_Node000009_Node000011" class="edge">
<title>Node9&#45;&gt;Node11</title>
<g id="a_edge12_Node000009_Node000011"><a xlink:title=" ">
<path fill="none" stroke="#63b8ff" d="M155.5,-167.59C155.5,-161.01 155.5,-151.96 155.5,-143.73"/>
<polygon fill="#63b8ff" stroke="#63b8ff" points="159,-143.81 155.5,-133.81 152,-143.81 159,-143.81"/>
</a>
</g>
</g>
<!-- Node12 -->
<g id="Node000012" class="node">
<title>Node12</title>
<g id="a_Node000012"><a xlink:title=" ">
<polygon fill="#e0e0e0" stroke="#999999" points="356.38,-76 222.62,-76 222.62,-56 356.38,-56 356.38,-76"/>
<text xml:space="preserve" text-anchor="middle" x="289.5" y="-62.5" font-family="Helvetica,sans-Serif" font-size="10.00">SFML/System/Vector2.hpp</text>
</a>
</g>
</g>
<!-- Node11&#45;&gt;Node12 -->
<g id="edge13_Node000011_Node000012" class="edge">
<title>Node11&#45;&gt;Node12</title>
<g id="a_edge13_Node000011_Node000012"><a xlink:title=" ">
<path fill="none" stroke="#63b8ff" d="M178.84,-111.59C200.04,-103.05 231.57,-90.35 255.55,-80.68"/>
<polygon fill="#63b8ff" stroke="#63b8ff" points="256.61,-84.03 264.57,-77.05 253.99,-77.54 256.61,-84.03"/>
</a>
</g>
</g>
<!-- Node13 -->
<g id="Node000013" class="node">
<title>Node13</title>
<g id="a_Node000013"><a xlink:title=" ">
<polygon fill="#e0e0e0" stroke="#999999" points="204.25,-76 84.75,-76 84.75,-56 204.25,-56 204.25,-76"/>
<text xml:space="preserve" text-anchor="middle" x="144.5" y="-62.5" font-family="Helvetica,sans-Serif" font-size="10.00">SFML/Audio/Sound.hpp</text>
</a>
</g>
</g>
<!-- Node11&#45;&gt;Node13 -->
<g id="edge14_Node000011_Node000013" class="edge">
<title>Node11&#45;&gt;Node13</title>
<g id="a_edge14_Node000011_Node000013"><a xlink:title=" ">
<path fill="none" stroke="#63b8ff" d="M153.58,-111.59C152.23,-104.93 150.36,-95.75 148.66,-87.44"/>
<polygon fill="#63b8ff" stroke="#63b8ff" points="152.12,-86.88 146.7,-77.78 145.26,-88.28 152.12,-86.88"/>
</a>
</g>
</g>
<!-- Node14 -->
<g id="Node000014" class="node">
<title>Node14</title>
<g id="a_Node000014"><a xlink:href="animation_8hpp.html" target="_top" xlink:title=" ">
<polygon fill="white" stroke="#666666" points="465.88,-76 389.12,-76 389.12,-56 465.88,-56 465.88,-76"/>
<text xml:space="preserve" text-anchor="middle" x="427.5" y="-62.5" font-family="Helvetica,sans-Serif" font-size="10.00">animation.hpp</text>
</a>
</g>
</g>
<!-- Node11&#45;&gt;Node14 -->
<g id="edge15_Node000011_Node000014" class="edge">
<title>Node11&#45;&gt;Node14</title>
<g id="a_edge15_Node000011_Node000014"><a xlink:title=" ">
<path fill="none" stroke="#63b8ff" d="M199.81,-112.2C248.65,-102.51 327.03,-86.95 377.89,-76.85"/>
<polygon fill="#63b8ff" stroke="#63b8ff" points="378.32,-80.33 387.45,-74.95 376.96,-73.47 378.32,-80.33"/>
</a>
</g>
</g>
<!-- Node15 -->
<g id="Node000015" class="node">
<title>Node15</title>
<g id="a_Node000015"><a xlink:title=" ">
<polygon fill="#e0e0e0" stroke="#999999" points="395.5,-20 355.5,-20 355.5,0 395.5,0 395.5,-20"/>
<text xml:space="preserve" text-anchor="middle" x="375.5" y="-6.5" font-family="Helvetica,sans-Serif" font-size="10.00">string</text>
</a>
</g>
</g>
<!-- Node14&#45;&gt;Node15 -->
<g id="edge16_Node000014_Node000015" class="edge">
<title>Node14&#45;&gt;Node15</title>
<g id="a_edge16_Node000014_Node000015"><a xlink:title=" ">
<path fill="none" stroke="#63b8ff" d="M418.44,-55.59C411.28,-48.16 401.09,-37.58 392.43,-28.58"/>
<polygon fill="#63b8ff" stroke="#63b8ff" points="394.96,-26.16 385.5,-21.39 389.92,-31.02 394.96,-26.16"/>
</a>
</g>
</g>
<!-- Node16 -->
<g id="Node000016" class="node">
<title>Node16</title>
<g id="a_Node000016"><a xlink:title=" ">
<polygon fill="#e0e0e0" stroke="#999999" points="545.25,-20 413.75,-20 413.75,0 545.25,0 545.25,-20"/>
<text xml:space="preserve" text-anchor="middle" x="479.5" y="-6.5" font-family="Helvetica,sans-Serif" font-size="10.00">SFML/Graphics/Sprite.hpp</text>
</a>
</g>
</g>
<!-- Node14&#45;&gt;Node16 -->
<g id="edge17_Node000014_Node000016" class="edge">
<title>Node14&#45;&gt;Node16</title>
<g id="a_edge17_Node000014_Node000016"><a xlink:title=" ">
<path fill="none" stroke="#63b8ff" d="M436.56,-55.59C443.72,-48.16 453.91,-37.58 462.57,-28.58"/>
<polygon fill="#63b8ff" stroke="#63b8ff" points="465.08,-31.02 469.5,-21.39 460.04,-26.16 465.08,-31.02"/>
</a>
</g>
</g>
<!-- Node17&#45;&gt;Node15 -->
<g id="edge19_Node000017_Node000015" class="edge">
<title>Node17&#45;&gt;Node15</title>
<g id="a_edge19_Node000017_Node000015"><a xlink:title=" ">
<path fill="none" stroke="#63b8ff" d="M61.45,-58.61C66.15,-57.69 70.95,-56.8 75.5,-56 172.93,-38.96 288.85,-22.7 343.71,-15.25"/>
<polygon fill="#63b8ff" stroke="#63b8ff" points="344.13,-18.73 353.57,-13.92 343.2,-11.79 344.13,-18.73"/>
</a>
</g>
</g>
<!-- Node19 -->
<g id="Node000019" class="node">
<title>Node19</title>
<g id="a_Node000019"><a xlink:title=" ">
<polygon fill="#e0e0e0" stroke="#999999" points="661.5,-244 489.5,-244 489.5,-224 661.5,-224 661.5,-244"/>
<text xml:space="preserve" text-anchor="middle" x="575.5" y="-230.5" font-family="Helvetica,sans-Serif" font-size="10.00">SFML/Graphics/RenderWindow.hpp</text>
</a>
</g>
</g>
<!-- Node18&#45;&gt;Node19 -->
<g id="edge21_Node000018_Node000019" class="edge">
<title>Node18&#45;&gt;Node19</title>
<g id="a_edge21_Node000018_Node000019"><a xlink:title=" ">
<path fill="none" stroke="#63b8ff" d="M713.41,-279.59C686.28,-270.82 645.57,-257.66 615.41,-247.9"/>
<polygon fill="#63b8ff" stroke="#63b8ff" points="616.85,-244.69 606.26,-244.95 614.69,-251.35 616.85,-244.69"/>
</a>
</g>
</g>
<!-- Node20 -->
<g id="Node000020" class="node">
<title>Node20</title>
<g id="a_Node000020"><a xlink:title=" ">
<polygon fill="#e0e0e0" stroke="#999999" points="805.62,-244 679.38,-244 679.38,-224 805.62,-224 805.62,-244"/>
<text xml:space="preserve" text-anchor="middle" x="742.5" y="-230.5" font-family="Helvetica,sans-Serif" font-size="10.00">SFML/System/Clock.hpp</text>
</a>
</g>
</g>
<!-- Node18&#45;&gt;Node20 -->
<g id="edge22_Node000018_Node000020" class="edge">
<title>Node18&#45;&gt;Node20</title>
<g id="a_edge22_Node000018_Node000020"><a xlink:title=" ">
<path fill="none" stroke="#63b8ff" d="M742.5,-279.59C742.5,-273.01 742.5,-263.96 742.5,-255.73"/>
<polygon fill="#63b8ff" stroke="#63b8ff" points="746,-255.81 742.5,-245.81 739,-255.81 746,-255.81"/>
</a>
</g>
</g>
<!-- Node21 -->
<g id="Node000021" class="node">
<title>Node21</title>
<g id="a_Node000021"><a xlink:href="config__parser_8hpp.html" target="_top" xlink:title=" ">
<polygon fill="white" stroke="#666666" points="1154.12,-244 1060.88,-244 1060.88,-224 1154.12,-224 1154.12,-244"/>
<text xml:space="preserve" text-anchor="middle" x="1107.5" y="-230.5" font-family="Helvetica,sans-Serif" font-size="10.00">config_parser.hpp</text>
</a>
</g>
</g>
<!-- Node18&#45;&gt;Node21 -->
<g id="edge23_Node000018_Node000021" class="edge">
<title>Node18&#45;&gt;Node21</title>
<g id="a_edge23_Node000018_Node000021"><a xlink:title=" ">
<path fill="none" stroke="#63b8ff" d="M789.1,-282.11C855.5,-272.28 977.28,-254.26 1049.46,-243.59"/>
<polygon fill="#63b8ff" stroke="#63b8ff" points="1049.73,-247.09 1059.11,-242.16 1048.7,-240.16 1049.73,-247.09"/>
</a>
</g>
</g>
<!-- Node25 -->
<g id="Node000025" class="node">
<title>Node25</title>
<g id="a_Node000025"><a xlink:href="asset__manager_8hpp.html" target="_top" xlink:title=" ">
<polygon fill="white" stroke="#666666" points="925.25,-244 823.75,-244 823.75,-224 925.25,-224 925.25,-244"/>
<text xml:space="preserve" text-anchor="middle" x="874.5" y="-230.5" font-family="Helvetica,sans-Serif" font-size="10.00">asset_manager.hpp</text>
</a>
</g>
</g>
<!-- Node18&#45;&gt;Node25 -->
<g id="edge28_Node000018_Node000025" class="edge">
<title>Node18&#45;&gt;Node25</title>
<g id="a_edge28_Node000018_Node000025"><a xlink:title=" ">
<path fill="none" stroke="#63b8ff" d="M765.49,-279.59C786.28,-271.09 817.15,-258.46 840.74,-248.81"/>
<polygon fill="#63b8ff" stroke="#63b8ff" points="842,-252.08 849.93,-245.05 839.35,-245.6 842,-252.08"/>
</a>
</g>
</g>
<!-- Node22 -->
<g id="Node000022" class="node">
<title>Node22</title>
<g id="a_Node000022"><a xlink:href="config__structs_8hpp.html" target="_top" xlink:title=" ">
<polygon fill="white" stroke="#666666" points="1246.62,-188 1150.38,-188 1150.38,-168 1246.62,-168 1246.62,-188"/>
<text xml:space="preserve" text-anchor="middle" x="1198.5" y="-174.5" font-family="Helvetica,sans-Serif" font-size="10.00">config_structs.hpp</text>
</a>
</g>
</g>
<!-- Node21&#45;&gt;Node22 -->
<g id="edge24_Node000021_Node000022" class="edge">
<title>Node21&#45;&gt;Node22</title>
<g id="a_edge24_Node000021_Node000022"><a xlink:title=" ">
<path fill="none" stroke="#63b8ff" d="M1123.35,-223.59C1136.97,-215.51 1156.86,-203.71 1172.76,-194.27"/>
<polygon fill="#63b8ff" stroke="#63b8ff" points="1174.41,-197.37 1181.22,-189.25 1170.84,-191.35 1174.41,-197.37"/>
</a>
</g>
</g>
<!-- Node22&#45;&gt;Node15 -->
<g id="edge25_Node000022_Node000015" class="edge">
<title>Node22&#45;&gt;Node15</title>
<g id="a_edge25_Node000022_Node000015"><a xlink:title=" ">
<path fill="none" stroke="#63b8ff" d="M1203.57,-167.72C1210.42,-153.78 1220.27,-127.44 1206.5,-112 1089.43,19.27 599.7,-53.97 407.12,-20.03"/>
<polygon fill="#63b8ff" stroke="#63b8ff" points="407.94,-16.62 397.46,-18.16 406.61,-23.5 407.94,-16.62"/>
</a>
</g>
</g>
<!-- Node23 -->
<g id="Node000023" class="node">
<title>Node23</title>
<g id="a_Node000023"><a xlink:title=" ">
<polygon fill="#e0e0e0" stroke="#999999" points="1125.38,-132 1087.62,-132 1087.62,-112 1125.38,-112 1125.38,-132"/>
<text xml:space="preserve" text-anchor="middle" x="1106.5" y="-118.5" font-family="Helvetica,sans-Serif" font-size="10.00">array</text>
</a>
</g>
</g>
<!-- Node22&#45;&gt;Node23 -->
<g id="edge26_Node000022_Node000023" class="edge">
<title>Node22&#45;&gt;Node23</title>
<g id="a_edge26_Node000022_Node000023"><a xlink:title=" ">
<path fill="none" stroke="#63b8ff" d="M1182.47,-167.59C1168.71,-159.51 1148.6,-147.71 1132.52,-138.27"/>
<polygon fill="#63b8ff" stroke="#63b8ff" points="1134.35,-135.29 1123.96,-133.25 1130.81,-141.33 1134.35,-135.29"/>
</a>
</g>
</g>
<!-- Node24 -->
<g id="Node000024" class="node">
<title>Node24</title>
<g id="a_Node000024"><a xlink:title=" ">
<polygon fill="#e0e0e0" stroke="#999999" points="1197.25,-132 1143.75,-132 1143.75,-112 1197.25,-112 1197.25,-132"/>
<text xml:space="preserve" text-anchor="middle" x="1170.5" y="-118.5" font-family="Helvetica,sans-Serif" font-size="10.00">toml.hpp</text>
</a>
</g>
</g>
<!-- Node22&#45;&gt;Node24 -->
<g id="edge27_Node000022_Node000024" class="edge">
<title>Node22&#45;&gt;Node24</title>
<g id="a_edge27_Node000022_Node000024"><a xlink:title=" ">
<path fill="none" stroke="#63b8ff" d="M1193.62,-167.59C1190.01,-160.63 1184.96,-150.89 1180.5,-142.29"/>
<polygon fill="#63b8ff" stroke="#63b8ff" points="1183.73,-140.91 1176.02,-133.64 1177.51,-144.13 1183.73,-140.91"/>
</a>
</g>
</g>
<!-- Node25&#45;&gt;Node3 -->
<g id="edge29_Node000025_Node000003" class="edge">
<title>Node25&#45;&gt;Node3</title>
<g id="a_edge29_Node000025_Node000003"><a xlink:title=" ">
<path fill="none" stroke="#63b8ff" d="M823.46,-225.15C820.43,-224.74 817.43,-224.36 814.5,-224 643.9,-203.25 599.96,-209.89 429.5,-188 428.83,-187.91 428.15,-187.82 427.46,-187.73"/>
<polygon fill="#63b8ff" stroke="#63b8ff" points="428.09,-184.29 417.7,-186.35 427.1,-191.22 428.09,-184.29"/>
</a>
</g>
</g>
<!-- Node25&#45;&gt;Node14 -->
<g id="edge35_Node000025_Node000014" class="edge">
<title>Node25&#45;&gt;Node14</title>
<g id="a_edge35_Node000025_Node000014"><a xlink:title=" ">
<path fill="none" stroke="#63b8ff" d="M823.46,-225.18C820.43,-224.77 817.43,-224.37 814.5,-224 736.71,-214.18 523.88,-238.03 463.5,-188 433.78,-163.37 427.91,-115.37 427.15,-87.8"/>
<polygon fill="#63b8ff" stroke="#63b8ff" points="430.65,-87.91 427.1,-77.93 423.65,-87.95 430.65,-87.91"/>
</a>
</g>
</g>
<!-- Node26 -->
<g id="Node000026" class="node">
<title>Node26</title>
<g id="a_Node000026"><a xlink:title=" ">
<polygon fill="#e0e0e0" stroke="#999999" points="533,-188 472,-188 472,-168 533,-168 533,-188"/>
<text xml:space="preserve" text-anchor="middle" x="502.5" y="-174.5" font-family="Helvetica,sans-Serif" font-size="10.00">filesystem</text>
</a>
</g>
</g>
<!-- Node25&#45;&gt;Node26 -->
<g id="edge30_Node000025_Node000026" class="edge">
<title>Node25&#45;&gt;Node26</title>
<g id="a_edge30_Node000025_Node000026"><a xlink:title=" ">
<path fill="none" stroke="#63b8ff" d="M823.45,-225.28C820.42,-224.84 817.42,-224.41 814.5,-224 697.29,-207.45 664.45,-209.28 544.55,-188.22"/>
<polygon fill="#63b8ff" stroke="#63b8ff" points="545.4,-184.82 534.94,-186.52 544.18,-191.71 545.4,-184.82"/>
</a>
</g>
</g>
<!-- Node27 -->
<g id="Node000027" class="node">
<title>Node27</title>
<g id="a_Node000027"><a xlink:title=" ">
<polygon fill="#e0e0e0" stroke="#999999" points="689.62,-188 551.38,-188 551.38,-168 689.62,-168 689.62,-188"/>
<text xml:space="preserve" text-anchor="middle" x="620.5" y="-174.5" font-family="Helvetica,sans-Serif" font-size="10.00">SFML/Graphics/Texture.hpp</text>
</a>
</g>
</g>
<!-- Node25&#45;&gt;Node27 -->
<g id="edge31_Node000025_Node000027" class="edge">
<title>Node25&#45;&gt;Node27</title>
<g id="a_edge31_Node000025_Node000027"><a xlink:title=" ">
<path fill="none" stroke="#63b8ff" d="M829.97,-223.53C787.12,-214.42 722.2,-200.62 676.01,-190.8"/>
<polygon fill="#63b8ff" stroke="#63b8ff" points="676.97,-187.43 666.46,-188.77 675.52,-194.27 676.97,-187.43"/>
</a>
</g>
</g>
<!-- Node28 -->
<g id="Node000028" class="node">
<title>Node28</title>
<g id="a_Node000028"><a xlink:title=" ">
<polygon fill="#e0e0e0" stroke="#999999" points="833.25,-188 707.75,-188 707.75,-168 833.25,-168 833.25,-188"/>
<text xml:space="preserve" text-anchor="middle" x="770.5" y="-174.5" font-family="Helvetica,sans-Serif" font-size="10.00">SFML/Graphics/Font.hpp</text>
</a>
</g>
</g>
<!-- Node25&#45;&gt;Node28 -->
<g id="edge32_Node000025_Node000028" class="edge">
<title>Node25&#45;&gt;Node28</title>
<g id="a_edge32_Node000025_Node000028"><a xlink:title=" ">
<path fill="none" stroke="#63b8ff" d="M856.38,-223.59C840.53,-215.36 817.22,-203.26 798.88,-193.74"/>
<polygon fill="#63b8ff" stroke="#63b8ff" points="800.59,-190.68 790.1,-189.18 797.36,-196.89 800.59,-190.68"/>
</a>
</g>
</g>
<!-- Node29 -->
<g id="Node000029" class="node">
<title>Node29</title>
<g id="a_Node000029"><a xlink:title=" ">
<polygon fill="#e0e0e0" stroke="#999999" points="996,-188 851,-188 851,-168 996,-168 996,-188"/>
<text xml:space="preserve" text-anchor="middle" x="923.5" y="-174.5" font-family="Helvetica,sans-Serif" font-size="10.00">SFML/Audio/SoundBuffer.hpp</text>
</a>
</g>
</g>
<!-- Node25&#45;&gt;Node29 -->
<g id="edge33_Node000025_Node000029" class="edge">
<title>Node25&#45;&gt;Node29</title>
<g id="a_edge33_Node000025_Node000029"><a xlink:title=" ">
<path fill="none" stroke="#63b8ff" d="M883.04,-223.59C889.78,-216.16 899.39,-205.58 907.54,-196.58"/>
<polygon fill="#63b8ff" stroke="#63b8ff" points="909.92,-199.18 914.05,-189.42 904.73,-194.47 909.92,-199.18"/>
</a>
</g>
</g>
<!-- Node30 -->
<g id="Node000030" class="node">
<title>Node30</title>
<g id="a_Node000030"><a xlink:title=" ">
<polygon fill="#e0e0e0" stroke="#999999" points="1132.5,-188 1014.5,-188 1014.5,-168 1132.5,-168 1132.5,-188"/>
<text xml:space="preserve" text-anchor="middle" x="1073.5" y="-174.5" font-family="Helvetica,sans-Serif" font-size="10.00">SFML/Audio/Music.hpp</text>
</a>
</g>
</g>
<!-- Node25&#45;&gt;Node30 -->
<g id="edge34_Node000025_Node000030" class="edge">
<title>Node25&#45;&gt;Node30</title>
<g id="a_edge34_Node000025_Node000030"><a xlink:title=" ">
<path fill="none" stroke="#63b8ff" d="M909.16,-223.59C942.06,-214.67 991.71,-201.19 1027.83,-191.39"/>
<polygon fill="#63b8ff" stroke="#63b8ff" points="1028.37,-194.87 1037.11,-188.88 1026.54,-188.12 1028.37,-194.87"/>
</a>
</g>
</g>
</g>
</svg>

<g id="navigator" transform="translate(0 0)" fill="#404254">
  <rect fill="#f2f5e9" fill-opacity="0.5" stroke="#606060" stroke-width=".5" x="0" y="0" width="60" height="60"/>
  <use id="zoomplus" xlink:href="#zoomPlus" x="17" y="9" onmousedown="handleZoom(evt,'in')"/>
  <use id="zoomminus" xlink:href="#zoomMin" x="42" y="9" onmousedown="handleZoom(evt,'out')"/>
  <use id="reset" xlink:href="#resetDef" x="30" y="36" onmousedown="handleReset()"/>
   <use id="arrowup" xlink:href="#arrowUp" x="0" y="0" onmousedown="handlePan(0,-1)"/>
  <use id="arrowright" xlink:href="#arrowRight" x="0" y="0" onmousedown="handlePan(1,0)"/>
  <use id="arrowdown" xlink:href="#arrowDown" x="0" y="0" onmousedown="handlePan(0,1)"/>
  <use id="arrowleft" xlink:href="#arrowLeft" x="0" y="0" onmousedown="handlePan(-1,0)"/>
</g>
<svg viewBox="0 0 15 15" width="100%" height="30px" preserveAspectRatio="xMaxYMin meet">
 <g id="arrow_out" transform="scale(0.3 0.3)">
  <a xlink:href="scene_8cpp__incl_org.svg" target="_base">
   <rect id="button" ry="5" rx="5" y="6" x="6" height="38" width="38"
        fill="#f2f5e9" fill-opacity="0.5" stroke="#606060" stroke-width="1.0"/>
   <path id="arrow"
     d="M 11.500037,31.436501 C 11.940474,20.09759 22.043105,11.32322 32.158766,21.979434 L 37.068811,17.246167 C 37.068811,17.246167 37.088388,32 37.088388,32 L 22.160133,31.978069 C 22.160133,31.978069 26.997745,27.140456 26.997745,27.140456 C 18.528582,18.264221 13.291696,25.230495 11.500037,31.436501 z"
     style="fill:#404040;"/>
  </a>
 </g>
</svg>

<style type='text/css'>
<![CDATA[
[data-mouse-over-selected='false'] { opacity: 0.7; }
[data-mouse-over-selected='true']  { opacity: 1.0; }
]]>
</style>
<script type="application/ecmascript"><![CDATA[
document.addEventListener('DOMContentLoaded', (event) => {
  highlightEdges();
  highlightAdjacentNodes();
});
]]></script>
</svg>
