<?xml version="1.0" encoding="UTF-8" standalone="no"?>
<!DOCTYPE svg PUBLIC "-//W3C//DTD SVG 1.1//EN"
 "http://www.w3.org/Graphics/SVG/1.1/DTD/svg11.dtd">
<!-- Generated by graphviz version 13.1.2 (20250808.2320)
 -->
<!-- Title: src/scene_menu.hpp Pages: 1 -->
<svg width="841pt" height="364pt"
 viewBox="0.00 0.00 841.00 364.00" xmlns="http://www.w3.org/2000/svg" xmlns:xlink="http://www.w3.org/1999/xlink">
<g id="graph0" class="graph" transform="scale(1 1) rotate(0) translate(4 360)">
<title>src/scene_menu.hpp</title>
<!-- Node1 -->
<g id="Node000001" class="node">
<title>Node1</title>
<g id="a_Node000001"><a xlink:title=" ">
<polygon fill="#999999" stroke="#666666" points="590.12,-356 483.38,-356 483.38,-336 590.12,-336 590.12,-356"/>
<text xml:space="preserve" text-anchor="middle" x="536.75" y="-342.5" font-family="Helvetica,sans-Serif" font-size="10.00">src/scene_menu.hpp</text>
</a>
</g>
</g>
<!-- Node2 -->
<g id="Node000002" class="node">
<title>Node2</title>
<g id="a_Node000002"><a xlink:href="scene_8hpp.html" target="_top" xlink:title=" ">
<polygon fill="white" stroke="#666666" points="430.25,-300 369.25,-300 369.25,-280 430.25,-280 430.25,-300"/>
<text xml:space="preserve" text-anchor="middle" x="399.75" y="-286.5" font-family="Helvetica,sans-Serif" font-size="10.00">scene.hpp</text>
</a>
</g>
</g>
<!-- Node1&#45;&gt;Node2 -->
<g id="edge1_Node000001_Node000002" class="edge">
<title>Node1&#45;&gt;Node2</title>
<g id="a_edge1_Node000001_Node000002"><a xlink:title=" ">
<path fill="none" stroke="#63b8ff" d="M512.89,-335.59C491.21,-327.05 458.98,-314.35 434.46,-304.68"/>
<polygon fill="#63b8ff" stroke="#63b8ff" points="435.79,-301.45 425.21,-301.03 433.23,-307.96 435.79,-301.45"/>
</a>
</g>
</g>
<!-- Node13 -->
<g id="Node000013" class="node">
<title>Node13</title>
<g id="a_Node000013"><a xlink:title=" ">
<polygon fill="#e0e0e0" stroke="#999999" points="119.5,-76 0,-76 0,-56 119.5,-56 119.5,-76"/>
<text xml:space="preserve" text-anchor="middle" x="59.75" y="-62.5" font-family="Helvetica,sans-Serif" font-size="10.00">SFML/Audio/Sound.hpp</text>
</a>
</g>
</g>
<!-- Node1&#45;&gt;Node13 -->
<g id="edge26_Node000001_Node000013" class="edge">
<title>Node1&#45;&gt;Node13</title>
<g id="a_edge26_Node000001_Node000013"><a xlink:title=" ">
<path fill="none" stroke="#63b8ff" d="M483.13,-344.16C356.36,-340.71 48.75,-323.26 48.75,-235 48.75,-235 48.75,-235 48.75,-177 48.75,-145.71 53.21,-109.67 56.45,-87.61"/>
<polygon fill="#63b8ff" stroke="#63b8ff" points="59.89,-88.3 57.94,-77.88 52.97,-87.23 59.89,-88.3"/>
</a>
</g>
</g>
<!-- Node18 -->
<g id="Node000018" class="node">
<title>Node18</title>
<g id="a_Node000018"><a xlink:href="misc_8hpp.html" target="_top" xlink:title=" ">
<polygon fill="white" stroke="#666666" points="574.62,-132 518.88,-132 518.88,-112 574.62,-112 574.62,-132"/>
<text xml:space="preserve" text-anchor="middle" x="546.75" y="-118.5" font-family="Helvetica,sans-Serif" font-size="10.00">misc.hpp</text>
</a>
</g>
</g>
<!-- Node1&#45;&gt;Node18 -->
<g id="edge20_Node000001_Node000018" class="edge">
<title>Node1&#45;&gt;Node18</title>
<g id="a_edge20_Node000001_Node000018"><a xlink:title=" ">
<path fill="none" stroke="#63b8ff" d="M537.17,-335.74C538.65,-302.74 543.72,-190.31 545.82,-143.61"/>
<polygon fill="#63b8ff" stroke="#63b8ff" points="549.31,-143.96 546.26,-133.81 542.32,-143.64 549.31,-143.96"/>
</a>
</g>
</g>
<!-- Node22 -->
<g id="Node000022" class="node">
<title>Node22</title>
<g id="a_Node000022"><a xlink:title=" ">
<polygon fill="#e0e0e0" stroke="#999999" points="690.5,-300 565,-300 565,-280 690.5,-280 690.5,-300"/>
<text xml:space="preserve" text-anchor="middle" x="627.75" y="-286.5" font-family="Helvetica,sans-Serif" font-size="10.00">SFML/Graphics/Font.hpp</text>
</a>
</g>
</g>
<!-- Node1&#45;&gt;Node22 -->
<g id="edge27_Node000001_Node000022" class="edge">
<title>Node1&#45;&gt;Node22</title>
<g id="a_edge27_Node000001_Node000022"><a xlink:title=" ">
<path fill="none" stroke="#63b8ff" d="M552.6,-335.59C566.22,-327.51 586.11,-315.71 602.01,-306.27"/>
<polygon fill="#63b8ff" stroke="#63b8ff" points="603.66,-309.37 610.47,-301.25 600.09,-303.35 603.66,-309.37"/>
</a>
</g>
</g>
<!-- Node23 -->
<g id="Node000023" class="node">
<title>Node23</title>
<g id="a_Node000023"><a xlink:title=" ">
<polygon fill="#e0e0e0" stroke="#999999" points="833.12,-300 708.38,-300 708.38,-280 833.12,-280 833.12,-300"/>
<text xml:space="preserve" text-anchor="middle" x="770.75" y="-286.5" font-family="Helvetica,sans-Serif" font-size="10.00">SFML/Graphics/Text.hpp</text>
</a>
</g>
</g>
<!-- Node1&#45;&gt;Node23 -->
<g id="edge28_Node000001_Node000023" class="edge">
<title>Node1&#45;&gt;Node23</title>
<g id="a_edge28_Node000001_Node000023"><a xlink:title=" ">
<path fill="none" stroke="#63b8ff" d="M577.78,-335.53C617,-326.48 676.3,-312.8 718.8,-302.99"/>
<polygon fill="#63b8ff" stroke="#63b8ff" points="719.34,-306.46 728.29,-300.8 717.76,-299.64 719.34,-306.46"/>
</a>
</g>
</g>
<!-- Node3 -->
<g id="Node000003" class="node">
<title>Node3</title>
<g id="a_Node000003"><a xlink:title=" ">
<polygon fill="#e0e0e0" stroke="#999999" points="370.12,-188 287.38,-188 287.38,-168 370.12,-168 370.12,-188"/>
<text xml:space="preserve" text-anchor="middle" x="328.75" y="-174.5" font-family="Helvetica,sans-Serif" font-size="10.00">unordered_map</text>
</a>
</g>
</g>
<!-- Node2&#45;&gt;Node3 -->
<g id="edge2_Node000002_Node000003" class="edge">
<title>Node2&#45;&gt;Node3</title>
<g id="a_edge2_Node000002_Node000003"><a xlink:title=" ">
<path fill="none" stroke="#63b8ff" d="M394.64,-279.56C387.6,-266.74 374.38,-243.23 361.75,-224 355.92,-215.12 349.03,-205.58 343.05,-197.59"/>
<polygon fill="#63b8ff" stroke="#63b8ff" points="345.87,-195.51 337.04,-189.66 340.29,-199.74 345.87,-195.51"/>
</a>
</g>
</g>
<!-- Node4 -->
<g id="Node000004" class="node">
<title>Node4</title>
<g id="a_Node000004"><a xlink:title=" ">
<polygon fill="#e0e0e0" stroke="#999999" points="439.38,-188 388.12,-188 388.12,-168 439.38,-168 439.38,-188"/>
<text xml:space="preserve" text-anchor="middle" x="413.75" y="-174.5" font-family="Helvetica,sans-Serif" font-size="10.00">memory</text>
</a>
</g>
</g>
<!-- Node2&#45;&gt;Node4 -->
<g id="edge3_Node000002_Node000004" class="edge">
<title>Node2&#45;&gt;Node4</title>
<g id="a_edge3_Node000002_Node000004"><a xlink:title=" ">
<path fill="none" stroke="#63b8ff" d="M400.94,-279.62C403.19,-262.01 408.07,-223.59 411.12,-199.65"/>
<polygon fill="#63b8ff" stroke="#63b8ff" points="414.58,-200.22 412.37,-189.86 407.63,-199.33 414.58,-200.22"/>
</a>
</g>
</g>
<!-- Node5 -->
<g id="Node000005" class="node">
<title>Node5</title>
<g id="a_Node000005"><a xlink:title=" ">
<polygon fill="#e0e0e0" stroke="#999999" points="352.5,-244 209,-244 209,-224 352.5,-224 352.5,-244"/>
<text xml:space="preserve" text-anchor="middle" x="280.75" y="-230.5" font-family="Helvetica,sans-Serif" font-size="10.00">SFML/Window/Keyboard.hpp</text>
</a>
</g>
</g>
<!-- Node2&#45;&gt;Node5 -->
<g id="edge4_Node000002_Node000005" class="edge">
<title>Node2&#45;&gt;Node5</title>
<g id="a_edge4_Node000002_Node000005"><a xlink:title=" ">
<path fill="none" stroke="#63b8ff" d="M379.02,-279.59C360.54,-271.21 333.21,-258.8 312.06,-249.21"/>
<polygon fill="#63b8ff" stroke="#63b8ff" points="313.57,-246.05 303.02,-245.1 310.68,-252.42 313.57,-246.05"/>
</a>
</g>
</g>
<!-- Node6 -->
<g id="Node000006" class="node">
<title>Node6</title>
<g id="a_Node000006"><a xlink:href="entity__manager_8hpp.html" target="_top" xlink:title=" ">
<polygon fill="white" stroke="#666666" points="190.5,-244 89,-244 89,-224 190.5,-224 190.5,-244"/>
<text xml:space="preserve" text-anchor="middle" x="139.75" y="-230.5" font-family="Helvetica,sans-Serif" font-size="10.00">entity_manager.hpp</text>
</a>
</g>
</g>
<!-- Node2&#45;&gt;Node6 -->
<g id="edge5_Node000002_Node000006" class="edge">
<title>Node2&#45;&gt;Node6</title>
<g id="a_edge5_Node000002_Node000006"><a xlink:title=" ">
<path fill="none" stroke="#63b8ff" d="M368.9,-282.59C326.55,-273.8 249.61,-257.82 196.65,-246.82"/>
<polygon fill="#63b8ff" stroke="#63b8ff" points="197.39,-243.4 186.89,-244.79 195.97,-250.25 197.39,-243.4"/>
</a>
</g>
</g>
<!-- Node17 -->
<g id="Node000017" class="node">
<title>Node17</title>
<g id="a_Node000017"><a xlink:href="action_8hpp.html" target="_top" xlink:title=" ">
<polygon fill="white" stroke="#666666" points="508.25,-244 447.25,-244 447.25,-224 508.25,-224 508.25,-244"/>
<text xml:space="preserve" text-anchor="middle" x="477.75" y="-230.5" font-family="Helvetica,sans-Serif" font-size="10.00">action.hpp</text>
</a>
</g>
</g>
<!-- Node2&#45;&gt;Node17 -->
<g id="edge18_Node000002_Node000017" class="edge">
<title>Node2&#45;&gt;Node17</title>
<g id="a_edge18_Node000002_Node000017"><a xlink:title=" ">
<path fill="none" stroke="#63b8ff" d="M413.34,-279.59C424.79,-271.67 441.41,-260.16 454.91,-250.82"/>
<polygon fill="#63b8ff" stroke="#63b8ff" points="456.58,-253.91 462.81,-245.34 452.6,-248.16 456.58,-253.91"/>
</a>
</g>
</g>
<!-- Node6&#45;&gt;Node3 -->
<g id="edge7_Node000006_Node000003" class="edge">
<title>Node6&#45;&gt;Node3</title>
<g id="a_edge7_Node000006_Node000003"><a xlink:title=" ">
<path fill="none" stroke="#63b8ff" d="M172.67,-223.59C203.78,-214.71 250.67,-201.31 284.93,-191.52"/>
<polygon fill="#63b8ff" stroke="#63b8ff" points="285.46,-195.01 294.12,-188.9 283.54,-188.28 285.46,-195.01"/>
</a>
</g>
</g>
<!-- Node6&#45;&gt;Node4 -->
<g id="edge8_Node000006_Node000004" class="edge">
<title>Node6&#45;&gt;Node4</title>
<g id="a_edge8_Node000006_Node000004"><a xlink:title=" ">
<path fill="none" stroke="#63b8ff" d="M190.77,-224.39C236.83,-216.4 306.7,-203.72 376.59,-188.36"/>
<polygon fill="#63b8ff" stroke="#63b8ff" points="377.32,-191.78 386.32,-186.2 375.8,-184.95 377.32,-191.78"/>
</a>
</g>
</g>
<!-- Node7 -->
<g id="Node000007" class="node">
<title>Node7</title>
<g id="a_Node000007"><a xlink:title=" ">
<polygon fill="#e0e0e0" stroke="#999999" points="196.25,-188 153.25,-188 153.25,-168 196.25,-168 196.25,-188"/>
<text xml:space="preserve" text-anchor="middle" x="174.75" y="-174.5" font-family="Helvetica,sans-Serif" font-size="10.00">vector</text>
</a>
</g>
</g>
<!-- Node6&#45;&gt;Node7 -->
<g id="edge6_Node000006_Node000007" class="edge">
<title>Node6&#45;&gt;Node7</title>
<g id="a_edge6_Node000006_Node000007"><a xlink:title=" ">
<path fill="none" stroke="#63b8ff" d="M145.85,-223.59C150.46,-216.47 156.96,-206.45 162.62,-197.72"/>
<polygon fill="#63b8ff" stroke="#63b8ff" points="165.4,-199.86 167.9,-189.57 159.52,-196.06 165.4,-199.86"/>
</a>
</g>
</g>
<!-- Node8 -->
<g id="Node000008" class="node">
<title>Node8</title>
<g id="a_Node000008"><a xlink:title=" ">
<polygon fill="#e0e0e0" stroke="#999999" points="269.62,-188 213.88,-188 213.88,-168 269.62,-168 269.62,-188"/>
<text xml:space="preserve" text-anchor="middle" x="241.75" y="-174.5" font-family="Helvetica,sans-Serif" font-size="10.00">algorithm</text>
</a>
</g>
</g>
<!-- Node6&#45;&gt;Node8 -->
<g id="edge9_Node000006_Node000008" class="edge">
<title>Node6&#45;&gt;Node8</title>
<g id="a_edge9_Node000006_Node000008"><a xlink:title=" ">
<path fill="none" stroke="#63b8ff" d="M157.52,-223.59C173.07,-215.36 195.93,-203.26 213.91,-193.74"/>
<polygon fill="#63b8ff" stroke="#63b8ff" points="215.31,-196.96 222.51,-189.19 212.03,-190.77 215.31,-196.96"/>
</a>
</g>
</g>
<!-- Node9 -->
<g id="Node000009" class="node">
<title>Node9</title>
<g id="a_Node000009"><a xlink:href="entity_8hpp.html" target="_top" xlink:title=" ">
<polygon fill="white" stroke="#666666" points="134.75,-188 76.75,-188 76.75,-168 134.75,-168 134.75,-188"/>
<text xml:space="preserve" text-anchor="middle" x="105.75" y="-174.5" font-family="Helvetica,sans-Serif" font-size="10.00">entity.hpp</text>
</a>
</g>
</g>
<!-- Node6&#45;&gt;Node9 -->
<g id="edge10_Node000006_Node000009" class="edge">
<title>Node6&#45;&gt;Node9</title>
<g id="a_edge10_Node000006_Node000009"><a xlink:title=" ">
<path fill="none" stroke="#63b8ff" d="M133.83,-223.59C129.39,-216.55 123.17,-206.67 117.71,-198"/>
<polygon fill="#63b8ff" stroke="#63b8ff" points="120.7,-196.18 112.41,-189.58 114.78,-199.91 120.7,-196.18"/>
</a>
</g>
</g>
<!-- Node10 -->
<g id="Node000010" class="node">
<title>Node10</title>
<g id="a_Node000010"><a xlink:title=" ">
<polygon fill="#e0e0e0" stroke="#999999" points="124.25,-132 87.25,-132 87.25,-112 124.25,-112 124.25,-132"/>
<text xml:space="preserve" text-anchor="middle" x="105.75" y="-118.5" font-family="Helvetica,sans-Serif" font-size="10.00">tuple</text>
</a>
</g>
</g>
<!-- Node9&#45;&gt;Node10 -->
<g id="edge11_Node000009_Node000010" class="edge">
<title>Node9&#45;&gt;Node10</title>
<g id="a_edge11_Node000009_Node000010"><a xlink:title=" ">
<path fill="none" stroke="#63b8ff" d="M105.75,-167.59C105.75,-161.01 105.75,-151.96 105.75,-143.73"/>
<polygon fill="#63b8ff" stroke="#63b8ff" points="109.25,-143.81 105.75,-133.81 102.25,-143.81 109.25,-143.81"/>
</a>
</g>
</g>
<!-- Node11 -->
<g id="Node000011" class="node">
<title>Node11</title>
<g id="a_Node000011"><a xlink:href="components_8hpp.html" target="_top" xlink:title=" ">
<polygon fill="white" stroke="#666666" points="246.75,-132 158.75,-132 158.75,-112 246.75,-112 246.75,-132"/>
<text xml:space="preserve" text-anchor="middle" x="202.75" y="-118.5" font-family="Helvetica,sans-Serif" font-size="10.00">components.hpp</text>
</a>
</g>
</g>
<!-- Node9&#45;&gt;Node11 -->
<g id="edge12_Node000009_Node000011" class="edge">
<title>Node9&#45;&gt;Node11</title>
<g id="a_edge12_Node000009_Node000011"><a xlink:title=" ">
<path fill="none" stroke="#63b8ff" d="M122.65,-167.59C137.3,-159.44 158.77,-147.48 175.8,-138"/>
<polygon fill="#63b8ff" stroke="#63b8ff" points="177.36,-141.14 184.4,-133.22 173.96,-135.02 177.36,-141.14"/>
</a>
</g>
</g>
<!-- Node12 -->
<g id="Node000012" class="node">
<title>Node12</title>
<g id="a_Node000012"><a xlink:title=" ">
<polygon fill="#e0e0e0" stroke="#999999" points="428.62,-76 294.88,-76 294.88,-56 428.62,-56 428.62,-76"/>
<text xml:space="preserve" text-anchor="middle" x="361.75" y="-62.5" font-family="Helvetica,sans-Serif" font-size="10.00">SFML/System/Vector2.hpp</text>
</a>
</g>
</g>
<!-- Node11&#45;&gt;Node12 -->
<g id="edge13_Node000011_Node000012" class="edge">
<title>Node11&#45;&gt;Node12</title>
<g id="a_edge13_Node000011_Node000012"><a xlink:title=" ">
<path fill="none" stroke="#63b8ff" d="M230.45,-111.59C256.05,-102.9 294.36,-89.89 323,-80.16"/>
<polygon fill="#63b8ff" stroke="#63b8ff" points="324.06,-83.5 332.41,-76.97 321.81,-76.87 324.06,-83.5"/>
</a>
</g>
</g>
<!-- Node11&#45;&gt;Node13 -->
<g id="edge14_Node000011_Node000013" class="edge">
<title>Node11&#45;&gt;Node13</title>
<g id="a_edge14_Node000011_Node000013"><a xlink:title=" ">
<path fill="none" stroke="#63b8ff" d="M177.84,-111.59C155.02,-102.97 120.97,-90.12 95.29,-80.42"/>
<polygon fill="#63b8ff" stroke="#63b8ff" points="96.86,-77.27 86.27,-77.01 94.39,-83.82 96.86,-77.27"/>
</a>
</g>
</g>
<!-- Node14 -->
<g id="Node000014" class="node">
<title>Node14</title>
<g id="a_Node000014"><a xlink:href="animation_8hpp.html" target="_top" xlink:title=" ">
<polygon fill="white" stroke="#666666" points="256.12,-76 179.38,-76 179.38,-56 256.12,-56 256.12,-76"/>
<text xml:space="preserve" text-anchor="middle" x="217.75" y="-62.5" font-family="Helvetica,sans-Serif" font-size="10.00">animation.hpp</text>
</a>
</g>
</g>
<!-- Node11&#45;&gt;Node14 -->
<g id="edge15_Node000011_Node000014" class="edge">
<title>Node11&#45;&gt;Node14</title>
<g id="a_edge15_Node000011_Node000014"><a xlink:title=" ">
<path fill="none" stroke="#63b8ff" d="M205.36,-111.59C207.23,-104.86 209.82,-95.53 212.15,-87.15"/>
<polygon fill="#63b8ff" stroke="#63b8ff" points="215.46,-88.33 214.76,-77.76 208.71,-86.46 215.46,-88.33"/>
</a>
</g>
</g>
<!-- Node15 -->
<g id="Node000015" class="node">
<title>Node15</title>
<g id="a_Node000015"><a xlink:title=" ">
<polygon fill="#e0e0e0" stroke="#999999" points="487.75,-20 447.75,-20 447.75,0 487.75,0 487.75,-20"/>
<text xml:space="preserve" text-anchor="middle" x="467.75" y="-6.5" font-family="Helvetica,sans-Serif" font-size="10.00">string</text>
</a>
</g>
</g>
<!-- Node14&#45;&gt;Node15 -->
<g id="edge16_Node000014_Node000015" class="edge">
<title>Node14&#45;&gt;Node15</title>
<g id="a_edge16_Node000014_Node000015"><a xlink:title=" ">
<path fill="none" stroke="#63b8ff" d="M256.54,-56.62C306.12,-45.91 390.99,-27.58 436.59,-17.73"/>
<polygon fill="#63b8ff" stroke="#63b8ff" points="437.04,-21.21 446.08,-15.68 435.57,-14.37 437.04,-21.21"/>
</a>
</g>
</g>
<!-- Node16 -->
<g id="Node000016" class="node">
<title>Node16</title>
<g id="a_Node000016"><a xlink:title=" ">
<polygon fill="#e0e0e0" stroke="#999999" points="283.5,-20 152,-20 152,0 283.5,0 283.5,-20"/>
<text xml:space="preserve" text-anchor="middle" x="217.75" y="-6.5" font-family="Helvetica,sans-Serif" font-size="10.00">SFML/Graphics/Sprite.hpp</text>
</a>
</g>
</g>
<!-- Node14&#45;&gt;Node16 -->
<g id="edge17_Node000014_Node000016" class="edge">
<title>Node14&#45;&gt;Node16</title>
<g id="a_edge17_Node000014_Node000016"><a xlink:title=" ">
<path fill="none" stroke="#63b8ff" d="M217.75,-55.59C217.75,-49.01 217.75,-39.96 217.75,-31.73"/>
<polygon fill="#63b8ff" stroke="#63b8ff" points="221.25,-31.81 217.75,-21.81 214.25,-31.81 221.25,-31.81"/>
</a>
</g>
</g>
<!-- Node17&#45;&gt;Node15 -->
<g id="edge19_Node000017_Node000015" class="edge">
<title>Node17&#45;&gt;Node15</title>
<g id="a_edge19_Node000017_Node000015"><a xlink:title=" ">
<path fill="none" stroke="#63b8ff" d="M477.33,-223.74C475.85,-190.74 470.78,-78.31 468.68,-31.61"/>
<polygon fill="#63b8ff" stroke="#63b8ff" points="472.18,-31.64 468.24,-21.81 465.19,-31.96 472.18,-31.64"/>
</a>
</g>
</g>
<!-- Node18&#45;&gt;Node12 -->
<g id="edge23_Node000018_Node000012" class="edge">
<title>Node18&#45;&gt;Node12</title>
<g id="a_edge23_Node000018_Node000012"><a xlink:title=" ">
<path fill="none" stroke="#63b8ff" d="M518.65,-112.8C488.46,-103.99 440.1,-89.87 405.04,-79.64"/>
<polygon fill="#63b8ff" stroke="#63b8ff" points="406.2,-76.33 395.62,-76.89 404.24,-83.05 406.2,-76.33"/>
</a>
</g>
</g>
<!-- Node18&#45;&gt;Node15 -->
<g id="edge24_Node000018_Node000015" class="edge">
<title>Node18&#45;&gt;Node15</title>
<g id="a_edge24_Node000018_Node000015"><a xlink:title=" ">
<path fill="none" stroke="#63b8ff" d="M540.01,-111.62C527.01,-93.52 498.24,-53.45 481.18,-29.7"/>
<polygon fill="#63b8ff" stroke="#63b8ff" points="484.03,-27.66 475.35,-21.58 478.34,-31.75 484.03,-27.66"/>
</a>
</g>
</g>
<!-- Node19 -->
<g id="Node000019" class="node">
<title>Node19</title>
<g id="a_Node000019"><a xlink:title=" ">
<polygon fill="#e0e0e0" stroke="#999999" points="571.62,-76 533.88,-76 533.88,-56 571.62,-56 571.62,-76"/>
<text xml:space="preserve" text-anchor="middle" x="552.75" y="-62.5" font-family="Helvetica,sans-Serif" font-size="10.00">array</text>
</a>
</g>
</g>
<!-- Node18&#45;&gt;Node19 -->
<g id="edge21_Node000018_Node000019" class="edge">
<title>Node18&#45;&gt;Node19</title>
<g id="a_edge21_Node000018_Node000019"><a xlink:title=" ">
<path fill="none" stroke="#63b8ff" d="M547.8,-111.59C548.53,-105.01 549.53,-95.96 550.45,-87.73"/>
<polygon fill="#63b8ff" stroke="#63b8ff" points="553.92,-88.13 551.55,-77.8 546.97,-87.35 553.92,-88.13"/>
</a>
</g>
</g>
<!-- Node20 -->
<g id="Node000020" class="node">
<title>Node20</title>
<g id="a_Node000020"><a xlink:title=" ">
<polygon fill="#e0e0e0" stroke="#999999" points="719.38,-76 590.12,-76 590.12,-56 719.38,-56 719.38,-76"/>
<text xml:space="preserve" text-anchor="middle" x="654.75" y="-62.5" font-family="Helvetica,sans-Serif" font-size="10.00">SFML/Graphics/Color.hpp</text>
</a>
</g>
</g>
<!-- Node18&#45;&gt;Node20 -->
<g id="edge22_Node000018_Node000020" class="edge">
<title>Node18&#45;&gt;Node20</title>
<g id="a_edge22_Node000018_Node000020"><a xlink:title=" ">
<path fill="none" stroke="#63b8ff" d="M565.56,-111.59C582.11,-103.32 606.46,-91.14 625.54,-81.6"/>
<polygon fill="#63b8ff" stroke="#63b8ff" points="627.06,-84.76 634.44,-77.16 623.93,-78.5 627.06,-84.76"/>
</a>
</g>
</g>
<!-- Node21 -->
<g id="Node000021" class="node">
<title>Node21</title>
<g id="a_Node000021"><a xlink:title=" ">
<polygon fill="#e0e0e0" stroke="#999999" points="790.5,-76 737,-76 737,-56 790.5,-56 790.5,-76"/>
<text xml:space="preserve" text-anchor="middle" x="763.75" y="-62.5" font-family="Helvetica,sans-Serif" font-size="10.00">iostream</text>
</a>
</g>
</g>
<!-- Node18&#45;&gt;Node21 -->
<g id="edge25_Node000018_Node000021" class="edge">
<title>Node18&#45;&gt;Node21</title>
<g id="a_edge25_Node000018_Node000021"><a xlink:title=" ">
<path fill="none" stroke="#63b8ff" d="M574.83,-114.14C608.5,-105.9 666.94,-91.54 725.66,-76.76"/>
<polygon fill="#63b8ff" stroke="#63b8ff" points="726.31,-80.21 735.16,-74.37 724.6,-73.42 726.31,-80.21"/>
</a>
</g>
</g>
</g>
</svg>
