<?xml version="1.0" encoding="UTF-8" standalone="no"?>
<!DOCTYPE svg PUBLIC "-//W3C//DTD SVG 1.1//EN"
 "http://www.w3.org/Graphics/SVG/1.1/DTD/svg11.dtd">
<!-- Generated by graphviz version 13.1.2 (20250808.2320)
 -->
<!-- Title: src/scene_play.hpp Pages: 1 -->
<!--zoomable 364 -->

<svg id="main" version="1.1" xmlns="http://www.w3.org/2000/svg" xmlns:xlink="http://www.w3.org/1999/xlink" xml:space="preserve" onload="init(evt)">
<style type="text/css"><![CDATA[
.node, .edge {opacity: 0.7;}
.node.selected, .edge.selected {opacity: 1;}
.edge:hover path { stroke: red; }
.edge:hover polygon { stroke: red; fill: red; }
]]></style>

<defs>
  <circle id="rim" cx="0" cy="0" r="7"/>
  <circle id="rim2" cx="0" cy="0" r="3.5"/>
  <g id="zoomPlus">
    <use xlink:href="#rim" fill="#404040"><set attributeName="fill" to="#808080" begin="zoomplus.mouseover" end="zoomplus.mouseout"/></use>
    <path d="M-4,0h8M0,-4v8" fill="none" stroke="white" stroke-width="1.5" pointer-events="none"/>
  </g>
  <g id="zoomMin">
    <use xlink:href="#rim" fill="#404040"><set attributeName="fill" to="#808080" begin="zoomminus.mouseover" end="zoomminus.mouseout"/></use>
    <path d="M-4,0h8" fill="none" stroke="white" stroke-width="1.5" pointer-events="none"/>
  </g>
  <g id="arrowUp" transform="translate(30 24)">
    <use xlink:href="#rim"/>
    <path pointer-events="none" fill="none" stroke="white" stroke-width="1.5" d="M0,-3.0v7 M-2.5,-0.5L0,-3.0L2.5,-0.5"/>
  </g>
  <g id="arrowRight" transform="rotate(90) translate(36 -43)">
    <use xlink:href="#rim"/>
    <path pointer-events="none" fill="none" stroke="white" stroke-width="1.5" d="M0,-3.0v7 M-2.5,-0.5L0,-3.0L2.5,-0.5"/>
  </g>
  <g id="arrowDown" transform="rotate(180) translate(-30 -48)">
    <use xlink:href="#rim"/>
    <path pointer-events="none" fill="none" stroke="white" stroke-width="1.5" d="M0,-3.0v7 M-2.5,-0.5L0,-3.0L2.5,-0.5"/>
  </g>
  <g id="arrowLeft" transform="rotate(270) translate(-36 17)">
    <use xlink:href="#rim"/>
    <path pointer-events="none" fill="none" stroke="white" stroke-width="1.5" d="M0,-3.0v7 M-2.5,-0.5L0,-3.0L2.5,-0.5"/>
  </g>
  <g id="resetDef">
    <use xlink:href="#rim2" fill="#404040"><set attributeName="fill" to="#808080" begin="reset.mouseover" end="reset.mouseout"/></use>
  </g>
</defs>
<script type="application/ecmascript">
var viewWidth = 847;
var viewHeight = 364;
var sectionId = 'dynsection-0';
</script>
<script type="application/ecmascript" xlink:href="svg.min.js"/>
<svg id="graph" class="graph">
<g id="viewport">
<title>src/scene_play.hpp</title>
<!-- Node1 -->
<g id="Node000001" class="node">
<title>Node1</title>
<g id="a_Node000001"><a xlink:title=" ">
<polygon fill="#999999" stroke="#666666" points="554.62,-356 454.62,-356 454.62,-336 554.62,-336 554.62,-356"/>
<text xml:space="preserve" text-anchor="middle" x="504.62" y="-342.5" font-family="Helvetica,sans-Serif" font-size="10.00">src/scene_play.hpp</text>
</a>
</g>
</g>
<!-- Node2 -->
<g id="Node000002" class="node">
<title>Node2</title>
<g id="a_Node000002"><a xlink:href="scene_8hpp.html" target="_top" xlink:title=" ">
<polygon fill="white" stroke="#666666" points="333.12,-300 272.12,-300 272.12,-280 333.12,-280 333.12,-300"/>
<text xml:space="preserve" text-anchor="middle" x="302.62" y="-286.5" font-family="Helvetica,sans-Serif" font-size="10.00">scene.hpp</text>
</a>
</g>
</g>
<!-- Node1&#45;&gt;Node2 -->
<g id="edge1_Node000001_Node000002" class="edge">
<title>Node1&#45;&gt;Node2</title>
<g id="a_edge1_Node000001_Node000002"><a xlink:title=" ">
<path fill="none" stroke="#63b8ff" d="M469.44,-335.59C434.61,-326.28 381.29,-312.03 344.34,-302.15"/>
<polygon fill="#63b8ff" stroke="#63b8ff" points="345.47,-298.83 334.9,-299.63 343.66,-305.59 345.47,-298.83"/>
</a>
</g>
</g>
<!-- Node13 -->
<g id="Node000013" class="node">
<title>Node13</title>
<g id="a_Node000013"><a xlink:title=" ">
<polygon fill="#e0e0e0" stroke="#999999" points="451.38,-76 331.88,-76 331.88,-56 451.38,-56 451.38,-76"/>
<text xml:space="preserve" text-anchor="middle" x="391.62" y="-62.5" font-family="Helvetica,sans-Serif" font-size="10.00">SFML/Audio/Sound.hpp</text>
</a>
</g>
</g>
<!-- Node1&#45;&gt;Node13 -->
<g id="edge24_Node000001_Node000013" class="edge">
<title>Node1&#45;&gt;Node13</title>
<g id="a_edge24_Node000001_Node000013"><a xlink:title=" ">
<path fill="none" stroke="#63b8ff" d="M487.54,-335.5C474.78,-327.58 457.85,-315.16 447.62,-300 430.79,-275.05 428.62,-265.1 428.62,-235 428.62,-235 428.62,-235 428.62,-177 428.62,-143.87 413.36,-107.91 402.44,-86.43"/>
<polygon fill="#63b8ff" stroke="#63b8ff" points="405.58,-84.88 397.79,-77.69 399.39,-88.16 405.58,-84.88"/>
</a>
</g>
</g>
<!-- Node18 -->
<g id="Node000018" class="node">
<title>Node18</title>
<g id="a_Node000018"><a xlink:href="config__structs_8hpp.html" target="_top" xlink:title=" ">
<polygon fill="white" stroke="#666666" points="552.75,-300 456.5,-300 456.5,-280 552.75,-280 552.75,-300"/>
<text xml:space="preserve" text-anchor="middle" x="504.62" y="-286.5" font-family="Helvetica,sans-Serif" font-size="10.00">config_structs.hpp</text>
</a>
</g>
</g>
<!-- Node1&#45;&gt;Node18 -->
<g id="edge20_Node000001_Node000018" class="edge">
<title>Node1&#45;&gt;Node18</title>
<g id="a_edge20_Node000001_Node000018"><a xlink:title=" ">
<path fill="none" stroke="#63b8ff" d="M504.62,-335.59C504.62,-329.01 504.62,-319.96 504.62,-311.73"/>
<polygon fill="#63b8ff" stroke="#63b8ff" points="508.13,-311.81 504.63,-301.81 501.13,-311.81 508.13,-311.81"/>
</a>
</g>
</g>
<!-- Node21 -->
<g id="Node000021" class="node">
<title>Node21</title>
<g id="a_Node000021"><a xlink:title=" ">
<polygon fill="#e0e0e0" stroke="#999999" points="696.38,-300 570.88,-300 570.88,-280 696.38,-280 696.38,-300"/>
<text xml:space="preserve" text-anchor="middle" x="633.62" y="-286.5" font-family="Helvetica,sans-Serif" font-size="10.00">SFML/Graphics/Font.hpp</text>
</a>
</g>
</g>
<!-- Node1&#45;&gt;Node21 -->
<g id="edge25_Node000001_Node000021" class="edge">
<title>Node1&#45;&gt;Node21</title>
<g id="a_edge25_Node000001_Node000021"><a xlink:title=" ">
<path fill="none" stroke="#63b8ff" d="M527.1,-335.59C547.41,-327.09 577.58,-314.46 600.63,-304.81"/>
<polygon fill="#63b8ff" stroke="#63b8ff" points="601.71,-308.15 609.58,-301.06 599.01,-301.7 601.71,-308.15"/>
</a>
</g>
</g>
<!-- Node22 -->
<g id="Node000022" class="node">
<title>Node22</title>
<g id="a_Node000022"><a xlink:title=" ">
<polygon fill="#e0e0e0" stroke="#999999" points="839,-300 714.25,-300 714.25,-280 839,-280 839,-300"/>
<text xml:space="preserve" text-anchor="middle" x="776.62" y="-286.5" font-family="Helvetica,sans-Serif" font-size="10.00">SFML/Graphics/Text.hpp</text>
</a>
</g>
</g>
<!-- Node1&#45;&gt;Node22 -->
<g id="edge26_Node000001_Node000022" class="edge">
<title>Node1&#45;&gt;Node22</title>
<g id="a_edge26_Node000001_Node000022"><a xlink:title=" ">
<path fill="none" stroke="#63b8ff" d="M552.32,-335.53C598.4,-326.38 668.3,-312.5 717.81,-302.68"/>
<polygon fill="#63b8ff" stroke="#63b8ff" points="718.38,-306.13 727.51,-300.75 717.02,-299.27 718.38,-306.13"/>
</a>
</g>
</g>
<!-- Node3 -->
<g id="Node000003" class="node">
<title>Node3</title>
<g id="a_Node000003"><a xlink:title=" ">
<polygon fill="#e0e0e0" stroke="#999999" points="363,-188 280.25,-188 280.25,-168 363,-168 363,-188"/>
<text xml:space="preserve" text-anchor="middle" x="321.62" y="-174.5" font-family="Helvetica,sans-Serif" font-size="10.00">unordered_map</text>
</a>
</g>
</g>
<!-- Node2&#45;&gt;Node3 -->
<g id="edge2_Node000002_Node000003" class="edge">
<title>Node2&#45;&gt;Node3</title>
<g id="a_edge2_Node000002_Node000003"><a xlink:title=" ">
<path fill="none" stroke="#63b8ff" d="M311.7,-279.57C319.22,-271.05 329.34,-257.77 333.62,-244 338.22,-229.23 334.65,-212 330.24,-198.99"/>
<polygon fill="#63b8ff" stroke="#63b8ff" points="333.57,-197.91 326.71,-189.84 327.04,-200.43 333.57,-197.91"/>
</a>
</g>
</g>
<!-- Node4 -->
<g id="Node000004" class="node">
<title>Node4</title>
<g id="a_Node000004"><a xlink:title=" ">
<polygon fill="#e0e0e0" stroke="#999999" points="51.25,-188 0,-188 0,-168 51.25,-168 51.25,-188"/>
<text xml:space="preserve" text-anchor="middle" x="25.62" y="-174.5" font-family="Helvetica,sans-Serif" font-size="10.00">memory</text>
</a>
</g>
</g>
<!-- Node2&#45;&gt;Node4 -->
<g id="edge3_Node000002_Node000004" class="edge">
<title>Node2&#45;&gt;Node4</title>
<g id="a_edge3_Node000002_Node000004"><a xlink:title=" ">
<path fill="none" stroke="#63b8ff" d="M271.91,-287.17C212.55,-283.04 85,-271.2 51.62,-244 38.08,-232.96 31.55,-213.83 28.43,-199.17"/>
<polygon fill="#63b8ff" stroke="#63b8ff" points="31.94,-198.93 26.78,-189.67 25.04,-200.12 31.94,-198.93"/>
</a>
</g>
</g>
<!-- Node5 -->
<g id="Node000005" class="node">
<title>Node5</title>
<g id="a_Node000005"><a xlink:title=" ">
<polygon fill="#e0e0e0" stroke="#999999" points="324.38,-244 180.88,-244 180.88,-224 324.38,-224 324.38,-244"/>
<text xml:space="preserve" text-anchor="middle" x="252.62" y="-230.5" font-family="Helvetica,sans-Serif" font-size="10.00">SFML/Window/Keyboard.hpp</text>
</a>
</g>
</g>
<!-- Node2&#45;&gt;Node5 -->
<g id="edge4_Node000002_Node000005" class="edge">
<title>Node2&#45;&gt;Node5</title>
<g id="a_edge4_Node000002_Node000005"><a xlink:title=" ">
<path fill="none" stroke="#63b8ff" d="M293.92,-279.59C287.03,-272.16 277.23,-261.58 268.91,-252.58"/>
<polygon fill="#63b8ff" stroke="#63b8ff" points="271.63,-250.37 262.26,-245.41 266.49,-255.12 271.63,-250.37"/>
</a>
</g>
</g>
<!-- Node6 -->
<g id="Node000006" class="node">
<title>Node6</title>
<g id="a_Node000006"><a xlink:href="entity__manager_8hpp.html" target="_top" xlink:title=" ">
<polygon fill="white" stroke="#666666" points="162.38,-244 60.88,-244 60.88,-224 162.38,-224 162.38,-244"/>
<text xml:space="preserve" text-anchor="middle" x="111.62" y="-230.5" font-family="Helvetica,sans-Serif" font-size="10.00">entity_manager.hpp</text>
</a>
</g>
</g>
<!-- Node2&#45;&gt;Node6 -->
<g id="edge5_Node000002_Node000006" class="edge">
<title>Node2&#45;&gt;Node6</title>
<g id="a_edge5_Node000002_Node000006"><a xlink:title=" ">
<path fill="none" stroke="#63b8ff" d="M271.94,-280.32C240.63,-271.47 191.73,-257.65 156.17,-247.59"/>
<polygon fill="#63b8ff" stroke="#63b8ff" points="157.16,-244.24 146.59,-244.88 155.26,-250.97 157.16,-244.24"/>
</a>
</g>
</g>
<!-- Node17 -->
<g id="Node000017" class="node">
<title>Node17</title>
<g id="a_Node000017"><a xlink:href="action_8hpp.html" target="_top" xlink:title=" ">
<polygon fill="white" stroke="#666666" points="367.12,-132 306.12,-132 306.12,-112 367.12,-112 367.12,-132"/>
<text xml:space="preserve" text-anchor="middle" x="336.62" y="-118.5" font-family="Helvetica,sans-Serif" font-size="10.00">action.hpp</text>
</a>
</g>
</g>
<!-- Node2&#45;&gt;Node17 -->
<g id="edge18_Node000002_Node000017" class="edge">
<title>Node2&#45;&gt;Node17</title>
<g id="a_edge18_Node000002_Node000017"><a xlink:title=" ">
<path fill="none" stroke="#63b8ff" d="M314.53,-279.73C324.7,-271.31 339.13,-258.08 348.62,-244 363.66,-221.69 366.42,-214.4 371.62,-188 373.35,-179.28 374.51,-176.41 371.62,-168 368.15,-157.88 361.38,-148.29 354.7,-140.58"/>
<polygon fill="#63b8ff" stroke="#63b8ff" points="357.27,-138.2 347.88,-133.3 352.17,-142.99 357.27,-138.2"/>
</a>
</g>
</g>
<!-- Node6&#45;&gt;Node3 -->
<g id="edge7_Node000006_Node000003" class="edge">
<title>Node6&#45;&gt;Node3</title>
<g id="a_edge7_Node000006_Node000003"><a xlink:title=" ">
<path fill="none" stroke="#63b8ff" d="M148.2,-223.59C183.07,-214.63 235.77,-201.08 273.92,-191.27"/>
<polygon fill="#63b8ff" stroke="#63b8ff" points="274.48,-194.74 283.29,-188.86 272.74,-187.96 274.48,-194.74"/>
</a>
</g>
</g>
<!-- Node6&#45;&gt;Node4 -->
<g id="edge8_Node000006_Node000004" class="edge">
<title>Node6&#45;&gt;Node4</title>
<g id="a_edge8_Node000006_Node000004"><a xlink:title=" ">
<path fill="none" stroke="#63b8ff" d="M96.64,-223.59C83.9,-215.59 65.33,-203.93 50.38,-194.54"/>
<polygon fill="#63b8ff" stroke="#63b8ff" points="52.33,-191.64 42,-189.28 48.61,-197.57 52.33,-191.64"/>
</a>
</g>
</g>
<!-- Node7 -->
<g id="Node000007" class="node">
<title>Node7</title>
<g id="a_Node000007"><a xlink:title=" ">
<polygon fill="#e0e0e0" stroke="#999999" points="262.12,-188 219.12,-188 219.12,-168 262.12,-168 262.12,-188"/>
<text xml:space="preserve" text-anchor="middle" x="240.62" y="-174.5" font-family="Helvetica,sans-Serif" font-size="10.00">vector</text>
</a>
</g>
</g>
<!-- Node6&#45;&gt;Node7 -->
<g id="edge6_Node000006_Node000007" class="edge">
<title>Node6&#45;&gt;Node7</title>
<g id="a_edge6_Node000006_Node000007"><a xlink:title=" ">
<path fill="none" stroke="#63b8ff" d="M134.1,-223.59C154.66,-214.99 185.32,-202.15 208.48,-192.46"/>
<polygon fill="#63b8ff" stroke="#63b8ff" points="209.57,-195.79 217.45,-188.7 206.87,-189.34 209.57,-195.79"/>
</a>
</g>
</g>
<!-- Node8 -->
<g id="Node000008" class="node">
<title>Node8</title>
<g id="a_Node000008"><a xlink:title=" ">
<polygon fill="#e0e0e0" stroke="#999999" points="201.5,-188 145.75,-188 145.75,-168 201.5,-168 201.5,-188"/>
<text xml:space="preserve" text-anchor="middle" x="173.62" y="-174.5" font-family="Helvetica,sans-Serif" font-size="10.00">algorithm</text>
</a>
</g>
</g>
<!-- Node6&#45;&gt;Node8 -->
<g id="edge9_Node000006_Node000008" class="edge">
<title>Node6&#45;&gt;Node8</title>
<g id="a_edge9_Node000006_Node000008"><a xlink:title=" ">
<path fill="none" stroke="#63b8ff" d="M122.42,-223.59C131.23,-215.93 143.88,-204.91 154.4,-195.75"/>
<polygon fill="#63b8ff" stroke="#63b8ff" points="156.57,-198.5 161.81,-189.29 151.97,-193.22 156.57,-198.5"/>
</a>
</g>
</g>
<!-- Node9 -->
<g id="Node000009" class="node">
<title>Node9</title>
<g id="a_Node000009"><a xlink:href="entity_8hpp.html" target="_top" xlink:title=" ">
<polygon fill="white" stroke="#666666" points="127.62,-188 69.62,-188 69.62,-168 127.62,-168 127.62,-188"/>
<text xml:space="preserve" text-anchor="middle" x="98.62" y="-174.5" font-family="Helvetica,sans-Serif" font-size="10.00">entity.hpp</text>
</a>
</g>
</g>
<!-- Node6&#45;&gt;Node9 -->
<g id="edge10_Node000006_Node000009" class="edge">
<title>Node6&#45;&gt;Node9</title>
<g id="a_edge10_Node000006_Node000009"><a xlink:title=" ">
<path fill="none" stroke="#63b8ff" d="M109.36,-223.59C107.76,-216.93 105.55,-207.75 103.55,-199.44"/>
<polygon fill="#63b8ff" stroke="#63b8ff" points="106.96,-198.67 101.22,-189.77 100.16,-200.31 106.96,-198.67"/>
</a>
</g>
</g>
<!-- Node10 -->
<g id="Node000010" class="node">
<title>Node10</title>
<g id="a_Node000010"><a xlink:title=" ">
<polygon fill="#e0e0e0" stroke="#999999" points="198.12,-132 161.12,-132 161.12,-112 198.12,-112 198.12,-132"/>
<text xml:space="preserve" text-anchor="middle" x="179.62" y="-118.5" font-family="Helvetica,sans-Serif" font-size="10.00">tuple</text>
</a>
</g>
</g>
<!-- Node9&#45;&gt;Node10 -->
<g id="edge11_Node000009_Node000010" class="edge">
<title>Node9&#45;&gt;Node10</title>
<g id="a_edge11_Node000009_Node000010"><a xlink:title=" ">
<path fill="none" stroke="#63b8ff" d="M112.73,-167.59C124.62,-159.67 141.89,-148.16 155.9,-138.82"/>
<polygon fill="#63b8ff" stroke="#63b8ff" points="157.77,-141.78 164.15,-133.32 153.88,-135.95 157.77,-141.78"/>
</a>
</g>
</g>
<!-- Node11 -->
<g id="Node000011" class="node">
<title>Node11</title>
<g id="a_Node000011"><a xlink:href="components_8hpp.html" target="_top" xlink:title=" ">
<polygon fill="white" stroke="#666666" points="142.62,-132 54.62,-132 54.62,-112 142.62,-112 142.62,-132"/>
<text xml:space="preserve" text-anchor="middle" x="98.62" y="-118.5" font-family="Helvetica,sans-Serif" font-size="10.00">components.hpp</text>
</a>
</g>
</g>
<!-- Node9&#45;&gt;Node11 -->
<g id="edge12_Node000009_Node000011" class="edge">
<title>Node9&#45;&gt;Node11</title>
<g id="a_edge12_Node000009_Node000011"><a xlink:title=" ">
<path fill="none" stroke="#63b8ff" d="M98.62,-167.59C98.62,-161.01 98.62,-151.96 98.62,-143.73"/>
<polygon fill="#63b8ff" stroke="#63b8ff" points="102.13,-143.81 98.63,-133.81 95.13,-143.81 102.13,-143.81"/>
</a>
</g>
</g>
<!-- Node12 -->
<g id="Node000012" class="node">
<title>Node12</title>
<g id="a_Node000012"><a xlink:title=" ">
<polygon fill="#e0e0e0" stroke="#999999" points="275.5,-76 141.75,-76 141.75,-56 275.5,-56 275.5,-76"/>
<text xml:space="preserve" text-anchor="middle" x="208.62" y="-62.5" font-family="Helvetica,sans-Serif" font-size="10.00">SFML/System/Vector2.hpp</text>
</a>
</g>
</g>
<!-- Node11&#45;&gt;Node12 -->
<g id="edge13_Node000011_Node000012" class="edge">
<title>Node11&#45;&gt;Node12</title>
<g id="a_edge13_Node000011_Node000012"><a xlink:title=" ">
<path fill="none" stroke="#63b8ff" d="M117.79,-111.59C134.72,-103.28 159.67,-91.03 179.15,-81.47"/>
<polygon fill="#63b8ff" stroke="#63b8ff" points="180.52,-84.7 187.96,-77.15 177.44,-78.41 180.52,-84.7"/>
</a>
</g>
</g>
<!-- Node11&#45;&gt;Node13 -->
<g id="edge14_Node000011_Node000013" class="edge">
<title>Node11&#45;&gt;Node13</title>
<g id="a_edge14_Node000011_Node000013"><a xlink:title=" ">
<path fill="none" stroke="#63b8ff" d="M142.81,-112.86C192.31,-103.73 272.95,-88.87 328.96,-78.55"/>
<polygon fill="#63b8ff" stroke="#63b8ff" points="329.47,-82.01 338.67,-76.76 328.21,-75.13 329.47,-82.01"/>
</a>
</g>
</g>
<!-- Node14 -->
<g id="Node000014" class="node">
<title>Node14</title>
<g id="a_Node000014"><a xlink:href="animation_8hpp.html" target="_top" xlink:title=" ">
<polygon fill="white" stroke="#666666" points="124,-76 47.25,-76 47.25,-56 124,-56 124,-76"/>
<text xml:space="preserve" text-anchor="middle" x="85.62" y="-62.5" font-family="Helvetica,sans-Serif" font-size="10.00">animation.hpp</text>
</a>
</g>
</g>
<!-- Node11&#45;&gt;Node14 -->
<g id="edge15_Node000011_Node000014" class="edge">
<title>Node11&#45;&gt;Node14</title>
<g id="a_edge15_Node000011_Node000014"><a xlink:title=" ">
<path fill="none" stroke="#63b8ff" d="M96.36,-111.59C94.76,-104.93 92.55,-95.75 90.55,-87.44"/>
<polygon fill="#63b8ff" stroke="#63b8ff" points="93.96,-86.67 88.22,-77.77 87.16,-88.31 93.96,-86.67"/>
</a>
</g>
</g>
<!-- Node15 -->
<g id="Node000015" class="node">
<title>Node15</title>
<g id="a_Node000015"><a xlink:title=" ">
<polygon fill="#e0e0e0" stroke="#999999" points="323.62,-20 283.62,-20 283.62,0 323.62,0 323.62,-20"/>
<text xml:space="preserve" text-anchor="middle" x="303.62" y="-6.5" font-family="Helvetica,sans-Serif" font-size="10.00">string</text>
</a>
</g>
</g>
<!-- Node14&#45;&gt;Node15 -->
<g id="edge16_Node000014_Node000015" class="edge">
<title>Node14&#45;&gt;Node15</title>
<g id="a_edge16_Node000014_Node000015"><a xlink:title=" ">
<path fill="none" stroke="#63b8ff" d="M123.85,-55.53C165.99,-45.09 233,-28.49 272.21,-18.78"/>
<polygon fill="#63b8ff" stroke="#63b8ff" points="272.86,-22.23 281.72,-16.43 271.17,-15.43 272.86,-22.23"/>
</a>
</g>
</g>
<!-- Node16 -->
<g id="Node000016" class="node">
<title>Node16</title>
<g id="a_Node000016"><a xlink:title=" ">
<polygon fill="#e0e0e0" stroke="#999999" points="151.38,-20 19.88,-20 19.88,0 151.38,0 151.38,-20"/>
<text xml:space="preserve" text-anchor="middle" x="85.62" y="-6.5" font-family="Helvetica,sans-Serif" font-size="10.00">SFML/Graphics/Sprite.hpp</text>
</a>
</g>
</g>
<!-- Node14&#45;&gt;Node16 -->
<g id="edge17_Node000014_Node000016" class="edge">
<title>Node14&#45;&gt;Node16</title>
<g id="a_edge17_Node000014_Node000016"><a xlink:title=" ">
<path fill="none" stroke="#63b8ff" d="M85.62,-55.59C85.62,-49.01 85.62,-39.96 85.62,-31.73"/>
<polygon fill="#63b8ff" stroke="#63b8ff" points="89.13,-31.81 85.63,-21.81 82.13,-31.81 89.13,-31.81"/>
</a>
</g>
</g>
<!-- Node17&#45;&gt;Node15 -->
<g id="edge19_Node000017_Node000015" class="edge">
<title>Node17&#45;&gt;Node15</title>
<g id="a_edge19_Node000017_Node000015"><a xlink:title=" ">
<path fill="none" stroke="#63b8ff" d="M333.68,-111.71C330.82,-102.62 326.36,-88.38 322.62,-76 318.1,-60.99 313.13,-43.97 309.41,-31.12"/>
<polygon fill="#63b8ff" stroke="#63b8ff" points="312.83,-30.36 306.7,-21.73 306.11,-32.3 312.83,-30.36"/>
</a>
</g>
</g>
<!-- Node18&#45;&gt;Node15 -->
<g id="edge21_Node000018_Node000015" class="edge">
<title>Node18&#45;&gt;Node15</title>
<g id="a_edge21_Node000018_Node000015"><a xlink:title=" ">
<path fill="none" stroke="#63b8ff" d="M501.04,-279.74C494.13,-261.02 479.62,-217.19 479.62,-179 479.62,-179 479.62,-179 479.62,-121 479.62,-90.9 481.96,-77.23 460.62,-56 427.03,-22.58 370.4,-13.62 335.12,-11.42"/>
<polygon fill="#63b8ff" stroke="#63b8ff" points="335.7,-7.94 325.55,-10.98 335.37,-14.94 335.7,-7.94"/>
</a>
</g>
</g>
<!-- Node19 -->
<g id="Node000019" class="node">
<title>Node19</title>
<g id="a_Node000019"><a xlink:title=" ">
<polygon fill="#e0e0e0" stroke="#999999" points="545.5,-244 507.75,-244 507.75,-224 545.5,-224 545.5,-244"/>
<text xml:space="preserve" text-anchor="middle" x="526.62" y="-230.5" font-family="Helvetica,sans-Serif" font-size="10.00">array</text>
</a>
</g>
</g>
<!-- Node18&#45;&gt;Node19 -->
<g id="edge22_Node000018_Node000019" class="edge">
<title>Node18&#45;&gt;Node19</title>
<g id="a_edge22_Node000018_Node000019"><a xlink:title=" ">
<path fill="none" stroke="#63b8ff" d="M508.46,-279.59C511.23,-272.78 515.09,-263.32 518.53,-254.86"/>
<polygon fill="#63b8ff" stroke="#63b8ff" points="521.73,-256.28 522.27,-245.7 515.25,-253.64 521.73,-256.28"/>
</a>
</g>
</g>
<!-- Node20 -->
<g id="Node000020" class="node">
<title>Node20</title>
<g id="a_Node000020"><a xlink:title=" ">
<polygon fill="#e0e0e0" stroke="#999999" points="617.38,-244 563.88,-244 563.88,-224 617.38,-224 617.38,-244"/>
<text xml:space="preserve" text-anchor="middle" x="590.62" y="-230.5" font-family="Helvetica,sans-Serif" font-size="10.00">toml.hpp</text>
</a>
</g>
</g>
<!-- Node18&#45;&gt;Node20 -->
<g id="edge23_Node000018_Node000020" class="edge">
<title>Node18&#45;&gt;Node20</title>
<g id="a_edge23_Node000018_Node000020"><a xlink:title=" ">
<path fill="none" stroke="#63b8ff" d="M519.61,-279.59C532.35,-271.59 550.92,-259.93 565.87,-250.54"/>
<polygon fill="#63b8ff" stroke="#63b8ff" points="567.64,-253.57 574.25,-245.28 563.92,-247.64 567.64,-253.57"/>
</a>
</g>
</g>
</g>
</svg>

<g id="navigator" transform="translate(0 0)" fill="#404254">
  <rect fill="#f2f5e9" fill-opacity="0.5" stroke="#606060" stroke-width=".5" x="0" y="0" width="60" height="60"/>
  <use id="zoomplus" xlink:href="#zoomPlus" x="17" y="9" onmousedown="handleZoom(evt,'in')"/>
  <use id="zoomminus" xlink:href="#zoomMin" x="42" y="9" onmousedown="handleZoom(evt,'out')"/>
  <use id="reset" xlink:href="#resetDef" x="30" y="36" onmousedown="handleReset()"/>
   <use id="arrowup" xlink:href="#arrowUp" x="0" y="0" onmousedown="handlePan(0,-1)"/>
  <use id="arrowright" xlink:href="#arrowRight" x="0" y="0" onmousedown="handlePan(1,0)"/>
  <use id="arrowdown" xlink:href="#arrowDown" x="0" y="0" onmousedown="handlePan(0,1)"/>
  <use id="arrowleft" xlink:href="#arrowLeft" x="0" y="0" onmousedown="handlePan(-1,0)"/>
</g>
<svg viewBox="0 0 15 15" width="100%" height="30px" preserveAspectRatio="xMaxYMin meet">
 <g id="arrow_out" transform="scale(0.3 0.3)">
  <a xlink:href="scene__play_8hpp__incl_org.svg" target="_base">
   <rect id="button" ry="5" rx="5" y="6" x="6" height="38" width="38"
        fill="#f2f5e9" fill-opacity="0.5" stroke="#606060" stroke-width="1.0"/>
   <path id="arrow"
     d="M 11.500037,31.436501 C 11.940474,20.09759 22.043105,11.32322 32.158766,21.979434 L 37.068811,17.246167 C 37.068811,17.246167 37.088388,32 37.088388,32 L 22.160133,31.978069 C 22.160133,31.978069 26.997745,27.140456 26.997745,27.140456 C 18.528582,18.264221 13.291696,25.230495 11.500037,31.436501 z"
     style="fill:#404040;"/>
  </a>
 </g>
</svg>

<style type='text/css'>
<![CDATA[
[data-mouse-over-selected='false'] { opacity: 0.7; }
[data-mouse-over-selected='true']  { opacity: 1.0; }
]]>
</style>
<script type="application/ecmascript"><![CDATA[
document.addEventListener('DOMContentLoaded', (event) => {
  highlightEdges();
  highlightAdjacentNodes();
});
]]></script>
</svg>
