<?xml version="1.0" encoding="UTF-8" standalone="no"?>
<!DOCTYPE svg PUBLIC "-//W3C//DTD SVG 1.1//EN"
 "http://www.w3.org/Graphics/SVG/1.1/DTD/svg11.dtd">
<!-- Generated by graphviz version 13.1.2 (20250808.2320)
 -->
<!-- Title: CAnimation Pages: 1 -->
<svg width="152pt" height="96pt"
 viewBox="0.00 0.00 152.00 96.00" xmlns="http://www.w3.org/2000/svg" xmlns:xlink="http://www.w3.org/1999/xlink">
<g id="graph0" class="graph" transform="scale(1 1) rotate(0) translate(4 92)">
<title>CAnimation</title>
<!-- Node1 -->
<g id="Node000001" class="node">
<title>Node1</title>
<g id="a_Node000001"><a xlink:title="Animation component to make an animated entity.">
<polygon fill="#999999" stroke="#666666" points="106.62,-20 39.62,-20 39.62,0 106.62,0 106.62,-20"/>
<text xml:space="preserve" text-anchor="middle" x="73.12" y="-6.5" font-family="Helvetica,sans-Serif" font-size="10.00">CAnimation</text>
</a>
</g>
</g>
<!-- Node2 -->
<g id="Node000002" class="node">
<title>Node2</title>
<g id="a_Node000002"><a xlink:href="struct_component.html" target="_top" xlink:title="Abstract base component.">
<polygon fill="white" stroke="#666666" points="66.25,-88 0,-88 0,-68 66.25,-68 66.25,-88"/>
<text xml:space="preserve" text-anchor="middle" x="33.12" y="-74.5" font-family="Helvetica,sans-Serif" font-size="10.00">Component</text>
</a>
</g>
</g>
<!-- Node2&#45;&gt;Node1 -->
<g id="edge1_Node000001_Node000002" class="edge">
<title>Node2&#45;&gt;Node1</title>
<g id="a_edge1_Node000001_Node000002"><a xlink:title=" ">
<path fill="none" stroke="#63b8ff" d="M44.77,-57.78C52.21,-45.51 61.53,-30.14 67.4,-20.44"/>
<polygon fill="#63b8ff" stroke="#63b8ff" points="41.83,-55.88 39.64,-66.25 47.82,-59.51 41.83,-55.88"/>
</a>
</g>
</g>
<!-- Node3 -->
<g id="Node000003" class="node">
<title>Node3</title>
<g id="a_Node000003"><a xlink:href="class_animation.html" target="_top" xlink:title="Represents a texture&#45;based animation made of one or more frames.">
<polygon fill="white" stroke="#666666" points="143.88,-88 84.38,-88 84.38,-68 143.88,-68 143.88,-88"/>
<text xml:space="preserve" text-anchor="middle" x="114.12" y="-74.5" font-family="Helvetica,sans-Serif" font-size="10.00">Animation</text>
</a>
</g>
</g>
<!-- Node3&#45;&gt;Node1 -->
<g id="edge2_Node000001_Node000003" class="edge">
<title>Node3&#45;&gt;Node1</title>
<g id="a_edge2_Node000001_Node000003"><a xlink:title=" ">
<path fill="none" stroke="#9a32cd" stroke-dasharray="5,2" d="M102.18,-57.78C94.56,-45.51 85.01,-30.14 78.99,-20.44"/>
<polygon fill="#9a32cd" stroke="#9a32cd" points="99.2,-59.61 107.45,-66.26 105.15,-55.92 99.2,-59.61"/>
</a>
</g>
<text xml:space="preserve" text-anchor="middle" x="119.8" y="-40.5" font-family="Helvetica,sans-Serif" font-size="10.00" fill="grey"> animation</text>
</g>
</g>
</svg>
