<?xml version="1.0" encoding="UTF-8" standalone="no"?>
<!DOCTYPE svg PUBLIC "-//W3C//DTD SVG 1.1//EN"
 "http://www.w3.org/Graphics/SVG/1.1/DTD/svg11.dtd">
<!-- Generated by graphviz version 13.1.2 (20250808.2320)
 -->
<!-- Title: Component Pages: 1 -->
<svg width="208pt" height="370pt"
 viewBox="0.00 0.00 208.00 370.00" xmlns="http://www.w3.org/2000/svg" xmlns:xlink="http://www.w3.org/1999/xlink">

<svg id="main" version="1.1" xmlns="http://www.w3.org/2000/svg" xmlns:xlink="http://www.w3.org/1999/xlink" xml:space="preserve" onload="init(evt)">
<style type="text/css"><![CDATA[
.node, .edge {opacity: 0.7;}
.node.selected, .edge.selected {opacity: 1;}
.edge:hover path { stroke: red; }
.edge:hover polygon { stroke: red; fill: red; }
]]></style>
<script type="application/ecmascript" xlink:href="svg.min.js"/>
<svg id="graph" class="graph">
<g id="graph0" class="graph" transform="scale(1 1) rotate(0) translate(4 366)">
<title>Component</title>
<!-- Node1 -->
<g id="Node000001" class="node">
<title>Node1</title>
<g id="a_Node000001"><a xlink:title="Abstract base component.">
<polygon fill="#999999" stroke="#666666" points="66.25,-191 0,-191 0,-171 66.25,-171 66.25,-191"/>
<text xml:space="preserve" text-anchor="middle" x="33.12" y="-177.5" font-family="Helvetica,sans-Serif" font-size="10.00">Component</text>
</a>
</g>
</g>
<!-- Node2 -->
<g id="Node000002" class="node">
<title>Node2</title>
<g id="a_Node000002"><a xlink:href="struct_c_animation.html" target="_top" xlink:title="Animation component to make an animated entity.">
<polygon fill="white" stroke="#666666" points="184.62,-362 117.62,-362 117.62,-342 184.62,-342 184.62,-362"/>
<text xml:space="preserve" text-anchor="middle" x="151.12" y="-348.5" font-family="Helvetica,sans-Serif" font-size="10.00">CAnimation</text>
</a>
</g>
</g>
<!-- Node1&#45;&gt;Node2 -->
<g id="edge1_Node000001_Node000002" class="edge">
<title>Node1&#45;&gt;Node2</title>
<g id="a_edge1_Node000001_Node000002"><a xlink:title=" ">
<path fill="none" stroke="#63b8ff" d="M38.3,-202.28C45.7,-234.68 64.09,-296.47 102.25,-333 106.51,-337.08 111.76,-340.32 117.2,-342.88"/>
<polygon fill="#63b8ff" stroke="#63b8ff" points="41.81,-201.95 36.3,-192.9 34.96,-203.41 41.81,-201.95"/>
</a>
</g>
</g>
<!-- Node3 -->
<g id="Node000003" class="node">
<title>Node3</title>
<g id="a_Node000003"><a xlink:href="struct_c_bounding_box.html" target="_top" xlink:title="Bounding box component to know if entities collide.">
<polygon fill="white" stroke="#666666" points="191.75,-324 110.5,-324 110.5,-304 191.75,-304 191.75,-324"/>
<text xml:space="preserve" text-anchor="middle" x="151.12" y="-310.5" font-family="Helvetica,sans-Serif" font-size="10.00">CBoundingBox</text>
</a>
</g>
</g>
<!-- Node1&#45;&gt;Node3 -->
<g id="edge2_Node000001_Node000003" class="edge">
<title>Node1&#45;&gt;Node3</title>
<g id="a_edge2_Node000001_Node000003"><a xlink:title=" ">
<path fill="none" stroke="#63b8ff" d="M41.75,-201.94C51.93,-227.2 72.23,-269.46 102.25,-295 106.2,-298.36 110.82,-301.17 115.6,-303.52"/>
<polygon fill="#63b8ff" stroke="#63b8ff" points="45.08,-200.84 38.22,-192.76 38.54,-203.35 45.08,-200.84"/>
</a>
</g>
</g>
<!-- Node4 -->
<g id="Node000004" class="node">
<title>Node4</title>
<g id="a_Node000004"><a xlink:href="struct_c_bounding_convex.html" target="_top" xlink:title="Convex Hitbox component.">
<polygon fill="white" stroke="#666666" points="200,-286 102.25,-286 102.25,-266 200,-266 200,-286"/>
<text xml:space="preserve" text-anchor="middle" x="151.12" y="-272.5" font-family="Helvetica,sans-Serif" font-size="10.00">CBoundingConvex</text>
</a>
</g>
</g>
<!-- Node1&#45;&gt;Node4 -->
<g id="edge3_Node000001_Node000004" class="edge">
<title>Node1&#45;&gt;Node4</title>
<g id="a_edge3_Node000001_Node000004"><a xlink:title=" ">
<path fill="none" stroke="#63b8ff" d="M47.54,-200.49C60.03,-217.38 80.02,-241.5 102.25,-257 107.02,-260.32 112.45,-263.19 117.9,-265.6"/>
<polygon fill="#63b8ff" stroke="#63b8ff" points="50.65,-198.81 41.98,-192.72 44.96,-202.89 50.65,-198.81"/>
</a>
</g>
</g>
<!-- Node5 -->
<g id="Node000005" class="node">
<title>Node5</title>
<g id="a_Node000005"><a xlink:href="struct_c_gravity.html" target="_top" xlink:title="Gravity component to apply a downward force on an entity.">
<polygon fill="white" stroke="#666666" points="178.62,-248 123.62,-248 123.62,-228 178.62,-228 178.62,-248"/>
<text xml:space="preserve" text-anchor="middle" x="151.12" y="-234.5" font-family="Helvetica,sans-Serif" font-size="10.00">CGravity</text>
</a>
</g>
</g>
<!-- Node1&#45;&gt;Node5 -->
<g id="edge4_Node000001_Node000005" class="edge">
<title>Node1&#45;&gt;Node5</title>
<g id="a_edge4_Node000001_Node000005"><a xlink:title=" ">
<path fill="none" stroke="#63b8ff" d="M61.12,-197.13C73.46,-204.22 88.39,-212.42 102.25,-219 108.95,-222.18 116.34,-225.3 123.27,-228.06"/>
<polygon fill="#63b8ff" stroke="#63b8ff" points="63.15,-194.26 52.74,-192.25 59.62,-200.31 63.15,-194.26"/>
</a>
</g>
</g>
<!-- Node6 -->
<g id="Node000006" class="node">
<title>Node6</title>
<g id="a_Node000006"><a xlink:href="struct_c_input.html" target="_top" xlink:title="Input component to handle user inputs.">
<polygon fill="white" stroke="#666666" points="173.75,-210 128.5,-210 128.5,-190 173.75,-190 173.75,-210"/>
<text xml:space="preserve" text-anchor="middle" x="151.12" y="-196.5" font-family="Helvetica,sans-Serif" font-size="10.00">CInput</text>
</a>
</g>
</g>
<!-- Node1&#45;&gt;Node6 -->
<g id="edge5_Node000001_Node000006" class="edge">
<title>Node1&#45;&gt;Node6</title>
<g id="a_edge5_Node000001_Node000006"><a xlink:title=" ">
<path fill="none" stroke="#63b8ff" d="M77.69,-188.14C94.84,-190.95 113.8,-194.05 128.01,-196.38"/>
<polygon fill="#63b8ff" stroke="#63b8ff" points="78.67,-184.75 68.24,-186.59 77.54,-191.66 78.67,-184.75"/>
</a>
</g>
</g>
<!-- Node7 -->
<g id="Node000007" class="node">
<title>Node7</title>
<g id="a_Node000007"><a xlink:href="struct_c_jump.html" target="_top" xlink:title="Jump component to handle variable jump height.">
<polygon fill="white" stroke="#666666" points="174.88,-172 127.38,-172 127.38,-152 174.88,-152 174.88,-172"/>
<text xml:space="preserve" text-anchor="middle" x="151.12" y="-158.5" font-family="Helvetica,sans-Serif" font-size="10.00">CJump</text>
</a>
</g>
</g>
<!-- Node1&#45;&gt;Node7 -->
<g id="edge6_Node000001_Node000007" class="edge">
<title>Node1&#45;&gt;Node7</title>
<g id="a_edge6_Node000001_Node000007"><a xlink:title=" ">
<path fill="none" stroke="#63b8ff" d="M77.94,-173.82C94.6,-171.1 112.92,-168.09 126.93,-165.8"/>
<polygon fill="#63b8ff" stroke="#63b8ff" points="77.54,-170.34 68.24,-175.41 78.67,-177.25 77.54,-170.34"/>
</a>
</g>
</g>
<!-- Node8 -->
<g id="Node000008" class="node">
<title>Node8</title>
<g id="a_Node000008"><a xlink:href="struct_c_life_span.html" target="_top" xlink:title="Lifespan component to know when to destroy an entity.">
<polygon fill="white" stroke="#666666" points="182,-134 120.25,-134 120.25,-114 182,-114 182,-134"/>
<text xml:space="preserve" text-anchor="middle" x="151.12" y="-120.5" font-family="Helvetica,sans-Serif" font-size="10.00">CLifeSpan</text>
</a>
</g>
</g>
<!-- Node1&#45;&gt;Node8 -->
<g id="edge7_Node000001_Node000008" class="edge">
<title>Node1&#45;&gt;Node8</title>
<g id="a_edge7_Node000001_Node000008"><a xlink:title=" ">
<path fill="none" stroke="#63b8ff" d="M61.12,-164.87C73.46,-157.78 88.39,-149.58 102.25,-143 108.55,-140.01 115.46,-137.08 122.01,-134.44"/>
<polygon fill="#63b8ff" stroke="#63b8ff" points="59.62,-161.69 52.74,-169.75 63.15,-167.74 59.62,-161.69"/>
</a>
</g>
</g>
<!-- Node9 -->
<g id="Node000009" class="node">
<title>Node9</title>
<g id="a_Node000009"><a xlink:href="struct_c_sound.html" target="_top" xlink:title="Sound component to play a sound">
<polygon fill="white" stroke="#666666" points="176.75,-96 125.5,-96 125.5,-76 176.75,-76 176.75,-96"/>
<text xml:space="preserve" text-anchor="middle" x="151.12" y="-82.5" font-family="Helvetica,sans-Serif" font-size="10.00">CSound</text>
</a>
</g>
</g>
<!-- Node1&#45;&gt;Node9 -->
<g id="edge8_Node000001_Node000009" class="edge">
<title>Node1&#45;&gt;Node9</title>
<g id="a_edge8_Node000001_Node000009"><a xlink:title=" ">
<path fill="none" stroke="#63b8ff" d="M47.54,-161.51C60.03,-144.62 80.02,-120.5 102.25,-105 109.15,-100.19 117.43,-96.35 125.16,-93.42"/>
<polygon fill="#63b8ff" stroke="#63b8ff" points="44.96,-159.11 41.98,-169.28 50.65,-163.19 44.96,-159.11"/>
</a>
</g>
</g>
<!-- Node10 -->
<g id="Node000010" class="node">
<title>Node10</title>
<g id="a_Node000010"><a xlink:href="struct_c_state.html" target="_top" xlink:title="State component to know the current state of an entity.">
<polygon fill="white" stroke="#666666" points="174.5,-58 127.75,-58 127.75,-38 174.5,-38 174.5,-58"/>
<text xml:space="preserve" text-anchor="middle" x="151.12" y="-44.5" font-family="Helvetica,sans-Serif" font-size="10.00">CState</text>
</a>
</g>
</g>
<!-- Node1&#45;&gt;Node10 -->
<g id="edge9_Node000001_Node000010" class="edge">
<title>Node1&#45;&gt;Node10</title>
<g id="a_edge9_Node000001_Node000010"><a xlink:title=" ">
<path fill="none" stroke="#63b8ff" d="M41.75,-160.06C51.93,-134.8 72.23,-92.54 102.25,-67 109.47,-60.86 118.92,-56.54 127.51,-53.6"/>
<polygon fill="#63b8ff" stroke="#63b8ff" points="38.54,-158.65 38.22,-169.24 45.08,-161.16 38.54,-158.65"/>
</a>
</g>
</g>
<!-- Node11 -->
<g id="Node000011" class="node">
<title>Node11</title>
<g id="a_Node000011"><a xlink:href="struct_c_transform.html" target="_top" xlink:title="Transform component for position, velocity, etc.">
<polygon fill="white" stroke="#666666" points="185,-20 117.25,-20 117.25,0 185,0 185,-20"/>
<text xml:space="preserve" text-anchor="middle" x="151.12" y="-6.5" font-family="Helvetica,sans-Serif" font-size="10.00">CTransform</text>
</a>
</g>
</g>
<!-- Node1&#45;&gt;Node11 -->
<g id="edge10_Node000001_Node000011" class="edge">
<title>Node1&#45;&gt;Node11</title>
<g id="a_edge10_Node000001_Node000011"><a xlink:title=" ">
<path fill="none" stroke="#63b8ff" d="M38.3,-159.72C45.7,-127.32 64.09,-65.53 102.25,-29 106.51,-24.92 111.76,-21.68 117.2,-19.12"/>
<polygon fill="#63b8ff" stroke="#63b8ff" points="34.96,-158.59 36.3,-169.1 41.81,-160.05 34.96,-158.59"/>
</a>
</g>
</g>
</g>
</svg>
</svg>

<style type='text/css'>
<![CDATA[
[data-mouse-over-selected='false'] { opacity: 0.7; }
[data-mouse-over-selected='true']  { opacity: 1.0; }
]]>
</style>
<script type="application/ecmascript"><![CDATA[
document.addEventListener('DOMContentLoaded', (event) => {
  highlightEdges();
  highlightAdjacentNodes();
});
]]></script>
</svg>
