<?xml version="1.0" encoding="UTF-8" standalone="no"?>
<!DOCTYPE svg PUBLIC "-//W3C//DTD SVG 1.1//EN"
 "http://www.w3.org/Graphics/SVG/1.1/DTD/svg11.dtd">
<!-- Generated by graphviz version 13.1.2 (20250808.2320)
 -->
<!-- Title: Component Pages: 1 -->
<svg width="675pt" height="84pt"
 viewBox="0.00 0.00 675.00 84.00" xmlns="http://www.w3.org/2000/svg" xmlns:xlink="http://www.w3.org/1999/xlink">
<g id="graph0" class="graph" transform="scale(1 1) rotate(0) translate(4 80)">
<title>Component</title>
<!-- Node1 -->
<g id="Node000001" class="node">
<title>Node1</title>
<g id="a_Node000001"><a xlink:title="Abstract base component.">
<polygon fill="#999999" stroke="#666666" points="376.62,-76 310.38,-76 310.38,-56 376.62,-56 376.62,-76"/>
<text xml:space="preserve" text-anchor="middle" x="343.5" y="-62.5" font-family="Helvetica,sans-Serif" font-size="10.00">Component</text>
</a>
</g>
</g>
<!-- Node2 -->
<g id="Node000002" class="node">
<title>Node2</title>
<g id="a_Node000002"><a xlink:href="struct_c_animation.html" target="_top" xlink:title="Animation component to make an animated entity.">
<polygon fill="white" stroke="#666666" points="67,-20 0,-20 0,0 67,0 67,-20"/>
<text xml:space="preserve" text-anchor="middle" x="33.5" y="-6.5" font-family="Helvetica,sans-Serif" font-size="10.00">CAnimation</text>
</a>
</g>
</g>
<!-- Node1&#45;&gt;Node2 -->
<g id="edge1_Node000001_Node000002" class="edge">
<title>Node1&#45;&gt;Node2</title>
<g id="a_edge1_Node000001_Node000002"><a xlink:title=" ">
<path fill="none" stroke="#63b8ff" d="M298.9,-58.14C245.63,-49.79 153.86,-34.97 75.5,-20 72.86,-19.5 70.14,-18.96 67.4,-18.4"/>
<polygon fill="#63b8ff" stroke="#63b8ff" points="298.07,-61.55 308.49,-59.63 299.15,-54.63 298.07,-61.55"/>
</a>
</g>
</g>
<!-- Node3 -->
<g id="Node000003" class="node">
<title>Node3</title>
<g id="a_Node000003"><a xlink:href="struct_c_bounding_box.html" target="_top" xlink:title="Bounding box component to know if entities collide.">
<polygon fill="white" stroke="#666666" points="166.12,-20 84.88,-20 84.88,0 166.12,0 166.12,-20"/>
<text xml:space="preserve" text-anchor="middle" x="125.5" y="-6.5" font-family="Helvetica,sans-Serif" font-size="10.00">CBoundingBox</text>
</a>
</g>
</g>
<!-- Node1&#45;&gt;Node3 -->
<g id="edge2_Node000001_Node000003" class="edge">
<title>Node1&#45;&gt;Node3</title>
<g id="a_edge2_Node000001_Node000003"><a xlink:title=" ">
<path fill="none" stroke="#63b8ff" d="M298.92,-53.96C259.06,-44.08 201.25,-29.76 163.52,-20.42"/>
<polygon fill="#63b8ff" stroke="#63b8ff" points="297.9,-57.31 308.45,-56.32 299.58,-50.52 297.9,-57.31"/>
</a>
</g>
</g>
<!-- Node4 -->
<g id="Node000004" class="node">
<title>Node4</title>
<g id="a_Node000004"><a xlink:href="struct_c_gravity.html" target="_top" xlink:title="Gravity component to apply a downward force on an entity.">
<polygon fill="white" stroke="#666666" points="239,-20 184,-20 184,0 239,0 239,-20"/>
<text xml:space="preserve" text-anchor="middle" x="211.5" y="-6.5" font-family="Helvetica,sans-Serif" font-size="10.00">CGravity</text>
</a>
</g>
</g>
<!-- Node1&#45;&gt;Node4 -->
<g id="edge3_Node000001_Node000004" class="edge">
<title>Node1&#45;&gt;Node4</title>
<g id="a_edge3_Node000001_Node000004"><a xlink:title=" ">
<path fill="none" stroke="#63b8ff" d="M309.94,-51.27C286.4,-41.64 255.52,-29.01 234.67,-20.48"/>
<polygon fill="#63b8ff" stroke="#63b8ff" points="308.53,-54.47 319.11,-55.02 311.18,-48 308.53,-54.47"/>
</a>
</g>
</g>
<!-- Node5 -->
<g id="Node000005" class="node">
<title>Node5</title>
<g id="a_Node000005"><a xlink:href="struct_c_input.html" target="_top" xlink:title="Input component to handle user inputs.">
<polygon fill="white" stroke="#666666" points="302.12,-20 256.88,-20 256.88,0 302.12,0 302.12,-20"/>
<text xml:space="preserve" text-anchor="middle" x="279.5" y="-6.5" font-family="Helvetica,sans-Serif" font-size="10.00">CInput</text>
</a>
</g>
</g>
<!-- Node1&#45;&gt;Node5 -->
<g id="edge4_Node000001_Node000005" class="edge">
<title>Node1&#45;&gt;Node5</title>
<g id="a_edge4_Node000001_Node000005"><a xlink:title=" ">
<path fill="none" stroke="#63b8ff" d="M323.83,-48.4C312.88,-39.17 299.66,-28.01 290.52,-20.3"/>
<polygon fill="#63b8ff" stroke="#63b8ff" points="321.3,-50.84 331.2,-54.62 325.81,-45.49 321.3,-50.84"/>
</a>
</g>
</g>
<!-- Node6 -->
<g id="Node000006" class="node">
<title>Node6</title>
<g id="a_Node000006"><a xlink:href="struct_c_jump.html" target="_top" xlink:title="Jump component to handle variable jump height.">
<polygon fill="white" stroke="#666666" points="367.25,-20 319.75,-20 319.75,0 367.25,0 367.25,-20"/>
<text xml:space="preserve" text-anchor="middle" x="343.5" y="-6.5" font-family="Helvetica,sans-Serif" font-size="10.00">CJump</text>
</a>
</g>
</g>
<!-- Node1&#45;&gt;Node6 -->
<g id="edge5_Node000001_Node000006" class="edge">
<title>Node1&#45;&gt;Node6</title>
<g id="a_edge5_Node000001_Node000006"><a xlink:title=" ">
<path fill="none" stroke="#63b8ff" d="M343.5,-44.13C343.5,-35.9 343.5,-26.85 343.5,-20.3"/>
<polygon fill="#63b8ff" stroke="#63b8ff" points="340,-44.08 343.5,-54.08 347,-44.08 340,-44.08"/>
</a>
</g>
</g>
<!-- Node7 -->
<g id="Node000007" class="node">
<title>Node7</title>
<g id="a_Node000007"><a xlink:href="struct_c_life_span.html" target="_top" xlink:title="Lifespan component to know when to destroy an entity.">
<polygon fill="white" stroke="#666666" points="447.38,-20 385.62,-20 385.62,0 447.38,0 447.38,-20"/>
<text xml:space="preserve" text-anchor="middle" x="416.5" y="-6.5" font-family="Helvetica,sans-Serif" font-size="10.00">CLifeSpan</text>
</a>
</g>
</g>
<!-- Node1&#45;&gt;Node7 -->
<g id="edge6_Node000001_Node000007" class="edge">
<title>Node1&#45;&gt;Node7</title>
<g id="a_edge6_Node000001_Node000007"><a xlink:title=" ">
<path fill="none" stroke="#63b8ff" d="M365.19,-48.95C377.82,-39.61 393.3,-28.16 403.93,-20.3"/>
<polygon fill="#63b8ff" stroke="#63b8ff" points="363.39,-45.93 357.43,-54.69 367.55,-51.56 363.39,-45.93"/>
</a>
</g>
</g>
<!-- Node8 -->
<g id="Node000008" class="node">
<title>Node8</title>
<g id="a_Node000008"><a xlink:href="struct_c_sound.html" target="_top" xlink:title="Sound component to play a sound">
<polygon fill="white" stroke="#666666" points="517.12,-20 465.88,-20 465.88,0 517.12,0 517.12,-20"/>
<text xml:space="preserve" text-anchor="middle" x="491.5" y="-6.5" font-family="Helvetica,sans-Serif" font-size="10.00">CSound</text>
</a>
</g>
</g>
<!-- Node1&#45;&gt;Node8 -->
<g id="edge7_Node000001_Node000008" class="edge">
<title>Node1&#45;&gt;Node8</title>
<g id="a_edge7_Node000001_Node000008"><a xlink:title=" ">
<path fill="none" stroke="#63b8ff" d="M380.06,-51.66C406.58,-41.98 441.83,-29.12 465.52,-20.48"/>
<polygon fill="#63b8ff" stroke="#63b8ff" points="378.9,-48.36 370.7,-55.08 381.3,-54.94 378.9,-48.36"/>
</a>
</g>
</g>
<!-- Node9 -->
<g id="Node000009" class="node">
<title>Node9</title>
<g id="a_Node000009"><a xlink:href="struct_c_state.html" target="_top" xlink:title="State component to know the current state of an entity.">
<polygon fill="white" stroke="#666666" points="581.88,-20 535.12,-20 535.12,0 581.88,0 581.88,-20"/>
<text xml:space="preserve" text-anchor="middle" x="558.5" y="-6.5" font-family="Helvetica,sans-Serif" font-size="10.00">CState</text>
</a>
</g>
</g>
<!-- Node1&#45;&gt;Node9 -->
<g id="edge8_Node000001_Node000009" class="edge">
<title>Node1&#45;&gt;Node9</title>
<g id="a_edge8_Node000001_Node000009"><a xlink:title=" ">
<path fill="none" stroke="#63b8ff" d="M387.92,-54.51C425.04,-45.64 479.34,-32.43 526.5,-20 529.18,-19.29 531.98,-18.54 534.76,-17.77"/>
<polygon fill="#63b8ff" stroke="#63b8ff" points="387.37,-51.05 378.45,-56.77 388.99,-57.85 387.37,-51.05"/>
</a>
</g>
</g>
<!-- Node10 -->
<g id="Node000010" class="node">
<title>Node10</title>
<g id="a_Node000010"><a xlink:href="struct_c_transform.html" target="_top" xlink:title="Transform component for position, velocity, etc.">
<polygon fill="white" stroke="#666666" points="667.38,-20 599.62,-20 599.62,0 667.38,0 667.38,-20"/>
<text xml:space="preserve" text-anchor="middle" x="633.5" y="-6.5" font-family="Helvetica,sans-Serif" font-size="10.00">CTransform</text>
</a>
</g>
</g>
<!-- Node1&#45;&gt;Node10 -->
<g id="edge9_Node000001_Node000010" class="edge">
<title>Node1&#45;&gt;Node10</title>
<g id="a_edge9_Node000001_Node000010"><a xlink:title=" ">
<path fill="none" stroke="#63b8ff" d="M388.38,-57.19C437.92,-48.48 520.01,-33.8 590.5,-20 593.34,-19.44 596.29,-18.85 599.25,-18.25"/>
<polygon fill="#63b8ff" stroke="#63b8ff" points="387.85,-53.73 378.6,-58.9 389.06,-60.62 387.85,-53.73"/>
</a>
</g>
</g>
</g>
</svg>
